<?xml version="1.0" encoding="UTF-8" standalone="no"?><!DOCTYPE svg PUBLIC "-//W3C//DTD SVG 1.1//EN" "http://www.w3.org/Graphics/SVG/1.1/DTD/svg11.dtd"><svg width="100%" height="100%" viewBox="0 0 600 600" version="1.1" xmlns="http://www.w3.org/2000/svg" xmlns:xlink="http://www.w3.org/1999/xlink" xml:space="preserve" xmlns:serif="http://www.serif.com/" style="fill-rule:evenodd;clip-rule:evenodd;stroke-linejoin:round;stroke-miterlimit:2;"><g id="Layer-1" serif:id="Layer 1"><path d="M600,60.264c-0,-33.261 -27.003,-60.264 -60.264,-60.264l-479.472,0c-33.261,0 -60.264,27.003 -60.264,60.264l-0,479.472c-0,33.261 27.003,60.264 60.264,60.264l479.472,-0c33.261,-0 60.264,-27.003 60.264,-60.264l-0,-479.472Z" style="fill:#f04d52;"/><path d="M202.309,348.238c18.401,-0 32.801,-14.135 32.801,-33.604c-0,-19.203 -13.866,-33.604 -32.801,-33.604c-18.405,-0 -32.806,14.401 -32.806,33.604c-0,19.469 14.401,33.604 32.806,33.604m32.801,23.203l-0,-9.068c-0.797,0.801 -2.133,1.6 -4,2.934c-3.198,2.134 -16.267,7.468 -28.801,7.468c-16.539,-0 -30.405,-5.601 -41.607,-16.803c-11.203,-11.468 -16.802,-25.07 -16.802,-41.338c-0,-16.003 5.599,-29.604 16.802,-41.071c11.469,-11.469 25.336,-17.069 41.607,-17.069c15.732,-0 29.603,5.333 41.069,15.735c11.47,10.4 17.336,24.803 17.336,43.205l-0,56.007l-25.604,-0Z" style="fill:#fff;fill-rule:nonzero;"/><rect x="273.432" y="193.133" width="25.603" height="178.688" style="fill:#fff;"/><rect x="313.284" y="193.133" width="25.603" height="178.688" style="fill:#fff;"/><path d="M424.346,257.943l25.604,-0l-0,61.341c-0,17.869 -4.802,31.472 -14.402,40.271c-9.602,8.802 -21.072,13.337 -34.137,13.337c-13.069,-0 -24.539,-4.267 -34.137,-13.069c-9.337,-8.802 -14.138,-22.402 -14.138,-40.539l-0,-61.341l25.603,-0l-0,61.341c-0,19.203 8.801,29.071 22.672,29.071c13.867,-0 22.935,-10.136 22.935,-29.071l-0,-61.341Z" style="fill:#fff;fill-rule:nonzero;"/><path d="M534.168,257.943l25.604,-0l0,61.341c0,17.869 -4.802,31.472 -14.401,40.271c-9.603,8.802 -21.073,13.337 -34.138,13.337c-13.069,-0 -24.539,-4.267 -34.137,-13.069c-9.336,-8.802 -14.138,-22.402 -14.138,-40.539l0,-61.341l25.603,-0l0,61.341c0,19.203 8.801,29.071 22.672,29.071c13.867,-0 22.935,-10.136 22.935,-29.071l0,-61.341Z" style="fill:#fff;fill-rule:nonzero;"/><path d="M78.827,358.803l-32.539,-100.813l26.405,0l22.401,71.742l22.672,-71.742l26.134,0l-32.538,100.813c-2.932,8.801 -6.932,14.136 -16.268,14.136c-7.733,0 -13.069,-4.802 -16.267,-14.136" style="fill:#fff;fill-rule:nonzero;"/></g></svg>