<?xml version="1.0" encoding="UTF-8" standalone="no"?><!DOCTYPE svg PUBLIC "-//W3C//DTD SVG 1.1//EN" "http://www.w3.org/Graphics/SVG/1.1/DTD/svg11.dtd"><svg width="100%" height="100%" viewBox="0 0 1644 1680" version="1.1" xmlns="http://www.w3.org/2000/svg" xmlns:xlink="http://www.w3.org/1999/xlink" xml:space="preserve" xmlns:serif="http://www.serif.com/" style="fill-rule:evenodd;clip-rule:evenodd;stroke-linejoin:round;stroke-miterlimit:1.41421;"><path d="M821.646,0c376.076,0 693.479,258.78 790.875,611.46c20.045,72.587 30.772,149.152 30.772,228.258c0,463.453 -368.168,839.717 -821.647,839.717c-453.479,0 -821.646,-376.264 -821.646,-839.717c0,-463.453 368.167,-839.718 821.646,-839.718Zm-172.619,1379.31c7.266,0 11.968,7.8 8.471,14.16c-16.32,29.706 -47.888,49.84 -84.172,49.84c-36.284,0 -67.852,-20.134 -84.17,-49.84c-3.499,-6.36 1.203,-14.16 8.469,-14.16l151.402,0Zm37.709,-15.587c25.927,-0.013 46.92,-19.195 46.92,-42.853c0,-23.667 -21.008,-42.867 -46.92,-42.867l-218.975,0c-25.912,0 -46.919,19.2 -46.919,42.867c0,23.666 21.007,42.853 46.919,42.853l218.975,0Zm68.448,-334.907c0.879,0.159 7.978,3.28 15.424,9.715c11.404,9.853 23.622,27.475 15.569,54.127c-13.826,45.755 -57.4,42.307 -59.093,42.026c-230.981,-38.346 -384.491,-233.41 -383.595,-470.4c0.997,-263.709 220.334,-476.982 489.499,-475.965c269.165,1.018 486.884,215.942 485.887,479.652c-0.702,185.845 -110.806,385.867 -284.826,445.758l156.855,126.042c25.184,26.313 24.747,67.604 -0.958,92.207c-25.697,24.595 -66.935,23.219 -92.146,-3.094c0,0 -104.554,-98.218 -188.869,-176.764c-28.107,-26.184 -22.318,-87.217 50.811,-113.209c128.916,-45.821 241.387,-191.308 242.069,-371.617c0.757,-200.257 -163.383,-363.462 -366.314,-364.229c-202.931,-0.767 -368.3,161.193 -369.057,361.449c-0.674,178.211 117.114,333.143 288.744,364.302Zm-50.349,233.441c16.491,-0.023 29.831,-19.201 29.831,-42.854c0,-23.666 -13.356,-42.853 -29.831,-42.853l-258.561,0c-16.475,0 -29.831,19.187 -29.831,42.853c0,23.667 13.356,42.854 29.831,42.854l258.561,0Zm13.378,-104.855c2.927,-0.026 3.951,-3.871 1.427,-5.333c0,0 -55.018,-9.809 -109.025,-30.414c-31.277,-11.933 -59.797,-28.998 -83.368,-45.955c-5.242,-3.772 -42.454,-32.978 -56.577,-47.959c-32.968,-34.972 -45.138,-53.559 -49.329,-59.644c-0.533,-0.774 -0.868,-1.023 -1.07,-0.963c-0.291,0.087 -0.578,0.395 -0.567,1.055c0.03,1.744 0.877,143.176 0.877,143.176c0,23.667 8.272,46.037 31.939,46.037l265.693,0Z" style="fill:#246c93;"/></svg>