<?xml version="1.0" encoding="UTF-8" standalone="no"?><!DOCTYPE svg PUBLIC "-//W3C//DTD SVG 1.1//EN" "http://www.w3.org/Graphics/SVG/1.1/DTD/svg11.dtd"><svg width="100%" height="100%" viewBox="0 0 45 55" version="1.1" xmlns="http://www.w3.org/2000/svg" xmlns:xlink="http://www.w3.org/1999/xlink" xml:space="preserve" xmlns:serif="http://www.serif.com/" style="fill-rule:evenodd;clip-rule:evenodd;stroke-linejoin:round;stroke-miterlimit:2;"><g id="Group_586"><path id="Path_241" d="M34.071,30.365c-0.241,-0.792 -27.354,-1.361 -27.3,-0.746c0.186,2.038 11.218,16.478 13.507,16.526c2.289,0.047 14.333,-14.047 13.793,-15.78Z" style="fill:#092168;fill-rule:nonzero;"/><path id="Path_2411" serif:id="Path_241" d="M21.576,12.025c-1.122,-0.035 -0.576,-0.06 -2.241,-0.074c-4.483,-0.039 -8.725,0.141 -8.686,0.602c0.133,1.527 8.002,12.358 9.632,12.395c1.631,0.037 10.202,-10.52 9.816,-11.819c-0.172,-0.594 -4.19,-0.967 -8.521,-1.104Z" style="fill:#092168;fill-rule:nonzero;"/><path id="Path_2412" serif:id="Path_241" d="M21.559,4.756c0.021,-0.255 -1.076,-0.047 -1.076,-0.047c0.133,1.527 -2.282,32.798 -0.651,32.835c1.63,0.037 1.621,-31.489 1.727,-32.788Z" style="fill:#092168;fill-rule:nonzero;"/></g></svg>