<svg xmlns="http://www.w3.org/2000/svg" width="44.556" height="54.963" viewBox="0 0 44.556 54.963">
  <g id="Group_586" data-name="Group 586" transform="translate(-273.445 -985.037)">
    <path id="Path_1113" data-name="Path 1113" d="M98.129,335.165c-.245-3.4-17.841-27.778-21.575-27.923S52.768,330.234,53.6,333.137c.346,1.237,8.369,2.177,17.789,2.7.361.02,6.819.324,6.819.324C88.475,336.427,98.2,336.191,98.129,335.165Z" transform="translate(371.574 1347.241) rotate(-180)" fill="#f3988c"/>
    <path id="Path_1114" data-name="Path 1114" d="M76.519,321.622c-.126-1.751-9.188-14.305-11.111-14.38s-12.25,11.84-11.822,13.335c.178.637,4.31,1.121,9.161,1.388.186.01,3.512.167,3.512.167C71.547,322.271,76.555,322.15,76.519,321.622Z" transform="translate(360.77 1307.223) rotate(-180)" fill="#f3988c" opacity="0.5"/>
  </g>
</svg>
