<?xml version="1.0" encoding="UTF-8" standalone="no"?><!DOCTYPE svg PUBLIC "-//W3C//DTD SVG 1.1//EN" "http://www.w3.org/Graphics/SVG/1.1/DTD/svg11.dtd"><svg width="100%" height="100%" viewBox="0 0 950 662" version="1.1" xmlns="http://www.w3.org/2000/svg" xmlns:xlink="http://www.w3.org/1999/xlink" xml:space="preserve" xmlns:serif="http://www.serif.com/" style="fill-rule:evenodd;clip-rule:evenodd;stroke-linejoin:round;stroke-miterlimit:2;"><rect x="0" y="0" width="949.427" height="661.712" style="fill:none;"/><g><path d="M171.334,100.374l22.009,-0l-0,-3.587l-17.612,-0l-0,-13.114l13.462,-0l-0,-3.587l-13.462,-0l-0,-12.304l16.701,-0l-0,-3.587l-21.098,-0l0,36.179Z" style="fill:#919191;fill-rule:nonzero;"/><path d="M218.704,109.584l4.194,0l0,-35.672l-4.194,-0l-0,4.245c-1.519,-2.579 -4.253,-4.701 -8.657,-4.701c-7.291,0 -12.346,5.713 -12.346,13.813l0,0.405c0,8.252 5.004,13.155 11.94,13.155c3.848,0 7.544,-2.425 9.063,-5.004l-0,13.759Zm-8.607,-12.241c-4.455,0 -8.05,-3.189 -8.05,-9.871l0,-0.405c0,-6.43 3.139,-10.125 8.405,-10.125c5.164,-0 8.403,3.189 8.403,9.973l0,0.405c0,6.783 -3.847,10.023 -8.758,10.023Z" style="fill:#919191;fill-rule:nonzero;"/><path d="M240.36,100.829c4.254,0 7.19,-2.172 8.405,-4.65l0,4.195l4.195,-0l-0,-26.462l-4.195,-0l0,16.039c0,4.761 -3.544,7.241 -7.291,7.241c-4.152,-0 -6.126,-2.075 -6.126,-6.731l-0,-16.549l-4.194,-0l-0,16.751c-0,7.286 3.941,10.166 9.206,10.166Z" style="fill:#919191;fill-rule:nonzero;"/><path d="M261.569,100.374l4.195,-0l-0,-26.462l-4.195,-0l0,26.462Zm2.022,-31.985c1.516,-0 2.78,-1.264 2.78,-2.78c-0,-1.517 -1.264,-2.781 -2.78,-2.781c-1.517,0 -2.781,1.264 -2.781,2.781c0,1.516 1.264,2.78 2.781,2.78Z" style="fill:#919191;fill-rule:nonzero;"/><path d="M281.001,100.374l5.363,-0l9.512,-26.462l-4.352,-0l-7.741,22.217l-7.842,-22.217l-4.554,-0l9.614,26.462Z" style="fill:#919191;fill-rule:nonzero;"/><path d="M307.771,100.829c3.899,0 6.279,-1.313 8.253,-3.79l0,3.335l4.194,-0l0,-17.456c0,-7.391 -4.599,-9.462 -9.662,-9.462c-5.114,0 -9.919,2.223 -10.475,8.247l4.196,-0c0.405,-3.242 2.431,-4.761 6.076,-4.761c4.051,-0 5.671,1.772 5.671,5.976l0,1.925l-3.797,0c-6.785,0 -13.258,2.071 -13.258,8.192c0,5.42 3.891,7.794 8.802,7.794Zm0.405,-3.334c-3.696,0 -5.013,-1.722 -5.013,-4.456c0,-3.9 3.899,-5.216 9.216,-5.216l3.645,-0l0,3.291c0,4.102 -3.392,6.381 -7.848,6.381Z" style="fill:#919191;fill-rule:nonzero;"/><rect x="328.575" y="61.259" width="4.245" height="39.114" style="fill:#919191;fill-rule:nonzero;"/><path d="M352.257,100.829c5.974,0 10.373,-2.778 11.283,-8.094l-4.195,-0c-0.557,3.089 -2.936,4.608 -7.037,4.608c-5.418,0 -8.303,-3.342 -8.506,-9.369l19.94,0l-0,-1.363c-0,-9.467 -5.764,-13.155 -11.89,-13.155c-7.29,0 -12.396,5.562 -12.396,13.559l0,0.404c0,8.152 5.308,13.41 12.801,13.41Zm-8.303,-16.239c0.709,-4.71 3.595,-7.648 7.898,-7.648c4.354,-0 7.19,2.178 7.594,7.648l-15.492,-0Z" style="fill:#919191;fill-rule:nonzero;"/><path d="M370.176,100.374l4.194,-0l-0,-16.043c-0,-4.758 3.493,-7.237 7.392,-7.237c4.253,-0 6.228,2.075 6.228,6.731l-0,16.549l4.194,-0l-0,-16.246c-0,-7.691 -3.841,-10.672 -9.308,-10.672c-4.354,0 -7.291,2.172 -8.506,4.65l-0,-4.194l-4.194,-0l-0,26.462Z" style="fill:#919191;fill-rule:nonzero;"/><path d="M408.48,100.728c1.721,-0 2.733,-0.253 3.593,-0.556l0,-3.537c-0.911,0.354 -1.923,0.557 -3.239,0.557c-2.125,-0 -3.289,-1.266 -3.289,-3.848l-0,-15.896l6.174,-0l-0,-3.536l-6.174,-0l-0,-6.023l-4.195,0l0,6.023l-3.795,-0l-0,3.536l3.795,-0l0,16.301c0,4.15 2.325,6.979 7.13,6.979Z" style="fill:#919191;fill-rule:nonzero;"/><path d="M438.442,100.829c3.899,0 6.279,-1.313 8.254,-3.79l-0,3.335l4.194,-0l-0,-17.456c-0,-7.391 -4.599,-9.462 -9.663,-9.462c-5.114,0 -9.919,2.223 -10.475,8.247l4.197,-0c0.405,-3.242 2.43,-4.761 6.076,-4.761c4.05,-0 5.671,1.772 5.671,5.976l-0,1.925l-3.798,0c-6.785,0 -13.257,2.071 -13.257,8.192c-0,5.42 3.891,7.794 8.801,7.794Zm0.406,-3.334c-3.697,0 -5.013,-1.722 -5.013,-4.456c-0,-3.9 3.899,-5.216 9.215,-5.216l3.646,-0l-0,3.291c-0,4.102 -3.393,6.381 -7.848,6.381Z" style="fill:#919191;fill-rule:nonzero;"/><path d="M459.145,100.374l4.195,-0l-0,-16.043c-0,-4.758 3.493,-7.237 7.392,-7.237c4.253,-0 6.228,2.075 6.228,6.731l-0,16.549l4.194,-0l-0,-16.246c-0,-7.691 -3.841,-10.672 -9.308,-10.672c-4.355,0 -7.291,2.172 -8.506,4.65l-0,-4.194l-4.195,-0l0,26.462Z" style="fill:#919191;fill-rule:nonzero;"/><path d="M489.409,100.374l4.195,-0l-0,-16.043c-0,-4.758 3.493,-7.237 7.392,-7.237c4.253,-0 6.228,2.075 6.228,6.731l-0,16.549l4.194,-0l-0,-16.246c-0,-7.691 -3.841,-10.672 -9.308,-10.672c-4.355,0 -7.291,2.172 -8.506,4.65l-0,-4.194l-4.195,-0l0,26.462Z" style="fill:#919191;fill-rule:nonzero;"/><path d="M528.627,100.829c4.253,0 7.19,-2.172 8.405,-4.65l0,4.195l4.194,-0l0,-26.462l-4.194,-0l0,16.039c0,4.761 -3.544,7.241 -7.291,7.241c-4.152,-0 -6.126,-2.075 -6.126,-6.731l-0,-16.549l-4.195,-0l0,16.751c0,7.286 3.942,10.166 9.207,10.166Z" style="fill:#919191;fill-rule:nonzero;"/><path d="M556.361,100.829c3.898,0 6.278,-1.313 8.253,-3.79l-0,3.335l4.194,-0l0,-17.456c0,-7.391 -4.599,-9.462 -9.663,-9.462c-5.114,0 -9.919,2.223 -10.475,8.247l4.197,-0c0.405,-3.242 2.43,-4.761 6.076,-4.761c4.051,-0 5.671,1.772 5.671,5.976l-0,1.925l-3.798,0c-6.785,0 -13.257,2.071 -13.257,8.192c-0,5.42 3.891,7.794 8.802,7.794Zm0.405,-3.334c-3.697,0 -5.013,-1.722 -5.013,-4.456c-0,-3.9 3.899,-5.216 9.215,-5.216l3.646,-0l-0,3.291c-0,4.102 -3.393,6.381 -7.848,6.381Z" style="fill:#919191;fill-rule:nonzero;"/><rect x="577.165" y="61.259" width="4.245" height="39.114" style="fill:#919191;fill-rule:nonzero;"/><path d="M611.626,100.829c6.429,0 9.714,-3.233 9.714,-8.042c-0,-5.619 -3.84,-6.834 -9.309,-7.847c-4.861,-0.86 -6.177,-1.822 -6.177,-4.201c-0,-2.278 1.974,-3.797 5.013,-3.797c3.342,-0 4.962,1.265 5.57,4.151l4.044,0c-0.708,-5.717 -4.804,-7.637 -9.564,-7.637c-4.152,0 -8.954,2.526 -8.954,7.435c0,4.606 2.324,6.53 9.207,7.796c4.102,0.759 6.178,1.67 6.178,4.455c0,2.835 -1.772,4.201 -5.773,4.201c-4.253,0 -5.924,-1.974 -6.227,-5.113l-4.093,0c0.253,5.416 4.043,8.599 10.371,8.599Z" style="fill:#919191;fill-rule:nonzero;"/><path d="M634.348,100.829c3.899,0 6.279,-1.313 8.254,-3.79l-0,3.335l4.194,-0l-0,-17.456c-0,-7.391 -4.599,-9.462 -9.663,-9.462c-5.114,0 -9.919,2.223 -10.475,8.247l4.197,-0c0.405,-3.242 2.43,-4.761 6.076,-4.761c4.05,-0 5.671,1.772 5.671,5.976l-0,1.925l-3.798,0c-6.785,0 -13.257,2.071 -13.257,8.192c-0,5.42 3.891,7.794 8.801,7.794Zm0.406,-3.334c-3.697,0 -5.013,-1.722 -5.013,-4.456c-0,-3.9 3.899,-5.216 9.215,-5.216l3.646,-0l-0,3.291c-0,4.102 -3.393,6.381 -7.848,6.381Z" style="fill:#919191;fill-rule:nonzero;"/><path d="M660.92,100.374l5.363,-0l9.512,-26.462l-4.352,-0l-7.741,22.217l-7.842,-22.217l-4.554,-0l9.614,26.462Z" style="fill:#919191;fill-rule:nonzero;"/><path d="M681.419,100.374l4.194,-0l-0,-26.462l-4.194,-0l-0,26.462Zm2.021,-31.985c1.516,-0 2.78,-1.264 2.78,-2.78c0,-1.517 -1.264,-2.781 -2.78,-2.781c-1.517,0 -2.781,1.264 -2.781,2.781c0,1.516 1.264,2.78 2.781,2.78Z" style="fill:#919191;fill-rule:nonzero;"/><path d="M694.223,100.374l4.194,-0l-0,-16.043c-0,-4.758 3.493,-7.237 7.392,-7.237c4.253,-0 6.228,2.075 6.228,6.731l-0,16.549l4.194,-0l0,-16.246c0,-7.691 -3.84,-10.672 -9.308,-10.672c-4.354,0 -7.291,2.172 -8.506,4.65l-0,-4.194l-4.194,-0l-0,26.462Z" style="fill:#919191;fill-rule:nonzero;"/><path d="M735.061,110.04c7.391,-0 12.598,-3.739 12.649,-11.436l-0,-24.692l-4.195,-0l0,4.245c-1.518,-2.579 -4.252,-4.701 -8.657,-4.701c-7.29,0 -12.345,5.966 -12.345,13.155l-0,0.355c-0,7.29 5.105,12.547 12.041,12.547c3.848,0 7.443,-2.425 8.961,-5.004l0,3.842c0,5.67 -3.29,8.153 -8.505,8.153c-4.506,-0 -7.037,-1.571 -7.645,-4.61l-4.296,-0c0.707,4.458 4.144,8.146 11.992,8.146Zm-0.051,-14.012c-4.455,-0 -8.151,-3.443 -8.151,-9.214l-0,-0.405c-0,-5.569 3.139,-9.467 8.404,-9.467c5.164,-0 8.404,3.442 8.404,9.365l-0,0.355c-0,5.923 -3.746,9.366 -8.657,9.366Z" style="fill:#919191;fill-rule:nonzero;"/></g><path d="M548.19,531.544c8.708,0 15.676,-5.88 15.676,-15.548c0,-9.347 -6.008,-15.164 -14.203,-15.164c-4.354,0 -7.492,1.406 -9.349,3.131l0,-13.955l21.124,0l-0,-4.792l-25.724,0l0,24.506l2.045,-0c2.428,-2.753 5.501,-4.418 10.815,-4.418c5.827,0 9.604,4.226 9.604,10.692c0,6.915 -3.842,11.076 -10.052,11.076c-6.979,0 -8.963,-3.457 -9.86,-8.451l-5.304,0c0.639,7.491 5.368,12.923 15.228,12.923Z" style="fill:#4a4a4a;fill-rule:nonzero;"/><path d="M589.47,526.944c-7.618,0 -12.484,-6.017 -12.484,-17.604l0,-2.56c0,-11.267 4.61,-17.668 12.356,-17.668c7.747,0 12.228,6.914 12.228,17.54l0,2.56c0,11.587 -4.097,17.732 -12.1,17.732Zm0,4.6c11.268,0 17.724,-8.953 17.724,-22.268l0,-2.56c0,-13.059 -6.584,-22.076 -17.852,-22.076c-11.203,0 -18.044,8.697 -18.044,22.204l0,2.56c0,13.315 7.225,22.14 18.172,22.14Z" style="fill:#4a4a4a;fill-rule:nonzero;"/><path d="M616.802,530.968l5.56,0l0,-22.332l20.416,22.332l6.72,0l-21.376,-23.548l20.352,-22.268l-6.208,0l-19.904,22.076l0,-22.012l-5.56,0l0,45.752Z" style="fill:#4a4a4a;fill-rule:nonzero;"/><path d="M551.321,594.348c10.24,0 17.536,-5.176 19.136,-15.738l-5.184,0c-1.152,7.426 -6.336,11.202 -13.824,11.202c-9.856,0 -15.744,-7.041 -15.744,-18.692l-0,-0.512c-0,-11.522 6.336,-18.884 15.808,-18.884c7.808,0 11.84,3.585 12.992,10.563l5.504,-0c-0.96,-9.923 -9.024,-14.971 -18.56,-14.971c-12.416,0 -21.496,9.785 -21.496,23.356l-0,0.512c-0,14.083 8.12,23.164 21.368,23.164Z" style="fill:#4a4a4a;fill-rule:nonzero;"/><path d="M587.548,594.348c4.93,0 7.94,-1.66 10.437,-4.792l-0,4.216l5.304,0l-0,-22.074c-0,-9.346 -5.817,-11.966 -12.22,-11.966c-6.467,0 -12.543,2.811 -13.246,10.429l5.306,0c0.513,-4.099 3.074,-6.021 7.684,-6.021c5.123,0 7.172,2.242 7.172,7.558l-0,2.434l-4.803,0c-8.58,0 -16.765,2.619 -16.765,10.36c-0,6.854 4.92,9.856 11.131,9.856Zm0.512,-4.216c-4.674,0 -6.339,-2.177 -6.339,-5.635c-0,-4.932 4.93,-6.597 11.653,-6.597l4.611,0l-0,4.163c-0,5.188 -4.29,8.069 -9.925,8.069Z" style="fill:#4a4a4a;fill-rule:nonzero;"/><path d="M613.729,593.772l5.304,0l-0,-18.368c-0,-8.256 4.288,-10.368 11.008,-10.688l-0,-4.984c-6.016,0.192 -8.896,2.812 -11.008,6.584l-0,-6.008l-5.304,0l-0,33.464Z" style="fill:#4a4a4a;fill-rule:nonzero;"/><path d="M655.137,593.772l5.112,0l-0,-38.528l15.684,38.528l1.728,0l15.172,-38.528l-0,38.528l5.56,0l-0,-45.752l-7.673,0l-13.699,35.64l-14.148,-35.64l-7.736,0l-0,45.752Z" style="fill:#4a4a4a;fill-rule:nonzero;"/><path d="M709.665,593.772l5.304,0l-0,-33.464l-5.304,0l-0,33.464Zm2.556,-40.448c1.918,0 3.516,-1.598 3.516,-3.516c-0,-1.917 -1.598,-3.516 -3.516,-3.516c-1.918,0 -3.516,1.599 -3.516,3.516c-0,1.918 1.598,3.516 3.516,3.516Z" style="fill:#4a4a4a;fill-rule:nonzero;"/><rect x="725.985" y="544.308" width="5.368" height="49.464" style="fill:#4a4a4a;fill-rule:nonzero;"/><path d="M755.933,594.348c7.555,0 13.118,-3.513 14.268,-10.236l-5.304,0c-0.704,3.907 -3.714,5.828 -8.9,5.828c-6.851,0 -10.5,-4.226 -10.756,-11.848l25.216,0l-0,-1.724c-0,-11.971 -7.289,-16.636 -15.036,-16.636c-9.22,0 -15.676,7.035 -15.676,17.147l-0,0.511c-0,10.309 6.712,16.958 16.188,16.958Zm-10.5,-20.536c0.896,-5.956 4.546,-9.672 9.988,-9.672c5.506,0 9.092,2.755 9.604,9.672l-19.592,0Z" style="fill:#4a4a4a;fill-rule:nonzero;"/><path d="M789.277,594.348c8.13,0 12.284,-4.088 12.284,-10.169c-0,-7.107 -4.857,-8.643 -11.772,-9.923c-6.147,-1.089 -7.812,-2.305 -7.812,-5.314c-0,-2.881 2.497,-4.802 6.339,-4.802c4.227,0 6.276,1.601 7.044,5.25l5.115,0c-0.895,-7.23 -6.075,-9.658 -12.095,-9.658c-5.251,0 -11.323,3.195 -11.323,9.402c-0,5.826 2.939,8.259 11.643,9.859c5.187,0.96 7.813,2.113 7.813,5.634c-0,3.585 -2.241,5.313 -7.3,5.313c-5.379,0 -7.492,-2.496 -7.875,-6.466l-5.177,0c0.32,6.85 5.113,10.874 13.116,10.874Z" style="fill:#4a4a4a;fill-rule:nonzero;"/><path d="M535.554,260.572c10.948,-0 17.212,-8.379 17.212,-23.545l0,-2.881c0,-13.189 -5.624,-20.478 -16.444,-20.478c-9.668,-0 -15.804,6.137 -15.804,15.292c0,8.643 6.136,14.972 15.036,14.972c5.25,-0 9.668,-2.364 11.844,-6.073c-0.128,12.157 -4.417,18.177 -11.716,18.177c-5.89,-0 -8.451,-2.754 -9.476,-7.237l-5.368,0c1.214,7.365 6.265,11.773 14.716,11.773Zm0.832,-20.984c-6.21,-0 -10.18,-4.29 -10.18,-10.884c0,-6.467 4.098,-10.692 10.116,-10.692c6.146,-0 10.564,4.161 10.564,11.652c0,5.954 -4.354,9.924 -10.5,9.924Z" style="fill:#4a4a4a;fill-rule:nonzero;"/><path d="M576.962,260.636c9.668,-0 15.804,-6.137 15.804,-15.292c0,-8.387 -5.88,-14.972 -14.971,-14.972c-5.314,-0 -9.604,2.491 -11.781,6.201c0.256,-12.093 5.122,-18.305 12.037,-18.305c5.122,-0 7.427,2.305 8.451,6.532l5.306,0c-1.215,-7.363 -6.266,-11.068 -13.373,-11.068c-10.5,-0 -17.917,8.571 -17.917,25.017l0,1.089c0,11.46 3.963,20.798 16.444,20.798Zm0,-4.344c-6.146,-0 -10.564,-3.97 -10.564,-11.46c0,-5.955 4.354,-10.116 10.5,-10.116c6.211,-0 10.18,4.289 10.18,10.884c0,6.466 -4.097,10.692 -10.116,10.692Z" style="fill:#4a4a4a;fill-rule:nonzero;"/><path d="M608.646,260.06l5.56,-0l0,-45.752l-5.176,-0l-10.624,7.678l0,5.183l10.24,-7.358l0,40.249Z" style="fill:#4a4a4a;fill-rule:nonzero;"/><path d="M533.229,321.611l5.56,0l0,-41.216l13.312,0l0,-4.536l-32.184,0l0,4.536l13.312,0l0,41.216Z" style="fill:#4a4a4a;fill-rule:nonzero;"/><path d="M556.781,321.611l5.304,0l0,-18.368c0,-8.256 4.288,-10.368 11.008,-10.688l0,-4.984c-6.016,0.192 -8.896,2.812 -11.008,6.584l0,-6.008l-5.304,0l0,33.464Z" style="fill:#4a4a4a;fill-rule:nonzero;"/><path d="M593.577,322.187c7.556,0 13.118,-3.513 14.268,-10.236l-5.304,0c-0.704,3.907 -3.713,5.828 -8.9,5.828c-6.85,0 -10.5,-4.227 -10.756,-11.848l25.216,0l0,-1.725c0,-11.971 -7.289,-16.635 -15.036,-16.635c-9.22,0 -15.676,7.034 -15.676,17.146l0,0.511c0,10.31 6.713,16.959 16.188,16.959Zm-10.5,-20.536c0.896,-5.957 4.546,-9.672 9.988,-9.672c5.507,0 9.092,2.754 9.604,9.672l-19.592,0Z" style="fill:#4a4a4a;fill-rule:nonzero;"/><path d="M629.929,322.187c7.556,0 13.118,-3.513 14.268,-10.236l-5.304,0c-0.704,3.907 -3.713,5.828 -8.9,5.828c-6.85,0 -10.5,-4.227 -10.756,-11.848l25.216,0l0,-1.725c0,-11.971 -7.289,-16.635 -15.036,-16.635c-9.22,0 -15.676,7.034 -15.676,17.146l0,0.511c0,10.31 6.713,16.959 16.188,16.959Zm-10.5,-20.536c0.896,-5.957 4.546,-9.672 9.988,-9.672c5.507,0 9.092,2.754 9.604,9.672l-19.592,0Z" style="fill:#4a4a4a;fill-rule:nonzero;"/><path d="M663.273,322.187c8.131,0 12.284,-4.088 12.284,-10.17c0,-7.106 -4.856,-8.642 -11.772,-9.923c-6.147,-1.088 -7.812,-2.304 -7.812,-5.313c0,-2.881 2.497,-4.802 6.34,-4.802c4.226,0 6.275,1.601 7.043,5.25l5.115,-0c-0.895,-7.23 -6.075,-9.658 -12.094,-9.658c-5.251,0 -11.324,3.194 -11.324,9.402c0,5.826 2.939,8.258 11.644,9.859c5.187,0.96 7.812,2.112 7.812,5.634c0,3.585 -2.241,5.313 -7.3,5.313c-5.379,0 -7.492,-2.497 -7.875,-6.466l-5.177,0c0.32,6.85 5.113,10.874 13.116,10.874Z" style="fill:#4a4a4a;fill-rule:nonzero;"/><path d="M528.572,383.415l5.56,0l-0,-18.624l7.427,0c8.708,0 15.997,-3.769 15.997,-13.5l-0,-0.256c-0,-9.538 -7.225,-13.372 -15.997,-13.372l-12.987,0l-0,45.752Zm5.56,-23.032l-0,-18.248l7.811,0c6.211,0 10.053,2.433 10.053,8.9l-0,0.256c-0,5.891 -3.522,9.092 -10.053,9.092l-7.811,0Z" style="fill:#4a4a4a;fill-rule:nonzero;"/><rect x="565.5" y="333.951" width="5.368" height="49.464" style="fill:#4a4a4a;fill-rule:nonzero;"/><path d="M590.135,383.991c4.93,0 7.939,-1.66 10.437,-4.792l-0,4.216l5.304,0l-0,-22.074c-0,-9.346 -5.817,-11.966 -12.22,-11.966c-6.467,0 -12.543,2.811 -13.246,10.429l5.306,0c0.513,-4.099 3.074,-6.021 7.684,-6.021c5.123,0 7.172,2.242 7.172,7.558l-0,2.434l-4.803,0c-8.58,0 -16.765,2.619 -16.765,10.36c-0,6.854 4.92,9.856 11.131,9.856Zm0.512,-4.216c-4.674,0 -6.339,-2.177 -6.339,-5.635c-0,-4.931 4.93,-6.597 11.653,-6.597l4.611,0l-0,4.163c-0,5.188 -4.29,8.069 -9.925,8.069Z" style="fill:#4a4a4a;fill-rule:nonzero;"/><path d="M616.316,383.415l5.304,0l-0,-20.288c-0,-6.016 4.418,-9.152 9.348,-9.152c5.378,0 7.876,2.624 7.876,8.512l-0,20.928l5.304,0l-0,-20.544c-0,-9.726 -4.857,-13.496 -11.771,-13.496c-5.507,0 -9.221,2.748 -10.757,5.88l-0,-5.304l-5.304,0l-0,33.464Z" style="fill:#4a4a4a;fill-rule:nonzero;"/><path d="M664.756,383.863c2.176,0 3.456,-0.319 4.544,-0.702l-0,-4.474c-1.152,0.448 -2.432,0.704 -4.096,0.704c-2.688,0 -4.16,-1.6 -4.16,-4.865l-0,-20.103l7.808,0l-0,-4.472l-7.808,0l-0,-7.616l-5.304,0l-0,7.616l-4.8,0l-0,4.472l4.8,0l-0,20.615c-0,5.248 2.939,8.825 9.016,8.825Z" style="fill:#4a4a4a;fill-rule:nonzero;"/><path d="M691,383.991c7.555,0 13.118,-3.513 14.268,-10.235l-5.304,-0c-0.704,3.906 -3.714,5.827 -8.9,5.827c-6.851,0 -10.5,-4.226 -10.756,-11.848l25.216,0l-0,-1.724c-0,-11.971 -7.289,-16.636 -15.036,-16.636c-9.22,0 -15.676,7.035 -15.676,17.147l-0,0.511c-0,10.309 6.712,16.958 16.188,16.958Zm-10.5,-20.536c0.896,-5.956 4.546,-9.672 9.988,-9.672c5.506,0 9.092,2.755 9.604,9.672l-19.592,0Z" style="fill:#4a4a4a;fill-rule:nonzero;"/><path d="M726.263,383.991c4.866,0 9.54,-3.066 11.461,-6.328l-0,5.752l5.304,0l-0,-49.464l-5.304,0l-0,21.368c-1.921,-3.26 -5.378,-5.944 -10.948,-5.944c-9.22,0 -15.612,7.224 -15.612,17.464l-0,0.512c-0,10.44 6.328,16.64 15.099,16.64Zm0.577,-4.408c-5.635,0 -10.18,-4.033 -10.18,-12.483l-0,-0.513c-0,-8.13 3.969,-12.804 10.628,-12.804c6.53,0 10.627,4.034 10.627,12.612l0,0.513c0,8.578 -4.865,12.675 -11.075,12.675Z" style="fill:#4a4a4a;fill-rule:nonzero;"/><path d="M277.278,257.014c0,39.674 -17.742,75.208 -45.726,99.092c-27.988,-23.879 -45.73,-59.414 -45.73,-99.092c0,-39.679 17.742,-75.213 45.73,-99.094c27.984,23.885 45.726,59.42 45.726,99.094Z" style="fill:#62bda4;fill-rule:nonzero;"/><path d="M368.61,257.014c0,39.674 -17.742,75.208 -45.723,99.092c-27.989,-23.879 -45.731,-59.414 -45.731,-99.092c-0,-39.679 17.742,-75.213 45.731,-99.094c27.981,23.885 45.723,59.42 45.723,99.094Z" style="fill:#62bda4;fill-rule:nonzero;"/><path d="M251.606,275.765c-0.014,-0.376 -0.021,-0.576 -0.021,-0.576c0,0 -0.014,0.2 -0.04,0.576c-0.034,0.375 -0.048,0.926 -0.132,1.621c-0.1,0.694 -0.173,1.538 -0.373,2.492c-0.16,0.958 -0.42,2.024 -0.708,3.18c-0.164,0.573 -0.335,1.17 -0.511,1.788c-0.201,0.61 -0.409,1.24 -0.623,1.888c-0.236,0.64 -0.479,1.297 -0.727,1.968c-0.272,0.662 -0.549,1.339 -0.832,2.026c-0.305,0.679 -0.603,1.372 -0.927,2.065c-0.336,0.688 -0.653,1.392 -1.013,2.085c-0.704,1.392 -1.444,2.792 -2.234,4.166c-2.821,4.978 -6.093,9.675 -8.836,13.297l-1.276,-31.119c0.147,-0.211 0.336,-0.48 0.56,-0.801c0.586,-0.855 1.402,-2.082 2.335,-3.579c1.862,-2.995 4.184,-7.088 6.069,-11.388c0.478,-1.071 0.918,-2.159 1.331,-3.237c0.413,-1.078 0.78,-2.154 1.114,-3.199c0.156,-0.527 0.309,-1.045 0.458,-1.552c0.132,-0.511 0.261,-1.012 0.387,-1.499c0.107,-0.491 0.212,-0.969 0.314,-1.431c0.082,-0.465 0.162,-0.915 0.239,-1.347c0.125,-0.868 0.235,-1.662 0.279,-2.372c0.074,-0.706 0.065,-1.328 0.086,-1.834c0.008,-0.509 -0.022,-0.908 -0.025,-1.179c-0.009,-0.272 -0.014,-0.416 -0.014,-0.416c0,-0 -0.009,0.144 -0.027,0.415c-0.024,0.271 -0.032,0.669 -0.09,1.171c-0.071,0.501 -0.121,1.111 -0.263,1.8c-0.112,0.692 -0.297,1.463 -0.502,2.299c-0.116,0.414 -0.237,0.846 -0.363,1.293c-0.144,0.441 -0.292,0.897 -0.444,1.366c-0.169,0.462 -0.343,0.938 -0.52,1.424c-0.194,0.479 -0.393,0.968 -0.594,1.466c-0.427,0.986 -0.886,1.995 -1.39,3.003c-0.504,1.008 -1.035,2.022 -1.602,3.016c-2.239,3.994 -4.884,7.743 -6.967,10.457c-0.203,0.265 -0.399,0.517 -0.591,0.762l-1.583,-38.579l-0.922,22.484c-0.259,-0.319 -0.536,-0.661 -0.83,-1.025c-0.296,-0.389 -0.624,-0.791 -0.932,-1.227c-0.318,-0.431 -0.641,-0.879 -0.951,-1.347c-0.324,-0.461 -0.624,-0.945 -0.926,-1.43c-0.314,-0.48 -0.571,-0.987 -0.856,-1.474c-0.272,-0.492 -0.502,-0.994 -0.746,-1.473c-0.217,-0.489 -0.411,-0.969 -0.605,-1.423c-0.156,-0.467 -0.303,-0.908 -0.439,-1.316c-0.112,-0.414 -0.189,-0.801 -0.272,-1.143c-0.096,-0.341 -0.105,-0.647 -0.139,-0.898c-0.056,-0.504 -0.088,-0.792 -0.088,-0.792c-0,-0 -0.004,0.29 -0.009,0.798c0.003,0.254 -0.025,0.568 0.028,0.92c0.041,0.353 0.071,0.756 0.134,1.192c0.087,0.432 0.182,0.9 0.282,1.395c0.139,0.484 0.277,1 0.438,1.529c0.188,0.517 0.362,1.063 0.579,1.601c0.227,0.531 0.43,1.089 0.69,1.617c0.248,0.534 0.496,1.071 0.769,1.583c0.259,0.519 0.534,1.02 0.805,1.502c0.263,0.488 0.547,0.94 0.803,1.379c0.269,0.43 0.523,0.838 0.758,1.213c0.484,0.744 0.899,1.357 1.204,1.781c0.065,0.088 0.119,0.164 0.172,0.236l-1.56,38.022c-0.085,-0.109 -0.168,-0.214 -0.255,-0.325c-2.897,-3.745 -6.578,-8.918 -9.702,-14.432c-0.79,-1.373 -1.53,-2.773 -2.235,-4.165c-0.36,-0.693 -0.676,-1.397 -1.012,-2.086c-0.325,-0.692 -0.622,-1.386 -0.928,-2.064c-0.282,-0.688 -0.559,-1.364 -0.831,-2.026c-0.248,-0.672 -0.491,-1.329 -0.728,-1.968c-0.213,-0.648 -0.421,-1.279 -0.622,-1.889c-0.177,-0.618 -0.347,-1.214 -0.511,-1.788c-0.288,-1.156 -0.549,-2.222 -0.708,-3.18c-0.2,-0.953 -0.273,-1.798 -0.374,-2.492c-0.083,-0.695 -0.097,-1.246 -0.131,-1.621c-0.026,-0.375 -0.04,-0.575 -0.04,-0.575c-0,-0 -0.007,0.2 -0.021,0.576c-0.006,0.376 -0.05,0.929 -0.042,1.633c0.027,0.703 0.01,1.564 0.109,2.543c0.058,0.985 0.205,2.086 0.373,3.291c0.104,0.599 0.213,1.223 0.325,1.868c0.138,0.642 0.281,1.305 0.428,1.986c0.171,0.677 0.347,1.372 0.527,2.082c0.205,0.704 0.414,1.423 0.627,2.154c0.237,0.722 0.465,1.464 0.721,2.205c0.267,0.737 0.515,1.493 0.806,2.238c0.567,1.497 1.172,3.009 1.829,4.496c2.591,5.975 5.789,11.664 8.356,15.829c1.286,2.082 2.411,3.789 3.22,4.979c0.182,0.263 0.344,0.497 0.491,0.708l-4.329,105.517l14.54,0l-3.87,-94.335c0.726,-1.09 1.613,-2.461 2.597,-4.054c2.567,-4.164 5.765,-9.853 8.356,-15.828c0.657,-1.487 1.262,-3 1.828,-4.496c0.292,-0.745 0.54,-1.502 0.807,-2.238c0.255,-0.741 0.484,-1.483 0.721,-2.206c0.213,-0.731 0.422,-1.45 0.627,-2.154c0.179,-0.71 0.355,-1.405 0.527,-2.081c0.147,-0.682 0.289,-1.345 0.427,-1.986c0.113,-0.646 0.221,-1.269 0.325,-1.868c0.168,-1.205 0.316,-2.307 0.374,-3.291c0.099,-0.979 0.082,-1.841 0.108,-2.543c0.01,-0.704 -0.035,-1.258 -0.041,-1.634Z" style="fill:#58595c;fill-rule:nonzero;"/><path d="M342.941,275.765c-0.016,-0.376 -0.022,-0.576 -0.022,-0.576c0,0 -0.016,0.2 -0.041,0.576c-0.034,0.375 -0.046,0.926 -0.131,1.621c-0.1,0.694 -0.172,1.538 -0.375,2.492c-0.156,0.958 -0.418,2.024 -0.706,3.18c-0.166,0.573 -0.334,1.17 -0.512,1.788c-0.2,0.61 -0.41,1.24 -0.622,1.888c-0.238,0.64 -0.478,1.297 -0.728,1.968c-0.272,0.662 -0.547,1.339 -0.831,2.026c-0.307,0.679 -0.604,1.372 -0.928,2.065c-0.335,0.688 -0.65,1.392 -1.013,2.085c-0.703,1.392 -1.443,2.792 -2.234,4.166c-2.819,4.978 -6.093,9.675 -8.834,13.297l-1.278,-31.119c0.147,-0.211 0.338,-0.48 0.56,-0.801c0.587,-0.855 1.403,-2.082 2.334,-3.579c1.862,-2.995 4.187,-7.088 6.071,-11.388c0.478,-1.071 0.919,-2.159 1.331,-3.237c0.413,-1.078 0.778,-2.154 1.113,-3.199c0.156,-0.527 0.309,-1.045 0.459,-1.552c0.131,-0.511 0.259,-1.012 0.387,-1.499c0.107,-0.491 0.213,-0.969 0.313,-1.431c0.084,-0.465 0.162,-0.915 0.241,-1.347c0.125,-0.868 0.234,-1.662 0.278,-2.372c0.075,-0.706 0.065,-1.328 0.084,-1.834c0.009,-0.509 -0.022,-0.908 -0.025,-1.179c-0.006,-0.272 -0.012,-0.416 -0.012,-0.416c-0,-0 -0.01,0.144 -0.029,0.415c-0.021,0.271 -0.031,0.669 -0.087,1.171c-0.072,0.501 -0.122,1.111 -0.263,1.8c-0.112,0.692 -0.296,1.463 -0.503,2.299c-0.115,0.414 -0.237,0.846 -0.362,1.293c-0.144,0.441 -0.294,0.897 -0.447,1.366c-0.169,0.462 -0.341,0.938 -0.519,1.424c-0.193,0.479 -0.393,0.968 -0.593,1.466c-0.428,0.986 -0.885,1.995 -1.391,3.003c-0.503,1.008 -1.034,2.022 -1.6,3.016c-2.24,3.994 -4.884,7.743 -6.968,10.457c-0.203,0.265 -0.4,0.517 -0.59,0.762l-1.585,-38.579l-0.921,22.484c-0.26,-0.319 -0.538,-0.661 -0.832,-1.025c-0.293,-0.389 -0.622,-0.791 -0.93,-1.227c-0.318,-0.431 -0.642,-0.879 -0.952,-1.347c-0.323,-0.461 -0.623,-0.945 -0.925,-1.43c-0.314,-0.48 -0.571,-0.987 -0.856,-1.474c-0.273,-0.492 -0.502,-0.994 -0.747,-1.473c-0.217,-0.489 -0.41,-0.969 -0.604,-1.423c-0.156,-0.467 -0.303,-0.908 -0.439,-1.316c-0.113,-0.414 -0.19,-0.801 -0.272,-1.143c-0.096,-0.341 -0.105,-0.647 -0.139,-0.898c-0.056,-0.504 -0.088,-0.792 -0.088,-0.792c-0,-0 -0.004,0.29 -0.009,0.798c0.002,0.254 -0.025,0.568 0.028,0.92c0.04,0.353 0.071,0.756 0.133,1.192c0.088,0.432 0.183,0.9 0.283,1.395c0.139,0.484 0.277,1 0.438,1.529c0.188,0.517 0.361,1.063 0.578,1.601c0.228,0.531 0.431,1.089 0.691,1.617c0.248,0.534 0.496,1.071 0.768,1.583c0.26,0.519 0.535,1.02 0.806,1.502c0.263,0.488 0.547,0.94 0.803,1.379c0.268,0.43 0.523,0.838 0.757,1.213c0.483,0.744 0.901,1.357 1.205,1.781c0.065,0.088 0.118,0.164 0.171,0.236l-1.56,38.022c-0.084,-0.109 -0.167,-0.214 -0.254,-0.325c-2.897,-3.745 -6.579,-8.918 -9.702,-14.432c-0.79,-1.373 -1.531,-2.773 -2.235,-4.165c-0.359,-0.693 -0.676,-1.397 -1.013,-2.086c-0.324,-0.692 -0.621,-1.386 -0.927,-2.064c-0.282,-0.688 -0.559,-1.364 -0.831,-2.026c-0.248,-0.672 -0.491,-1.329 -0.728,-1.968c-0.213,-0.648 -0.421,-1.279 -0.622,-1.889c-0.177,-0.618 -0.347,-1.214 -0.511,-1.788c-0.288,-1.156 -0.549,-2.222 -0.708,-3.18c-0.201,-0.953 -0.273,-1.798 -0.374,-2.492c-0.083,-0.695 -0.097,-1.246 -0.131,-1.621c-0.026,-0.375 -0.041,-0.575 -0.041,-0.575c0,-0 -0.007,0.2 -0.02,0.576c-0.006,0.376 -0.051,0.929 -0.042,1.633c0.027,0.703 0.01,1.564 0.109,2.543c0.058,0.985 0.205,2.086 0.373,3.291c0.104,0.599 0.213,1.223 0.325,1.868c0.138,0.642 0.281,1.305 0.428,1.986c0.171,0.677 0.347,1.372 0.527,2.082c0.205,0.704 0.414,1.423 0.627,2.154c0.237,0.722 0.465,1.464 0.721,2.205c0.266,0.737 0.515,1.493 0.806,2.238c0.567,1.497 1.172,3.009 1.829,4.496c2.59,5.975 5.789,11.664 8.356,15.829c1.286,2.082 2.41,3.789 3.22,4.979c0.182,0.263 0.345,0.497 0.491,0.708l-4.329,105.517l14.541,0l-3.872,-94.335c0.725,-1.09 1.616,-2.461 2.596,-4.054c2.569,-4.164 5.766,-9.853 8.359,-15.828c0.657,-1.487 1.26,-3 1.828,-4.496c0.291,-0.745 0.538,-1.502 0.806,-2.238c0.257,-0.741 0.485,-1.483 0.722,-2.206c0.213,-0.731 0.422,-1.45 0.625,-2.154c0.181,-0.71 0.356,-1.405 0.528,-2.081c0.147,-0.682 0.288,-1.345 0.428,-1.986c0.113,-0.646 0.219,-1.269 0.325,-1.868c0.166,-1.205 0.316,-2.307 0.372,-3.291c0.1,-0.979 0.085,-1.841 0.11,-2.543c0.009,-0.704 -0.038,-1.258 -0.041,-1.634Z" style="fill:#58595c;fill-rule:nonzero;"/><path d="M460.068,257.014c-0,39.674 -17.743,75.208 -45.724,99.092c-27.988,-23.879 -45.734,-59.414 -45.734,-99.092c0,-39.679 17.746,-75.213 45.734,-99.094c27.981,23.885 45.724,59.42 45.724,99.094Z" style="fill:#62bda4;fill-rule:nonzero;"/><path d="M434.395,275.765c-0.013,-0.376 -0.019,-0.576 -0.019,-0.576c0,0 -0.015,0.2 -0.04,0.576c-0.035,0.375 -0.05,0.926 -0.132,1.621c-0.1,0.694 -0.175,1.538 -0.375,2.492c-0.159,0.958 -0.418,2.024 -0.706,3.18c-0.165,0.573 -0.334,1.17 -0.512,1.788c-0.2,0.61 -0.41,1.24 -0.622,1.888c-0.238,0.64 -0.481,1.297 -0.728,1.968c-0.272,0.662 -0.55,1.339 -0.831,2.026c-0.307,0.679 -0.603,1.372 -0.928,2.065c-0.335,0.688 -0.653,1.392 -1.013,2.085c-0.703,1.392 -1.443,2.792 -2.234,4.166c-2.822,4.978 -6.093,9.675 -8.837,13.297l-1.274,-31.119c0.146,-0.211 0.334,-0.48 0.559,-0.801c0.587,-0.855 1.403,-2.082 2.334,-3.579c1.862,-2.995 4.184,-7.088 6.071,-11.388c0.478,-1.071 0.919,-2.159 1.331,-3.237c0.413,-1.078 0.779,-2.154 1.113,-3.199c0.156,-0.527 0.309,-1.045 0.459,-1.552c0.131,-0.511 0.26,-1.012 0.384,-1.499c0.11,-0.491 0.213,-0.969 0.316,-1.431c0.081,-0.465 0.163,-0.915 0.241,-1.347c0.122,-0.868 0.234,-1.662 0.278,-2.372c0.075,-0.706 0.062,-1.328 0.084,-1.834c0.01,-0.509 -0.022,-0.908 -0.025,-1.179c-0.009,-0.272 -0.012,-0.416 -0.012,-0.416c-0,-0 -0.01,0.144 -0.028,0.415c-0.022,0.271 -0.032,0.669 -0.091,1.171c-0.069,0.501 -0.119,1.111 -0.263,1.8c-0.112,0.692 -0.296,1.463 -0.5,2.299c-0.118,0.414 -0.24,0.846 -0.365,1.293c-0.144,0.441 -0.291,0.897 -0.444,1.366c-0.169,0.462 -0.34,0.938 -0.519,1.424c-0.193,0.479 -0.393,0.968 -0.593,1.466c-0.428,0.986 -0.888,1.995 -1.391,3.003c-0.503,1.008 -1.034,2.022 -1.603,3.016c-2.24,3.994 -4.884,7.743 -6.965,10.457c-0.203,0.265 -0.4,0.517 -0.593,0.762l-1.581,-38.579l-0.922,22.484c-0.26,-0.319 -0.538,-0.661 -0.831,-1.025c-0.297,-0.389 -0.622,-0.791 -0.932,-1.227c-0.318,-0.431 -0.64,-0.879 -0.953,-1.347c-0.321,-0.461 -0.621,-0.945 -0.925,-1.43c-0.312,-0.48 -0.571,-0.987 -0.856,-1.474c-0.272,-0.492 -0.5,-0.994 -0.746,-1.473c-0.216,-0.489 -0.41,-0.969 -0.604,-1.423c-0.156,-0.467 -0.303,-0.908 -0.44,-1.316c-0.113,-0.414 -0.188,-0.801 -0.272,-1.143c-0.094,-0.341 -0.103,-0.647 -0.137,-0.898c-0.057,-0.504 -0.088,-0.792 -0.088,-0.792c0,-0 -0.003,0.29 -0.009,0.798c0.003,0.254 -0.025,0.568 0.028,0.92c0.04,0.353 0.072,0.756 0.134,1.192c0.085,0.432 0.181,0.9 0.281,1.395c0.138,0.484 0.278,1 0.438,1.529c0.187,0.517 0.362,1.063 0.578,1.601c0.228,0.531 0.431,1.089 0.69,1.617c0.25,0.534 0.497,1.071 0.769,1.583c0.259,0.519 0.534,1.02 0.806,1.502c0.263,0.488 0.547,0.94 0.803,1.379c0.269,0.43 0.522,0.838 0.757,1.213c0.484,0.744 0.899,1.357 1.206,1.781c0.062,0.088 0.118,0.164 0.172,0.236l-1.563,38.022c-0.084,-0.109 -0.165,-0.214 -0.253,-0.325c-2.897,-3.745 -6.577,-8.918 -9.702,-14.432c-0.791,-1.373 -1.531,-2.773 -2.234,-4.165c-0.36,-0.693 -0.678,-1.397 -1.013,-2.086c-0.325,-0.692 -0.622,-1.386 -0.928,-2.064c-0.281,-0.688 -0.559,-1.364 -0.831,-2.026c-0.247,-0.672 -0.491,-1.329 -0.728,-1.968c-0.212,-0.648 -0.422,-1.279 -0.622,-1.889c-0.178,-0.618 -0.347,-1.214 -0.509,-1.788c-0.291,-1.156 -0.55,-2.222 -0.709,-3.18c-0.2,-0.953 -0.275,-1.798 -0.375,-2.492c-0.082,-0.695 -0.097,-1.246 -0.132,-1.621c-0.025,-0.375 -0.04,-0.575 -0.04,-0.575c-0,-0 -0.007,0.2 -0.019,0.576c-0.006,0.376 -0.05,0.929 -0.044,1.633c0.028,0.703 0.01,1.564 0.11,2.543c0.059,0.985 0.206,2.086 0.375,3.291c0.103,0.599 0.212,1.223 0.325,1.868c0.137,0.642 0.281,1.305 0.428,1.986c0.168,0.677 0.346,1.372 0.525,2.082c0.206,0.704 0.415,1.423 0.628,2.154c0.237,0.722 0.465,1.464 0.721,2.205c0.266,0.737 0.513,1.493 0.807,2.238c0.565,1.497 1.168,3.009 1.828,4.496c2.59,5.975 5.79,11.664 8.355,15.829c1.287,2.082 2.409,3.789 3.219,4.979c0.184,0.263 0.346,0.497 0.493,0.708l-4.331,105.517l14.54,0l-3.869,-94.335c0.725,-1.09 1.613,-2.461 2.597,-4.054c2.565,-4.164 5.765,-9.853 8.355,-15.828c0.66,-1.487 1.263,-3 1.828,-4.496c0.294,-0.745 0.541,-1.502 0.806,-2.238c0.257,-0.741 0.485,-1.483 0.722,-2.206c0.213,-0.731 0.422,-1.45 0.628,-2.154c0.178,-0.71 0.357,-1.405 0.525,-2.081c0.147,-0.682 0.291,-1.345 0.428,-1.986c0.113,-0.646 0.222,-1.269 0.325,-1.868c0.169,-1.205 0.316,-2.307 0.375,-3.291c0.1,-0.979 0.082,-1.841 0.11,-2.543c0.006,-0.704 -0.038,-1.258 -0.044,-1.634Z" style="fill:#58595c;fill-rule:nonzero;"/><rect x="172.945" y="437.479" width="605.768" height="3.206" style="fill:#58595c;fill-rule:nonzero;"/><rect x="223.395" y="570.529" width="2.506" height="16.028" style="fill:#757779;fill-rule:nonzero;"/><rect x="273.456" y="570.529" width="2.506" height="16.028" style="fill:#757779;fill-rule:nonzero;"/><rect x="323.517" y="570.529" width="2.506" height="16.028" style="fill:#757779;fill-rule:nonzero;"/><rect x="373.578" y="570.529" width="2.506" height="16.028" style="fill:#757779;fill-rule:nonzero;"/><rect x="423.638" y="570.529" width="2.506" height="16.028" style="fill:#757779;fill-rule:nonzero;"/><path d="M441.988,563.801c0,11.627 -0.308,28.477 -6.428,29.451l-64.855,4.968l-153.109,0c0,0 -0.021,0.009 -0.068,0.018c-0.343,0.078 -1.942,0.391 -3.917,-0.018l-0.459,0c-3.591,0 -6.848,-1.939 -8.331,-4.962c-2.365,-4.831 -5.412,-12.56 -5.412,-20.348c-0,-3.506 2.323,-5.679 5.018,-8.804c0.399,-0.46 0.965,-0.872 1.641,-1.241c0.6,-1.713 1.286,-3.355 2.045,-4.937c1.521,-3.18 3.338,-6.103 5.348,-8.796c5.014,-6.713 11.249,-11.999 17.18,-16.266c6.951,-5.001 13.499,-8.605 17.206,-11.476c15.959,-12.353 33.109,-31.098 55.282,-39.35c0.406,-0.151 0.814,-0.298 1.221,-0.444c3.985,-1.404 8.138,-2.463 12.466,-3.085c47.019,-6.734 77.231,-3.986 98.83,3.224c8.746,2.918 17.33,30.383 19.712,47.058c0.356,2.479 0.575,4.719 0.635,6.603c0.463,14.569 5.995,16.778 5.995,28.405Z" style="fill:#82cab6;fill-rule:nonzero;"/><path d="M441.988,563.801c0,11.627 -0.308,28.477 -6.428,29.451l-64.855,4.968l-153.109,0c0,0 -0.021,0.009 -0.068,0.018c-0.343,0.078 -1.942,0.391 -3.917,-0.018l-0.459,0c-3.591,0 -6.848,-1.939 -8.331,-4.962c-2.365,-4.831 -5.412,-12.56 -5.412,-20.348c-0,-3.506 2.323,-5.679 5.018,-8.804c0.399,-0.46 0.965,-0.872 1.641,-1.241c0.6,-1.713 1.286,-3.355 2.045,-4.937c1.521,-3.18 3.338,-6.103 5.348,-8.796c8.656,-4.179 15.757,-6.507 15.757,-6.507c0,0 169.543,-17.535 206.14,-13.832c0.356,2.479 0.575,4.719 0.635,6.603c0.463,14.569 5.995,16.778 5.995,28.405Z" style="fill:#62bda4;fill-rule:nonzero;"/><path d="M368.039,588.622l-77.832,0l-0.019,-0.577c-0.003,-0.087 -0.283,-8.966 -0,-27.273c0.28,-18.158 -6.735,-33.708 -6.806,-33.863l1.184,-0.464c0.072,0.157 7.192,15.926 6.908,34.344c-0.242,15.664 -0.072,24.409 -0.016,26.644l75.296,-0l-0,-41.986c-0,-5.88 -0.408,-15.491 -1.065,-25.082l1.283,-0.075c0.658,9.614 1.067,19.254 1.067,25.157l0,43.175Z" style="fill:#464647;fill-rule:nonzero;"/><path d="M282.379,582.855l-0,15.365l-64.783,0c0,0 -0.021,0.009 -0.068,0.018l-0,-15.383c-0,-16.572 14.514,-30.007 32.423,-30.007c8.957,0 17.06,3.359 22.931,8.788c5.867,5.433 9.497,12.931 9.497,21.219Z" style="fill:#fff;fill-rule:nonzero;"/><path d="M435.56,582.855l-0,10.397c-21.865,3.026 -43.496,4.754 -64.855,4.968l-0,-15.365c-0,-16.572 14.519,-30.007 32.427,-30.007c8.953,0 17.061,3.359 22.932,8.788c5.866,5.433 9.496,12.931 9.496,21.219Z" style="fill:#fff;fill-rule:nonzero;"/><path d="M278.664,582.855c0,14.672 -12.855,26.568 -28.712,26.568c-15.857,0 -28.712,-11.896 -28.712,-26.568c-0,-14.673 12.855,-26.569 28.712,-26.569c15.857,0 28.712,11.896 28.712,26.569Z" style="fill:#5f6062;fill-rule:nonzero;"/><path d="M273.807,582.855c0,12.191 -10.68,22.075 -23.855,22.075c-13.175,0 -23.855,-9.884 -23.855,-22.075c-0,-12.191 10.68,-22.075 23.855,-22.075c13.175,0 23.855,9.884 23.855,22.075Z" style="fill:#515153;fill-rule:nonzero;"/><path d="M271.236,582.855c0,10.878 -9.529,19.696 -21.284,19.696c-11.755,0 -21.284,-8.818 -21.284,-19.696c0,-10.877 9.529,-19.695 21.284,-19.695c11.755,-0 21.284,8.818 21.284,19.695Z" style="fill:#888a8c;fill-rule:nonzero;"/><path d="M247.847,569.805l0,5.318c0,1.938 -2.267,3.149 -4.08,2.18l-4.972,-2.656c-1.625,-0.868 -1.827,-2.954 -0.411,-4.094c1.716,-1.382 3.724,-2.461 5.926,-3.149c1.741,-0.544 3.537,0.7 3.537,2.401Z" style="fill:#48484a;fill-rule:nonzero;"/><path d="M261.109,574.647l-4.972,2.656c-1.813,0.969 -4.08,-0.242 -4.08,-2.18l-0,-5.318c-0,-1.701 1.796,-2.945 3.537,-2.401c2.202,0.688 4.21,1.767 5.926,3.149c1.416,1.14 1.214,3.226 -0.411,4.094Z" style="fill:#48484a;fill-rule:nonzero;"/><path d="M267.573,582.855c0,1.065 -0.11,2.106 -0.321,3.115c-0.357,1.705 -2.411,2.587 -4.037,1.719l-4.97,-2.654c-1.814,-0.968 -1.814,-3.391 0,-4.36l4.97,-2.653c1.626,-0.868 3.68,0.014 4.037,1.719c0.211,1.008 0.321,2.05 0.321,3.114Z" style="fill:#48484a;fill-rule:nonzero;"/><path d="M261.52,595.156c-1.716,1.383 -3.724,2.465 -5.926,3.152c-1.741,0.542 -3.537,-0.702 -3.537,-2.401l-0,-5.319c-0,-1.939 2.267,-3.15 4.08,-2.181l4.972,2.657c1.625,0.869 1.827,2.953 0.411,4.092Z" style="fill:#48484a;fill-rule:nonzero;"/><path d="M247.847,590.588l0,5.319c0,1.699 -1.796,2.943 -3.537,2.401c-2.202,-0.687 -4.21,-1.769 -5.926,-3.152c-1.416,-1.139 -1.214,-3.223 0.411,-4.092l4.972,-2.657c1.813,-0.969 4.08,0.242 4.08,2.181Z" style="fill:#48484a;fill-rule:nonzero;"/><path d="M241.659,585.035l-4.97,2.654c-1.626,0.868 -3.679,-0.014 -4.037,-1.719c-0.211,-1.009 -0.321,-2.05 -0.321,-3.115c-0,-1.064 0.11,-2.106 0.321,-3.114c0.358,-1.705 2.411,-2.587 4.037,-1.719l4.97,2.653c1.814,0.969 1.814,3.392 0,4.36Z" style="fill:#48484a;fill-rule:nonzero;"/><path d="M253.952,582.855c-0,2.044 -1.791,3.701 -4,3.701c-2.209,0 -4,-1.657 -4,-3.701c0,-2.044 1.791,-3.701 4,-3.701c2.209,0 4,1.657 4,3.701Z" style="fill:#d8d9da;fill-rule:nonzero;"/><path d="M431.845,582.855c-0,14.672 -12.855,26.568 -28.712,26.568c-15.857,0 -28.712,-11.896 -28.712,-26.568c-0,-14.673 12.855,-26.569 28.712,-26.569c15.857,0 28.712,11.896 28.712,26.569Z" style="fill:#5f6062;fill-rule:nonzero;"/><path d="M426.988,582.855c0,12.191 -10.68,22.075 -23.855,22.075c-13.175,0 -23.856,-9.884 -23.856,-22.075c0,-12.191 10.681,-22.075 23.856,-22.075c13.175,0 23.855,9.884 23.855,22.075Z" style="fill:#515153;fill-rule:nonzero;"/><path d="M424.417,582.855c-0,10.878 -9.529,19.696 -21.284,19.696c-11.755,0 -21.284,-8.818 -21.284,-19.696c-0,-10.877 9.529,-19.695 21.284,-19.695c11.755,-0 21.284,8.818 21.284,19.695Z" style="fill:#888a8c;fill-rule:nonzero;"/><path d="M401.028,569.805l-0,5.318c-0,1.938 -2.267,3.149 -4.08,2.18l-4.973,-2.656c-1.625,-0.868 -1.826,-2.954 -0.411,-4.094c1.717,-1.382 3.725,-2.461 5.926,-3.149c1.741,-0.544 3.538,0.7 3.538,2.401Z" style="fill:#48484a;fill-rule:nonzero;"/><path d="M414.29,574.647l-4.972,2.656c-1.813,0.969 -4.08,-0.242 -4.08,-2.18l-0,-5.318c-0,-1.701 1.796,-2.945 3.537,-2.401c2.202,0.688 4.209,1.767 5.926,3.149c1.416,1.14 1.214,3.226 -0.411,4.094Z" style="fill:#48484a;fill-rule:nonzero;"/><path d="M420.754,582.855c0,1.065 -0.111,2.106 -0.322,3.115c-0.357,1.705 -2.41,2.587 -4.036,1.719l-4.97,-2.654c-1.814,-0.968 -1.814,-3.391 0,-4.36l4.97,-2.653c1.626,-0.868 3.679,0.014 4.036,1.719c0.211,1.008 0.322,2.05 0.322,3.114Z" style="fill:#48484a;fill-rule:nonzero;"/><path d="M414.701,595.156c-1.717,1.383 -3.724,2.465 -5.926,3.152c-1.741,0.542 -3.537,-0.702 -3.537,-2.401l-0,-5.319c-0,-1.939 2.267,-3.15 4.08,-2.181l4.972,2.657c1.625,0.869 1.827,2.953 0.411,4.092Z" style="fill:#48484a;fill-rule:nonzero;"/><path d="M401.028,590.588l-0,5.319c-0,1.699 -1.797,2.943 -3.538,2.401c-2.201,-0.687 -4.209,-1.769 -5.926,-3.152c-1.415,-1.139 -1.214,-3.223 0.411,-4.092l4.973,-2.657c1.813,-0.969 4.08,0.242 4.08,2.181Z" style="fill:#48484a;fill-rule:nonzero;"/><path d="M394.84,585.035l-4.97,2.654c-1.626,0.868 -3.68,-0.014 -4.037,-1.719c-0.211,-1.009 -0.322,-2.05 -0.322,-3.115c0,-1.064 0.111,-2.106 0.322,-3.114c0.357,-1.705 2.411,-2.587 4.037,-1.719l4.97,2.653c1.814,0.969 1.814,3.392 -0,4.36Z" style="fill:#48484a;fill-rule:nonzero;"/><path d="M407.132,582.855c0,2.044 -1.79,3.701 -3.999,3.701c-2.209,0 -4,-1.657 -4,-3.701c-0,-2.044 1.791,-3.701 4,-3.701c2.209,0 3.999,1.657 3.999,3.701Z" style="fill:#d8d9da;fill-rule:nonzero;"/><path d="M412.774,509.922c-2.268,3.771 -8.276,6.313 -19.919,8.377c-0.746,0.133 -1.513,0.264 -2.305,0.391l-22.244,1.748l-39.756,3.125l-31.794,2.499l-28.84,2.266c-5.857,-0.003 -7.483,-0.724 -7.812,-1.327c-0.16,-0.284 0,-1 0.909,-2.145c10.863,-13.705 34.832,-35.053 58.018,-40.12c1.033,-0.226 2.061,-0.42 3.091,-0.579c10.469,-1.618 20.298,-2.664 29.357,-3.137c3.627,-0.182 7.133,-0.278 10.506,-0.278c9.723,0 18.494,0.751 26.488,2.281c5.149,0.986 9.976,2.293 14.528,3.934c1.463,0.527 3.232,1.652 4.893,3.443c1.274,1.374 2.484,3.142 3.442,5.337c2.854,6.559 3.311,11.066 1.438,14.185Z" style="fill:#dfdfdf;fill-rule:nonzero;"/><path d="M361.982,479.355c-11.464,-0 -24.696,1.051 -40.11,3.434c-24.023,3.716 -50.122,26.176 -62.069,41.244c-4.321,5.451 3.529,5.684 8.174,5.684l122.766,-9.649c22.893,-3.701 28.852,-9.071 21.981,-24.851c-2.436,-5.594 -6.43,-8.562 -9.178,-9.553c-10.769,-3.878 -24.126,-6.31 -41.564,-6.309Zm0.004,2.775c15.797,0 29.035,2.002 40.471,6.121c2.188,0.789 5.462,3.358 7.485,8.004c2.673,6.14 3.156,10.268 1.52,12.992c-2.163,3.6 -8.478,6.014 -21.106,8.065l-122.505,9.629c-3.774,-0.006 -5.414,-0.306 -6.123,-0.553c0.101,-0.177 0.256,-0.413 0.494,-0.713c6.503,-8.203 16.198,-17.299 25.933,-24.333c12.123,-8.76 23.953,-14.228 34.211,-15.815c14.578,-2.253 27.907,-3.396 39.618,-3.397l0.002,0Z" style="fill:#464647;fill-rule:nonzero;"/><path d="M304.426,481.696c-0.025,-0.037 -0.051,-0.071 -0.076,-0.1c-0.407,0.146 -0.815,0.293 -1.221,0.444c-20.392,7.589 -41.376,28.202 -56.251,40.407c0.006,0.003 0.013,0.007 0.019,0.01c1.299,0.648 2.874,0.596 4.097,-0.168c4.573,-2.859 9.798,-8.092 12.482,-10.417c11.346,-9.84 26.858,-22.514 39.924,-27.376c1.195,-0.445 1.719,-1.796 1.026,-2.8Z" style="fill:#5f6062;fill-rule:nonzero;"/><path d="M410.322,537.979c-0,3.248 -2.846,5.882 -6.357,5.882c-3.511,0 -6.357,-2.634 -6.357,-5.882c0,-3.249 2.846,-5.882 6.357,-5.882c3.511,-0 6.357,2.633 6.357,5.882Z" style="fill:#83cab5;fill-rule:nonzero;"/><path d="M208.113,557.928c4.261,-2.077 7.724,-3.884 10.539,-5.544c1.887,-4.152 3.024,-8.513 3.75,-12.927c-8.423,3.168 -15.851,9.235 -14.289,18.471Z" style="fill:#e0e1e2;fill-rule:nonzero;"/><path d="M289.492,498.222c-0,0 -7.113,12.329 -7.113,28.455" style="fill:#5f6062;fill-rule:nonzero;"/><path d="M283.878,526.677l-3,0c0,-16.287 6.993,-28.593 7.291,-29.109l2.646,1.307c-0.069,0.121 -6.937,12.239 -6.937,27.802Z" style="fill:#464647;fill-rule:nonzero;"/><path d="M364.833,520.416c-1.278,-18.664 -3.31,-33.252 -5.435,-39.023l2.84,-0.895c3.178,8.635 4.967,30.669 5.589,39.742l-2.994,0.176Z" style="fill:#464647;fill-rule:nonzero;"/><path d="M355.018,540.821l-8.884,-0c-1.866,-0 -3.379,-1.4 -3.379,-3.127l0,-1.15l15.642,-0l0,1.15c0,1.727 -1.513,3.127 -3.379,3.127Z" style="fill:#83cab5;fill-rule:nonzero;"/><path d="M279.546,532.097l-0,-17.25c-0,-0 -2.264,-0.595 -5.739,1.784c-3.475,2.379 -9.688,16.655 5.739,15.466Z" style="fill:#64bea4;fill-rule:nonzero;"/></svg>