<?xml version="1.0" encoding="UTF-8" standalone="no"?><!DOCTYPE svg PUBLIC "-//W3C//DTD SVG 1.1//EN" "http://www.w3.org/Graphics/SVG/1.1/DTD/svg11.dtd"><svg width="100%" height="100%" viewBox="0 0 950 751" version="1.1" xmlns="http://www.w3.org/2000/svg" xmlns:xlink="http://www.w3.org/1999/xlink" xml:space="preserve" xmlns:serif="http://www.serif.com/" style="fill-rule:evenodd;clip-rule:evenodd;stroke-linejoin:round;stroke-miterlimit:2;"><rect x="0" y="0" width="949.427" height="750.19" style="fill:none;"/><g><path d="M199.959,438.996l22.009,-0l-0,-3.587l-17.612,-0l-0,-13.114l13.462,-0l-0,-3.587l-13.462,0l-0,-12.304l16.701,-0l-0,-3.587l-21.098,-0l0,36.179Z" style="fill:#919191;fill-rule:nonzero;"/><path d="M247.329,448.207l4.194,-0l0,-35.673l-4.194,-0l-0,4.245c-1.519,-2.579 -4.253,-4.701 -8.657,-4.701c-7.291,0 -12.346,5.714 -12.346,13.813l0,0.405c0,8.252 5.005,13.155 11.941,13.155c3.847,0 7.543,-2.425 9.062,-5.004l-0,13.76Zm-8.607,-12.241c-4.455,-0 -8.05,-3.19 -8.05,-9.872l0,-0.405c0,-6.429 3.139,-10.125 8.405,-10.125c5.164,-0 8.404,3.189 8.404,9.973l-0,0.405c-0,6.784 -3.848,10.024 -8.759,10.024Z" style="fill:#919191;fill-rule:nonzero;"/><path d="M268.986,439.451c4.253,0 7.189,-2.172 8.404,-4.649l0,4.194l4.195,-0l-0,-26.462l-4.195,-0l0,16.039c0,4.761 -3.544,7.241 -7.291,7.241c-4.151,-0 -6.126,-2.075 -6.126,-6.731l-0,-16.549l-4.194,-0l-0,16.751c-0,7.287 3.941,10.166 9.207,10.166Z" style="fill:#919191;fill-rule:nonzero;"/><path d="M290.194,438.996l4.195,-0l-0,-26.462l-4.195,-0l0,26.462Zm2.022,-31.985c1.516,0 2.78,-1.264 2.78,-2.78c-0,-1.517 -1.264,-2.78 -2.78,-2.78c-1.517,-0 -2.781,1.263 -2.781,2.78c0,1.516 1.264,2.78 2.781,2.78Z" style="fill:#919191;fill-rule:nonzero;"/><path d="M309.626,438.996l5.363,-0l9.512,-26.462l-4.351,-0l-7.742,22.217l-7.842,-22.217l-4.553,-0l9.613,26.462Z" style="fill:#919191;fill-rule:nonzero;"/><path d="M336.396,439.451c3.899,0 6.279,-1.313 8.253,-3.789l0,3.334l4.195,-0l-0,-17.455c-0,-7.391 -4.6,-9.463 -9.663,-9.463c-5.114,0 -9.919,2.223 -10.475,8.247l4.196,-0c0.405,-3.242 2.431,-4.761 6.076,-4.761c4.051,-0 5.671,1.773 5.671,5.977l0,1.924l-3.797,0c-6.785,0 -13.258,2.071 -13.258,8.193c0,5.419 3.891,7.793 8.802,7.793Zm0.405,-3.334c-3.696,0 -5.013,-1.721 -5.013,-4.456c0,-3.899 3.899,-5.216 9.216,-5.216l3.645,-0l0,3.292c0,4.102 -3.392,6.38 -7.848,6.38Z" style="fill:#919191;fill-rule:nonzero;"/><rect x="357.2" y="399.882" width="4.245" height="39.114" style="fill:#919191;fill-rule:nonzero;"/><path d="M380.882,439.451c5.975,0 10.373,-2.778 11.283,-8.094l-4.195,0c-0.556,3.089 -2.936,4.609 -7.037,4.609c-5.417,-0 -8.303,-3.343 -8.506,-9.369l19.94,-0l-0,-1.364c-0,-9.466 -5.764,-13.155 -11.89,-13.155c-7.29,0 -12.396,5.563 -12.396,13.559l0,0.404c0,8.152 5.308,13.41 12.801,13.41Zm-8.303,-16.239c0.709,-4.71 3.595,-7.648 7.898,-7.648c4.354,-0 7.19,2.178 7.595,7.648l-15.493,0Z" style="fill:#919191;fill-rule:nonzero;"/><path d="M398.801,438.996l4.194,-0l-0,-16.043c-0,-4.757 3.493,-7.237 7.392,-7.237c4.253,-0 6.228,2.075 6.228,6.731l-0,16.549l4.194,-0l0,-16.246c0,-7.691 -3.84,-10.672 -9.308,-10.672c-4.354,0 -7.291,2.173 -8.506,4.65l-0,-4.194l-4.194,-0l-0,26.462Z" style="fill:#919191;fill-rule:nonzero;"/><path d="M437.105,439.35c1.721,0 2.733,-0.253 3.593,-0.556l0,-3.537c-0.911,0.354 -1.923,0.557 -3.239,0.557c-2.125,-0 -3.289,-1.266 -3.289,-3.848l-0,-15.896l6.174,0l-0,-3.536l-6.174,-0l-0,-6.023l-4.194,0l-0,6.023l-3.796,-0l-0,3.536l3.796,0l-0,16.301c-0,4.15 2.324,6.979 7.129,6.979Z" style="fill:#919191;fill-rule:nonzero;"/><path d="M467.068,439.451c3.898,0 6.278,-1.313 8.253,-3.789l-0,3.334l4.194,-0l0,-17.455c0,-7.391 -4.599,-9.463 -9.663,-9.463c-5.114,0 -9.919,2.223 -10.475,8.247l4.197,-0c0.405,-3.242 2.43,-4.761 6.076,-4.761c4.051,-0 5.671,1.773 5.671,5.977l-0,1.924l-3.798,0c-6.785,0 -13.257,2.071 -13.257,8.193c-0,5.419 3.891,7.793 8.802,7.793Zm0.405,-3.334c-3.697,0 -5.013,-1.721 -5.013,-4.456c-0,-3.899 3.899,-5.216 9.215,-5.216l3.646,-0l-0,3.292c-0,4.102 -3.393,6.38 -7.848,6.38Z" style="fill:#919191;fill-rule:nonzero;"/><path d="M487.771,438.996l4.194,-0l-0,-16.043c-0,-4.757 3.493,-7.237 7.392,-7.237c4.253,-0 6.228,2.075 6.228,6.731l-0,16.549l4.194,-0l0,-16.246c0,-7.691 -3.84,-10.672 -9.308,-10.672c-4.354,0 -7.291,2.173 -8.506,4.65l-0,-4.194l-4.194,-0l-0,26.462Z" style="fill:#919191;fill-rule:nonzero;"/><path d="M518.035,438.996l4.194,-0l-0,-16.043c-0,-4.757 3.493,-7.237 7.392,-7.237c4.253,-0 6.228,2.075 6.228,6.731l-0,16.549l4.194,-0l-0,-16.246c-0,-7.691 -3.84,-10.672 -9.308,-10.672c-4.354,0 -7.291,2.173 -8.506,4.65l-0,-4.194l-4.194,-0l-0,26.462Z" style="fill:#919191;fill-rule:nonzero;"/><path d="M557.252,439.451c4.253,0 7.19,-2.172 8.405,-4.649l0,4.194l4.194,-0l0,-26.462l-4.194,-0l0,16.039c0,4.761 -3.544,7.241 -7.291,7.241c-4.152,-0 -6.126,-2.075 -6.126,-6.731l-0,-16.549l-4.195,-0l0,16.751c0,7.287 3.942,10.166 9.207,10.166Z" style="fill:#919191;fill-rule:nonzero;"/><path d="M584.986,439.451c3.898,0 6.278,-1.313 8.253,-3.789l-0,3.334l4.194,-0l0,-17.455c0,-7.391 -4.599,-9.463 -9.662,-9.463c-5.114,0 -9.92,2.223 -10.475,8.247l4.196,-0c0.405,-3.242 2.43,-4.761 6.076,-4.761c4.051,-0 5.671,1.773 5.671,5.977l-0,1.924l-3.798,0c-6.784,0 -13.257,2.071 -13.257,8.193c-0,5.419 3.891,7.793 8.802,7.793Zm0.405,-3.334c-3.696,0 -5.013,-1.721 -5.013,-4.456c0,-3.899 3.899,-5.216 9.215,-5.216l3.646,-0l-0,3.292c-0,4.102 -3.393,6.38 -7.848,6.38Z" style="fill:#919191;fill-rule:nonzero;"/><rect x="605.79" y="399.882" width="4.245" height="39.114" style="fill:#919191;fill-rule:nonzero;"/><path d="M640.251,439.451c6.43,0 9.714,-3.233 9.714,-8.042c-0,-5.619 -3.84,-6.834 -9.309,-7.846c-4.861,-0.861 -6.177,-1.823 -6.177,-4.202c-0,-2.278 1.974,-3.797 5.013,-3.797c3.342,-0 4.962,1.266 5.57,4.151l4.044,0c-0.707,-5.717 -4.804,-7.637 -9.564,-7.637c-4.152,0 -8.954,2.526 -8.954,7.435c0,4.607 2.324,6.53 9.207,7.796c4.102,0.759 6.178,1.67 6.178,4.455c0,2.835 -1.772,4.202 -5.772,4.202c-4.254,-0 -5.924,-1.975 -6.228,-5.113l-4.093,-0c0.253,5.416 4.043,8.598 10.371,8.598Z" style="fill:#919191;fill-rule:nonzero;"/><path d="M662.974,439.451c3.898,0 6.278,-1.313 8.253,-3.789l-0,3.334l4.194,-0l0,-17.455c0,-7.391 -4.599,-9.463 -9.663,-9.463c-5.114,0 -9.919,2.223 -10.475,8.247l4.197,-0c0.405,-3.242 2.43,-4.761 6.076,-4.761c4.051,-0 5.671,1.773 5.671,5.977l-0,1.924l-3.798,0c-6.785,0 -13.257,2.071 -13.257,8.193c-0,5.419 3.891,7.793 8.802,7.793Zm0.405,-3.334c-3.697,0 -5.013,-1.721 -5.013,-4.456c-0,-3.899 3.899,-5.216 9.215,-5.216l3.646,-0l-0,3.292c-0,4.102 -3.393,6.38 -7.848,6.38Z" style="fill:#919191;fill-rule:nonzero;"/><path d="M689.545,438.996l5.363,-0l9.512,-26.462l-4.351,-0l-7.742,22.217l-7.842,-22.217l-4.553,-0l9.613,26.462Z" style="fill:#919191;fill-rule:nonzero;"/><path d="M710.044,438.996l4.194,-0l-0,-26.462l-4.194,-0l-0,26.462Zm2.021,-31.985c1.516,0 2.78,-1.264 2.78,-2.78c0,-1.517 -1.264,-2.78 -2.78,-2.78c-1.517,-0 -2.78,1.263 -2.78,2.78c-0,1.516 1.263,2.78 2.78,2.78Z" style="fill:#919191;fill-rule:nonzero;"/><path d="M722.848,438.996l4.194,-0l-0,-16.043c-0,-4.757 3.493,-7.237 7.392,-7.237c4.253,-0 6.228,2.075 6.228,6.731l-0,16.549l4.194,-0l0,-16.246c0,-7.691 -3.84,-10.672 -9.308,-10.672c-4.354,0 -7.291,2.173 -8.506,4.65l-0,-4.194l-4.194,-0l-0,26.462Z" style="fill:#919191;fill-rule:nonzero;"/><path d="M763.686,448.662c7.391,0 12.598,-3.739 12.649,-11.436l-0,-24.692l-4.195,-0l0,4.245c-1.518,-2.579 -4.252,-4.701 -8.657,-4.701c-7.29,0 -12.345,5.967 -12.345,13.155l-0,0.355c-0,7.29 5.105,12.547 12.041,12.547c3.848,0 7.443,-2.424 8.961,-5.004l0,3.843c0,5.67 -3.29,8.152 -8.505,8.152c-4.506,-0 -7.037,-1.571 -7.645,-4.61l-4.296,0c0.707,4.458 4.144,8.146 11.992,8.146Zm-0.051,-14.012c-4.455,-0 -8.151,-3.443 -8.151,-9.214l-0,-0.405c-0,-5.569 3.139,-9.467 8.404,-9.467c5.164,-0 8.404,3.442 8.404,9.366l0,0.354c0,5.923 -3.746,9.366 -8.657,9.366Z" style="fill:#919191;fill-rule:nonzero;"/></g><g><path d="M295.949,527.99c8.708,0 15.676,-5.88 15.676,-15.548c0,-9.347 -6.008,-15.164 -14.203,-15.164c-4.355,0 -7.492,1.406 -9.349,3.131l0,-13.955l21.124,0l-0,-4.792l-25.724,0l0,24.506l2.045,-0c2.427,-2.753 5.5,-4.418 10.815,-4.418c5.826,0 9.604,4.226 9.604,10.692c0,6.915 -3.842,11.076 -10.052,11.076c-6.979,0 -8.964,-3.457 -9.86,-8.451l-5.304,0c0.639,7.491 5.368,12.923 15.228,12.923Z" style="fill:#4a4a4a;fill-rule:nonzero;"/><path d="M337.229,523.39c-7.618,0 -12.484,-6.017 -12.484,-17.604l0,-2.56c0,-11.267 4.61,-17.668 12.356,-17.668c7.747,0 12.228,6.914 12.228,17.54l0,2.56c0,11.587 -4.097,17.732 -12.1,17.732Zm0,4.6c11.268,0 17.724,-8.953 17.724,-22.268l0,-2.56c0,-13.059 -6.584,-22.076 -17.852,-22.076c-11.204,0 -18.044,8.697 -18.044,22.204l0,2.56c0,13.315 7.225,22.14 18.172,22.14Z" style="fill:#4a4a4a;fill-rule:nonzero;"/><path d="M364.561,527.414l5.56,0l0,-22.332l20.416,22.332l6.72,0l-21.376,-23.548l20.352,-22.268l-6.208,0l-19.904,22.076l0,-22.012l-5.56,0l0,45.752Z" style="fill:#4a4a4a;fill-rule:nonzero;"/><path d="M440.073,527.99c10.24,0 17.536,-5.176 19.136,-15.738l-5.184,-0c-1.152,7.425 -6.336,11.202 -13.824,11.202c-9.856,0 -15.744,-7.041 -15.744,-18.692l0,-0.512c0,-11.522 6.336,-18.884 15.808,-18.884c7.808,0 11.84,3.585 12.992,10.562l5.504,0c-0.96,-9.922 -9.024,-14.97 -18.56,-14.97c-12.416,0 -21.496,9.785 -21.496,23.356l0,0.512c0,14.083 8.12,23.164 21.368,23.164Z" style="fill:#4a4a4a;fill-rule:nonzero;"/><path d="M476.3,527.99c4.93,0 7.94,-1.661 10.437,-4.792l0,4.216l5.304,0l0,-22.074c0,-9.347 -5.816,-11.966 -12.219,-11.966c-6.467,0 -12.544,2.811 -13.247,10.429l5.307,-0c0.512,-4.099 3.073,-6.021 7.684,-6.021c5.122,0 7.171,2.242 7.171,7.558l0,2.434l-4.802,0c-8.58,0 -16.766,2.619 -16.766,10.36c0,6.854 4.921,9.856 11.131,9.856Zm0.512,-4.216c-4.674,0 -6.339,-2.177 -6.339,-5.636c0,-4.931 4.931,-6.596 11.654,-6.596l4.61,0l0,4.163c0,5.187 -4.29,8.069 -9.925,8.069Z" style="fill:#4a4a4a;fill-rule:nonzero;"/><path d="M502.481,527.414l5.304,0l0,-18.368c0,-8.256 4.288,-10.368 11.008,-10.688l0,-4.984c-6.016,0.192 -8.896,2.812 -11.008,6.584l0,-6.008l-5.304,0l0,33.464Z" style="fill:#4a4a4a;fill-rule:nonzero;"/><path d="M543.889,527.414l5.112,0l0,-38.528l15.684,38.528l1.728,0l15.172,-38.528l0,38.528l5.56,0l0,-45.752l-7.672,0l-13.7,35.64l-14.147,-35.64l-7.737,0l0,45.752Z" style="fill:#4a4a4a;fill-rule:nonzero;"/><path d="M598.417,527.414l5.304,0l0,-33.464l-5.304,0l0,33.464Zm2.556,-40.448c1.918,0 3.516,-1.598 3.516,-3.516c0,-1.918 -1.598,-3.516 -3.516,-3.516c-1.918,0 -3.516,1.598 -3.516,3.516c0,1.918 1.598,3.516 3.516,3.516Z" style="fill:#4a4a4a;fill-rule:nonzero;"/><rect x="614.737" y="477.95" width="5.368" height="49.464" style="fill:#4a4a4a;fill-rule:nonzero;"/><path d="M644.686,527.99c7.555,0 13.117,-3.513 14.268,-10.236l-5.305,0c-0.704,3.907 -3.713,5.828 -8.899,5.828c-6.851,0 -10.501,-4.227 -10.757,-11.848l25.216,0l0,-1.725c0,-11.971 -7.288,-16.635 -15.036,-16.635c-9.219,0 -15.676,7.034 -15.676,17.146l0,0.511c0,10.31 6.713,16.959 16.189,16.959Zm-10.501,-20.536c0.897,-5.957 4.546,-9.672 9.988,-9.672c5.507,0 9.092,2.754 9.604,9.672l-19.592,0Z" style="fill:#4a4a4a;fill-rule:nonzero;"/><path d="M678.029,527.99c8.131,0 12.284,-4.088 12.284,-10.17c0,-7.106 -4.856,-8.642 -11.772,-9.923c-6.147,-1.088 -7.812,-2.304 -7.812,-5.313c0,-2.881 2.497,-4.802 6.34,-4.802c4.226,0 6.275,1.601 7.043,5.25l5.115,-0c-0.895,-7.23 -6.075,-9.658 -12.094,-9.658c-5.251,0 -11.324,3.194 -11.324,9.402c0,5.826 2.939,8.258 11.644,9.859c5.187,0.96 7.812,2.112 7.812,5.634c0,3.585 -2.241,5.313 -7.3,5.313c-5.379,0 -7.491,-2.497 -7.875,-6.466l-5.177,0c0.32,6.849 5.113,10.874 13.116,10.874Z" style="fill:#4a4a4a;fill-rule:nonzero;"/><path d="M241.773,610.326c10.948,0 17.212,-8.378 17.212,-23.545l0,-2.881c0,-13.189 -5.624,-20.478 -16.444,-20.478c-9.668,0 -15.804,6.137 -15.804,15.292c0,8.643 6.136,14.972 15.036,14.972c5.25,0 9.667,-2.363 11.844,-6.072c-0.128,12.156 -4.417,18.176 -11.716,18.176c-5.891,0 -8.451,-2.754 -9.476,-7.237l-5.368,0c1.214,7.365 6.264,11.773 14.716,11.773Zm0.832,-20.984c-6.21,0 -10.18,-4.289 -10.18,-10.884c0,-6.466 4.098,-10.692 10.116,-10.692c6.146,0 10.564,4.162 10.564,11.653c0,5.954 -4.354,9.923 -10.5,9.923Z" style="fill:#4a4a4a;fill-rule:nonzero;"/><path d="M283.181,610.39c9.668,0 15.804,-6.136 15.804,-15.292c0,-8.387 -5.88,-14.972 -14.971,-14.972c-5.314,0 -9.604,2.492 -11.781,6.201c0.256,-12.093 5.122,-18.305 12.037,-18.305c5.122,0 7.427,2.306 8.451,6.533l5.305,-0c-1.214,-7.363 -6.265,-11.069 -13.372,-11.069c-10.5,0 -17.917,8.571 -17.917,25.018l0,1.088c0,11.46 3.962,20.798 16.444,20.798Zm0,-4.344c-6.146,0 -10.564,-3.969 -10.564,-11.46c0,-5.954 4.354,-10.116 10.5,-10.116c6.211,0 10.18,4.29 10.18,10.884c0,6.467 -4.097,10.692 -10.116,10.692Z" style="fill:#4a4a4a;fill-rule:nonzero;"/><path d="M314.865,609.814l5.56,0l0,-45.752l-5.176,0l-10.624,7.679l0,5.183l10.24,-7.359l0,40.249Z" style="fill:#4a4a4a;fill-rule:nonzero;"/><path d="M360.177,609.814l5.56,0l0,-41.216l13.312,0l0,-4.536l-32.184,0l0,4.536l13.312,0l0,41.216Z" style="fill:#4a4a4a;fill-rule:nonzero;"/><path d="M383.729,609.814l5.304,0l0,-18.368c0,-8.256 4.288,-10.368 11.008,-10.688l0,-4.984c-6.016,0.192 -8.896,2.812 -11.008,6.584l0,-6.008l-5.304,0l0,33.464Z" style="fill:#4a4a4a;fill-rule:nonzero;"/><path d="M420.526,610.39c7.555,0 13.117,-3.513 14.268,-10.236l-5.305,0c-0.704,3.907 -3.713,5.828 -8.899,5.828c-6.851,0 -10.501,-4.227 -10.757,-11.848l25.216,0l0,-1.725c0,-11.971 -7.288,-16.635 -15.036,-16.635c-9.219,0 -15.676,7.034 -15.676,17.146l0,0.511c0,10.31 6.713,16.959 16.189,16.959Zm-10.501,-20.536c0.897,-5.957 4.546,-9.672 9.988,-9.672c5.507,0 9.092,2.754 9.604,9.672l-19.592,0Z" style="fill:#4a4a4a;fill-rule:nonzero;"/><path d="M456.878,610.39c7.555,0 13.117,-3.513 14.268,-10.236l-5.305,0c-0.704,3.907 -3.713,5.828 -8.899,5.828c-6.851,0 -10.501,-4.227 -10.757,-11.848l25.216,0l0,-1.725c0,-11.971 -7.288,-16.635 -15.036,-16.635c-9.219,0 -15.676,7.034 -15.676,17.146l0,0.511c0,10.31 6.713,16.959 16.189,16.959Zm-10.501,-20.536c0.897,-5.957 4.546,-9.672 9.988,-9.672c5.507,0 9.092,2.754 9.604,9.672l-19.592,0Z" style="fill:#4a4a4a;fill-rule:nonzero;"/><path d="M490.221,610.39c8.131,0 12.284,-4.088 12.284,-10.17c0,-7.106 -4.856,-8.642 -11.772,-9.923c-6.147,-1.088 -7.812,-2.304 -7.812,-5.313c0,-2.881 2.497,-4.802 6.34,-4.802c4.226,0 6.275,1.601 7.043,5.25l5.115,-0c-0.895,-7.23 -6.075,-9.658 -12.094,-9.658c-5.251,0 -11.324,3.194 -11.324,9.402c0,5.826 2.939,8.258 11.644,9.859c5.187,0.96 7.812,2.112 7.812,5.634c0,3.585 -2.241,5.313 -7.3,5.313c-5.379,0 -7.491,-2.497 -7.875,-6.466l-5.177,0c0.32,6.849 5.113,10.874 13.116,10.874Z" style="fill:#4a4a4a;fill-rule:nonzero;"/><path d="M527.921,609.814l5.56,0l0,-18.624l7.427,0c8.708,0 15.997,-3.769 15.997,-13.5l0,-0.256c0,-9.539 -7.225,-13.372 -15.997,-13.372l-12.987,0l0,45.752Zm5.56,-23.032l0,-18.248l7.812,0c6.21,0 10.052,2.433 10.052,8.9l0,0.256c0,5.891 -3.522,9.092 -10.052,9.092l-7.812,0Z" style="fill:#4a4a4a;fill-rule:nonzero;"/><rect x="564.849" y="560.35" width="5.368" height="49.464" style="fill:#4a4a4a;fill-rule:nonzero;"/><path d="M589.484,610.39c4.93,0 7.94,-1.661 10.437,-4.792l0,4.216l5.304,0l0,-22.074c0,-9.347 -5.816,-11.966 -12.219,-11.966c-6.467,0 -12.544,2.811 -13.247,10.429l5.307,-0c0.512,-4.099 3.073,-6.021 7.684,-6.021c5.122,0 7.171,2.242 7.171,7.558l0,2.434l-4.802,0c-8.58,0 -16.766,2.619 -16.766,10.36c0,6.854 4.921,9.856 11.131,9.856Zm0.512,-4.216c-4.674,0 -6.339,-2.177 -6.339,-5.636c0,-4.931 4.931,-6.596 11.654,-6.596l4.61,0l0,4.163c0,5.187 -4.29,8.069 -9.925,8.069Z" style="fill:#4a4a4a;fill-rule:nonzero;"/><path d="M615.665,609.814l5.304,0l0,-20.288c0,-6.016 4.418,-9.152 9.348,-9.152c5.379,0 7.876,2.624 7.876,8.512l0,20.928l5.304,0l0,-20.544c0,-9.726 -4.857,-13.496 -11.771,-13.496c-5.506,0 -9.22,2.747 -10.757,5.88l0,-5.304l-5.304,0l0,33.464Z" style="fill:#4a4a4a;fill-rule:nonzero;"/><path d="M664.105,610.262c2.176,0 3.456,-0.319 4.544,-0.703l0,-4.473c-1.152,0.448 -2.432,0.704 -4.096,0.704c-2.688,0 -4.16,-1.6 -4.16,-4.865l0,-20.103l7.808,0l0,-4.472l-7.808,0l0,-7.616l-5.304,0l0,7.616l-4.8,0l0,4.472l4.8,0l0,20.615c0,5.248 2.94,8.825 9.016,8.825Z" style="fill:#4a4a4a;fill-rule:nonzero;"/><path d="M690.35,610.39c7.555,0 13.117,-3.513 14.268,-10.236l-5.305,0c-0.704,3.907 -3.713,5.828 -8.899,5.828c-6.851,0 -10.501,-4.227 -10.757,-11.848l25.216,0l0,-1.725c0,-11.971 -7.288,-16.635 -15.036,-16.635c-9.219,0 -15.676,7.034 -15.676,17.146l0,0.511c0,10.31 6.713,16.959 16.189,16.959Zm-10.501,-20.536c0.897,-5.957 4.546,-9.672 9.988,-9.672c5.507,0 9.092,2.754 9.604,9.672l-19.592,0Z" style="fill:#4a4a4a;fill-rule:nonzero;"/><path d="M725.613,610.39c4.866,0 9.539,-3.066 11.46,-6.328l0,5.752l5.304,0l0,-49.464l-5.304,0l0,21.368c-1.921,-3.261 -5.378,-5.944 -10.948,-5.944c-9.22,0 -15.612,7.224 -15.612,17.464l0,0.512c0,10.44 6.328,16.64 15.1,16.64Zm0.576,-4.408c-5.634,0 -10.18,-4.033 -10.18,-12.484l0,-0.512c0,-8.13 3.97,-12.804 10.628,-12.804c6.531,0 10.628,4.034 10.628,12.612l-0,0.512c-0,8.579 -4.866,12.676 -11.076,12.676Z" style="fill:#4a4a4a;fill-rule:nonzero;"/></g><path d="M476.375,377.022c9.83,-0.698 19.748,-2.419 29.603,-5.226l3.067,-0.876c-10.731,3.327 -21.704,5.34 -32.67,6.102Zm-63.072,-9.626c-5.918,-2.312 -11.69,-5.004 -17.285,-8.084c-5.606,-3.098 -10.978,-6.553 -16.096,-10.337c10.267,7.569 21.5,13.766 33.381,18.421Zm-75.874,-67.988c-5.036,-9.613 -9.03,-19.862 -11.824,-30.599l0.877,3.079c2.768,9.709 6.457,18.904 10.947,27.52Zm269.34,-104.016l-0.883,-3.092c-2.807,-9.849 -6.559,-19.17 -11.137,-27.889c5.13,9.722 9.188,20.11 12.02,30.981Zm-53.015,-79.201c-10.871,-8.204 -22.847,-14.846 -35.559,-19.735c6.28,2.4 12.395,5.238 18.313,8.508c6.026,3.334 11.792,7.093 17.246,11.227Zm-130.425,-22.923c10.687,-3.308 21.596,-5.321 32.517,-6.096c-9.785,0.711 -19.646,2.426 -29.45,5.22l-3.067,0.876Z" style="fill:#64a944;fill-rule:nonzero;"/><path d="M580.316,321.989l-1.615,1.977c-2.727,3.34 -5.568,6.528 -8.516,9.556c-9.636,9.863 -20.641,18.331 -32.646,25.112c-11.12,6.258 -23.025,11.039 -35.382,14.205c-13.797,3.514 -28.048,4.993 -42.27,4.39c-4.139,-0.183 -8.314,-0.551 -12.499,-1.099l-2.515,-0.323c-2.67,-0.394 -5.331,-0.861 -7.985,-1.405c-9.514,-1.973 -18.969,-4.931 -28.24,-8.927l-2.94,-1.269c-11.016,-5.053 -21.576,-11.577 -31.397,-19.597l-62.626,-51.138l10.466,-80.172c1.641,-12.58 4.847,-24.578 9.399,-35.815l1.261,-2.929c4.037,-9.362 8.946,-18.084 14.584,-26.113c1.505,-2.124 3.067,-4.218 4.679,-6.263l1.603,-1.962c2.687,-3.29 5.488,-6.43 8.394,-9.426c9.45,-9.696 20.206,-18.039 31.95,-24.771c11.827,-6.754 24.546,-11.829 37.777,-15.06c13.249,-3.224 26.895,-4.566 40.518,-4.001c4.197,0.181 8.426,0.543 12.67,1.099l2.534,0.33c2.524,0.373 5.041,0.814 7.556,1.318c9.649,1.968 19.243,4.957 28.646,9.012l2.954,1.272c11.011,5.049 21.566,11.569 31.388,19.589l62.625,51.138l-10.461,80.176c-1.645,12.576 -4.852,24.574 -9.404,35.811l-1.261,2.929c-4.059,9.409 -8.999,18.18 -14.675,26.235c-1.477,2.09 -2.996,4.121 -4.572,6.121Z" style="fill:#62bda4;fill-rule:nonzero;"/><path d="M594.133,232.285c-0,69.206 -56.101,125.313 -125.314,125.313c-69.207,0 -125.313,-56.107 -125.313,-125.313c-0,-69.213 56.106,-125.314 125.313,-125.314c69.213,0 125.314,56.101 125.314,125.314Z" style="fill:#fff;fill-rule:nonzero;"/><path d="M436.613,217.032l-0,-44.487l15.512,0l0,3.15l-11.582,0l0,16.859l8.274,-0l0,2.971l-8.274,0l0,18.351l11.582,0l0,3.156l-15.512,0Z" style="fill:#62bda4;fill-rule:nonzero;"/><path d="M456.335,204.129l0,-18.636c0,-1.588 0.108,-3.023 0.311,-4.318c0.21,-1.289 0.572,-2.521 1.099,-3.696c0.527,-1.174 1.206,-2.159 2.032,-2.959c0.825,-0.8 1.879,-1.435 3.162,-1.905c1.289,-0.463 2.775,-0.698 4.464,-0.698c6.959,-0 10.439,4.527 10.439,13.576l0,1.809l-3.746,0l-0,-2.692c-0,-1.429 -0.108,-2.692 -0.324,-3.797c-0.21,-1.105 -0.572,-2.096 -1.073,-2.984c-0.495,-0.889 -1.194,-1.569 -2.077,-2.045c-0.889,-0.47 -1.962,-0.711 -3.219,-0.711c-1.137,-0 -2.127,0.165 -2.972,0.482c-0.844,0.318 -1.53,0.75 -2.057,1.302c-0.527,0.552 -0.946,1.245 -1.264,2.07c-0.323,0.826 -0.539,1.695 -0.66,2.597c-0.121,0.902 -0.184,1.937 -0.184,3.086l-0,20.402c-0,1.467 0.108,2.737 0.311,3.81c0.21,1.079 0.565,2.07 1.073,2.978c0.508,0.902 1.245,1.594 2.21,2.064c0.965,0.476 2.146,0.711 3.543,0.711c1.257,-0 2.33,-0.235 3.219,-0.711c0.883,-0.47 1.582,-1.156 2.077,-2.051c0.501,-0.896 0.863,-1.899 1.073,-3.004c0.216,-1.098 0.324,-2.368 0.324,-3.797l-0,-3.054l3.746,-0l0,2.171c0,1.575 -0.089,3.004 -0.279,4.293c-0.191,1.295 -0.534,2.534 -1.023,3.715c-0.489,1.181 -1.123,2.171 -1.898,2.971c-0.775,0.8 -1.778,1.435 -2.997,1.912c-1.226,0.476 -2.642,0.711 -4.242,0.711c-1.727,-0 -3.238,-0.235 -4.54,-0.711c-1.302,-0.477 -2.362,-1.112 -3.175,-1.912c-0.819,-0.8 -1.486,-1.79 -1.994,-2.971c-0.508,-1.181 -0.863,-2.413 -1.06,-3.696c-0.197,-1.289 -0.299,-2.724 -0.299,-4.312Z" style="fill:#62bda4;fill-rule:nonzero;"/><path d="M501.787,205.012l0,-20.402c0,-6.356 -2.47,-9.537 -7.416,-9.537c-4.953,-0 -7.423,3.181 -7.423,9.537l-0,20.402c-0,6.375 2.47,9.563 7.423,9.563c4.946,-0 7.416,-3.188 7.416,-9.563Zm-18.77,-0.883l0,-18.636c0,-1.569 0.121,-3.01 0.349,-4.318c0.235,-1.308 0.623,-2.546 1.175,-3.708c0.553,-1.162 1.251,-2.147 2.096,-2.947c0.844,-0.8 1.924,-1.435 3.232,-1.905c1.308,-0.463 2.813,-0.698 4.502,-0.698c1.682,-0 3.187,0.235 4.495,0.698c1.308,0.47 2.388,1.105 3.232,1.905c0.845,0.8 1.543,1.785 2.096,2.947c0.546,1.162 0.94,2.4 1.175,3.708c0.228,1.308 0.349,2.749 0.349,4.318l-0,18.636c-0,9.068 -3.785,13.602 -11.347,13.602c-7.569,-0 -11.354,-4.534 -11.354,-13.602Z" style="fill:#62bda4;fill-rule:nonzero;"/><path d="M373.051,278.505l0,-56.329l22.129,-0l0,6.032l-14.077,-0l-0,18.11l10.058,-0l-0,6.032l-10.058,-0l-0,26.155l-8.052,-0Z" style="fill:#62bda4;fill-rule:nonzero;"/><path d="M397.257,278.505l-0,-40.239l8.051,0l0,5.378c0.813,-1.594 2.007,-2.984 3.569,-4.165c1.562,-1.188 3.295,-1.778 5.2,-1.778c0.064,-0 0.496,0.044 1.289,0.127l0,8.896c-1.486,-0.591 -2.971,-0.883 -4.464,-0.883c-1.676,0 -3.028,0.508 -4.057,1.512c-1.022,1.009 -1.537,2.336 -1.537,3.994l0,27.158l-8.051,-0Z" style="fill:#62bda4;fill-rule:nonzero;"/><path d="M419.392,278.505l0,-40.239l8.045,0l0,40.239l-8.045,-0Zm0,-46.271l0,-8.045l8.045,-0l0,8.045l-8.045,-0Z" style="fill:#62bda4;fill-rule:nonzero;"/><path d="M442.556,254.363l7.988,-0l0,-2.419c-0.025,-1.074 -0.082,-2.001 -0.19,-2.801c-0.108,-0.793 -0.292,-1.587 -0.553,-2.387c-0.26,-0.794 -0.66,-1.404 -1.206,-1.823c-0.546,-0.419 -1.219,-0.628 -2.013,-0.628c-0.819,-0 -1.505,0.216 -2.057,0.66c-0.559,0.438 -0.965,1.073 -1.226,1.899c-0.267,0.831 -0.451,1.638 -0.552,2.438c-0.102,0.794 -0.172,1.753 -0.191,2.864l0,2.197Zm3.963,24.707c-1.95,-0 -3.645,-0.337 -5.08,-1.01c-1.435,-0.666 -2.572,-1.543 -3.423,-2.622c-0.851,-1.08 -1.537,-2.464 -2.057,-4.147c-0.527,-1.689 -0.889,-3.371 -1.086,-5.06c-0.197,-1.689 -0.324,-3.652 -0.362,-5.899c-0.063,-1.759 -0.063,-3.518 0,-5.277c0.064,-2.096 0.203,-3.956 0.425,-5.582c0.223,-1.619 0.604,-3.2 1.143,-4.73c0.547,-1.53 1.258,-2.788 2.128,-3.772c0.863,-0.984 2.013,-1.778 3.422,-2.375c1.416,-0.597 3.067,-0.895 4.953,-0.895c1.721,-0 3.232,0.229 4.54,0.679c1.308,0.451 2.4,1.131 3.27,2.039c0.87,0.914 1.594,1.924 2.172,3.035c0.578,1.111 1.01,2.457 1.302,4.038c0.292,1.581 0.495,3.137 0.616,4.674c0.114,1.53 0.171,3.289 0.171,5.276l0,0.947l-16.097,-0l0,3.295c-0.038,0.775 -0.044,1.581 -0.012,2.407c0.031,0.825 0.063,1.638 0.107,2.438c0.045,0.794 0.159,1.556 0.35,2.28c0.184,0.723 0.419,1.352 0.692,1.898l1.143,1.289c0.495,0.318 1.073,0.476 1.746,0.476c0.838,0 1.53,-0.165 2.076,-0.488c0.54,-0.324 0.947,-0.813 1.207,-1.467c0.267,-0.648 0.444,-1.296 0.552,-1.943c0.102,-0.654 0.165,-1.467 0.184,-2.458l0,-1.695l7.989,-0l-0,1.6c-0.191,4.299 -1.251,7.55 -3.175,9.747c-1.931,2.203 -4.896,3.302 -8.896,3.302Z" style="fill:#62bda4;fill-rule:nonzero;"/><path d="M464.469,278.505l0,-40.239l8.046,0l-0,4.337c1.193,-1.086 2.165,-1.918 2.921,-2.496c0.755,-0.577 1.797,-1.117 3.13,-1.631c1.327,-0.515 2.749,-0.775 4.254,-0.775c1.721,-0 3.118,0.629 4.185,1.886c1.067,1.257 1.606,2.8 1.606,4.622l0,34.296l-8.051,-0l-0,-30.175c-0,-1.409 -0.197,-2.425 -0.597,-3.066c-0.4,-0.642 -1.206,-0.959 -2.419,-0.959c-0.692,-0 -1.378,0.139 -2.058,0.425c-0.685,0.28 -1.193,0.54 -1.524,0.781c-0.336,0.241 -0.819,0.622 -1.447,1.149l-0,31.845l-8.046,-0Z" style="fill:#62bda4;fill-rule:nonzero;"/><path d="M507.058,272.472c1.949,0 3.962,-0.425 6.038,-1.263l0,-25.304c-1.803,-1.067 -3.816,-1.6 -6.038,-1.6c-0.794,-0 -1.467,0.19 -2.013,0.584c-0.54,0.381 -0.953,0.952 -1.226,1.695c-0.273,0.743 -0.47,1.512 -0.597,2.293c-0.127,0.787 -0.197,1.714 -0.216,2.781c-0.088,4.699 -0.088,8.413 0,11.163c0.019,1.34 0.089,2.533 0.216,3.581c0.127,1.048 0.331,2.057 0.616,3.035c0.28,0.972 0.699,1.721 1.238,2.248c0.547,0.521 1.207,0.787 1.982,0.787Zm-2.013,6.598c-1.778,-0 -3.334,-0.502 -4.667,-1.511c-1.327,-1.004 -2.356,-2.362 -3.08,-4.083c-0.724,-1.721 -1.264,-3.505 -1.619,-5.36c-0.356,-1.854 -0.572,-3.854 -0.661,-5.987c-0.038,-0.991 -0.038,-3.398 0,-7.233c0.045,-1.384 0.108,-2.635 0.191,-3.753c0.082,-1.123 0.222,-2.292 0.425,-3.505c0.197,-1.219 0.451,-2.292 0.75,-3.225c0.304,-0.927 0.711,-1.835 1.212,-2.699c0.502,-0.87 1.093,-1.594 1.766,-2.159c0.666,-0.565 1.473,-1.016 2.419,-1.346c0.94,-0.337 1.987,-0.508 3.137,-0.508c0.908,-0 1.746,0.121 2.533,0.362c0.788,0.241 1.537,0.622 2.248,1.13c0.711,0.521 1.283,0.972 1.715,1.372c0.425,0.393 0.99,0.965 1.682,1.695l0,-20.053l8.045,0l0,56.298l-8.045,-0l0,-3.651c-1.219,1.263 -2.451,2.279 -3.708,3.054c-1.264,0.775 -2.705,1.162 -4.343,1.162Z" style="fill:#62bda4;fill-rule:nonzero;"/><rect x="528.685" y="222.176" width="8.045" height="56.329" style="fill:#62bda4;fill-rule:nonzero;"/><path d="M542.864,288.563l0,-6.032c1.594,-0 2.864,-0.108 3.816,-0.318c0.959,-0.209 1.67,-0.578 2.153,-1.118c0.483,-0.533 0.794,-1.117 0.933,-1.758c0.134,-0.635 0.197,-1.524 0.197,-2.655l-9.112,-38.416l8.046,0c3.124,17.246 4.813,26.637 5.06,28.168c0.445,-2.832 0.94,-5.81 1.492,-8.941c0.559,-3.137 1.188,-6.591 1.886,-10.375c0.705,-3.785 1.245,-6.731 1.62,-8.852l8.051,0l-10.064,42.245c-0.667,2.915 -2.083,4.985 -4.242,6.217c-2.159,1.219 -5.162,1.835 -9.023,1.835l-0.813,-0Z" style="fill:#62bda4;fill-rule:nonzero;"/></svg>