<?xml version="1.0" encoding="UTF-8" standalone="no"?>
<!-- Created with Inkscape (http://www.inkscape.org/) -->

<svg
   width="210mm"
   height="210mm"
   viewBox="0 0 210 210"
   version="1.1"
   id="svg455"
   inkscape:version="1.1.1 (3bf5ae0d25, 2021-09-20)"
   sodipodi:docname="desenho.svg"
   xmlns:inkscape="http://www.inkscape.org/namespaces/inkscape"
   xmlns:sodipodi="http://sodipodi.sourceforge.net/DTD/sodipodi-0.dtd"
   xmlns="http://www.w3.org/2000/svg"
   xmlns:svg="http://www.w3.org/2000/svg">
  <sodipodi:namedview
     id="namedview457"
     pagecolor="#ffffff"
     bordercolor="#666666"
     borderopacity="1.0"
     inkscape:pageshadow="2"
     inkscape:pageopacity="0.0"
     inkscape:pagecheckerboard="0"
     inkscape:document-units="mm"
     showgrid="false"
     inkscape:zoom="0.74118967"
     inkscape:cx="397.33419"
     inkscape:cy="238.13068"
     inkscape:window-width="1920"
     inkscape:window-height="1017"
     inkscape:window-x="-8"
     inkscape:window-y="1072"
     inkscape:window-maximized="1"
     inkscape:current-layer="layer1" />
  <defs
     id="defs452" />
  <g
     inkscape:label="Camada 1"
     inkscape:groupmode="layer"
     id="layer1">
    <g
       id="Group_428"
       data-name="Group 428"
       transform="matrix(0.26458333,0,0,0.26458333,-29.349859,-510.23005)"
       style="display:inline">
      <g
         id="Group_333"
         data-name="Group 333"
         transform="translate(73.184,179.034)">
        <g
           id="Group_364"
           data-name="Group 364"
           transform="translate(59.389,1770.883)">
          <path
             id="Path_230"
             data-name="Path 230"
             d="m 105.662,303.792 c 1.26,2.124 1.2,3.847 -0.707,4.144 -5.919,0.909 -79.442,-0.534 -91.172,-0.706 -2.926,0 -3.057,-2.864 -1.709,-5.638 9.742,-20.281 27.478,-51.474 42.092,-68.182 0.878,-1 2.566,-1.539 4.273,0.747 a 673.471,673.471 0 0 1 47.223,69.635 z m -53.14,-11.924 c -0.738,5.768 8.715,6.028 7.093,-0.255 a 3.587,3.587 0 0 0 -7.093,0.255 z M 54.146,278.3 c 0,5.3 5.277,7.605 5.158,-2.928 0,-5.064 0,-10.129 -0.258,-15.175 -0.212,-4.271 -2.862,-4.271 -3.824,-2.795 -1.632,2.543 -1.065,16.86 -1.076,20.898 z m 47.412,25.919 c -12.693,-20.17 -33.312,-49.935 -46,-66.731 -14.49,22.347 -27.315,41 -39.061,65.3 27.241,0.426 57.797,1.13 85.061,1.433 z"
             transform="translate(486.488,-5.515)"
             fill="#fb9d97" />
          <path
             id="Path_231"
             data-name="Path 231"
             d="m 407.714,113.176 c 14.422,24.508 31.816,54.145 43.865,79.572 1.2,2.5 0.429,4.079 -1.5,4.273 -5.16,0.607 -88.458,-4.1 -100.423,-4.723 -2.883,-0.151 -3.2,-3.227 -1.068,-6.8 a 527.752,527.752 0 0 1 50.766,-71.929 c 3.066,-3.535 5.091,-5.948 8.36,-0.393 z M 394.529,178.3 a 4.023,4.023 0 0 0 5.13,4.424 c 4.273,-0.963 1.623,-5.516 1.518,-5.834 -1.027,-3.047 -6.211,-1.833 -6.648,1.41 z m 4.594,-40.81 c -0.935,4.637 -2.692,22.2 -2.844,26.987 -0.152,4.787 5.023,5.448 5.6,1.687 0.942,-6.41 2.371,-22.5 1.391,-28.483 a 2.146,2.146 0 0 0 -4.146,-0.191 z m 48.953,55.723 c -14.061,-27.315 -30.022,-52.882 -44.272,-78.459 -22.115,26.3 -33.312,44.008 -51.411,73.332 29.659,1.563 62.223,4.17 95.684,5.13 z"
             transform="translate(-328.669,-48.312)"
             fill="#fb9d97" />
          <path
             id="Path_232"
             data-name="Path 232"
             d="m 416.97,197.166 c 60.487,0.039 50.746,69.72 4.273,73.356 -52.564,4.1 -55.811,-73.387 -4.273,-73.356 z m -23.695,22.392 c 0.3,1.387 11.943,12.947 22.69,31.646 a 2.653,2.653 0 0 0 3.6,1.041 c 0.545,-0.3 15.131,-13.1 20.4,-17.965 1.708,-1.582 -0.492,-5.087 -2.54,-3.484 -6.283,4.892 -12.333,10.086 -18.484,15.151 a 195.631,195.631 0 0 0 -21.157,-28.833 2.671,2.671 0 0 0 -4.5,2.455 z"
             transform="translate(-380.017,-17.86)"
             fill="#fb9d97" />
          <path
             id="Path_233"
             data-name="Path 233"
             d="m 377.86,365.446 c 47.5,2.413 50.6,82.5 -5.808,79.636 -56.408,-2.864 -52.734,-82.613 5.808,-79.636 z m -22.5,57.435 c 2.732,0 15.533,-11.645 18.417,-14.142 3.526,3.522 11.71,12.14 14.957,14.443 a 2.095,2.095 0 0 0 2.82,-3.035 188.063,188.063 0 0 0 -14.016,-14.83 c 3.89,-3.438 12.009,-10.191 14.421,-14.015 1.215,-1.9 -1.389,-3.569 -3.009,-2.671 A 194.68,194.68 0 0 0 373.866,401.6 c -2.35,-2.37 -13.332,-14.058 -15.9,-15.384 -1.86,-0.963 -3.759,1.518 -2.929,3.2 1.133,2.247 12.82,13.355 14.957,15.58 a 180.43,180.43 0 0 0 -14.807,12.476 c -1.921,2.195 -4.058,5.4 0.173,5.4 z"
             transform="translate(-269.631,40.825)"
             fill="#fb9d97" />
          <path
             id="Path_234"
             data-name="Path 234"
             d="m 347.666,99.745 c -0.812,18.271 -7.284,33.952 -31.579,35.386 a 35.648,35.648 0 0 1 -38.654,-36.2 c 0.194,-18.589 9.507,-33.689 34.186,-34.657 23.649,-0.92 36.959,14.981 36.047,35.471 z m -47.155,15.533 11.994,-12.541 c 5.023,4.616 9.9,9.423 15.085,13.867 a 2.267,2.267 0 0 0 3.1,-3.183 c -2.35,-3.057 -11.281,-11.281 -14.656,-14.507 2.123,-2.309 11.985,-11.924 12.82,-14.743 0.147,-0.492 0,-5.664 -6.677,1 -3.339,3.339 -6.6,6.774 -9.913,10.149 a 136.522,136.522 0 0 0 -10.237,-9.593 c -3.1,-2.348 -6.007,1.348 -2.541,4.7 3.035,2.926 6.089,5.791 9.146,8.675 l -12.052,12.522 a 2.704668,2.704668 0 0 0 3.946,3.7 z"
             transform="translate(-125.345,-64.239)"
             fill="#fb9d97" />
          <path
             id="Path_235"
             data-name="Path 235"
             d="m 61.837,145.731 c 0.813,-18.247 11.752,-35.206 40.919,-35.206 22.264,0 35.206,15.384 34.185,37.391 -1.021,22.007 -15.781,34.059 -36.641,35.064 A 35.45,35.45 0 0 1 61.84,145.732 Z m 18.21,-10.962 c 5.118,4.8 10.106,9.742 15.175,14.617 -2.993,3.482 -5.749,7.2 -8.974,10.467 -5.791,5.939 -1.153,9.657 1.323,6.732 q 5.738,-6.766 11.5,-13.548 a 141.7,141.7 0 0 0 13.5,12.158 c 1.646,1.11 3.87,-1.238 2.714,-2.819 a 152.311,152.311 0 0 0 -12.82,-13.291 c 3.162,-3.761 12.82,-14.808 14.828,-18.21 1.433,-2.479 -1.9,-4.06 -3.5,-2.522 -5.257,5.087 -10.3,11.455 -15.109,17.093 -4.956,-4.807 -9.87,-9.712 -14.957,-14.4 -4.325,-4.009 -5.645,1.884 -3.684,3.727 z"
             transform="translate(387.837,-48.089)"
             fill="#fb9d97" />
          <path
             id="Path_236"
             data-name="Path 236"
             d="m 153.047,216.46 c 21.643,0 31.6,16.194 29.357,36.921 -2.243,20.727 -12.819,27.779 -31.688,27.779 -18.869,0 -30.654,-10.56 -30.446,-29.916 0.208,-19.356 13.353,-34.784 32.777,-34.784 z M 140.6,262.227 c 2.125,-0.639 8.547,-9.572 10.836,-12.116 4.273,3.782 8.331,7.672 12.669,11.3 1.924,1.6 4.855,-1.365 3.055,-3.183 -3.945,-4.079 -8.195,-7.891 -12.307,-11.815 a 64.908,64.908 0 0 0 8.355,-9.409 c 0.213,-0.577 0,-5.363 -6.027,0 -2.124,1.9 -4.036,3.972 -6.07,5.939 l -6.58,-6.092 c -1.86,-1.708 -6.677,-4.273 -6.112,0 0.258,2.125 6.709,7.415 9.3,9.809 -1.775,2.01 -9.712,10.685 -9.615,13.418 a 2.126,2.126 0 0 0 2.068,2.181 2.094,2.094 0 0 0 0.44,-0.035 z"
             transform="translate(258.558,-11.129)"
             fill="#fb9d97" />
          <path
             id="Path_241"
             data-name="Path 241"
             d="m 98.129,335.165 c -0.245,-3.4 -17.841,-27.778 -21.575,-27.923 -3.734,-0.145 -23.786,22.992 -22.954,25.895 0.371,1.326 9.561,2.311 19.476,2.781 -0.624,12.819 -4.141,58.715 -3.5,66.4 0.285,3.248 26.31,-0.641 77.429,0.407 -0.4,9.166 -1.809,29.379 -1.543,36.323 a 2.161,2.161 0 0 0 1.971,2.351 2.194,2.194 0 0 0 2.425,-1.911 c 0.006,-0.054 0.01,-0.106 0.011,-0.159 2.382,-15.9 6.169,-167.007 4.913,-180.937 13.75,-0.471 67.248,0.343 74.176,-1.582 2.864,-0.766 3.152,-97.475 2.952,-108.285 69.344,-1.047 138.484,-2.607 208.334,-2.459 -0.156,7.631 -2.5,66.467 -0.625,70.021 1.214,2.285 72.714,-0.321 81.2,-0.279 q -0.346,34.532 -0.7,69.059 c -3.944,-0.386 -28.481,-1.687 -31.555,-1.153 -2.189,0.382 -2.024,3.888 0,4.014 10.491,0.728 21.024,0.772 31.512,1.153 0.131,15.385 0.241,120.816 1.915,122.527 1.674,1.711 94.623,2.471 123.07,3.413 a 169.389,169.389 0 0 0 21.909,15.918 c 1.673,0.608 2.93,-34.6 2.19,-36.115 -1.027,-2.424 -19.36,11.136 -24.56,16.222 -13.352,-0.813 -105.531,-3.926 -118.906,-2.729 -0.549,-78.142 -1.276,-113.98 -0.484,-192.162 l 51.779,1.178 c 0,11.087 0.485,40.766 1.433,45.146 a 1.61,1.61 0 0 0 1.91,1.2 1.578,1.578 0 0 0 1.264,-1.368 c 0.573,-4.766 0,-35.6 0,-44.87 0,-3.035 -1.565,-4.125 -2.6,-4.273 -14.96,-1.2 -38.118,-1.476 -53.763,-1.624 0,-7.5 0.131,-15.342 0.156,-23.8 0,-2.5 -3.834,-2.124 -3.924,0.343 -0.314,9.573 -0.53,16.559 -0.726,23.5 q -38.87,-0.275 -77.736,1.366 c 0.154,-5.791 1.74,-65.275 1.387,-68.374 -0.2,-1.665 -1.167,-2.327 -3.13,-2.348 -68.523,-0.857 -141.016,0 -209.565,2.125 a 142.776,142.776 0 0 0 -1.188,-20.449 1.78,1.78 0 0 0 -2.039,-1.447 1.752,1.752 0 0 0 -1.511,1.6 174.133,174.133 0 0 0 0,20.449 c -23.884,0.769 -44.951,1.709 -72.711,2.8 -2.929,0.128 -3.261,4.574 -0.313,4.443 l 73.325,-2.8 c 0.485,33.567 0.375,74.037 -2.361,104.4 -5.837,-0.407 -68.611,-0.768 -73.236,1.348 -1.982,0.911 -4.209,133.777 -4.407,144.4 -9.121,-0.792 -57.838,0 -73.329,0.107 l 4.282,-62.837 c 10.268,0.257 19.993,0.021 19.922,-1.005 z"
             transform="translate(-38.075,-45.106)"
             fill="#092168" />
        </g>
        <g
           id="Group_535"
           data-name="Group 535"
           transform="translate(143.789,1878.822)">
          <path
             id="Path_801"
             data-name="Path 801"
             d="m 55.491,508.038 c -6.371,-16.911 0.616,-26.3 -1.2,-41.31 C 51.7,445.4 26.872,434.753 24.006,413.984 a 37.63,37.63 0 0 1 3.421,-20.655 c 5.12,-11.183 33.685,-44.716 29.268,-63.57 -1.406,-6.013 -15.566,-25.9 -18.048,-31.686 a 41.782,41.782 0 0 1 1.806,-33.689 c 4.812,-10.643 19.652,-30.88 20.454,-30.28 16.044,15.041 28.28,-19.386 5.413,-20.256 -6.215,-0.236 -9.438,-10.419 -11.631,-15.239 A 119.446,119.446 0 0 1 45.468,166.121 C 23.8,155.1 6,137.86 10.775,123.409 17.111,104.194 64.75,102.67 89.184,163.7 a 40.848,40.848 0 0 1 -1,-8.222 69.23,69.23 0 0 0 -22.666,-39.714 c -0.6,-0.4 0.2,-1.2 0.8,-0.8 a 66.766,66.766 0 0 1 24.065,39.706 53.943,53.943 0 0 1 1.2,10.027 c 7.819,1.8 19.6,9.6 27.474,23.263 17.789,30.88 1.251,58.256 14.235,86.832 9.864,21.7 36.057,29.329 47.134,49.129 9.031,16.151 4.789,32.613 1.608,49.734 0.535,22.985 9.639,37.345 23.666,55.345 17.42,22.366 38.771,46.993 27.873,76.805 a 31.012,31.012 0 0 1 -9.431,13.634 c -1.2,1 -3.01,-0.6 -1.806,-1.805 a 34.209,34.209 0 0 0 7.6,-12.433 c 5.6,-15.759 1.825,-30.747 -6.42,-45.321 -15.307,-27.068 -40.026,-43.831 -43.116,-77.809 -4.968,30.789 5.219,43.659 21.666,71.392 8.07,13.608 15.672,29.481 12.635,45.72 -4.048,21.666 -25.178,39.151 -56.15,36.3 -4.212,-0.38 -8.222,-1 -12.433,-1.8 a 54.242,54.242 0 0 0 15.843,-17.865 c 21.784,-38.581 -19.063,-66.4 -26.874,-99.866 -0.2,-0.6 -1.2,-0.4 -1,0.2 6.416,28.577 30.409,48.111 31.485,75.2 0.627,15.794 -10.468,33.233 -20.051,38.1 -18.713,9.5 -35.3,1.8 -34.092,0.6 0.38,-0.4 21.328,-13.589 7.819,-50.334 -5.386,-14.653 -18.4,-24.92 -28.474,-36.7 -14.889,-17.405 -24.133,-41.329 -17.865,-63.368 2.976,-10.438 9.423,-19.857 11.833,-30.481 7.545,-33.26 -22.807,-46.373 -26.87,-70.191 -0.43,16.307 14.592,26.95 21.256,40.109 12.772,25.23 -5.377,44.43 -10.228,63.173 -6.082,23.445 5.367,48.168 21.457,66.177 10.6,11.859 23.9,22.651 27.474,38.1 4.022,17.4 1.235,38.212 -15.642,44.119 -15.012,5.286 -39.263,-2.882 -46.698,-22.618 z m 13.235,-366.2 A 78.52,78.52 0 0 0 58.896,131.009 53.922,53.922 0 0 0 37.04,119.178 c -6.416,-1.6 -16.569,-2.775 -19.853,4.812 -0.787,1.813 2.041,2.832 3.007,1.2 10.571,-17.814 51.987,20.11 48.532,16.646 z m 84.422,190.914 a 53.429,53.429 0 0 1 8.826,27.273 0.903,0.903 0 0 0 1.806,0 c 0,-43.416 -41.117,-48.464 -49.133,-76.809 -3.467,-12.247 -0.62,-25.045 -0.2,-48.529 a 0.4,0.4 0 1 0 -0.8,0 c -0.711,7.6 -2.608,29.314 -2.608,36.9 -0.003,33.203 27.935,38.889 42.11,61.164 z"
             transform="translate(167.06)"
             fill="#092168" />
          <path
             id="Path_802"
             data-name="Path 802"
             d="m 137.151,135.949 a 0.452,0.452 0 0 1 0.8,0.4 c -17.717,42.527 -26.84,47.24 -20.252,51.737 a 8.088,8.088 0 0 1 3.421,3.611 c 2.509,6.8 -8.476,35.628 10.643,41.512 6.865,2.113 11.506,3.269 24.262,0.4 0.81,-0.182 1.2,0.8 0.6,1.4 a 21.89,21.89 0 0 1 -12.836,3.212 c 0.513,2.551 0.8,32.062 0.8,34.693 0,1.6 0.4,3.007 -0.6,4.409 -0.2,0.4 -0.8,0.2 -1,0 -1.11,-1.33 -0.8,0.76 -0.8,-39.1 -21.248,-1.638 -26.307,-11.251 -24.665,-32.488 0.722,-9.313 2.113,-12.513 -0.2,-14.239 a 16.014,16.014 0 0 1 -4.01,-3.007 5.223,5.223 0 0 1 -0.6,-5.618 415.72,415.72 0 0 1 24.437,-46.925 z"
             transform="translate(52.509,21.73)"
             fill="#092168"
             stroke="#092168"
             stroke-width="2" />
          <path
             id="Path_806"
             data-name="Path 806"
             d="m 63.9,336.5 c 0.2,-0.8 1.6,-0.8 1.4,0.2 -0.6,6.215 -1.6,12.43 -1.6,18.85 0,13.684 1.927,14.843 1.2,18.648 a 1.357,1.357 0 0 1 -2.406,0.4 C 60.584,371.734 58.923,350.08 63.9,336.5 Z"
             transform="translate(242.071,201.998)"
             fill="#092168"
             stroke="#092168"
             stroke-width="1" />
          <path
             id="Path_807"
             data-name="Path 807"
             d="m 220.959,283.983 c 0.38,0.81 -0.783,1.988 -1.4,1.2 a 37.251,37.251 0 0 0 -27.273,-15.041 10.734,10.734 0 0 1 -4.413,-0.38 1.342,1.342 0 0 1 -0.2,-2.007 c 2.007,-1.8 6.412,-0.954 8.826,-0.6 a 32.819,32.819 0 0 1 24.464,16.828 z"
             transform="translate(-154.428,139.61)"
             fill="#092168"
             stroke="#092168"
             stroke-width="1" />
          <path
             id="Path_808"
             data-name="Path 808"
             d="m 196.091,275.287 c -1.243,-2.589 4.413,-1.8 5.614,-1.6 a 30.755,30.755 0 0 1 18.451,10.413 c 0.6,0.8 -0.6,1.806 -1.2,1.205 -15.84,-11.573 -21.694,-7.589 -22.865,-10.018 z"
             transform="translate(-170.068,145.706)"
             fill="#092168"
             stroke="#092168"
             stroke-width="1" />
          <path
             id="Path_809"
             data-name="Path 809"
             d="m 222.595,291.1 a 34.507,34.507 0 0 0 -21.054,-11.023 c -2.809,-1.6 1.2,-2.79 2.608,-2.608 A 28.668,28.668 0 0 1 224,290.1 c 0.6,0.8 -0.8,1.8 -1.405,1 z"
             transform="translate(-182.736,149.338)"
             fill="#092168"
             stroke="#092168"
             stroke-width="1" />
          <path
             id="Path_810"
             data-name="Path 810"
             d="m 146.4,371.288 c -9.624,-8.051 -15.55,-22.514 -26.672,-28.075 a 74.91,74.91 0 0 0 -7.42,-2.809 0.76,0.76 0 0 1 0.2,-1.4 11.544,11.544 0 0 1 6.416,0.6 c 18.245,6.355 20.906,27.117 37.1,32.69 9.183,3.159 13.707,-1.87 15.444,-1 0.992,-5.968 6.739,-27.524 12.631,-29.078 3.083,-0.813 78.409,23.244 78.409,22.86 -8.6,-47.894 -20.754,-81.655 -10.826,-112.893 10.457,-32.914 40.36,-42.907 59.757,-32.887 0.8,0.411 0.2,1.6 -0.6,1.4 -19.45,-7.925 -45.366,2.562 -54.949,31.082 -13.782,41.022 17.402,112.953 12.233,136.562 a 1.045,1.045 0 0 1 -2.007,0 c -1.52,-5.7 -1.209,-12.053 -3.007,-21.054 -10.449,-1.745 -77.007,-23.464 -79.014,-21.461 -7.1,8.286 -15.132,44.173 -8.621,59.362 a 48.88,48.88 0 0 0 2.608,4.813 c 0.783,1.216 -0.8,2.2 -1.806,1.4 -6.181,-4.862 -6.519,-14.444 -6.42,-21.457 a 116.8,116.8 0 0 1 1.406,-15.843 c -7.62,6.011 -18.21,2.757 -24.862,-2.812 z"
             transform="translate(-101.923,93.615)"
             fill="#092168"
             stroke="#092168"
             stroke-width="1" />
          <path
             id="Path_811"
             data-name="Path 811"
             d="m 104.221,316.718 c 7.709,0.593 23.635,12.08 89.238,26.87 20.819,4.694 43.238,9.864 57.355,-6.819 0.8,-0.8 2,0.2 1.6,1.2 a 29.45,29.45 0 0 1 -21.666,12.832 91.641,91.641 0 0 1 -31.887,-2.6 c -10.643,-2.227 -21.256,-4.615 -31.682,-7.424 2.436,13.007 1.357,4.793 6.416,36.9 0.441,2.8 -2.406,3.611 -2.809,0.6 -1.414,-7.541 -5.827,-36.871 -4.812,-37.9 a 556.78,556.78 0 0 1 -54.546,-17.649 26.554,26.554 0 0 1 -7.819,-4.01 c -0.988,-0.803 -0.391,-2.206 0.612,-2 z"
             transform="translate(-25.858,184.684)"
             fill="#092168"
             stroke="#092168"
             stroke-width="1" />
          <path
             id="Path_812"
             data-name="Path 812"
             d="m 159.267,333.642 a 1.452,1.452 0 0 1 -2.406,1 31.512,31.512 0 0 1 -4.615,-10.225 c -10.6,-30.029 -12.331,-46.449 23.666,-90.443 0.6,-0.6 1.8,0.2 1.2,1 -4.443,5.991 -8.629,12.027 -12.631,18.245 -30.822,47.89 -6.731,65.257 -5.214,80.423 z"
             transform="translate(-31.371,110.001)"
             fill="#092168"
             stroke="#092168"
             stroke-width="1" />
        </g>
      </g>
    </g>
  </g>
</svg>
