<?xml version="1.0" encoding="UTF-8" standalone="no"?><!DOCTYPE svg PUBLIC "-//W3C//DTD SVG 1.1//EN" "http://www.w3.org/Graphics/SVG/1.1/DTD/svg11.dtd"><svg width="100%" height="100%" viewBox="0 0 1266 462" version="1.1" xmlns="http://www.w3.org/2000/svg" xmlns:xlink="http://www.w3.org/1999/xlink" xml:space="preserve" xmlns:serif="http://www.serif.com/" style="fill-rule:evenodd;clip-rule:evenodd;stroke-linejoin:round;stroke-miterlimit:2;"><rect x="0" y="0" width="1265.45" height="461.336" style="fill:none;"/><path d="M393.923,173.14c0,-11.49 -9.328,-20.819 -20.818,-20.819l-236.808,0c-11.49,0 -20.818,9.329 -20.818,20.819l-0,41.636c-0,11.49 9.328,20.818 20.818,20.818l236.808,0c11.49,0 20.818,-9.328 20.818,-20.818l0,-41.636Z" style="fill:#62bda4;"/><path d="M1159.99,274.378c0,-11.49 -9.328,-20.818 -20.818,-20.818l-1005.78,0c-11.489,0 -20.818,9.328 -20.818,20.818l0,41.637c0,11.49 9.329,20.818 20.818,20.818l1005.78,0c11.49,0 20.818,-9.328 20.818,-20.818l0,-41.637Z" style="fill:#e84249;"/><g><path d="M257.929,216.519c8.95,-0 15.353,-4.71 15.353,-12.575c0,-5.99 -3.261,-9.557 -8.338,-10.885c3.928,-1.63 6.826,-4.533 6.826,-9.434c0,-5.99 -4.77,-11.426 -12.994,-11.426c-8.224,0 -13.848,5.617 -14.151,12.454l4.596,0c0.544,-4.9 4.173,-8.168 9.555,-8.168c5.261,0 7.862,3.147 7.862,7.261c-0,4.719 -2.48,7.382 -8.104,7.382l-3.024,-0l0,4.407l3.266,-0c6.108,-0 9.131,2.843 9.131,8.409c0,5.082 -3.084,8.349 -9.857,8.349c-6.833,0 -9.917,-3.932 -10.401,-9.075l-4.838,0c0.302,7.563 5.926,13.301 15.118,13.301Z" style="fill:#fff;fill-rule:nonzero;"/><path d="M297.717,212.172c-7.199,0 -11.796,-5.685 -11.796,-16.633l0,-2.42c0,-10.646 4.355,-16.694 11.675,-16.694c7.32,-0 11.554,6.532 11.554,16.573l0,2.42c0,10.948 -3.871,16.754 -11.433,16.754Zm0,4.347c10.647,-0 16.747,-8.46 16.747,-21.041l0,-2.419c0,-12.34 -6.221,-20.86 -16.868,-20.86c-10.586,0 -17.05,8.218 -17.05,20.981l0,2.419c0,12.581 6.827,20.92 17.171,20.92Z" style="fill:#fff;fill-rule:nonzero;"/><path d="M330.07,188.89c-3.207,-0 -5.325,-2.118 -5.325,-6.232c-0,-4.115 2.118,-6.354 5.325,-6.354c3.268,-0 5.326,2.42 5.326,6.293c-0,4.054 -2.058,6.293 -5.326,6.293Zm0,3.923c5.205,0 9.914,-4.226 9.914,-10.216c0,-5.869 -4.528,-10.216 -9.914,-10.216c-5.265,-0 -9.913,4.347 -9.913,10.337c-0,5.869 4.77,10.095 9.913,10.095Zm-3.812,23.162l4.599,-0l26.429,-43.231l-4.599,-0l-26.429,43.231Zm27.276,-3.44c-3.207,0 -5.325,-2.118 -5.325,-6.232c-0,-4.115 2.118,-6.354 5.325,-6.354c3.268,0 5.326,2.421 5.326,6.293c-0,4.054 -2.058,6.293 -5.326,6.293Zm0,3.923c5.205,0 9.914,-4.225 9.914,-10.216c-0,-5.869 -4.528,-10.216 -9.914,-10.216c-5.265,-0 -9.914,4.347 -9.914,10.337c0,5.87 4.77,10.095 9.914,10.095Z" style="fill:#fff;fill-rule:nonzero;"/></g><g><path d="M1007.48,317.213l5.381,0l16.202,-42.506l0,-0.725l-28.475,0l-0,4.226l21.946,0l-15.054,39.005Z" style="fill:#fff;fill-rule:nonzero;"/><path d="M1050.3,313.411c-7.199,0 -11.796,-5.686 -11.796,-16.634l0,-2.419c0,-10.646 4.356,-16.694 11.675,-16.694c7.32,-0 11.554,6.532 11.554,16.573l0,2.419c0,10.948 -3.871,16.755 -11.433,16.755Zm0,4.347c10.647,-0 16.748,-8.46 16.748,-21.041l-0,-2.42c-0,-12.339 -6.222,-20.859 -16.869,-20.859c-10.586,0 -17.05,8.218 -17.05,20.98l0,2.42c0,12.581 6.827,20.92 17.171,20.92Z" style="fill:#fff;fill-rule:nonzero;"/><path d="M1082.65,290.129c-3.207,-0 -5.325,-2.118 -5.325,-6.233c0,-4.114 2.118,-6.353 5.325,-6.353c3.268,-0 5.326,2.42 5.326,6.293c-0,4.054 -2.058,6.293 -5.326,6.293Zm0,3.923c5.205,0 9.914,-4.226 9.914,-10.216c0,-5.87 -4.528,-10.216 -9.914,-10.216c-5.264,-0 -9.913,4.346 -9.913,10.337c-0,5.869 4.77,10.095 9.913,10.095Zm-3.812,23.161l4.599,0l26.429,-43.231l-4.599,0l-26.429,43.231Zm27.276,-3.439c-3.207,-0 -5.325,-2.118 -5.325,-6.233c-0,-4.114 2.118,-6.353 5.325,-6.353c3.268,-0 5.326,2.42 5.326,6.293c-0,4.054 -2.058,6.293 -5.326,6.293Zm0,3.923c5.205,0 9.914,-4.226 9.914,-10.216c0,-5.869 -4.528,-10.216 -9.914,-10.216c-5.265,-0 -9.914,4.347 -9.914,10.337c0,5.869 4.77,10.095 9.914,10.095Z" style="fill:#fff;fill-rule:nonzero;"/></g><text x="122.555px" y="141.386px" style="font-family:'Graphik-Regular', 'Graphik', sans-serif;font-size:60.473px;fill:#767676;">2<tspan x="155.755px " y="141.386px ">0</tspan>21</text><text x="907.445px" y="401.12px" style="font-family:'Graphik-Regular', 'Graphik', sans-serif;font-size:60.473px;fill:#767676;">2<tspan x="940.645px " y="401.12px ">0</tspan>22<tspan x="1049.13px 1071.09px " y="401.12px 401.12px ">/2</tspan>3</text></svg>