<svg xmlns="http://www.w3.org/2000/svg" width="583.414" height="553.909" viewBox="0 0 583.414 553.909">
  <g id="Group_667" data-name="Group 667" transform="translate(-790.943 -165.017)">
    <path id="Path_1367" data-name="Path 1367" d="M410.692,231.533c-2.457-24.025-10.678-58.807-44.2-71.172-12.548,15.928-37.588,5.079-44.11-5.732-13.119,20.513-35.413,39.756-50.156,64.677-7.114,12.037-15.7,26.206-6.99,39.423a441.651,441.651,0,0,1,78.749-.173c8.1-14.056,9.044-19.251,8.93-31.662,0-1.318,1.894-1.894,2.062-.287a50.759,50.759,0,0,1-7.258,32.3,57.708,57.708,0,0,1,9.55,1.413c2.706.655,1.91,2.5-.479,2.273a471.308,471.308,0,0,0-88.64-.152c9.377,11.88,8.882,19.1,6.552,31.391,15.452,10.6,71.984,24.626,97.421,16.884C395.513,303.6,413.582,259.8,410.692,231.533Z" transform="translate(987.033 168.498) rotate(23)" fill="#e2dacb"/>
    <path id="Path_1368" data-name="Path 1368" d="M256.868,176.7c-14.478-8.765-45-11.076-61.825-2.1-3.629,14.383-15.758,31.554-21.755,37-8.9-2.165-24.391-9.415-30.179-20.532C117.4,199.28,92.267,238.376,84.839,264.6c-10.313-10.849-30.217-39.079-34.368-48.667a67.976,67.976,0,0,1-29.318,11.212c8.156,56.829,45.3,109.088,71.662,107.131,21.011-1.561,34.609-23.8,42.63-38.6a92.818,92.818,0,0,1-12.624-17.955c-.706-1.326.271-3.837,1.911-1.718,32.2,41.675,77.179,67.232,136.931,70.668C231.772,305.932,221.629,216.832,256.868,176.7Z" transform="translate(906.928 139.969) rotate(23)" fill="#e2dacb"/>
    <path id="Path_1369" data-name="Path 1369" d="M159.255,167.463c8.289-1.107,8.822-13.942,1.775-17.763a117.5,117.5,0,0,0,1.2-22.039c-.4-10.467-6.192-15.084-15.777-16.2a39.126,39.126,0,0,1-22.5-10.581c-10.654-10.183-9.856,5.862,0,12.854A79,79,0,0,1,98,106.193c-5.6-3.361-8.321-2.208-7.123,2.655a17.46,17.46,0,0,0,9.2,11.669A70.089,70.089,0,0,1,72.671,118.7c-7.691-2.165-11.458-1.453-7.428,5.253A41.569,41.569,0,0,0,94.177,141.6c13.274,1.448,27.578-2.273,43.049-8.251a37.927,37.927,0,0,0,13.693,22.042c.831.658,2.021.763,2.436-.441,2.463-7.307,11.923,0,8.346,6.838-1.248,2.384-3.036,2.216-4.774,2.235s-1.166,1.069-.917,2.636c1.015,6.416,12.021,30.95,16.751,35.1,1.128.99,2.181-.308,1.488-1.432a142.744,142.744,0,0,1-14.995-32.872Z" transform="translate(930.564 122.65) rotate(23)" fill="#092168"/>
    <path id="Path_1376" data-name="Path 1376" d="M230.581,185.527c-.284-6.34-7.639-14.592-13.677-14.629-1.413,0-2.5,2.062-1.082,2.436a18.017,18.017,0,0,1,12.8,12.892C229.087,187.871,230.694,188.106,230.581,185.527Z" transform="translate(969.705 167.383) rotate(23)" fill="#092168"/>
    <path id="Path_1377" data-name="Path 1377" d="M245,177.571c-1.981-8.484-11.458-12.083-19.422-11-9.033,1.229-16.562,7.466-22.347,14.343-6.151,7.307-.785,18.867-12.605,23.644-2.706,1.082-1.643,2.961,1.107,2.122,14.307-4.373,8.844-18.911,14.115-24.009s10.849-10.676,18.432-12.511,15.506,1,18.6,8.346C243.459,179.9,245.34,179.063,245,177.571Z" transform="translate(961.844 162.314) rotate(23)" fill="#092168"/>
    <path id="Path_1378" data-name="Path 1378" d="M222.9,188.612c1.142,2.436,2.825,1.548,2.2-.812-1.515-5.726-6.709-13.845-13.734-13.025-1.413.165-1.166,2.354,0,2.674C219.492,179.657,221.1,184.739,222.9,188.612Z" transform="translate(967.631 167.968) rotate(23)" fill="#092168"/>
    <path id="Path_1379" data-name="Path 1379" d="M205.788,178.876c-1.507.246-1.911,2.6,0,2.674A11.444,11.444,0,0,1,217,190.066c.725,1.472,1.894,1.472,1.911-.514C218.939,183.707,212.014,177.856,205.788,178.876Z" transform="translate(965.158 168.469) rotate(23)" fill="#092168"/>
    <path id="Path_1380" data-name="Path 1380" d="M21.768,190.82c-3.315-12.895-4.011-16.778-3.818-25.021.043-1.911-1.662-1.453-2.311,1.05a41.263,41.263,0,0,0,3.818,25.1C20.147,193.321,22.133,192.233,21.768,190.82Z" transform="translate(905.551 137.744) rotate(23)" fill="#092168"/>
    <path id="Path_1381" data-name="Path 1381" d="M12.221,172.874c0-2.2-2.138-1.223-2.2.171A55.127,55.127,0,0,0,18.448,203.6a73.417,73.417,0,0,1,7.488,17.9c.5,1.756,2.666,2.043,2.387-1.413A50.919,50.919,0,0,0,21.092,201.6a62.079,62.079,0,0,1-8.871-28.726Z" transform="translate(902.938 139.303) rotate(23)" fill="#092168"/>
    <path id="Path_1382" data-name="Path 1382" d="M40.392,175.889c-1.3-2.251-2.86-.641-1.908,1.082,6.159,11.074-7.177,25.108,1.908,35.334a1.353,1.353,0,0,0,2.165-1.51C36.625,199.432,46.87,187.089,40.392,175.889Z" transform="translate(911.303 144.083) rotate(23)" fill="#092168"/>
    <path id="Path_1383" data-name="Path 1383" d="M30.112,165.767c-.027-1.261-1.645-2.408-2.138,0-.944,4.6-.4,18.34,2.576,22.155a1.245,1.245,0,0,0,2.2-.955,118.638,118.638,0,0,1-2.636-21.2Z" transform="translate(909.635 139.377) rotate(23)" fill="#092168"/>
    <path id="Path_1384" data-name="Path 1384" d="M24.5,163.187c0-1.413-1.624-1.583-2.138,0-2.04,6.424-1.288,20.009,2.5,25.979.812,1.3,3.069.766,2.706-.936A81.455,81.455,0,0,1,24.5,163.187Z" transform="translate(907.906 137.762) rotate(23)" fill="#092168"/>
    <path id="Path_1385" data-name="Path 1385" d="M264.862,236.986c1.413.576,1.789-1.653.955-2.436-4.833-4.582-19.1-5.2-26.282.192a1.188,1.188,0,0,0,1.031,2.138C252.808,232.086,259.149,234.673,264.862,236.986Z" transform="translate(969.146 190.164) rotate(23)" fill="#092168"/>
    <path id="Path_1386" data-name="Path 1386" d="M250.668,251.9c12.524-2.065,13.6,1.369,17.552,1.643a1.386,1.386,0,0,0,1.494-1.248c.3-3.326-12.6-6.04-19.831-2.5C248.457,250.5,249.293,252.13,250.668,251.9Z" transform="translate(970.096 197.174) rotate(23)" fill="#092168"/>
    <path id="Path_1387" data-name="Path 1387" d="M245.3,247.789c12.822-3.975,17.176-1.464,24.334.5,1.429.392,1.8-1.721.839-2.5-5.036-4.116-18.943-4.075-25.917-.116C243.316,246.373,243.754,248.268,245.3,247.789Z" transform="translate(969.121 194.675) rotate(23)" fill="#092168"/>
    <path id="Path_1388" data-name="Path 1388" d="M242.526,243.052c11.463-3.483,16.543-1.8,24.2-.541a1.4,1.4,0,0,0,1.126-2.436c-4.9-4.268-20.545-3.716-26.358.9C240.231,241.986,241.076,243.494,242.526,243.052Z" transform="translate(968.922 192.471) rotate(23)" fill="#092168"/>
    <path id="Path_1389" data-name="Path 1389" d="M399.926,113.334a37.616,37.616,0,0,1-19.308,3.821c-7.2,14.018-17.793,38.449-37.007,36.049-6.284-.782-9.842-5.61-13.6-10.124-1.034-1.239-2.189-.108-1.624,1.11a28.978,28.978,0,0,0,9,11c-1.911,4.059-3.821,14.8-2.942,18.775a1.082,1.082,0,0,0,2.119,0,32.661,32.661,0,0,1,.861-5.558c12.892,2.674,29.7,11.636,38.849,26.566,26.891-5.729,29.259-35.64,14-46.946C408.962,143.264,408.236,119.753,399.926,113.334Z" transform="translate(1014.4 164.275) rotate(23)" fill="#092168"/>
    <path id="Path_1396" data-name="Path 1396" d="M248.728,316.593c-2.387,2.1,1.553,4.9,3.818,3.437,27.062-17.476,56.575.706,49.774,31.762a2.674,2.674,0,0,0,5.042,1.778C321.225,318.647,276.568,292.03,248.728,316.593Z" transform="translate(961.592 216.161) rotate(23)" fill="#092168"/>
    <path id="Path_1397" data-name="Path 1397" d="M323.231,310.859c-22.916-20.3-70.116-21.717-93.9-1.6-50.064,42.34-4.113,113.426,59.438,101C336.9,400.852,359.356,342.843,323.231,310.859Zm-28.076,92.234c-53.141,17.173-108.517-38.53-67.9-84.535,20.6-23.343,67.3-24.331,91.011-4.966C351.188,340.486,334.667,390.322,295.155,403.093Z" transform="translate(950.299 206.702) rotate(23)" fill="#092168"/>
    <path id="Path_1398" data-name="Path 1398" d="M338.126,133.207c.847,2.576.812,3.442,4.411,1.185,5.618-3.518,11-6.627,14.38-17.99a44.189,44.189,0,0,0,45.2,12.04c16.329-5.044,31.343-42.554-11.1-45.228,1.413-22.4-36.482-22.556-40.682-4.546-13.639-9.856-30.561-1.894-32.8,6.9,13.371,36.482,1.91,72.387-7.639,91.83-2.674,5.445.812,4.6,1.624,3,6.132-12.262,10.922-24.3,19.484-35.3,1.494-1.919.173-2.655-1.45-3.418a5.109,5.109,0,0,1-1.759-7.163C330.024,129.453,336.481,128.225,338.126,133.207Z" transform="translate(1014.686 146.139) rotate(23)" fill="#092168"/>
    <path id="Path_1399" data-name="Path 1399" d="M137.579,170.56a19.344,19.344,0,0,1-14.115,9.55c-21.812,2.655-26.94-28.991-30.293-44.08-.555-2.5-2.119-1.147-1.911.271,1.586,16.751,8.232,48.8,30.561,47.236a66.927,66.927,0,0,1,.514,18.221c-.149,1.469,1.4,2.942,2.541-.192,1.4-3.818,1.242-13.531.419-18.6a22.1,22.1,0,0,0,14.039-11.231C140.126,170.211,138.372,169.226,137.579,170.56Z" transform="translate(934.436 138.502) rotate(23)" fill="#092168"/>
    <path id="Path_1400" data-name="Path 1400" d="M227.641,332.242c13.371-2.706,49.079-14.581,59.495-23.606,1.7-1.472-.23-4.584-2.292-3.591-26.25,12.621-38.2,15.279-64.728,23.205-29.107-39.862-41.775-87.8-6.627-136.485,1.819-2.519-1.875-4.844-3.821-2.368-30.715,39.117-30.579,88.832,2.387,137.516C217.244,334.577,217.59,334.282,227.641,332.242Z" transform="translate(958.139 169.164) rotate(23)" fill="#092168"/>
    <path id="Path_1401" data-name="Path 1401" d="M115.529,56.241c57.755-36.9,127.657-43.71,190.042-13.893,69.938,33.434,95.473,89.506,53.709,159.311-16.648,27.822-54.6,61.819-59.419,90.55-.541,3.207,3.843,4.473,4.411,1.22,4.687-26.837,39.594-58.271,55.5-82.808,43.934-67.784,29.27-127.985-41.133-167.14C255.786,8.535,171.543,9.6,113.459,53.587,111.294,55.232,112.99,57.865,115.529,56.241Z" transform="translate(957.316 103.779) rotate(23)" fill="#092168"/>
    <path id="Path_1402" data-name="Path 1402" d="M281.712,133.3c19.793,21.251,8.3,50.646-12.662,66.314-2.273,1.7.438,5.023,2.977,3.15,21.181-15.6,34.368-43.924,17.877-67.954-23.138-33.708-75.079-26.969-106.958-.541C163.353,113.091,134.105,77.6,116.77,54.035c-1.8-2.436-4.259-.612-2.235,2.165,17.2,23.714,42.89,57.668,62.666,80.216,3.648,4.162,4.674,5.288,9.128,1.759C212.226,117.667,255.987,105.677,281.712,133.3Z" transform="translate(953.035 115.045) rotate(23)" fill="#092168"/>
    <path id="Path_1403" data-name="Path 1403" d="M325.459,83.657c-33.416-47.6-113.545-62.7-164.255-36.116a2.885,2.885,0,0,0,2.387,5.253c62.171-23.779,113.388-6.338,158.394,34.13C324.679,89.348,327.683,86.828,325.459,83.657Z" transform="translate(970.436 115.379) rotate(23)" fill="#092168"/>
    <path id="Path_1404" data-name="Path 1404" d="M265.551,275.248c2.955,5.161,7.372,2.435,4.257-2.519s-6.43-10.413-9.758-15.547c-1.239-1.913-4.622,0-3.5,2.062C259.481,264.608,262.509,269.933,265.551,275.248Z" transform="translate(971.291 200.85) rotate(23)" fill="#092168"/>
  </g>
</svg>
