<svg xmlns="http://www.w3.org/2000/svg" width="61" height="61" viewBox="0 0 61 61">
  <g id="Group_411" data-name="Group 411" transform="translate(-22 -962)">
    <rect id="Rectangle_100" data-name="Rectangle 100" width="61" height="61" rx="30.5" transform="translate(22 962)" fill="#62bda4"/>
    <path id="Path_698" data-name="Path 698" d="M12,1C5.662,1,0,5.226,0,11.007a8.817,8.817,0,0,0,2.047,5.625C2.1,18.462,1.024,21.088.054,23a28.8,28.8,0,0,0,7.978-2.536C17.268,22.711,24,17.059,24,11.007,24,5.2,18.3,1,12,1ZM7,12.5A1.5,1.5,0,1,1,8.5,11,1.5,1.5,0,0,1,7,12.5Zm5,0A1.5,1.5,0,1,1,13.5,11,1.5,1.5,0,0,1,12,12.5Zm5,0A1.5,1.5,0,1,1,18.5,11,1.5,1.5,0,0,1,17,12.5Z" transform="translate(41 981)" fill="#fff"/>
  </g>
</svg>
