<svg xmlns="http://www.w3.org/2000/svg" width="605.516" height="818.788" viewBox="0 0 605.516 818.788">
  <g id="Group_666" data-name="Group 666" transform="translate(22784 16538)">
    <path id="Path_1154" data-name="Path 1154" d="M103.2,125.242c-21.955-1.275-43.936-1.728-65.916-2.072a2.062,2.062,0,0,0-1.932,1.932c-.277,4.424-.032,8.858-.555,13.266-.115.972.956,1.782,1.8,1.8,22.258.414,44.356,1.52,66.617,1.383a1.839,1.839,0,0,0,1.8-1.8c0-3.592-.277-7.331-.414-10.917a2.171,2.171,0,0,0-1.4-3.592Zm-64.67,11.331c.274-3.187.274-6.356.414-9.537,20.865.692,41.87,1.106,62.735,2.075l-.414,8.7C80.4,137.953,59.534,137.4,38.532,136.573Z" transform="translate(-22779.289 -16238.951)" fill="#092168"/>
    <path id="Path_1155" data-name="Path 1155" d="M99.959,136.376c.14-2.9.14-5.8.414-8.7-20.865-.956-41.87-1.383-62.735-2.075-.137,3.187-.137,6.375-.414,9.537C58.089,135.962,78.957,136.513,99.959,136.376Z" transform="translate(-22777.846 -16237.512)" fill="#62bda4"/>
    <path id="Path_1157" data-name="Path 1157" d="M124.411,342.043c.137-2.9.137-5.8.414-8.7-20.865-.956-41.87-1.383-62.735-2.072-.14,3.187-.14,6.356-.414,9.534C74.665,341.361,116.949,342.043,124.411,342.043Z" transform="translate(-22763.328 -16115.401)" fill="#62bda4"/>
    <path id="Path_1159" data-name="Path 1159" d="M348.947,294v-8.7c-20.868-.414-41.87,0-62.738,0,0,3.187.14,6.356-.137,9.534C307.077,294.966,328.082,294.966,348.947,294Z" transform="translate(-22630.1 -16142.806)" fill="#62bda4"/>
    <path id="Path_1153" data-name="Path 1153" d="M596.042,356.065a7.589,7.589,0,0,1-1.106-.956,8.427,8.427,0,0,0,.274-6.356A54.015,54.015,0,0,0,608.476,322.5a58.18,58.18,0,0,0-8.013-43.116,8.488,8.488,0,0,0-.956-4.972c30.322-31.836,14.025-78.471-19.208-94.243a75.861,75.861,0,0,0-58.865-1.383c-2.763-12.989-15.752-24.734-29.006-26.947a26.328,26.328,0,0,0-7.6-14.787,14.761,14.761,0,0,0-2.349-14.369c-2.869-4.035-12.574-6.773-17.273-4.284a21.837,21.837,0,0,0-3.187-21.005c-15.379-16.82-29.71-7.462-29.71-7.462s-6.219-11.886-27.5-10.64a27.836,27.836,0,0,0-43.668,2.764,25.907,25.907,0,0,0-22.663,2.623,26.628,26.628,0,0,0-10.64,20.718,26.242,26.242,0,0,0-17.429,36.633A21.812,21.812,0,0,0,296.455,159.3c-.781,5.811,8.15,14.662,8.287,14.662.137.137-.956,4.7-1.383,7.184a31.654,31.654,0,0,0-19.622,26.669,29.047,29.047,0,0,0-28.6-5.8,6.579,6.579,0,0,0-7.047-4.972c-14.095-30.679-51.955-47.26-85.124-43.116a7.149,7.149,0,0,0-11.605-4.835c-9.951-13.818-33.028-14.787-46.431-2.486-.688-25.729-31.5-41.759-55.4-35.811-23.361,5.8-45.58,28.049-38.007,53.609,8.746,29.56,48.5,23.1,71.995,23.491a280.621,280.621,0,0,0,52.236-2.623c4.969-.854,11.366-1.211,15.2-5.1a23.373,23.373,0,0,0,5.1-15.618,10.332,10.332,0,0,0-.14-2.075,6.636,6.636,0,0,0,6.633-4.972,93.816,93.816,0,0,1,49.9,9.387,67.21,67.21,0,0,1,31.517,31.782,7.882,7.882,0,0,0-1.935,8.7A112.471,112.471,0,0,0,217.285,225.9a1.734,1.734,0,0,0-.551.956c-35.1-17.413-68.176,44.136-41.319,68.265,7.863,7.063,19.07,6.477,28.881,6.907,15.064.663,106.54,4.172,137.219,4.976,59.831,1.568,120.23,4.364,179.771-3.041,23.083-2.869,47.4-6.77,66.882-20.314a7.506,7.506,0,0,0,10.228-.137,54.9,54.9,0,0,1,5.8,38.97,50.31,50.31,0,0,1-11.746,23.077,7.286,7.286,0,0,0-10.085,1.795c-27.6-13.416-52.787,2.123-52.787,24.32-13.266-8.7-27.906-14.343-43.8-8.153-11.048,4.3-23.906,17.136-25.981,29.987a37.162,37.162,0,0,0-32.611-8.982c-18.93,4.682-18.988,28.626-5.8,44.624a7.436,7.436,0,0,0,4.976,10.225c1.575,45.654-29.93,85.009-79.734,89.27a7.112,7.112,0,0,0-1.243-3.733c-.14-.137-1.246-1.38-1.246-1.38a28.049,28.049,0,0,0-11.475-31.093,43.719,43.719,0,0,0-53.753,6.219c-6.5-16.858-20.6-31.052-38.97-33.994a43.968,43.968,0,0,0-42.284,17.273c-6.5-18.379-27.224-31.237-43.942-38.966-48.146-22.293-87.46-2.171-97.284,41.316-3.873,17.136-2.626,38.141,10.519,51.267,11.605,11.609,29.57,13.387,45.185,13.821,24.323.666,48.768.972,73.238,1.52a902.208,902.208,0,0,0,94.106-2.075c13.677-1.125,27.651-2.269,41.319-4.421a29.528,29.528,0,0,0,17.41-9.119,7.524,7.524,0,0,0,3.318.137,6.767,6.767,0,0,0,4.421-3.041c21.557.555,44.089-11.185,58.869-25.84a90.147,90.147,0,0,0,25.978-67.3,5.075,5.075,0,0,0,1.52-.692c16.03,10.088,38.418,12.68,55.965,13.958,29.994,2.183,80.282,3.713,104.054-14.924S619.115,376.1,596.042,356.065ZM151.5,169.377c-2.2,10.257-11.057,11.156-20.036,12.574a272.655,272.655,0,0,1-44.774,2.212c-13.543-.134-27.224.143-40.627-.956-14.924-1.237-28.642-7.041-31.5-23.351-2.521-14.366,5.521-27.648,16.858-35.792,12.705-9.129,27.221-12.431,42.147-7.462,16.167,5.39,29.079,16.61,26.529,34.96-.392,2.84,4.424,2.789,4.424-.274,12.514-13.053,35.113-14.073,44.219,1.657a7.685,7.685,0,0,0,2.9,8.431A18.908,18.908,0,0,1,151.5,169.377ZM359.6,131.51a1.728,1.728,0,0,1,2.349-2.349c11.019,5.737,19.195-5.205,22.385-14.372a1.361,1.361,0,0,1,2.626.692A30.881,30.881,0,0,1,382.13,127.5a15.338,15.338,0,0,0,7.462,6.91,17.148,17.148,0,0,0,11.883,1.38,25.229,25.229,0,0,0,8.431-3.87,8.22,8.22,0,0,0-.14-6.356c-.638-1.536,1.667-2.231,2.489-1.106a9.62,9.62,0,0,1-.956,12.3c2.212,12.712,6.292,32.579,17.273,28.464,1.912-.72,1.243-6.907,7.876-4.972,8.208,4.526,7.232,13.457,1.661,16.03a16.188,16.188,0,0,1-5.1.551,2.572,2.572,0,0,0-2.489,2.349,11.608,11.608,0,0,0,.414,3.041c.414,15.061,3.87,30.262,6.375,44.911,0,.137.137.137.137.274-2.9,8.153-9.4,12.3-18.1,13.266-7.462.829-15.893.414-20.868-5.8a120.228,120.228,0,0,0-.137-14.095,40.063,40.063,0,0,0,29.155-11.191c1.383-1.383-.7-3.187-2.072-2.072-15.558,12.613-49.848,14.764-60.242-5.53-6.936-13.534-7.047-30.166-7.047-47.12-.414-6.356.137-16.167,4.421-20.865a4.408,4.408,0,0,1-2.948-2.489Zm22.111,172.179C333.072,302.71,209.4,298.3,196.13,297.61s-22.755-6.225-25.012-20.036c-3.93-24.059,17.509-61,45.6-46.855a1.52,1.52,0,0,0,2.072-.555,1.852,1.852,0,0,0,1.935-.688,92.164,92.164,0,0,1,24.183-18.643,6.942,6.942,0,0,0,9.948-3.732,34.743,34.743,0,0,1,20.451,1.246,42.045,42.045,0,0,1,15.618,19.622c.72,1.508,2.9.414,2.489-1.106a33.468,33.468,0,0,0-6.773-13.68c0-.137.137-.277.14-.414.214-13.3,8.587-24.862,16.444-27.638a14.6,14.6,0,0,0,2.486,6.773c1.54,2.2,15.618,10.225,16.858,5.25A14.493,14.493,0,0,0,331,212.771a27.45,27.45,0,0,0,18.806.692,13.706,13.706,0,0,0,2.212,16.575,22.4,22.4,0,0,0,16.575,6.082,67.573,67.573,0,0,0,17.827-3.455c2.349-.682,6.493-1.8,7.736-4.284.14-.137.14-.277.277-.555-.137,2.489-.137,4.839-.414,7.331v.14c-32.193,8.982-67.315,29.962-84.846,59.143-.829,1.38,1.275,3.063,2.349,1.794A209.163,209.163,0,0,1,336.259,269.7c17.789-14.834,38.141-23.217,59.286-31.922,4.976,7.331,15.752,7.589,23.906,6.633,9.534-1.119,17.687-6.219,20.036-15.618,32.193,3.592,60.019,21.856,88.164,36.48,1.371.714,2.607-1.345,1.243-2.072-28.19-15.035-56.4-33.717-88.595-37.985-.274-1.243-.414-2.626-.689-3.87a13.68,13.68,0,0,0,13.54-17.687c7.188.688,14.924.688,21.005-3.187s9.534-12.574,5.527-18.653a16.536,16.536,0,0,0,9.951-8.845,30.665,30.665,0,0,0,3.187-17.824c12.02,3.187,20.173,13.818,24.734,25.012-2.764,1.243-5.374,2.515-8.016,4.007a2.417,2.417,0,0,0,2.49,4.144c36.474-21.219,89.248-8.039,98.112,37.312a51.261,51.261,0,0,1-14.095,45.74,7.181,7.181,0,0,0-9.537,8.287c-18.1,12.711-40.624,16.737-62.043,19.762-47.263,6.662-95.355,5.231-142.752,4.274ZM300.6,542.478c-72.4,8.421-131.6,2.349-171.35,2.349-14.786,0-30.408.714-44.5-4.144-37.054-12.785-29.238-66.821-5.8-88.853,17.591-16.536,43.126-16.469,64.673-8.7,19.491,7.012,46.635,22.264,51.267,44.219a2.231,2.231,0,0,0,4.007.551,39.486,39.486,0,0,1,42.284-18.806c16.715,3.624,29.324,17.4,34.424,33.305.838,2.623,4.839,1.795,4.561-.692,13.266-13.266,34.6-17.212,50.852-6.5a23.976,23.976,0,0,1,9.674,26.532,6.592,6.592,0,0,0-5.8,10.64C326.283,541.835,312.583,541.1,300.6,542.478Zm293.244-111.1c-19.354,19.354-67.29,19.555-93.966,18.242-22.43-1.106-47.2-1.96-65.361-14.235a7.376,7.376,0,0,0-6.375-10.917,6.307,6.307,0,0,0-4.007,1.243c-13.505-17.8-8.195-37.5,9.674-37.723,9.4-.115,21.33,3.825,26.255,12.16.979,1.651,4.191,1.1,4.007-1.106-1.214-14.538,15.2-30.249,28.33-33.149,14.235-3.162,26.255,3.041,37.586,10.917a36.308,36.308,0,0,0,4.7,15.478c.956,1.673,3.187.134,2.486-1.52a55.142,55.142,0,0,1-3.455-15.2,3.072,3.072,0,0,0-.137-1.106c-.14-.688-.14-1.38-.277-2.072,0-.137,0-.137-.137-.277.137-19.622,21.267-28.971,39.107-24.457a48.4,48.4,0,0,1,9.119,3.455,7.264,7.264,0,0,0,10.78,7.047c20.61,18.149,21.742,53.141,1.661,73.222Z" transform="translate(-22794.006 -16270.512)" fill="#092168"/>
    <path id="Path_1156" data-name="Path 1156" d="M240.135,358.5c-20.3-1.4-40.608-2.419-61.078-2.9a2.059,2.059,0,0,0-1.935,1.935c-.137,2.764-.137,5.667-.277,8.431-24.18-.692-48.363.414-72.409-.555a90.805,90.805,0,0,0,0-18.379c7.739.14,15.478.07,23.217,0a1.833,1.833,0,0,0,1.795-1.795c0-3.592-.274-7.331-.414-10.917a2.008,2.008,0,0,0-1.38-3.318c-21.993-.481-43.936-1.728-65.916-2.072a2.072,2.072,0,0,0-1.935,1.935c-.277,4.421-.032,8.855-.551,13.266-.115.956.956,1.779,1.795,1.8,13.413.274,26.809.956,40.076,1.243,0,6.77-.956,13.54-.414,20.173a2.056,2.056,0,0,0,1.795,1.8c24.613.484,49.609,1.38,74.344-.277,0,2.349-.137,4.561-.274,6.91-.14.956.956,1.795,1.795,1.795,20.591,1.246,41.038,2,61.632,1.8a1.839,1.839,0,0,0,1.8-1.8c0-5.1-.14-10.225-.418-15.475a2.132,2.132,0,0,0-1.243-3.592ZM63.121,342.19c.274-3.187.274-6.356.414-9.534,20.865.688,41.87,1.1,62.735,2.072l-.414,8.7c-7.462,0-49.746-.682-62.735-1.243Zm117.32,31.645c.414-4.7.274-9.537.551-14.372,19.207.956,38.568,1.52,57.763,2.764-.277,4.424-.414,8.7-.414,13.129-19.348.414-38.692-.411-57.9-1.52Z" transform="translate(-22764.771 -16116.792)" fill="#092168"/>
    <path id="Path_1158" data-name="Path 1158" d="M419.568,280.639c-19.217-.347-38.552-.829-57.763-.956a1.884,1.884,0,0,0-1.935,1.935c0,2.9,0,5.667.14,8.568h-6.5c0-.692-.137-1.38-.137-2.072a2.053,2.053,0,0,0-1.52-3.318c-21.974-.067-43.945,0-66.053,0a1.912,1.912,0,0,0-1.935,1.935c-.07,4.424.137,8.845-.137,13.266a1.74,1.74,0,0,0,1.795,1.8c22.248.07,44.481-.344,66.617-.829a1.756,1.756,0,0,0,1.8-1.8c-.137-1.795-.137-3.729-.277-5.527,2.075,0,4.284-.277,6.375-.414v6.5a1.836,1.836,0,0,0,1.794,1.795c19.491.277,38.813.347,58.314-.137a1.839,1.839,0,0,0,1.8-1.8c-.07-5.253-.414-10.362-.956-15.475a2.094,2.094,0,0,0-1.422-3.468Zm-131.96,17.41c.277-3.187.14-6.356.14-9.534,20.865,0,41.87-.277,62.735,0,0,.551-.137,7.331,0,8.7-21.012.969-42.017.969-62.885.819Zm76.141-.274c.277-4.839,0-9.537,0-14.372,18.1.414,36.337.277,54.444,1.106-.137,4.421,0,8.842,0,13.126-18.111.969-36.212.692-54.454.14Z" transform="translate(-22631.49 -16146.028)" fill="#092168"/>
    <path id="Path_1163" data-name="Path 1163" d="M193.394,198.124c-11.794,5.616-39.205,5.361-46.568-8.287-.822-1.524-2.869-.15-2.212,1.243,3.873,8.09,12.718,10.346,20.868,12.023,9.954,2.05,20.314,2.626,29.57-2.486C196.572,199.644,195.068,197.327,193.394,198.124Z" transform="translate(-22714.162 -16199.767)" fill="#092168"/>
    <path id="Path_1164" data-name="Path 1164" d="M317.614,150.533a34.762,34.762,0,0,0-11.609,36.757,1.444,1.444,0,0,0,2.764-.829c-1.884-12.858.787-24.919,10.78-33.994C320.926,151.208,318.981,149.4,317.614,150.533Z" transform="translate(-22619.08 -16222.917)" fill="#092168"/>
    <path id="Path_1174" data-name="Path 1174" d="M62.526,228.311c-.386-1.8-2.349-1.8-3.455-.832a1.364,1.364,0,0,0-.956-.956c-8.153-1.106-19.663-.838-21.834,8.845a58.649,58.649,0,0,0,.555,18.379c.571,4.832.685,10.783,4.558,14.369,5.384,4.985,16.83,2.738,21.42-2.623,3.57-4.169,2.518-10.78,2.349-15.893a120.605,120.605,0,0,0-2.636-21.289ZM40,241.3c1.144-11.475,8.287-11.676,17.55-11.886a2.033,2.033,0,0,0,.829-.274c0,.6.637,4.048.829,5.1a214.1,214.1,0,0,1-16.444,26.255l-1.106-1.106c-.551-2.9-.841-5.8-1.106-8.7A50.978,50.978,0,0,1,40,241.3Zm20.865,17.273c-.921,4.144-6.907,9.674-11.883,8.016-.956-.956-1.935-1.935-2.9-3.041A98.007,98.007,0,0,0,60.314,240.6c.277,2.9.551,5.941.692,8.982a60.793,60.793,0,0,1-.14,8.992Z" transform="translate(-22778.688 -16177.854)" fill="#f3988c"/>
    <path id="Path_1175" data-name="Path 1175" d="M93.461,228.043c.29-1.517-1.393-3.474-3.038-2.349-6.55,4.482-9.722,11.7-14.927,17.55-.975,1.1.411,3.187,1.661,2.209,4.682-3.611,7.6-8.7,11.605-12.849-.956,11.054,1.453,21.968,1.52,33.025a1.728,1.728,0,1,0,3.455,0C93.738,253.055,91.083,240.5,93.461,228.043Z" transform="translate(-22755.318 -16178.279)" fill="#f3988c"/>
    <path id="Path_1176" data-name="Path 1176" d="M143.734,265.48c3.6-4.144,2.518-10.78,2.349-15.893a127.265,127.265,0,0,0-2.486-21.279c-.367-1.807-2.349-1.8-3.455-.829a1.358,1.358,0,0,0-.956-.956c-8.153-1.106-19.666-.838-21.834,8.845a58.549,58.549,0,0,0,.551,18.379c.571,4.832.685,10.786,4.561,14.369C127.695,272.954,139.176,270.736,143.734,265.48Zm-1.935-6.91c-.921,4.144-6.907,9.674-11.883,8.016-.956-.956-1.935-1.935-2.9-3.041a98.1,98.1,0,0,0,14.232-22.95,94.059,94.059,0,0,1,.551,17.977ZM121.081,241.3c1.144-11.475,8.287-11.676,17.55-11.886a2,2,0,0,0,.829-.274c0,.6.637,4.048.829,5.1a214.107,214.107,0,0,1-16.444,26.255l-1.1-1.106c-.555-2.9-.781-5.807-1.106-8.7a45.328,45.328,0,0,1-.564-9.381Z" transform="translate(-22730.555 -16177.854)" fill="#f3988c"/>
    <path id="Path_1177" data-name="Path 1177" d="M169.747,232.6c-.956,11.054,1.453,21.968,1.52,33.025a1.728,1.728,0,1,0,3.455,0c.07-12.574-2.655-25.13-.277-37.586.29-1.517-1.393-3.474-3.038-2.349-6.55,4.482-9.722,11.7-14.927,17.55-.975,1.1.4,3.162,1.661,2.209C162.792,241.937,165.74,236.748,169.747,232.6Z" transform="translate(-22707.236 -16178.279)" fill="#f3988c"/>
    <path id="Path_1178" data-name="Path 1178" d="M224.718,265.48c3.6-4.144,2.518-10.78,2.349-15.893a127.257,127.257,0,0,0-2.486-21.279c-.367-1.807-2.349-1.8-3.455-.829a1.358,1.358,0,0,0-.956-.956c-8.153-1.106-19.666-.838-21.834,8.845a58.55,58.55,0,0,0,.551,18.379c.571,4.832.685,10.786,4.561,14.369C208.679,272.954,220.16,270.736,224.718,265.48Zm-1.935-6.91c-.921,4.144-6.907,9.674-11.883,8.016-.956-.956-1.935-1.935-2.9-3.041a98.1,98.1,0,0,0,14.232-22.95,94.064,94.064,0,0,1,.551,17.977ZM202.065,241.3c1.144-11.475,8.287-11.676,17.55-11.886a2.005,2.005,0,0,0,.829-.274c0,.6.637,4.048.829,5.1a214.1,214.1,0,0,1-16.444,26.255l-1.1-1.106c-.555-2.9-.841-5.8-1.106-8.7a50.71,50.71,0,0,1-.564-9.381Z" transform="translate(-22682.475 -16177.854)" fill="#f3988c"/>
    <path id="Path_1179" data-name="Path 1179" d="M250.819,232.6c-.956,11.054,1.45,21.968,1.52,33.025a1.728,1.728,0,0,0,3.452,0c.07-12.574-2.652-25.13-.274-37.586.29-1.517-1.4-3.474-3.041-2.349-6.55,4.482-9.722,11.7-14.924,17.55-.975,1.1.4,3.162,1.657,2.209C243.861,241.937,246.812,236.748,250.819,232.6Z" transform="translate(-22659.104 -16178.279)" fill="#f3988c"/>
    <path id="Path_1180" data-name="Path 1180" d="M308.051,249.589a138.167,138.167,0,0,0-2.486-21.279c-.367-1.807-2.349-1.8-3.455-.829a1.358,1.358,0,0,0-.956-.956c-8.153-1.106-19.666-.838-21.834,8.845a58.549,58.549,0,0,0,.551,18.379c.57,4.832.685,10.783,4.561,14.369,5.38,4.985,16.922,2.818,21.42-2.623C309.345,261.239,308.29,254.7,308.051,249.589ZM283.039,241.3c1.144-11.475,8.287-11.676,17.55-11.886a2.006,2.006,0,0,0,.829-.274c0,.6.637,4.048.829,5.1A214.106,214.106,0,0,1,285.8,260.5l-1.1-1.106c-.555-2.9-.842-5.8-1.106-8.7a50.715,50.715,0,0,1-.555-9.387Zm20.868,17.273c-.924,4.144-6.91,9.674-11.886,8.016-.956-.956-1.935-1.935-2.9-3.041a98.1,98.1,0,0,0,14.232-22.95c.277,2.9.555,5.941.692,8.982a60.8,60.8,0,0,1-.137,8.989Z" transform="translate(-22634.393 -16177.854)" fill="#f3988c"/>
    <path id="Path_1181" data-name="Path 1181" d="M333.323,265.63a1.728,1.728,0,1,0,3.455,0c.067-12.574-2.655-25.13-.277-37.586.29-1.517-1.4-3.474-3.041-2.349-6.55,4.482-9.722,11.7-14.924,17.55-.975,1.1.411,3.187,1.657,2.209,4.686-3.611,7.6-8.7,11.609-12.849C330.834,243.659,333.176,254.572,333.323,265.63Z" transform="translate(-22611.021 -16178.279)" fill="#f3988c"/>
    <path id="Path_1182" data-name="Path 1182" d="M146.63,280.159c-.382-1.8-2.349-1.8-3.455-.829a1.371,1.371,0,0,0-.956-.956c-8.153-1.1-19.663-.838-21.834,8.845a58.547,58.547,0,0,0,.555,18.379c.571,4.835.685,10.783,4.558,14.372,5.384,4.982,16.826,2.735,21.42-2.626,3.567-4.166,2.518-10.78,2.349-15.893a120.645,120.645,0,0,0-2.636-21.292Zm-22.385,12.989c1.144-11.475,8.287-11.676,17.55-11.883a2.075,2.075,0,0,0,.829-.277c0,.6.637,4.048.829,5.1a214.1,214.1,0,0,1-16.444,26.255l-1.106-1.106c-.551-2.9-.768-5.808-1.106-8.7a45.437,45.437,0,0,1-.551-9.384Zm20.718,17.273c-.956,4.144-6.91,9.674-11.883,8.016-.956-.956-1.935-1.935-2.9-3.041a98.051,98.051,0,0,0,14.235-22.95,97.024,97.024,0,0,1,.561,17.974Z" transform="translate(-22728.754 -16147.069)" fill="#f3988c"/>
    <path id="Path_1183" data-name="Path 1183" d="M177.567,279.982c.29-1.52-1.4-3.478-3.041-2.349-6.547,4.478-9.722,11.7-14.924,17.531-.975,1.1.411,3.187,1.657,2.212,4.686-3.611,7.6-8.7,11.609-12.852-.956,11.054,1.45,21.971,1.52,33.028a1.728,1.728,0,1,0,3.455,0C177.914,304.991,175.189,292.442,177.567,279.982Z" transform="translate(-22705.383 -16147.443)" fill="#f3988c"/>
    <path id="Path_1184" data-name="Path 1184" d="M227.7,280.159c-.386-1.8-2.349-1.8-3.455-.829a1.374,1.374,0,0,0-.956-.956c-8.153-1.1-19.663-.838-21.831,8.845a58.547,58.547,0,0,0,.551,18.379c.571,4.835.685,10.783,4.561,14.372,5.38,4.982,16.826,2.735,21.416-2.626,3.57-4.166,2.566-10.78,2.349-15.893A127.179,127.179,0,0,0,227.7,280.159Zm-22.526,12.989c1.144-11.475,8.287-11.676,17.55-11.883a2.075,2.075,0,0,0,.829-.277c0,.6.637,4.048.829,5.1a214.1,214.1,0,0,1-16.444,26.255l-1.106-1.106c-.551-2.9-.835-5.8-1.106-8.7A50.828,50.828,0,0,1,205.176,293.148Zm20.718,17.273c-.956,4.144-6.91,9.674-11.883,8.016-.956-.956-1.935-1.935-2.9-3.041a98.05,98.05,0,0,0,14.235-22.95,97.025,97.025,0,0,1,.561,17.974Z" transform="translate(-22680.619 -16147.069)" fill="#f3988c"/>
    <path id="Path_1185" data-name="Path 1185" d="M258.551,279.982c.284-1.52-1.4-3.478-3.041-2.349-6.547,4.478-9.722,11.7-14.924,17.531-.975,1.1.411,3.187,1.657,2.212,4.686-3.611,7.6-8.7,11.609-12.852-.956,11.054,1.45,21.971,1.52,33.028a1.728,1.728,0,1,0,3.455,0C258.9,304.991,256.243,292.442,258.551,279.982Z" transform="translate(-22657.303 -16147.443)" fill="#f3988c"/>
    <path id="Path_1186" data-name="Path 1186" d="M61.625,203.66c3.567-4.169,2.515-10.78,2.349-15.893a127.26,127.26,0,0,0-2.489-21.279c-.367-1.807-2.349-1.8-3.455-.829a1.364,1.364,0,0,0-.956-.956c-8.153-1.106-19.663-.838-21.834,8.845a58.553,58.553,0,0,0,.555,18.379c.571,4.832.685,10.783,4.558,14.369C45.726,211.268,57.032,209.021,61.625,203.66Zm-1.941-6.91c-.956,4.144-6.91,9.674-11.886,8.016-.956-.956-1.935-1.935-2.9-3.041a98.1,98.1,0,0,0,14.232-22.95,96.719,96.719,0,0,1,.555,17.974ZM38.965,179.614c1.167-11.475,8.287-11.676,17.55-11.883a2.043,2.043,0,0,0,.829-.277c0,.6.637,4.023.829,5.1a214.636,214.636,0,0,1-16.444,26.255l-1.106-1.1c-.551-2.9-.841-5.8-1.106-8.708a51.955,51.955,0,0,1-.551-9.384Z" transform="translate(-22779.307 -16214.559)" fill="#f3988c"/>
    <path id="Path_1187" data-name="Path 1187" d="M87.723,170.869c-.956,11.054,1.45,21.971,1.52,33.025a1.728,1.728,0,1,0,3.455,0c.07-12.574-2.655-25.127-.277-37.586.29-1.517-1.4-3.474-3.041-2.349-6.547,4.482-9.722,11.7-14.924,17.55-.975,1.1.411,3.187,1.657,2.212C80.8,180.109,83.716,175.016,87.723,170.869Z" transform="translate(-22755.936 -16214.933)" fill="#f3988c"/>
    <path id="Path_1188" data-name="Path 1188" d="M74.058,30.964c-.386-1.8-2.349-1.795-3.455-.829a1.364,1.364,0,0,0-.956-.956c-8.153-1.106-19.663-.838-21.834,8.842A58.649,58.649,0,0,0,48.367,56.4c.571,4.835.685,10.786,4.558,14.372,5.384,4.982,16.83,2.738,21.42-2.626,3.57-4.166,2.55-10.78,2.349-15.889a127.26,127.26,0,0,0-2.636-21.292ZM51.532,43.956C52.7,32.481,59.82,32.277,69.082,32.07a2.085,2.085,0,0,0,.829-.274c0,.6.637,4.019.829,5.1A214.107,214.107,0,0,1,54.3,63.151L53.19,62.044c-.551-2.9-.841-5.8-1.106-8.7a52.274,52.274,0,0,1-.551-9.384ZM72.251,61.088c-.956,4.144-6.91,9.674-11.883,8.016-.956-.956-1.935-1.935-2.9-3.041A98.093,98.093,0,0,0,71.7,43.114a96.98,96.98,0,0,1,.561,17.974Z" transform="translate(-22771.842 -16295.021)" fill="#f3988c"/>
    <path id="Path_1189" data-name="Path 1189" d="M100.3,35.257c-.956,11.057,1.453,21.971,1.52,33.028a1.728,1.728,0,1,0,3.455,0c.07-12.578-2.655-25.13-.277-37.586.29-1.517-1.393-3.474-3.038-2.349-6.55,4.482-9.722,11.7-14.927,17.55-.975,1.1.4,3.159,1.661,2.209C93.34,44.593,96.288,39.4,100.3,35.257Z" transform="translate(-22748.471 -16295.445)" fill="#f3988c"/>
    <path id="Path_1190" data-name="Path 1190" d="M133.761,70.676c5.387,4.979,16.826,2.735,21.42-2.626,3.567-4.166,2.515-10.78,2.349-15.893a127.632,127.632,0,0,0-2.486-21.279c-.37-1.807-2.349-1.8-3.455-.829a1.374,1.374,0,0,0-.956-.956c-8.153-1.1-19.663-.838-21.834,8.845A58.649,58.649,0,0,0,129.34,56.3C129.911,61.139,130.041,67.224,133.761,70.676Zm19.622-9.537c-.956,4.144-6.907,9.674-11.883,8.016-.956-.956-1.935-1.935-2.9-3.041a97.988,97.988,0,0,0,14.235-22.95c.277,2.9.551,5.941.692,8.979a62.732,62.732,0,0,1-.14,8.995ZM132.518,44.006c1.17-11.475,8.287-11.679,17.55-11.886a2.068,2.068,0,0,0,.829-.274c0,.6.637,4.019.829,5.1A214.107,214.107,0,0,1,135.281,63.2l-1.1-1.093c-.551-2.9-.841-5.8-1.106-8.7a52.272,52.272,0,0,1-.561-9.4Z" transform="translate(-22723.762 -16295.072)" fill="#f3988c"/>
    <path id="Path_1191" data-name="Path 1191" d="M169.695,48.109c4.781-3.506,7.6-8.7,11.605-12.852-.956,11.057,1.453,21.971,1.52,33.028a1.728,1.728,0,1,0,3.455,0c.07-12.578-2.655-25.13-.277-37.586.29-1.517-1.393-3.474-3.038-2.349-6.55,4.482-9.53,11.876-14.927,17.55C166.957,47.032,168.334,49.107,169.695,48.109Z" transform="translate(-22700.412 -16295.445)" fill="#f3988c"/>
    <path id="Path_1192" data-name="Path 1192" d="M106.815,86.451c.29-1.517-1.4-3.474-3.041-2.349-6.55,4.5-9.709,11.7-14.924,17.566-.975,1.1.411,3.187,1.657,2.209,4.682-3.611,7.6-8.7,11.609-12.849-.956,11.054,1.45,21.968,1.52,33.025a1.728,1.728,0,0,0,3.455,0C107.159,111.463,104.437,98.908,106.815,86.451Z" transform="translate(-22747.391 -16262.345)" fill="#f3988c"/>
    <path id="Path_1193" data-name="Path 1193" d="M156.954,86.719c-.382-1.8-2.349-1.8-3.455-.832a1.361,1.361,0,0,0-.956-.956c-8.153-1.106-19.663-.838-21.834,8.845a58.553,58.553,0,0,0,.555,18.379c.571,4.832.685,10.783,4.558,14.369,5.384,4.985,16.826,2.738,21.42-2.623,3.57-4.169,2.518-10.78,2.349-15.893a120.612,120.612,0,0,0-2.636-21.289ZM134.432,99.708c1.144-11.475,8.287-11.679,17.55-11.886a2.085,2.085,0,0,0,.829-.274c0,.6.637,4.019.829,5.1a214.887,214.887,0,0,1-16.447,26.268l-1.106-1.106c-.551-2.9-.841-5.8-1.106-8.7a50.7,50.7,0,0,1-.558-9.4ZM155.3,116.98c-.921,4.144-6.91,9.674-11.883,8.013-.956-.956-1.935-1.932-2.9-3.038a98.112,98.112,0,0,0,14.213-22.943c.274,2.9.551,5.941.688,8.982a60.79,60.79,0,0,1-.124,8.985Z" transform="translate(-22722.625 -16261.921)" fill="#f3988c"/>
    <path id="Path_1194" data-name="Path 1194" d="M187.884,86.451c.29-1.517-1.4-3.474-3.041-2.349-6.547,4.5-9.722,11.7-14.92,17.566-.975,1.1.411,3.187,1.657,2.209,4.686-3.611,7.6-8.7,11.609-12.849-.956,11.054,1.45,21.968,1.52,33.025a1.728,1.728,0,0,0,3.455,0C188.161,111.463,185.506,98.908,187.884,86.451Z" transform="translate(-22699.256 -16262.345)" fill="#f3988c"/>
    <path id="Path_1195" data-name="Path 1195" d="M236.026,30.964c-.386-1.8-2.349-1.795-3.455-.829a1.364,1.364,0,0,0-.956-.956c-8.153-1.106-19.663-.838-21.834,8.842a58.65,58.65,0,0,0,.555,18.379c.571,4.835.685,10.786,4.561,14.372,5.38,4.982,16.826,2.738,21.416-2.626,3.57-4.166,2.518-10.777,2.349-15.889a120.678,120.678,0,0,0-2.636-21.292ZM213.637,43.956c1.17-11.475,8.287-11.679,17.55-11.886a2.053,2.053,0,0,0,.829-.274c0,.6.637,4.048.829,5.1A214.106,214.106,0,0,1,216.4,63.151l-1.1-1.106c-.555-2.9-.841-5.8-1.106-8.7a52.276,52.276,0,0,1-.555-9.384Zm20.718,17.132c-.956,4.144-6.907,9.674-11.883,8.016-.956-.956-1.935-1.935-2.9-3.041A98.083,98.083,0,0,0,233.8,43.114a96.978,96.978,0,0,1,.561,17.974Z" transform="translate(-22675.678 -16295.021)" fill="#f3988c"/>
    <path id="Path_1196" data-name="Path 1196" d="M266.961,30.7c.29-1.517-1.393-3.474-3.038-2.349-6.55,4.482-9.722,11.7-14.927,17.55-.975,1.1.411,3.187,1.661,2.209,4.682-3.611,7.6-8.7,11.605-12.852-.956,11.057,1.453,21.971,1.52,33.028a1.728,1.728,0,0,0,3.455,0C267.308,55.721,264.583,43.156,266.961,30.7Z" transform="translate(-22652.307 -16295.445)" fill="#f3988c"/>
    <path id="Path_1197" data-name="Path 1197" d="M317.1,30.964c-.386-1.8-2.349-1.795-3.455-.829a1.361,1.361,0,0,0-.956-.956c-8.153-1.106-19.666-.838-21.834,8.842A58.552,58.552,0,0,0,291.4,56.4c.571,4.835.685,10.786,4.561,14.372,5.38,4.982,16.827,2.738,21.42-2.626,3.567-4.166,2.566-10.78,2.349-15.889A127.59,127.59,0,0,0,317.1,30.964ZM294.559,43.956c1.17-11.475,8.287-11.679,17.55-11.886a2.053,2.053,0,0,0,.829-.274c0,.6.637,4.048.829,5.1a214.1,214.1,0,0,1-16.444,26.255l-1.1-1.106c-.555-2.9-.841-5.8-1.106-8.7a52.279,52.279,0,0,1-.555-9.384Zm20.718,17.132c-.956,4.144-6.907,9.674-11.883,8.016-.956-.956-1.935-1.935-2.9-3.041a98.077,98.077,0,0,0,14.232-22.95,96.983,96.983,0,0,1,.574,17.974Z" transform="translate(-22627.547 -16295.021)" fill="#f3988c"/>
    <path id="Path_1198" data-name="Path 1198" d="M331.748,48.109c4.781-3.506,7.6-8.7,11.609-12.852-.956,11.057,1.45,21.971,1.52,33.028a1.728,1.728,0,0,0,3.455,0c.067-12.578-2.655-25.13-.277-37.586.29-1.517-1.4-3.474-3.041-2.349-6.55,4.482-9.53,11.876-14.924,17.55C329.013,47.032,330.387,49.107,331.748,48.109Z" transform="translate(-22542.703 -16295.445)" fill="#f3988c"/>
    <path id="Path_1199" data-name="Path 1199" d="M350.823,87.933c-.382-1.8-2.349-1.8-3.452-.832a1.364,1.364,0,0,0-.956-.956c-8.153-1.106-19.663-.838-21.834,8.845a58.55,58.55,0,0,0,.555,18.379c.571,4.832.685,10.783,4.558,14.369,5.384,4.985,16.827,2.738,21.42-2.623,3.57-4.169,2.569-10.783,2.349-15.893a128.634,128.634,0,0,0-2.639-21.289ZM328.3,101.059c1.167-11.475,8.287-11.676,17.55-11.883a2.091,2.091,0,0,0,.829-.277c0,.6.638,4.048.829,5.1a214.5,214.5,0,0,1-16.444,26.255l-1.106-1.106c-.551-2.9-.842-5.8-1.106-8.7a51.956,51.956,0,0,1-.551-9.384Zm20.718,17.136c-.956,4.144-6.91,9.674-11.886,8.013-.956-.956-1.935-1.935-2.9-3.038a97.992,97.992,0,0,0,14.232-22.95,96.722,96.722,0,0,1,.564,17.974Z" transform="translate(-22607.52 -16261.2)" fill="#f3988c"/>
    <path id="Path_1200" data-name="Path 1200" d="M381.675,87.751c.281-1.517-1.4-3.474-3.041-2.349-6.55,4.482-9.722,11.7-14.924,17.55-.975,1.1.411,3.187,1.657,2.212,4.686-3.615,7.6-8.708,11.609-12.852-.956,11.054,1.45,21.971,1.52,33.025a1.728,1.728,0,0,0,3.455,0C382.019,112.763,379.367,100.2,381.675,87.751Z" transform="translate(-22581.381 -16261.573)" fill="#f3988c"/>
    <path id="Path_1201" data-name="Path 1201" d="M314.493,327.762c-.382-1.8-2.349-1.8-3.452-.829a1.38,1.38,0,0,0-.956-.956c-8.154-1.106-19.663-.838-21.834,8.845a58.545,58.545,0,0,0,.555,18.379c.571,4.835.685,10.783,4.558,14.372,5.384,4.982,16.826,2.735,21.42-2.626,3.57-4.166,2.518-10.78,2.349-15.893a120.62,120.62,0,0,0-2.639-21.292Zm-22.535,12.989c1.167-11.475,8.287-11.676,17.55-11.883a2.09,2.09,0,0,0,.829-.277c0,.6.637,4.048.829,5.1a214.877,214.877,0,0,1-16.444,26.255l-1.106-1.106c-.551-2.9-.841-5.8-1.106-8.7a51.952,51.952,0,0,1-.551-9.384Zm20.718,17.273c-1.026,4.144-6.91,9.674-11.886,8.016-.956-.956-1.935-1.935-2.9-3.041a98.036,98.036,0,0,0,14.232-22.95,90.089,90.089,0,0,1,.577,17.974Z" transform="translate(-22629.09 -16118.808)" fill="#f3988c"/>
    <path id="Path_1202" data-name="Path 1202" d="M345.431,327.5c.29-1.517-1.4-3.474-3.041-2.349-6.547,4.482-9.719,11.7-14.924,17.55-.975,1.1.411,3.187,1.661,2.212,4.682-3.615,7.6-8.708,11.605-12.852-.956,11.054,1.45,21.971,1.52,33.025a1.728,1.728,0,0,0,3.455,0C345.724,352.523,343.053,339.955,345.431,327.5Z" transform="translate(-22605.719 -16119.232)" fill="#f3988c"/>
    <path id="Path_1165" data-name="Path 1165" d="M74.058,30.964c-.386-1.8-2.349-1.795-3.455-.829a1.364,1.364,0,0,0-.956-.956c-8.153-1.106-19.663-.838-21.834,8.842A58.649,58.649,0,0,0,48.367,56.4c.571,4.835.685,10.786,4.558,14.372,5.384,4.982,16.83,2.738,21.42-2.626,3.57-4.166,2.55-10.78,2.349-15.889a127.26,127.26,0,0,0-2.636-21.292ZM51.532,43.956C52.7,32.481,59.82,32.277,69.082,32.07a2.085,2.085,0,0,0,.829-.274c0,.6.637,4.019.829,5.1A214.107,214.107,0,0,1,54.3,63.151L53.19,62.044c-.551-2.9-.841-5.8-1.106-8.7a52.274,52.274,0,0,1-.551-9.384ZM72.251,61.088c-.956,4.144-6.91,9.674-11.883,8.016-.956-.956-1.935-1.935-2.9-3.041A98.093,98.093,0,0,0,71.7,43.114a96.98,96.98,0,0,1,.561,17.974Z" transform="translate(-22823.631 -16385.211)" fill="#f3988c"/>
    <path id="Path_1166" data-name="Path 1166" d="M100.3,35.257c-.956,11.057,1.453,21.971,1.52,33.028a1.728,1.728,0,1,0,3.455,0c.07-12.578-2.655-25.13-.277-37.586.29-1.517-1.393-3.474-3.038-2.349-6.55,4.482-9.722,11.7-14.927,17.55-.975,1.1.4,3.159,1.661,2.209C93.34,44.593,96.288,39.4,100.3,35.257Z" transform="translate(-22800.262 -16385.637)" fill="#f3988c"/>
    <path id="Path_1167" data-name="Path 1167" d="M133.761,70.676c5.387,4.979,16.826,2.735,21.42-2.626,3.567-4.166,2.515-10.78,2.349-15.893a127.632,127.632,0,0,0-2.486-21.279c-.37-1.807-2.349-1.8-3.455-.829a1.374,1.374,0,0,0-.956-.956c-8.153-1.1-19.663-.838-21.834,8.845A58.649,58.649,0,0,0,129.34,56.3C129.911,61.139,130.041,67.224,133.761,70.676Zm19.622-9.537c-.956,4.144-6.907,9.674-11.883,8.016-.956-.956-1.935-1.935-2.9-3.041a97.988,97.988,0,0,0,14.235-22.95c.277,2.9.551,5.941.692,8.979a62.732,62.732,0,0,1-.14,8.995ZM132.518,44.006c1.17-11.475,8.287-11.679,17.55-11.886a2.068,2.068,0,0,0,.829-.274c0,.6.637,4.019.829,5.1A214.107,214.107,0,0,1,135.281,63.2l-1.1-1.093c-.551-2.9-.841-5.8-1.106-8.7a52.272,52.272,0,0,1-.561-9.4Z" transform="translate(-22775.553 -16385.262)" fill="#f3988c"/>
    <path id="Path_1168" data-name="Path 1168" d="M169.695,48.109c4.781-3.506,7.6-8.7,11.605-12.852-.956,11.057,1.453,21.971,1.52,33.028a1.728,1.728,0,1,0,3.455,0c.07-12.578-2.655-25.13-.277-37.586.29-1.517-1.393-3.474-3.038-2.349-6.55,4.482-9.53,11.876-14.927,17.55C166.957,47.032,168.334,49.107,169.695,48.109Z" transform="translate(-22752.201 -16385.637)" fill="#f3988c"/>
    <path id="Path_1169" data-name="Path 1169" d="M236.026,30.964c-.386-1.8-2.349-1.795-3.455-.829a1.364,1.364,0,0,0-.956-.956c-8.153-1.106-19.663-.838-21.834,8.842a58.65,58.65,0,0,0,.555,18.379c.571,4.835.685,10.786,4.561,14.372,5.38,4.982,16.826,2.738,21.416-2.626,3.57-4.166,2.518-10.777,2.349-15.889a120.678,120.678,0,0,0-2.636-21.292ZM213.637,43.956c1.17-11.475,8.287-11.679,17.55-11.886a2.053,2.053,0,0,0,.829-.274c0,.6.637,4.048.829,5.1A214.106,214.106,0,0,1,216.4,63.151l-1.1-1.106c-.555-2.9-.841-5.8-1.106-8.7a52.276,52.276,0,0,1-.555-9.384Zm20.718,17.132c-.956,4.144-6.907,9.674-11.883,8.016-.956-.956-1.935-1.935-2.9-3.041A98.083,98.083,0,0,0,233.8,43.114a96.978,96.978,0,0,1,.561,17.974Z" transform="translate(-22727.469 -16385.211)" fill="#f3988c"/>
    <path id="Path_1170" data-name="Path 1170" d="M266.961,30.7c.29-1.517-1.393-3.474-3.038-2.349-6.55,4.482-9.722,11.7-14.927,17.55-.975,1.1.411,3.187,1.661,2.209,4.682-3.611,7.6-8.7,11.605-12.852-.956,11.057,1.453,21.971,1.52,33.028a1.728,1.728,0,0,0,3.455,0C267.308,55.721,264.583,43.156,266.961,30.7Z" transform="translate(-22704.098 -16385.637)" fill="#f3988c"/>
    <path id="Path_1171" data-name="Path 1171" d="M317.1,30.964c-.386-1.8-2.349-1.795-3.455-.829a1.361,1.361,0,0,0-.956-.956c-8.153-1.106-19.666-.838-21.834,8.842A58.552,58.552,0,0,0,291.4,56.4c.571,4.835.685,10.786,4.561,14.372,5.38,4.982,16.827,2.738,21.42-2.626,3.567-4.166,2.566-10.78,2.349-15.889A127.59,127.59,0,0,0,317.1,30.964ZM294.559,43.956c1.17-11.475,8.287-11.679,17.55-11.886a2.053,2.053,0,0,0,.829-.274c0,.6.637,4.048.829,5.1a214.1,214.1,0,0,1-16.444,26.255l-1.1-1.106c-.555-2.9-.841-5.8-1.106-8.7a52.279,52.279,0,0,1-.555-9.384Zm20.718,17.132c-.956,4.144-6.907,9.674-11.883,8.016-.956-.956-1.935-1.935-2.9-3.041a98.077,98.077,0,0,0,14.232-22.95,96.983,96.983,0,0,1,.574,17.974Z" transform="translate(-22679.338 -16385.211)" fill="#f3988c"/>
    <path id="Path_1172" data-name="Path 1172" d="M331.748,48.109c4.781-3.506,7.6-8.7,11.609-12.852-.956,11.057,1.45,21.971,1.52,33.028a1.728,1.728,0,0,0,3.455,0c.067-12.578-2.655-25.13-.277-37.586.29-1.517-1.4-3.474-3.041-2.349-6.55,4.482-9.53,11.876-14.924,17.55C329.013,47.032,330.387,49.107,331.748,48.109Z" transform="translate(-22655.988 -16385.637)" fill="#f3988c"/>
    <path id="Path_1173" data-name="Path 1173" d="M317.1,30.964c-.386-1.8-2.349-1.795-3.455-.829a1.361,1.361,0,0,0-.956-.956c-8.153-1.106-19.666-.838-21.834,8.842A58.552,58.552,0,0,0,291.4,56.4c.571,4.835.685,10.786,4.561,14.372,5.38,4.982,16.827,2.738,21.42-2.626,3.567-4.166,2.566-10.78,2.349-15.889A127.59,127.59,0,0,0,317.1,30.964ZM294.559,43.956c1.17-11.475,8.287-11.679,17.55-11.886a2.053,2.053,0,0,0,.829-.274c0,.6.637,4.048.829,5.1a214.1,214.1,0,0,1-16.444,26.255l-1.1-1.106c-.555-2.9-.841-5.8-1.106-8.7a52.279,52.279,0,0,1-.555-9.384Zm20.718,17.132c-.956,4.144-6.907,9.674-11.883,8.016-.956-.956-1.935-1.935-2.9-3.041a98.077,98.077,0,0,0,14.232-22.95,96.983,96.983,0,0,1,.574,17.974Z" transform="translate(-22508.375 -16385.211)" fill="#f3988c"/>
    <path id="Path_1166-2" data-name="Path 1166" d="M100.3,35.257c-.956,11.057,1.453,21.971,1.52,33.028a1.728,1.728,0,1,0,3.455,0c.07-12.578-2.655-25.13-.277-37.586.29-1.517-1.393-3.474-3.038-2.349-6.55,4.482-9.722,11.7-14.927,17.55-.975,1.1.4,3.159,1.661,2.209C93.34,44.593,96.288,39.4,100.3,35.257Z" transform="translate(-22748.471 -16475.826)" fill="#f3988c"/>
    <path id="Path_1167-2" data-name="Path 1167" d="M133.761,70.676c5.387,4.979,16.826,2.735,21.42-2.626,3.567-4.166,2.515-10.78,2.349-15.893a127.632,127.632,0,0,0-2.486-21.279c-.37-1.807-2.349-1.8-3.455-.829a1.374,1.374,0,0,0-.956-.956c-8.153-1.1-19.663-.838-21.834,8.845A58.649,58.649,0,0,0,129.34,56.3C129.911,61.139,130.041,67.224,133.761,70.676Zm19.622-9.537c-.956,4.144-6.907,9.674-11.883,8.016-.956-.956-1.935-1.935-2.9-3.041a97.988,97.988,0,0,0,14.235-22.95c.277,2.9.551,5.941.692,8.979a62.732,62.732,0,0,1-.14,8.995ZM132.518,44.006c1.17-11.475,8.287-11.679,17.55-11.886a2.068,2.068,0,0,0,.829-.274c0,.6.637,4.019.829,5.1A214.107,214.107,0,0,1,135.281,63.2l-1.1-1.093c-.551-2.9-.841-5.8-1.106-8.7a52.272,52.272,0,0,1-.561-9.4Z" transform="translate(-22723.762 -16475.453)" fill="#f3988c"/>
    <path id="Path_1168-2" data-name="Path 1168" d="M169.695,48.109c4.781-3.506,7.6-8.7,11.605-12.852-.956,11.057,1.453,21.971,1.52,33.028a1.728,1.728,0,1,0,3.455,0c.07-12.578-2.655-25.13-.277-37.586.29-1.517-1.393-3.474-3.038-2.349-6.55,4.482-9.53,11.876-14.927,17.55C166.957,47.032,168.334,49.107,169.695,48.109Z" transform="translate(-22700.412 -16475.826)" fill="#f3988c"/>
    <path id="Path_1169-2" data-name="Path 1169" d="M236.026,30.964c-.386-1.8-2.349-1.795-3.455-.829a1.364,1.364,0,0,0-.956-.956c-8.153-1.106-19.663-.838-21.834,8.842a58.65,58.65,0,0,0,.555,18.379c.571,4.835.685,10.786,4.561,14.372,5.38,4.982,16.826,2.738,21.416-2.626,3.57-4.166,2.518-10.777,2.349-15.889a120.678,120.678,0,0,0-2.636-21.292ZM213.637,43.956c1.17-11.475,8.287-11.679,17.55-11.886a2.053,2.053,0,0,0,.829-.274c0,.6.637,4.048.829,5.1A214.106,214.106,0,0,1,216.4,63.151l-1.1-1.106c-.555-2.9-.841-5.8-1.106-8.7a52.276,52.276,0,0,1-.555-9.384Zm20.718,17.132c-.956,4.144-6.907,9.674-11.883,8.016-.956-.956-1.935-1.935-2.9-3.041A98.083,98.083,0,0,0,233.8,43.114a96.978,96.978,0,0,1,.561,17.974Z" transform="translate(-22675.678 -16475.402)" fill="#f3988c"/>
    <path id="Path_1170-2" data-name="Path 1170" d="M266.961,30.7c.29-1.517-1.393-3.474-3.038-2.349-6.55,4.482-9.722,11.7-14.927,17.55-.975,1.1.411,3.187,1.661,2.209,4.682-3.611,7.6-8.7,11.605-12.852-.956,11.057,1.453,21.971,1.52,33.028a1.728,1.728,0,0,0,3.455,0C267.308,55.721,264.583,43.156,266.961,30.7Z" transform="translate(-22652.307 -16475.826)" fill="#f3988c"/>
    <path id="Path_1171-2" data-name="Path 1171" d="M317.1,30.964c-.386-1.8-2.349-1.795-3.455-.829a1.361,1.361,0,0,0-.956-.956c-8.153-1.106-19.666-.838-21.834,8.842A58.552,58.552,0,0,0,291.4,56.4c.571,4.835.685,10.786,4.561,14.372,5.38,4.982,16.827,2.738,21.42-2.626,3.567-4.166,2.566-10.78,2.349-15.889A127.59,127.59,0,0,0,317.1,30.964ZM294.559,43.956c1.17-11.475,8.287-11.679,17.55-11.886a2.053,2.053,0,0,0,.829-.274c0,.6.637,4.048.829,5.1a214.1,214.1,0,0,1-16.444,26.255l-1.1-1.106c-.555-2.9-.841-5.8-1.106-8.7a52.279,52.279,0,0,1-.555-9.384Zm20.718,17.132c-.956,4.144-6.907,9.674-11.883,8.016-.956-.956-1.935-1.935-2.9-3.041a98.077,98.077,0,0,0,14.232-22.95,96.983,96.983,0,0,1,.574,17.974Z" transform="translate(-22627.547 -16475.402)" fill="#f3988c"/>
    <path id="Path_1172-2" data-name="Path 1172" d="M331.748,48.109c4.781-3.506,7.6-8.7,11.609-12.852-.956,11.057,1.45,21.971,1.52,33.028a1.728,1.728,0,0,0,3.455,0c.067-12.578-2.655-25.13-.277-37.586.29-1.517-1.4-3.474-3.041-2.349-6.55,4.482-9.53,11.876-14.924,17.55C329.013,47.032,330.387,49.107,331.748,48.109Z" transform="translate(-22546.703 -16475.826)" fill="#f3988c"/>
    <path id="Path_1167-3" data-name="Path 1167" d="M133.761,70.676c5.387,4.979,16.826,2.735,21.42-2.626,3.567-4.166,2.515-10.78,2.349-15.893a127.632,127.632,0,0,0-2.486-21.279c-.37-1.807-2.349-1.8-3.455-.829a1.374,1.374,0,0,0-.956-.956c-8.153-1.1-19.663-.838-21.834,8.845A58.649,58.649,0,0,0,129.34,56.3C129.911,61.139,130.041,67.224,133.761,70.676Zm19.622-9.537c-.956,4.144-6.907,9.674-11.883,8.016-.956-.956-1.935-1.935-2.9-3.041a97.988,97.988,0,0,0,14.235-22.95c.277,2.9.551,5.941.692,8.979a62.732,62.732,0,0,1-.14,8.995ZM132.518,44.006c1.17-11.475,8.287-11.679,17.55-11.886a2.068,2.068,0,0,0,.829-.274c0,.6.637,4.019.829,5.1A214.107,214.107,0,0,1,135.281,63.2l-1.1-1.093c-.551-2.9-.841-5.8-1.106-8.7a52.272,52.272,0,0,1-.561-9.4Z" transform="translate(-22723.762 -16565.643)" fill="#f3988c"/>
    <path id="Path_1168-3" data-name="Path 1168" d="M169.695,48.109c4.781-3.506,7.6-8.7,11.605-12.852-.956,11.057,1.453,21.971,1.52,33.028a1.728,1.728,0,1,0,3.455,0c.07-12.578-2.655-25.13-.277-37.586.29-1.517-1.393-3.474-3.038-2.349-6.55,4.482-9.53,11.876-14.927,17.55C166.957,47.032,168.334,49.107,169.695,48.109Z" transform="translate(-22700.412 -16566.016)" fill="#f3988c"/>
    <path id="Path_1169-3" data-name="Path 1169" d="M236.026,30.964c-.386-1.8-2.349-1.795-3.455-.829a1.364,1.364,0,0,0-.956-.956c-8.153-1.106-19.663-.838-21.834,8.842a58.65,58.65,0,0,0,.555,18.379c.571,4.835.685,10.786,4.561,14.372,5.38,4.982,16.826,2.738,21.416-2.626,3.57-4.166,2.518-10.777,2.349-15.889a120.678,120.678,0,0,0-2.636-21.292ZM213.637,43.956c1.17-11.475,8.287-11.679,17.55-11.886a2.053,2.053,0,0,0,.829-.274c0,.6.637,4.048.829,5.1A214.106,214.106,0,0,1,216.4,63.151l-1.1-1.106c-.555-2.9-.841-5.8-1.106-8.7a52.276,52.276,0,0,1-.555-9.384Zm20.718,17.132c-.956,4.144-6.907,9.674-11.883,8.016-.956-.956-1.935-1.935-2.9-3.041A98.083,98.083,0,0,0,233.8,43.114a96.978,96.978,0,0,1,.561,17.974Z" transform="translate(-22675.678 -16565.592)" fill="#f3988c"/>
    <path id="Path_1170-3" data-name="Path 1170" d="M266.961,30.7c.29-1.517-1.393-3.474-3.038-2.349-6.55,4.482-9.722,11.7-14.927,17.55-.975,1.1.411,3.187,1.661,2.209,4.682-3.611,7.6-8.7,11.605-12.852-.956,11.057,1.453,21.971,1.52,33.028a1.728,1.728,0,0,0,3.455,0C267.308,55.721,264.583,43.156,266.961,30.7Z" transform="translate(-22652.307 -16566.016)" fill="#f3988c"/>
    <path id="Path_1171-3" data-name="Path 1171" d="M317.1,30.964c-.386-1.8-2.349-1.795-3.455-.829a1.361,1.361,0,0,0-.956-.956c-8.153-1.106-19.666-.838-21.834,8.842A58.552,58.552,0,0,0,291.4,56.4c.571,4.835.685,10.786,4.561,14.372,5.38,4.982,16.827,2.738,21.42-2.626,3.567-4.166,2.566-10.78,2.349-15.889A127.59,127.59,0,0,0,317.1,30.964ZM294.559,43.956c1.17-11.475,8.287-11.679,17.55-11.886a2.053,2.053,0,0,0,.829-.274c0,.6.637,4.048.829,5.1a214.1,214.1,0,0,1-16.444,26.255l-1.1-1.106c-.555-2.9-.841-5.8-1.106-8.7a52.279,52.279,0,0,1-.555-9.384Zm20.718,17.132c-.956,4.144-6.907,9.674-11.883,8.016-.956-.956-1.935-1.935-2.9-3.041a98.077,98.077,0,0,0,14.232-22.95,96.983,96.983,0,0,1,.574,17.974Z" transform="translate(-22627.547 -16565.592)" fill="#f3988c"/>
    <path id="Path_1172-3" data-name="Path 1172" d="M331.748,48.109c4.781-3.506,7.6-8.7,11.609-12.852-.956,11.057,1.45,21.971,1.52,33.028a1.728,1.728,0,0,0,3.455,0c.067-12.578-2.655-25.13-.277-37.586.29-1.517-1.4-3.474-3.041-2.349-6.55,4.482-9.53,11.876-14.924,17.55C329.013,47.032,330.387,49.107,331.748,48.109Z" transform="translate(-22544.703 -16566.016)" fill="#f3988c"/>
    <path id="Path_1441" data-name="Path 1441" d="M331.748,48.109c4.781-3.506,7.6-8.7,11.609-12.852-.956,11.057,1.45,21.971,1.52,33.028a1.728,1.728,0,0,0,3.455,0c.067-12.578-2.655-25.13-.277-37.586.29-1.517-1.4-3.474-3.041-2.349-6.55,4.482-9.53,11.876-14.924,17.55C329.013,47.032,330.387,49.107,331.748,48.109Z" transform="translate(-22604.197 -16295.445)" fill="#f3988c"/>
    <path id="Path_1442" data-name="Path 1442" d="M317.1,30.964c-.386-1.8-2.349-1.795-3.455-.829a1.361,1.361,0,0,0-.956-.956c-8.153-1.106-19.666-.838-21.834,8.842A58.552,58.552,0,0,0,291.4,56.4c.571,4.835.685,10.786,4.561,14.372,5.38,4.982,16.827,2.738,21.42-2.626,3.567-4.166,2.566-10.78,2.349-15.889A127.59,127.59,0,0,0,317.1,30.964ZM294.559,43.956c1.17-11.475,8.287-11.679,17.55-11.886a2.053,2.053,0,0,0,.829-.274c0,.6.637,4.048.829,5.1a214.1,214.1,0,0,1-16.444,26.255l-1.1-1.106c-.555-2.9-.841-5.8-1.106-8.7a52.279,52.279,0,0,1-.555-9.384Zm20.718,17.132c-.956,4.144-6.907,9.674-11.883,8.016-.956-.956-1.935-1.935-2.9-3.041a98.077,98.077,0,0,0,14.232-22.95,96.983,96.983,0,0,1,.574,17.974Z" transform="translate(-22564.832 -16385.211)" fill="#f3988c"/>
    <path id="Path_1443" data-name="Path 1443" d="M331.748,48.109c4.781-3.506,7.6-8.7,11.609-12.852-.956,11.057,1.45,21.971,1.52,33.028a1.728,1.728,0,0,0,3.455,0c.067-12.578-2.655-25.13-.277-37.586.29-1.517-1.4-3.474-3.041-2.349-6.55,4.482-9.53,11.876-14.924,17.55C329.013,47.032,330.387,49.107,331.748,48.109Z" transform="translate(-22604.197 -16475.826)" fill="#f3988c"/>
    <path id="Path_1444" data-name="Path 1444" d="M331.748,48.109c4.781-3.506,7.6-8.7,11.609-12.852-.956,11.057,1.45,21.971,1.52,33.028a1.728,1.728,0,0,0,3.455,0c.067-12.578-2.655-25.13-.277-37.586.29-1.517-1.4-3.474-3.041-2.349-6.55,4.482-9.53,11.876-14.924,17.55C329.013,47.032,330.387,49.107,331.748,48.109Z" transform="translate(-22604.197 -16566.016)" fill="#f3988c"/>
  </g>
</svg>
