<?xml version="1.0" encoding="UTF-8" standalone="no"?><!DOCTYPE svg PUBLIC "-//W3C//DTD SVG 1.1//EN" "http://www.w3.org/Graphics/SVG/1.1/DTD/svg11.dtd"><svg width="100%" height="100%" viewBox="0 0 650 550" version="1.1" xmlns="http://www.w3.org/2000/svg" xmlns:xlink="http://www.w3.org/1999/xlink" xml:space="preserve" xmlns:serif="http://www.serif.com/" style="fill-rule:evenodd;clip-rule:evenodd;"><g id="Camada-1" serif:id="Camada 1"><path id="Path_230" d="M497.37,246.055c0.945,1.593 0.9,2.885 -0.53,3.108c-4.439,0.682 -59.581,-0.4 -68.379,-0.529c-2.194,-0 -2.293,-2.148 -1.282,-4.229c7.307,-15.211 20.609,-38.605 31.569,-51.136c0.659,-0.75 1.925,-1.155 3.205,0.56c12.883,16.653 24.712,34.096 35.417,52.226Zm-39.855,-8.943c-0.553,4.326 6.537,4.521 5.32,-0.191c-0.234,-1.272 -1.353,-2.203 -2.646,-2.203c-1.364,-0 -2.524,1.038 -2.674,2.394Zm1.218,-10.176c0,3.975 3.958,5.704 3.869,-2.196c-0,-3.798 -0,-7.597 -0.194,-11.381c-0.159,-3.203 -2.146,-3.203 -2.868,-2.096c-1.224,1.907 -0.798,12.645 -0.807,15.673Zm35.559,19.439c-9.519,-15.127 -24.984,-37.451 -34.5,-50.048c-10.867,16.76 -20.486,30.75 -29.295,48.975c20.43,0.32 43.347,0.848 63.795,1.075l0,-0.002Z" style="fill:#fb9d97;fill-rule:nonzero;"/><path id="Path_231" d="M112.542,70.995c10.816,18.381 23.862,40.609 32.898,59.679c0.9,1.875 0.322,3.06 -1.125,3.205c-3.87,0.455 -66.343,-3.075 -75.317,-3.542c-2.162,-0.113 -2.4,-2.42 -0.801,-5.1c11.167,-19.011 23.903,-37.056 38.075,-53.947c2.299,-2.651 3.818,-4.461 6.27,-0.295Zm-9.889,48.843c-0.02,0.141 -0.03,0.284 -0.03,0.426c-0,1.656 1.362,3.018 3.017,3.018c0.291,-0 0.581,-0.043 0.86,-0.126c3.205,-0.722 1.218,-4.137 1.139,-4.375c-0.77,-2.285 -4.658,-1.375 -4.986,1.057Zm3.445,-30.607c-0.701,3.478 -2.019,16.65 -2.133,20.24c-0.114,3.59 3.768,4.086 4.2,1.265c0.707,-4.807 1.779,-16.875 1.044,-21.362c-0.159,-0.739 -0.818,-1.271 -1.574,-1.271c-0.702,-0 -1.326,0.458 -1.536,1.128l-0.001,-0Zm36.715,41.792c-10.546,-20.486 -22.516,-39.661 -33.204,-58.844c-16.586,19.725 -24.984,33.006 -38.558,54.999c22.244,1.172 46.667,3.127 71.763,3.847l-0.001,-0.002Z" style="fill:#fb9d97;fill-rule:nonzero;"/><path id="Path_232" d="M80.973,156.827c45.365,0.029 38.059,52.29 3.204,55.017c-39.423,3.075 -41.858,-55.04 -3.204,-55.017Zm-17.772,16.794c0.225,1.04 8.958,9.71 17.018,23.734c0.527,0.954 1.745,1.306 2.7,0.781c0.409,-0.225 11.348,-9.825 15.3,-13.474c1.281,-1.186 -0.369,-3.815 -1.905,-2.613c-4.712,3.669 -9.25,7.565 -13.863,11.364c-4.618,-7.678 -9.93,-14.916 -15.868,-21.625c-0.376,-0.376 -0.886,-0.588 -1.417,-0.588c-1.099,0 -2.004,0.904 -2.004,2.003c0,0.143 0.016,0.286 0.046,0.426l-0.007,-0.008Z" style="fill:#fb9d97;fill-rule:nonzero;"/><path id="Path_241" d="M98.298,239.892c-0.183,-2.55 -13.38,-20.834 -16.181,-20.943c-2.8,-0.108 -17.839,17.244 -17.215,19.422c0.278,0.994 7.17,1.733 14.607,2.085c-0.468,9.615 -3.106,44.037 -2.625,49.8c0.213,2.436 19.732,-0.48 58.071,0.306c-0.3,6.874 -1.356,22.034 -1.157,27.242c-0.004,0.049 -0.007,0.099 -0.007,0.148c0,0.838 0.65,1.545 1.485,1.615c0.891,0.101 1.709,-0.543 1.819,-1.433c0.005,-0.041 0.008,-0.08 0.008,-0.119c1.787,-11.925 4.627,-125.256 3.685,-135.703c10.313,-0.353 50.436,0.257 55.632,-1.187c2.148,-0.574 2.364,-73.106 2.214,-81.213c52.008,-0.786 103.863,-1.956 156.251,-1.845c-0.117,5.724 -1.875,49.851 -0.469,52.516c0.91,1.714 54.535,-0.241 60.9,-0.209c-0.173,17.266 -0.348,34.531 -0.525,51.794c-2.958,-0.289 -21.361,-1.265 -23.666,-0.865c-1.642,0.287 -1.518,2.916 -0,3.011c7.868,0.546 15.768,0.579 23.634,0.865c0.098,11.538 0.18,90.612 1.436,91.895c1.255,1.283 70.967,1.853 92.302,2.56c5.15,4.411 10.645,8.404 16.432,11.938c1.255,0.456 2.198,-25.95 1.643,-27.086c-0.771,-1.818 -14.52,8.352 -18.42,12.166c-10.014,-0.609 -79.149,-2.944 -89.18,-2.046c-0.412,-58.607 -0.957,-85.485 -0.363,-144.122l38.834,0.884c0,8.315 0.364,30.574 1.075,33.859c0.151,0.636 0.794,1.04 1.433,0.9c0.504,-0.099 0.889,-0.515 0.948,-1.026c0.429,-3.574 -0,-26.7 -0,-33.652c-0,-2.277 -1.174,-3.094 -1.95,-3.205c-11.22,-0.9 -28.589,-1.107 -40.323,-1.218c0,-5.625 0.099,-11.507 0.117,-17.85c0,-1.875 -2.875,-1.593 -2.943,0.257c-0.235,7.18 -0.397,12.419 -0.544,17.625c-19.435,-0.137 -38.869,0.204 -58.302,1.025c0.115,-4.344 1.305,-48.957 1.04,-51.281c-0.15,-1.249 -0.875,-1.745 -2.347,-1.761c-51.393,-0.643 -105.762,0 -157.174,1.594c0.07,-5.127 -0.227,-10.253 -0.891,-15.337c-0.127,-0.714 -0.813,-1.202 -1.529,-1.085c-0.611,0.083 -1.086,0.585 -1.134,1.2c-0.3,5.108 -0.3,10.229 0,15.337c-17.913,0.576 -33.713,1.281 -54.533,2.1c-2.197,0.096 -2.446,3.43 -0.235,3.332l54.994,-2.1c0.364,25.175 0.281,55.528 -1.771,78.3c-4.377,-0.305 -51.458,-0.576 -54.927,1.011c-1.486,0.683 -3.156,100.333 -3.305,108.3c-6.841,-0.594 -43.378,-0 -54.997,0.08l3.212,-47.128c7.701,0.193 14.995,0.016 14.941,-0.753Z" style="fill:#092168;fill-rule:nonzero;"/><path id="Path_2411" serif:id="Path_241" d="M98.298,239.892c-0.183,-2.55 -13.38,-20.834 -16.181,-20.943c-2.8,-0.108 -17.839,17.244 -17.215,19.422c0.278,0.994 7.17,1.733 14.607,2.085c-0.468,9.615 -3.106,44.037 -2.625,49.8c0.213,2.436 19.732,-0.48 58.071,0.306c-0.3,6.874 -1.356,22.034 -1.157,27.242c-0.004,0.049 0.73,1.818 0.73,1.867c-0,0.838 35.333,3.068 35.628,-0.104c0.083,-0.893 -33.171,-0.543 -33.061,-1.433c0.005,-0.041 0.008,-0.08 0.008,-0.119c1.787,-11.925 4.627,-125.256 3.685,-135.703c10.313,-0.353 50.436,0.257 55.632,-1.187c2.148,-0.574 2.364,-73.106 2.214,-81.213c52.008,-0.786 103.863,-1.956 156.251,-1.845c-0.117,5.724 -1.875,49.851 -0.469,52.516c0.91,1.714 54.535,-0.241 60.9,-0.209c-0.173,17.266 -0.348,34.531 -0.525,51.794c-2.958,-0.289 -21.361,-1.265 -23.666,-0.865c-1.642,0.287 -1.518,2.916 -0,3.011c7.868,0.546 15.768,0.579 23.634,0.865c0.098,11.538 0.18,90.612 1.436,91.895c1.255,1.283 70.967,1.853 92.302,2.56c5.15,4.411 10.645,8.404 16.432,11.938c1.255,0.456 2.198,-25.95 1.643,-27.086c-0.771,-1.818 -14.52,8.352 -18.42,12.166c-10.014,-0.609 -79.149,-2.944 -89.18,-2.046c-0.412,-58.607 -0.957,-85.485 -0.363,-144.122l38.834,0.884c0,8.315 0.364,30.574 1.075,33.859c0.151,0.636 0.794,1.04 1.433,0.9c0.504,-0.099 0.889,-0.515 0.948,-1.026c0.429,-3.574 -0,-26.7 -0,-33.652c-0,-2.277 -1.174,-3.094 -1.95,-3.205c-11.22,-0.9 -28.589,-1.107 -40.323,-1.218c0,-5.625 0.099,-11.507 0.117,-17.85c0,-1.875 -2.875,-1.593 -2.943,0.257c-0.235,7.18 -0.397,12.419 -0.544,17.625c-19.435,-0.137 -38.869,0.204 -58.302,1.025c0.115,-4.344 1.305,-48.957 1.04,-51.281c-0.15,-1.249 -0.875,-1.745 -2.347,-1.761c-51.393,-0.643 -105.762,0 -157.174,1.594c0.07,-5.127 -0.227,-10.253 -0.891,-15.337c-0.127,-0.714 -0.813,-1.202 -1.529,-1.085c-0.611,0.083 -1.086,0.585 -1.134,1.2c-0.3,5.108 -0.3,10.229 0,15.337c-17.913,0.576 -33.713,1.281 -54.533,2.1c-2.197,0.096 -2.446,3.43 -0.235,3.332l54.994,-2.1c0.364,25.175 0.281,55.528 -1.771,78.3c-4.377,-0.305 -51.458,-0.576 -54.927,1.011c-1.486,0.683 -3.156,100.333 -3.305,108.3c-6.841,-0.594 -43.378,-0 -54.997,0.08l3.212,-47.128c7.701,0.193 14.995,0.016 14.941,-0.753Z" style="fill:#092168;fill-rule:nonzero;"/><path id="Path_2412" serif:id="Path_241" d="M180.302,61.015c0.154,2.552 13.133,20.991 15.932,21.133c2.799,0.142 18.043,-17.031 17.445,-19.216c-0.267,-0.998 -7.15,-1.818 -14.582,-2.259c-1.895,-0.112 -3.845,-0.234 -3.845,-0.234c-7.699,-0.284 -14.994,-0.194 -14.95,0.576Z" style="fill:#092168;fill-rule:nonzero;"/><path id="Path_2413" serif:id="Path_241" d="M401.586,107.759c0.153,2.552 13.133,20.99 15.932,21.132c2.799,0.142 18.042,-17.031 17.444,-19.216c-0.266,-0.997 -7.15,-1.818 -14.581,-2.258c-1.896,-0.113 -3.846,-0.235 -3.846,-0.235c-7.698,-0.284 -14.994,-0.193 -14.949,0.577Z" style="fill:#092168;fill-rule:nonzero;"/><path id="Path_2414" serif:id="Path_241" d="M369.987,219.779c2.54,-0.297 20.217,-14.296 20.2,-17.099c-0.016,-2.802 -18.022,-17.053 -20.169,-16.332c-0.981,0.322 -1.412,7.241 -1.433,14.685c-0.005,1.899 -0.017,3.853 -0.017,3.853c0.151,7.702 0.653,14.981 1.419,14.893Z" style="fill:#092168;fill-rule:nonzero;"/><path id="Path_2415" serif:id="Path_241" d="M185.763,302.945c-2.542,0.273 -20.354,14.101 -20.364,16.903c-0.011,2.803 17.856,17.227 20.01,16.527c0.984,-0.313 1.482,-7.227 1.575,-14.671c0.023,-1.898 0.054,-3.853 0.054,-3.853c-0.076,-7.703 -0.508,-14.986 -1.275,-14.906Z" style="fill:#092168;fill-rule:nonzero;"/><g><path d="M216.921,309.083l-0.03,0.99c-0.76,0.02 -1.29,0.19 -1.59,0.51c-0.3,0.32 -0.48,0.75 -0.54,1.29c-0.06,0.54 -0.11,1.17 -0.15,1.89l-0.42,6.99c-0.08,1.3 -0.29,2.54 -0.63,3.72c-0.34,1.18 -0.845,2.225 -1.515,3.135c-0.67,0.91 -1.535,1.63 -2.595,2.16c-1.06,0.53 -2.34,0.795 -3.84,0.795c-1.6,0 -2.93,-0.21 -3.99,-0.63c-1.06,-0.42 -1.885,-1.065 -2.475,-1.935c-0.59,-0.87 -0.99,-1.975 -1.2,-3.315c-0.21,-1.34 -0.265,-2.94 -0.165,-4.8l0.39,-7.17c0.04,-0.52 0.075,-0.96 0.105,-1.32c0.03,-0.36 0.075,-0.73 0.135,-1.11c-0.36,0.02 -0.72,0.035 -1.08,0.045c-0.36,0.01 -0.72,0.025 -1.08,0.045l0.06,-1.29l6.66,0l-0.06,0.99c-0.68,0 -1.17,0.14 -1.47,0.42c-0.3,0.28 -0.495,0.605 -0.585,0.975c-0.09,0.37 -0.145,0.695 -0.165,0.975l-0.39,7.59c-0.06,1.12 -0.04,2.205 0.06,3.255c0.1,1.05 0.34,1.995 0.72,2.835c0.38,0.84 0.97,1.505 1.77,1.995c0.8,0.49 1.87,0.735 3.21,0.735c1.44,0 2.625,-0.34 3.555,-1.02c0.93,-0.68 1.645,-1.615 2.145,-2.805c0.5,-1.19 0.8,-2.565 0.9,-4.125l0.54,-8.46c0.04,-0.4 0.075,-0.785 0.105,-1.155c0.03,-0.37 0.065,-0.705 0.105,-1.005l-2.16,0.12l0.06,-1.32l5.61,0Z" style="fill:#fff;fill-rule:nonzero;"/><path d="M222.171,330.413c-0.8,0 -1.57,-0.125 -2.31,-0.375c-0.74,-0.25 -1.34,-0.615 -1.8,-1.095c-0.46,-0.48 -0.69,-1.06 -0.69,-1.74c0,-0.44 0.125,-0.795 0.375,-1.065c0.25,-0.27 0.555,-0.405 0.915,-0.405c0.4,0 0.705,0.13 0.915,0.39c0.21,0.26 0.315,0.55 0.315,0.87c0,0.14 -0.02,0.29 -0.06,0.45c-0.04,0.16 -0.11,0.32 -0.21,0.48c0.16,0.44 0.48,0.78 0.96,1.02c0.48,0.24 0.99,0.36 1.53,0.36c1.08,0 1.89,-0.25 2.43,-0.75c0.54,-0.5 0.81,-1.2 0.81,-2.1c0,-0.54 -0.19,-1.02 -0.57,-1.44c-0.38,-0.42 -0.86,-0.815 -1.44,-1.185c-0.58,-0.37 -1.18,-0.735 -1.8,-1.095c-0.58,-0.36 -1.135,-0.73 -1.665,-1.11c-0.53,-0.38 -0.96,-0.8 -1.29,-1.26c-0.33,-0.46 -0.495,-0.98 -0.495,-1.56c0,-0.74 0.22,-1.415 0.66,-2.025c0.44,-0.61 1.05,-1.1 1.83,-1.47c0.78,-0.37 1.68,-0.555 2.7,-0.555c0.76,0 1.475,0.12 2.145,0.36c0.67,0.24 1.22,0.58 1.65,1.02c0.43,0.44 0.645,0.96 0.645,1.56c0,0.42 -0.12,0.755 -0.36,1.005c-0.24,0.25 -0.54,0.375 -0.9,0.375c-0.36,0 -0.65,-0.12 -0.87,-0.36c-0.22,-0.24 -0.33,-0.52 -0.33,-0.84c0,-0.16 0.02,-0.315 0.06,-0.465c0.04,-0.15 0.11,-0.305 0.21,-0.465c-0.1,-0.34 -0.345,-0.625 -0.735,-0.855c-0.39,-0.23 -0.925,-0.345 -1.605,-0.345c-0.44,0 -0.87,0.1 -1.29,0.3c-0.42,0.2 -0.77,0.475 -1.05,0.825c-0.28,0.35 -0.42,0.765 -0.42,1.245c0,0.38 0.115,0.73 0.345,1.05c0.23,0.32 0.535,0.62 0.915,0.9c0.38,0.28 0.79,0.56 1.23,0.84c0.72,0.42 1.46,0.865 2.22,1.335c0.76,0.47 1.395,1.005 1.905,1.605c0.51,0.6 0.765,1.33 0.765,2.19c0,0.84 -0.235,1.59 -0.705,2.25c-0.47,0.66 -1.13,1.18 -1.98,1.56c-0.85,0.38 -1.835,0.57 -2.955,0.57Z" style="fill:#fff;fill-rule:nonzero;"/><path d="M237.771,314.753c0.72,0 1.4,0.11 2.04,0.33c0.64,0.22 1.16,0.58 1.56,1.08c0.4,0.5 0.6,1.18 0.6,2.04c0,0.82 -0.28,1.53 -0.84,2.13c-0.56,0.6 -1.29,1.095 -2.19,1.485c-0.9,0.39 -1.86,0.705 -2.88,0.945c-1.02,0.24 -2,0.41 -2.94,0.51c0,1.24 0.125,2.28 0.375,3.12c0.25,0.84 0.625,1.47 1.125,1.89c0.5,0.42 1.14,0.63 1.92,0.63c0.58,0 1.165,-0.13 1.755,-0.39c0.59,-0.26 1.155,-0.655 1.695,-1.185c0.54,-0.53 1.03,-1.215 1.47,-2.055l0.99,0.57c-0.56,1.04 -1.16,1.9 -1.8,2.58c-0.64,0.68 -1.34,1.18 -2.1,1.5c-0.76,0.32 -1.6,0.48 -2.52,0.48c-1.9,0 -3.3,-0.595 -4.2,-1.785c-0.9,-1.19 -1.35,-2.755 -1.35,-4.695c0,-1.16 0.15,-2.29 0.45,-3.39c0.3,-1.1 0.75,-2.085 1.35,-2.955c0.6,-0.87 1.36,-1.56 2.28,-2.07c0.92,-0.51 1.99,-0.765 3.21,-0.765Zm-0.42,1.02c-0.92,0 -1.675,0.31 -2.265,0.93c-0.59,0.62 -1.04,1.42 -1.35,2.4c-0.31,0.98 -0.505,2.01 -0.585,3.09c1.06,-0.14 2.07,-0.39 3.03,-0.75c0.96,-0.36 1.75,-0.825 2.37,-1.395c0.62,-0.57 0.93,-1.235 0.93,-1.995c0,-0.64 -0.175,-1.18 -0.525,-1.62c-0.35,-0.44 -0.885,-0.66 -1.605,-0.66Z" style="fill:#fff;fill-rule:nonzero;"/></g><g><path d="M544.901,285.58c1.94,-0 3.545,0.225 4.815,0.675c1.27,0.45 2.225,1.11 2.865,1.98c0.64,0.87 0.96,1.945 0.96,3.225c-0,0.78 -0.15,1.595 -0.45,2.445c-0.3,0.85 -0.82,1.64 -1.56,2.37c-0.74,0.73 -1.77,1.325 -3.09,1.785c-1.32,0.46 -3.01,0.69 -5.07,0.69l-0.51,-0c-0.24,-0 -0.46,-0.01 -0.66,-0.03l-0.24,4.35c-0.02,0.54 -0.05,1.005 -0.09,1.395c-0.04,0.39 -0.08,0.715 -0.12,0.975c0.32,-0.02 0.63,-0.04 0.93,-0.06c0.3,-0.02 0.605,-0.035 0.915,-0.045c0.31,-0.01 0.615,-0.025 0.915,-0.045l-0.06,1.35l-7.23,-0l0.06,-0.99c0.76,-0.04 1.29,-0.215 1.59,-0.525c0.3,-0.31 0.48,-0.74 0.54,-1.29c0.06,-0.55 0.1,-1.175 0.12,-1.875l0.69,-12.96c0.04,-0.4 0.075,-0.785 0.105,-1.155c0.03,-0.37 0.065,-0.705 0.105,-1.005c-0.36,0.02 -0.725,0.04 -1.095,0.06c-0.37,0.02 -0.735,0.04 -1.095,0.06l0.09,-1.32c1.06,-0.02 2.13,-0.035 3.21,-0.045c1.08,-0.01 2.2,-0.015 3.36,-0.015Zm-0.12,1.17c-0.62,-0 -1.08,0.135 -1.38,0.405c-0.3,0.27 -0.49,0.66 -0.57,1.17c-0.08,0.51 -0.14,1.125 -0.18,1.845l-0.39,7.29c0.38,0.04 0.71,0.065 0.99,0.075c0.28,0.01 0.6,0.015 0.96,0.015c1.14,-0 2.195,-0.22 3.165,-0.66c0.97,-0.44 1.755,-1.08 2.355,-1.92c0.6,-0.84 0.93,-1.84 0.99,-3c0.04,-0.94 -0.07,-1.745 -0.33,-2.415c-0.26,-0.67 -0.655,-1.21 -1.185,-1.62c-0.53,-0.41 -1.17,-0.71 -1.92,-0.9c-0.75,-0.19 -1.585,-0.285 -2.505,-0.285Z" style="fill:#fff;fill-rule:nonzero;"/><path d="M560.321,283.99c-0.06,0.5 -0.145,1.06 -0.255,1.68c-0.11,0.62 -0.21,1.23 -0.3,1.83c-0.09,0.6 -0.165,1.13 -0.225,1.59c-0.12,0.84 -0.24,1.795 -0.36,2.865c-0.12,1.07 -0.24,2.18 -0.36,3.33c-0.12,1.15 -0.225,2.275 -0.315,3.375c-0.09,1.1 -0.165,2.105 -0.225,3.015c-0.06,0.91 -0.09,1.655 -0.09,2.235c-0,0.38 0.04,0.735 0.12,1.065c0.08,0.33 0.31,0.495 0.69,0.495c0.34,-0 0.715,-0.215 1.125,-0.645c0.41,-0.43 0.765,-1.185 1.065,-2.265l0.84,0.21c-0.06,0.34 -0.185,0.75 -0.375,1.23c-0.19,0.48 -0.445,0.945 -0.765,1.395c-0.32,0.45 -0.705,0.825 -1.155,1.125c-0.45,0.3 -0.975,0.45 -1.575,0.45c-0.82,-0 -1.42,-0.205 -1.8,-0.615c-0.38,-0.41 -0.58,-1.015 -0.6,-1.815c-0.02,-0.5 0.005,-1.24 0.075,-2.22c0.07,-0.98 0.16,-2.095 0.27,-3.345c0.11,-1.25 0.235,-2.56 0.375,-3.93c0.14,-1.37 0.29,-2.705 0.45,-4.005c0.16,-1.3 0.31,-2.48 0.45,-3.54c0.1,-0.54 0.165,-0.895 0.195,-1.065c0.03,-0.17 0.055,-0.355 0.075,-0.555c-0.36,0.02 -0.715,0.04 -1.065,0.06c-0.35,0.02 -0.705,0.04 -1.065,0.06l0.15,-1.2c0.88,-0 1.565,-0.04 2.055,-0.12c0.49,-0.08 0.865,-0.18 1.125,-0.3c0.26,-0.12 0.47,-0.25 0.63,-0.39l0.84,-0Z" style="fill:#fff;fill-rule:nonzero;"/><path d="M572.261,291.31c0.6,-0 1.26,0.045 1.98,0.135c0.72,0.09 1.4,0.215 2.04,0.375c-0.16,1.2 -0.315,2.395 -0.465,3.585c-0.15,1.19 -0.29,2.32 -0.42,3.39c-0.13,1.07 -0.235,2.03 -0.315,2.88c-0.08,0.85 -0.12,1.515 -0.12,1.995c-0,0.4 0.03,0.8 0.09,1.2c0.06,0.4 0.31,0.6 0.75,0.6c0.34,-0 0.715,-0.22 1.125,-0.66c0.41,-0.44 0.765,-1.19 1.065,-2.25l0.84,0.18c-0.06,0.36 -0.185,0.775 -0.375,1.245c-0.19,0.47 -0.445,0.935 -0.765,1.395c-0.32,0.46 -0.71,0.84 -1.17,1.14c-0.46,0.3 -0.99,0.45 -1.59,0.45c-0.8,-0 -1.37,-0.25 -1.71,-0.75c-0.34,-0.5 -0.51,-1.15 -0.51,-1.95c-0,-0.58 0.055,-1.21 0.165,-1.89c0.11,-0.68 0.235,-1.39 0.375,-2.13l-0.09,-0c-0.48,1.48 -0.975,2.665 -1.485,3.555c-0.51,0.89 -1.02,1.565 -1.53,2.025c-0.51,0.46 -1.005,0.765 -1.485,0.915c-0.48,0.15 -0.93,0.225 -1.35,0.225c-1.08,-0 -1.985,-0.4 -2.715,-1.2c-0.73,-0.8 -1.095,-2.14 -1.095,-4.02c-0,-1.4 0.18,-2.73 0.54,-3.99c0.36,-1.26 0.905,-2.375 1.635,-3.345c0.73,-0.97 1.645,-1.73 2.745,-2.28c1.1,-0.55 2.38,-0.825 3.84,-0.825Zm-0.93,1.08c-0.9,-0 -1.685,0.25 -2.355,0.75c-0.67,0.5 -1.225,1.175 -1.665,2.025c-0.44,0.85 -0.765,1.8 -0.975,2.85c-0.21,1.05 -0.315,2.125 -0.315,3.225c-0,1.28 0.14,2.335 0.42,3.165c0.28,0.83 0.79,1.245 1.53,1.245c0.54,-0 1.085,-0.27 1.635,-0.81c0.55,-0.54 1.065,-1.265 1.545,-2.175c0.48,-0.91 0.91,-1.93 1.29,-3.06c0.38,-1.13 0.68,-2.285 0.9,-3.465c0.22,-1.18 0.33,-2.31 0.33,-3.39c-0.3,-0.12 -0.65,-0.21 -1.05,-0.27c-0.4,-0.06 -0.83,-0.09 -1.29,-0.09Z" style="fill:#fff;fill-rule:nonzero;"/><path d="M593.021,306.97c-0.94,-0 -1.58,-0.25 -1.92,-0.75c-0.34,-0.5 -0.51,-1.21 -0.51,-2.13c-0,-0.56 0.045,-1.22 0.135,-1.98c0.09,-0.76 0.2,-1.57 0.33,-2.43c0.13,-0.86 0.24,-1.73 0.33,-2.61c0.09,-0.88 0.135,-1.72 0.135,-2.52c-0,-0.24 -0.035,-0.5 -0.105,-0.78c-0.07,-0.28 -0.205,-0.525 -0.405,-0.735c-0.2,-0.21 -0.5,-0.315 -0.9,-0.315c-0.56,-0 -1.12,0.26 -1.68,0.78c-0.56,0.52 -1.09,1.22 -1.59,2.1c-0.5,0.88 -0.95,1.855 -1.35,2.925c-0.4,1.07 -0.715,2.17 -0.945,3.3c-0.23,1.13 -0.345,2.205 -0.345,3.225c-0,0.3 0.005,0.575 0.015,0.825c0.01,0.25 0.025,0.505 0.045,0.765l-2.52,-0c-0.02,-0.14 -0.03,-0.265 -0.03,-0.375l-0,-0.405c-0,-0.34 0.02,-0.735 0.06,-1.185c0.04,-0.45 0.105,-1.05 0.195,-1.8c0.09,-0.75 0.205,-1.755 0.345,-3.015c0.14,-1.18 0.245,-2.1 0.315,-2.76c0.07,-0.66 0.125,-1.165 0.165,-1.515c0.04,-0.35 0.065,-0.62 0.075,-0.81c0.01,-0.19 0.015,-0.395 0.015,-0.615c-0,-0.36 -0.05,-0.675 -0.15,-0.945c-0.1,-0.27 -0.32,-0.405 -0.66,-0.405c-0.32,-0 -0.69,0.22 -1.11,0.66c-0.42,0.44 -0.78,1.19 -1.08,2.25l-0.84,-0.18c0.06,-0.36 0.185,-0.775 0.375,-1.245c0.19,-0.47 0.445,-0.935 0.765,-1.395c0.32,-0.46 0.71,-0.84 1.17,-1.14c0.46,-0.3 0.99,-0.45 1.59,-0.45c0.68,-0 1.185,0.185 1.515,0.555c0.33,0.37 0.54,0.845 0.63,1.425c0.09,0.58 0.115,1.2 0.075,1.86c-0.04,0.56 -0.105,1.1 -0.195,1.62c-0.09,0.52 -0.175,0.98 -0.255,1.38l0.09,-0c0.68,-1.82 1.35,-3.225 2.01,-4.215c0.66,-0.99 1.315,-1.675 1.965,-2.055c0.65,-0.38 1.295,-0.57 1.935,-0.57c0.8,-0 1.44,0.18 1.92,0.54c0.48,0.36 0.825,0.835 1.035,1.425c0.21,0.59 0.315,1.235 0.315,1.935c-0,1.1 -0.075,2.225 -0.225,3.375c-0.15,1.15 -0.3,2.21 -0.45,3.18c-0.15,0.97 -0.225,1.745 -0.225,2.325c-0,0.36 0.045,0.68 0.135,0.96c0.09,0.28 0.315,0.42 0.675,0.42c0.34,-0 0.715,-0.215 1.125,-0.645c0.41,-0.43 0.765,-1.185 1.065,-2.265l0.84,0.21c-0.06,0.34 -0.185,0.75 -0.375,1.23c-0.19,0.48 -0.445,0.945 -0.765,1.395c-0.32,0.45 -0.71,0.825 -1.17,1.125c-0.46,0.3 -0.99,0.45 -1.59,0.45Z" style="fill:#fff;fill-rule:nonzero;"/></g><g><path d="M157.994,31.064c1.94,0.02 3.485,0.27 4.635,0.75c1.15,0.48 1.97,1.125 2.46,1.935c0.49,0.81 0.705,1.745 0.645,2.805c-0.04,0.76 -0.225,1.535 -0.555,2.325c-0.33,0.79 -0.905,1.505 -1.725,2.145c-0.82,0.64 -2,1.12 -3.54,1.44c0.32,0.36 0.56,0.625 0.72,0.795c0.16,0.17 0.29,0.31 0.39,0.42c0.1,0.11 0.21,0.265 0.33,0.465c0.12,0.2 0.3,0.51 0.54,0.93l1.86,3.21c0.32,0.54 0.625,1.025 0.915,1.455c0.29,0.43 0.64,0.77 1.05,1.02c0.41,0.25 0.925,0.375 1.545,0.375l-0.06,0.99l-3.66,0c-0.44,-0.38 -0.865,-0.865 -1.275,-1.455c-0.41,-0.59 -0.815,-1.215 -1.215,-1.875l-1.83,-3.21c-0.24,-0.44 -0.51,-0.93 -0.81,-1.47c-0.3,-0.54 -0.65,-1 -1.05,-1.38c-0.18,0.02 -0.435,0.03 -0.765,0.03c-0.33,0 -0.635,-0.005 -0.915,-0.015c-0.28,-0.01 -0.45,-0.015 -0.51,-0.015l-0.3,5.82c-0.02,0.54 -0.05,1.005 -0.09,1.395c-0.04,0.39 -0.08,0.715 -0.12,0.975c0.24,-0.02 0.48,-0.035 0.72,-0.045c0.24,-0.01 0.48,-0.025 0.72,-0.045c0.24,-0.02 0.48,-0.03 0.72,-0.03l-0.06,1.32l-6.63,0l0.06,-0.99c0.76,-0.04 1.29,-0.215 1.59,-0.525c0.3,-0.31 0.48,-0.74 0.54,-1.29c0.06,-0.55 0.1,-1.175 0.12,-1.875l0.69,-12.96c0.02,-0.4 0.05,-0.785 0.09,-1.155c0.04,-0.37 0.08,-0.705 0.12,-1.005c-0.36,0.02 -0.725,0.04 -1.095,0.06c-0.37,0.02 -0.735,0.04 -1.095,0.06l0.09,-1.32c1.12,-0.02 2.235,-0.04 3.345,-0.06c1.11,-0.02 2.245,-0.02 3.405,0Zm-0.18,1.14c-0.7,0 -1.2,0.14 -1.5,0.42c-0.3,0.28 -0.49,0.675 -0.57,1.185c-0.08,0.51 -0.14,1.125 -0.18,1.845l-0.33,5.91c0.32,0.02 0.625,0.04 0.915,0.06c0.29,0.02 0.605,0.02 0.945,0c1.1,-0.04 2.08,-0.22 2.94,-0.54c0.86,-0.32 1.545,-0.83 2.055,-1.53c0.51,-0.7 0.795,-1.62 0.855,-2.76c0.04,-0.76 -0.035,-1.425 -0.225,-1.995c-0.19,-0.57 -0.49,-1.05 -0.9,-1.44c-0.41,-0.39 -0.95,-0.68 -1.62,-0.87c-0.67,-0.19 -1.465,-0.285 -2.385,-0.285Z" style="fill:#fff;fill-rule:nonzero;"/><path d="M175.934,36.794c0.72,0 1.4,0.11 2.04,0.33c0.64,0.22 1.16,0.58 1.56,1.08c0.4,0.5 0.6,1.18 0.6,2.04c-0,0.82 -0.28,1.53 -0.84,2.13c-0.56,0.6 -1.29,1.095 -2.19,1.485c-0.9,0.39 -1.86,0.705 -2.88,0.945c-1.02,0.24 -2,0.41 -2.94,0.51c-0,1.24 0.125,2.28 0.375,3.12c0.25,0.84 0.625,1.47 1.125,1.89c0.5,0.42 1.14,0.63 1.92,0.63c0.58,0 1.165,-0.13 1.755,-0.39c0.59,-0.26 1.155,-0.655 1.695,-1.185c0.54,-0.53 1.03,-1.215 1.47,-2.055l0.99,0.57c-0.56,1.04 -1.16,1.9 -1.8,2.58c-0.64,0.68 -1.34,1.18 -2.1,1.5c-0.76,0.32 -1.6,0.48 -2.52,0.48c-1.9,0 -3.3,-0.595 -4.2,-1.785c-0.9,-1.19 -1.35,-2.755 -1.35,-4.695c-0,-1.16 0.15,-2.29 0.45,-3.39c0.3,-1.1 0.75,-2.085 1.35,-2.955c0.6,-0.87 1.36,-1.56 2.28,-2.07c0.92,-0.51 1.99,-0.765 3.21,-0.765Zm-0.42,1.02c-0.92,0 -1.675,0.31 -2.265,0.93c-0.59,0.62 -1.04,1.42 -1.35,2.4c-0.31,0.98 -0.505,2.01 -0.585,3.09c1.06,-0.14 2.07,-0.39 3.03,-0.75c0.96,-0.36 1.75,-0.825 2.37,-1.395c0.62,-0.57 0.93,-1.235 0.93,-1.995c-0,-0.64 -0.175,-1.18 -0.525,-1.62c-0.35,-0.44 -0.885,-0.66 -1.605,-0.66Z" style="fill:#fff;fill-rule:nonzero;"/><path d="M188.204,29.474c-0.06,0.5 -0.145,1.06 -0.255,1.68c-0.11,0.62 -0.21,1.23 -0.3,1.83c-0.09,0.6 -0.165,1.13 -0.225,1.59c-0.12,0.84 -0.24,1.795 -0.36,2.865c-0.12,1.07 -0.24,2.18 -0.36,3.33c-0.12,1.15 -0.225,2.275 -0.315,3.375c-0.09,1.1 -0.165,2.105 -0.225,3.015c-0.06,0.91 -0.09,1.655 -0.09,2.235c-0,0.38 0.04,0.735 0.12,1.065c0.08,0.33 0.31,0.495 0.69,0.495c0.34,0 0.715,-0.215 1.125,-0.645c0.41,-0.43 0.765,-1.185 1.065,-2.265l0.84,0.21c-0.06,0.34 -0.185,0.75 -0.375,1.23c-0.19,0.48 -0.445,0.945 -0.765,1.395c-0.32,0.45 -0.705,0.825 -1.155,1.125c-0.45,0.3 -0.975,0.45 -1.575,0.45c-0.82,0 -1.42,-0.205 -1.8,-0.615c-0.38,-0.41 -0.58,-1.015 -0.6,-1.815c-0.02,-0.5 0.005,-1.24 0.075,-2.22c0.07,-0.98 0.16,-2.095 0.27,-3.345c0.11,-1.25 0.235,-2.56 0.375,-3.93c0.14,-1.37 0.29,-2.705 0.45,-4.005c0.16,-1.3 0.31,-2.48 0.45,-3.54c0.1,-0.54 0.165,-0.895 0.195,-1.065c0.03,-0.17 0.055,-0.355 0.075,-0.555c-0.36,0.02 -0.715,0.04 -1.065,0.06c-0.35,0.02 -0.705,0.04 -1.065,0.06l0.15,-1.2c0.88,0 1.565,-0.04 2.055,-0.12c0.49,-0.08 0.865,-0.18 1.125,-0.3c0.26,-0.12 0.47,-0.25 0.63,-0.39l0.84,0Z" style="fill:#fff;fill-rule:nonzero;"/><path d="M198.734,36.794c0.72,0 1.4,0.11 2.04,0.33c0.64,0.22 1.16,0.58 1.56,1.08c0.4,0.5 0.6,1.18 0.6,2.04c-0,0.82 -0.28,1.53 -0.84,2.13c-0.56,0.6 -1.29,1.095 -2.19,1.485c-0.9,0.39 -1.86,0.705 -2.88,0.945c-1.02,0.24 -2,0.41 -2.94,0.51c-0,1.24 0.125,2.28 0.375,3.12c0.25,0.84 0.625,1.47 1.125,1.89c0.5,0.42 1.14,0.63 1.92,0.63c0.58,0 1.165,-0.13 1.755,-0.39c0.59,-0.26 1.155,-0.655 1.695,-1.185c0.54,-0.53 1.03,-1.215 1.47,-2.055l0.99,0.57c-0.56,1.04 -1.16,1.9 -1.8,2.58c-0.64,0.68 -1.34,1.18 -2.1,1.5c-0.76,0.32 -1.6,0.48 -2.52,0.48c-1.9,0 -3.3,-0.595 -4.2,-1.785c-0.9,-1.19 -1.35,-2.755 -1.35,-4.695c-0,-1.16 0.15,-2.29 0.45,-3.39c0.3,-1.1 0.75,-2.085 1.35,-2.955c0.6,-0.87 1.36,-1.56 2.28,-2.07c0.92,-0.51 1.99,-0.765 3.21,-0.765Zm-0.42,1.02c-0.92,0 -1.675,0.31 -2.265,0.93c-0.59,0.62 -1.04,1.42 -1.35,2.4c-0.31,0.98 -0.505,2.01 -0.585,3.09c1.06,-0.14 2.07,-0.39 3.03,-0.75c0.96,-0.36 1.75,-0.825 2.37,-1.395c0.62,-0.57 0.93,-1.235 0.93,-1.995c-0,-0.64 -0.175,-1.18 -0.525,-1.62c-0.35,-0.44 -0.885,-0.66 -1.605,-0.66Z" style="fill:#fff;fill-rule:nonzero;"/><path d="M214.454,36.794c0.6,0 1.26,0.045 1.98,0.135c0.72,0.09 1.4,0.215 2.04,0.375c-0.16,1.2 -0.315,2.395 -0.465,3.585c-0.15,1.19 -0.29,2.32 -0.42,3.39c-0.13,1.07 -0.235,2.03 -0.315,2.88c-0.08,0.85 -0.12,1.515 -0.12,1.995c-0,0.4 0.03,0.8 0.09,1.2c0.06,0.4 0.31,0.6 0.75,0.6c0.34,0 0.715,-0.22 1.125,-0.66c0.41,-0.44 0.765,-1.19 1.065,-2.25l0.84,0.18c-0.06,0.36 -0.185,0.775 -0.375,1.245c-0.19,0.47 -0.445,0.935 -0.765,1.395c-0.32,0.46 -0.71,0.84 -1.17,1.14c-0.46,0.3 -0.99,0.45 -1.59,0.45c-0.8,0 -1.37,-0.25 -1.71,-0.75c-0.34,-0.5 -0.51,-1.15 -0.51,-1.95c-0,-0.58 0.055,-1.21 0.165,-1.89c0.11,-0.68 0.235,-1.39 0.375,-2.13l-0.09,0c-0.48,1.48 -0.975,2.665 -1.485,3.555c-0.51,0.89 -1.02,1.565 -1.53,2.025c-0.51,0.46 -1.005,0.765 -1.485,0.915c-0.48,0.15 -0.93,0.225 -1.35,0.225c-1.08,0 -1.985,-0.4 -2.715,-1.2c-0.73,-0.8 -1.095,-2.14 -1.095,-4.02c-0,-1.4 0.18,-2.73 0.54,-3.99c0.36,-1.26 0.905,-2.375 1.635,-3.345c0.73,-0.97 1.645,-1.73 2.745,-2.28c1.1,-0.55 2.38,-0.825 3.84,-0.825Zm-0.93,1.08c-0.9,0 -1.685,0.25 -2.355,0.75c-0.67,0.5 -1.225,1.175 -1.665,2.025c-0.44,0.85 -0.765,1.8 -0.975,2.85c-0.21,1.05 -0.315,2.125 -0.315,3.225c-0,1.28 0.14,2.335 0.42,3.165c0.28,0.83 0.79,1.245 1.53,1.245c0.54,0 1.085,-0.27 1.635,-0.81c0.55,-0.54 1.065,-1.265 1.545,-2.175c0.48,-0.91 0.91,-1.93 1.29,-3.06c0.38,-1.13 0.68,-2.285 0.9,-3.465c0.22,-1.18 0.33,-2.31 0.33,-3.39c-0.3,-0.12 -0.65,-0.21 -1.05,-0.27c-0.4,-0.06 -0.83,-0.09 -1.29,-0.09Z" style="fill:#fff;fill-rule:nonzero;"/><path d="M226.724,52.454c-0.8,0 -1.57,-0.125 -2.31,-0.375c-0.74,-0.25 -1.34,-0.615 -1.8,-1.095c-0.46,-0.48 -0.69,-1.06 -0.69,-1.74c-0,-0.44 0.125,-0.795 0.375,-1.065c0.25,-0.27 0.555,-0.405 0.915,-0.405c0.4,0 0.705,0.13 0.915,0.39c0.21,0.26 0.315,0.55 0.315,0.87c-0,0.14 -0.02,0.29 -0.06,0.45c-0.04,0.16 -0.11,0.32 -0.21,0.48c0.16,0.44 0.48,0.78 0.96,1.02c0.48,0.24 0.99,0.36 1.53,0.36c1.08,0 1.89,-0.25 2.43,-0.75c0.54,-0.5 0.81,-1.2 0.81,-2.1c-0,-0.54 -0.19,-1.02 -0.57,-1.44c-0.38,-0.42 -0.86,-0.815 -1.44,-1.185c-0.58,-0.37 -1.18,-0.735 -1.8,-1.095c-0.58,-0.36 -1.135,-0.73 -1.665,-1.11c-0.53,-0.38 -0.96,-0.8 -1.29,-1.26c-0.33,-0.46 -0.495,-0.98 -0.495,-1.56c-0,-0.74 0.22,-1.415 0.66,-2.025c0.44,-0.61 1.05,-1.1 1.83,-1.47c0.78,-0.37 1.68,-0.555 2.7,-0.555c0.76,0 1.475,0.12 2.145,0.36c0.67,0.24 1.22,0.58 1.65,1.02c0.43,0.44 0.645,0.96 0.645,1.56c-0,0.42 -0.12,0.755 -0.36,1.005c-0.24,0.25 -0.54,0.375 -0.9,0.375c-0.36,0 -0.65,-0.12 -0.87,-0.36c-0.22,-0.24 -0.33,-0.52 -0.33,-0.84c-0,-0.16 0.02,-0.315 0.06,-0.465c0.04,-0.15 0.11,-0.305 0.21,-0.465c-0.1,-0.34 -0.345,-0.625 -0.735,-0.855c-0.39,-0.23 -0.925,-0.345 -1.605,-0.345c-0.44,0 -0.87,0.1 -1.29,0.3c-0.42,0.2 -0.77,0.475 -1.05,0.825c-0.28,0.35 -0.42,0.765 -0.42,1.245c-0,0.38 0.115,0.73 0.345,1.05c0.23,0.32 0.535,0.62 0.915,0.9c0.38,0.28 0.79,0.56 1.23,0.84c0.72,0.42 1.46,0.865 2.22,1.335c0.76,0.47 1.395,1.005 1.905,1.605c0.51,0.6 0.765,1.33 0.765,2.19c-0,0.84 -0.235,1.59 -0.705,2.25c-0.47,0.66 -1.13,1.18 -1.98,1.56c-0.85,0.38 -1.835,0.57 -2.955,0.57Z" style="fill:#fff;fill-rule:nonzero;"/><path d="M242.324,36.794c0.72,0 1.4,0.11 2.04,0.33c0.64,0.22 1.16,0.58 1.56,1.08c0.4,0.5 0.6,1.18 0.6,2.04c-0,0.82 -0.28,1.53 -0.84,2.13c-0.56,0.6 -1.29,1.095 -2.19,1.485c-0.9,0.39 -1.86,0.705 -2.88,0.945c-1.02,0.24 -2,0.41 -2.94,0.51c-0,1.24 0.125,2.28 0.375,3.12c0.25,0.84 0.625,1.47 1.125,1.89c0.5,0.42 1.14,0.63 1.92,0.63c0.58,0 1.165,-0.13 1.755,-0.39c0.59,-0.26 1.155,-0.655 1.695,-1.185c0.54,-0.53 1.03,-1.215 1.47,-2.055l0.99,0.57c-0.56,1.04 -1.16,1.9 -1.8,2.58c-0.64,0.68 -1.34,1.18 -2.1,1.5c-0.76,0.32 -1.6,0.48 -2.52,0.48c-1.9,0 -3.3,-0.595 -4.2,-1.785c-0.9,-1.19 -1.35,-2.755 -1.35,-4.695c-0,-1.16 0.15,-2.29 0.45,-3.39c0.3,-1.1 0.75,-2.085 1.35,-2.955c0.6,-0.87 1.36,-1.56 2.28,-2.07c0.92,-0.51 1.99,-0.765 3.21,-0.765Zm-0.42,1.02c-0.92,0 -1.675,0.31 -2.265,0.93c-0.59,0.62 -1.04,1.42 -1.35,2.4c-0.31,0.98 -0.505,2.01 -0.585,3.09c1.06,-0.14 2.07,-0.39 3.03,-0.75c0.96,-0.36 1.75,-0.825 2.37,-1.395c0.62,-0.57 0.93,-1.235 0.93,-1.995c-0,-0.64 -0.175,-1.18 -0.525,-1.62c-0.35,-0.44 -0.885,-0.66 -1.605,-0.66Z" style="fill:#fff;fill-rule:nonzero;"/></g><g><path d="M285.569,189.099c1.12,-0 2.165,0.15 3.135,0.45c0.97,0.3 1.895,0.75 2.775,1.35l0.03,-0l-0.06,-1.62l1.62,-0l-0.36,6.93l-1.08,-0c-0.1,-1.88 -0.68,-3.33 -1.74,-4.35c-1.06,-1.02 -2.46,-1.53 -4.2,-1.53c-1.06,-0 -2.065,0.225 -3.015,0.675c-0.95,0.45 -1.8,1.095 -2.55,1.935c-0.75,0.84 -1.35,1.85 -1.8,3.03c-0.45,1.18 -0.715,2.51 -0.795,3.99c-0.1,1.88 0.175,3.54 0.825,4.98c0.65,1.44 1.56,2.56 2.73,3.36c1.17,0.8 2.495,1.2 3.975,1.2c1.3,-0 2.59,-0.285 3.87,-0.855c1.28,-0.57 2.35,-1.405 3.21,-2.505l0.75,0.63c-0.92,1.16 -1.9,2.05 -2.94,2.67c-1.04,0.62 -2.055,1.045 -3.045,1.275c-0.99,0.23 -1.895,0.345 -2.715,0.345c-1.5,-0 -2.85,-0.27 -4.05,-0.81c-1.2,-0.54 -2.22,-1.295 -3.06,-2.265c-0.84,-0.97 -1.465,-2.1 -1.875,-3.39c-0.41,-1.29 -0.575,-2.685 -0.495,-4.185c0.08,-1.42 0.36,-2.8 0.84,-4.14c0.48,-1.34 1.17,-2.55 2.07,-3.63c0.9,-1.08 2.015,-1.94 3.345,-2.58c1.33,-0.64 2.865,-0.96 4.605,-0.96Z" style="fill:#fff;fill-rule:nonzero;"/><path d="M296.819,210.579c-0.02,-0.14 -0.03,-0.265 -0.03,-0.375l0,-0.405c0,-0.34 0.01,-0.745 0.03,-1.215c0.02,-0.47 0.065,-1.095 0.135,-1.875c0.07,-0.78 0.175,-1.8 0.315,-3.06c0.14,-1.3 0.25,-2.28 0.33,-2.94c0.08,-0.66 0.14,-1.145 0.18,-1.455c0.04,-0.31 0.06,-0.565 0.06,-0.765c0.02,-0.4 -0.005,-0.79 -0.075,-1.17c-0.07,-0.38 -0.315,-0.57 -0.735,-0.57c-0.32,-0 -0.69,0.22 -1.11,0.66c-0.42,0.44 -0.78,1.19 -1.08,2.25l-0.84,-0.18c0.06,-0.36 0.185,-0.775 0.375,-1.245c0.19,-0.47 0.445,-0.935 0.765,-1.395c0.32,-0.46 0.71,-0.84 1.17,-1.14c0.46,-0.3 0.99,-0.45 1.59,-0.45c0.9,-0 1.5,0.31 1.8,0.93c0.3,0.62 0.43,1.45 0.39,2.49c-0.02,0.44 -0.075,0.925 -0.165,1.455c-0.09,0.53 -0.185,1.085 -0.285,1.665l0.09,-0c0.58,-1.74 1.185,-3.08 1.815,-4.02c0.63,-0.94 1.27,-1.595 1.92,-1.965c0.65,-0.37 1.295,-0.555 1.935,-0.555c0.6,-0 1.1,0.155 1.5,0.465c0.4,0.31 0.6,0.735 0.6,1.275c0,0.36 -0.125,0.69 -0.375,0.99c-0.25,0.3 -0.585,0.45 -1.005,0.45c-0.36,-0 -0.67,-0.11 -0.93,-0.33c-0.26,-0.22 -0.41,-0.53 -0.45,-0.93c-0.56,-0.12 -1.105,0.06 -1.635,0.54c-0.53,0.48 -1.03,1.165 -1.5,2.055c-0.47,0.89 -0.88,1.885 -1.23,2.985c-0.35,1.1 -0.625,2.22 -0.825,3.36c-0.2,1.14 -0.3,2.2 -0.3,3.18c0,0.3 0.005,0.525 0.015,0.675c0.01,0.15 0.025,0.355 0.045,0.615l-2.49,-0Z" style="fill:#fff;fill-rule:nonzero;"/><path d="M315.599,195.249c0.72,-0 1.4,0.11 2.04,0.33c0.64,0.22 1.16,0.58 1.56,1.08c0.4,0.5 0.6,1.18 0.6,2.04c0,0.82 -0.28,1.53 -0.84,2.13c-0.56,0.6 -1.29,1.095 -2.19,1.485c-0.9,0.39 -1.86,0.705 -2.88,0.945c-1.02,0.24 -2,0.41 -2.94,0.51c0,1.24 0.125,2.28 0.375,3.12c0.25,0.84 0.625,1.47 1.125,1.89c0.5,0.42 1.14,0.63 1.92,0.63c0.58,-0 1.165,-0.13 1.755,-0.39c0.59,-0.26 1.155,-0.655 1.695,-1.185c0.54,-0.53 1.03,-1.215 1.47,-2.055l0.99,0.57c-0.56,1.04 -1.16,1.9 -1.8,2.58c-0.64,0.68 -1.34,1.18 -2.1,1.5c-0.76,0.32 -1.6,0.48 -2.52,0.48c-1.9,-0 -3.3,-0.595 -4.2,-1.785c-0.9,-1.19 -1.35,-2.755 -1.35,-4.695c0,-1.16 0.15,-2.29 0.45,-3.39c0.3,-1.1 0.75,-2.085 1.35,-2.955c0.6,-0.87 1.36,-1.56 2.28,-2.07c0.92,-0.51 1.99,-0.765 3.21,-0.765Zm-0.42,1.02c-0.92,-0 -1.675,0.31 -2.265,0.93c-0.59,0.62 -1.04,1.42 -1.35,2.4c-0.31,0.98 -0.505,2.01 -0.585,3.09c1.06,-0.14 2.07,-0.39 3.03,-0.75c0.96,-0.36 1.75,-0.825 2.37,-1.395c0.62,-0.57 0.93,-1.235 0.93,-1.995c0,-0.64 -0.175,-1.18 -0.525,-1.62c-0.35,-0.44 -0.885,-0.66 -1.605,-0.66Z" style="fill:#fff;fill-rule:nonzero;"/><path d="M331.319,195.249c0.6,-0 1.26,0.045 1.98,0.135c0.72,0.09 1.4,0.215 2.04,0.375c-0.16,1.2 -0.315,2.395 -0.465,3.585c-0.15,1.19 -0.29,2.32 -0.42,3.39c-0.13,1.07 -0.235,2.03 -0.315,2.88c-0.08,0.85 -0.12,1.515 -0.12,1.995c0,0.4 0.03,0.8 0.09,1.2c0.06,0.4 0.31,0.6 0.75,0.6c0.34,-0 0.715,-0.22 1.125,-0.66c0.41,-0.44 0.765,-1.19 1.065,-2.25l0.84,0.18c-0.06,0.36 -0.185,0.775 -0.375,1.245c-0.19,0.47 -0.445,0.935 -0.765,1.395c-0.32,0.46 -0.71,0.84 -1.17,1.14c-0.46,0.3 -0.99,0.45 -1.59,0.45c-0.8,-0 -1.37,-0.25 -1.71,-0.75c-0.34,-0.5 -0.51,-1.15 -0.51,-1.95c0,-0.58 0.055,-1.21 0.165,-1.89c0.11,-0.68 0.235,-1.39 0.375,-2.13l-0.09,-0c-0.48,1.48 -0.975,2.665 -1.485,3.555c-0.51,0.89 -1.02,1.565 -1.53,2.025c-0.51,0.46 -1.005,0.765 -1.485,0.915c-0.48,0.15 -0.93,0.225 -1.35,0.225c-1.08,-0 -1.985,-0.4 -2.715,-1.2c-0.73,-0.8 -1.095,-2.14 -1.095,-4.02c0,-1.4 0.18,-2.73 0.54,-3.99c0.36,-1.26 0.905,-2.375 1.635,-3.345c0.73,-0.97 1.645,-1.73 2.745,-2.28c1.1,-0.55 2.38,-0.825 3.84,-0.825Zm-0.93,1.08c-0.9,-0 -1.685,0.25 -2.355,0.75c-0.67,0.5 -1.225,1.175 -1.665,2.025c-0.44,0.85 -0.765,1.8 -0.975,2.85c-0.21,1.05 -0.315,2.125 -0.315,3.225c0,1.28 0.14,2.335 0.42,3.165c0.28,0.83 0.79,1.245 1.53,1.245c0.54,-0 1.085,-0.27 1.635,-0.81c0.55,-0.54 1.065,-1.265 1.545,-2.175c0.48,-0.91 0.91,-1.93 1.29,-3.06c0.38,-1.13 0.68,-2.285 0.9,-3.465c0.22,-1.18 0.33,-2.31 0.33,-3.39c-0.3,-0.12 -0.65,-0.21 -1.05,-0.27c-0.4,-0.06 -0.83,-0.09 -1.29,-0.09Z" style="fill:#fff;fill-rule:nonzero;"/><path d="M344.399,191.349l-0.54,4.23l4.77,-0l-0.09,1.14l-4.8,0.06c-0.08,0.84 -0.175,1.705 -0.285,2.595c-0.11,0.89 -0.205,1.775 -0.285,2.655c-0.08,0.88 -0.15,1.725 -0.21,2.535c-0.06,0.81 -0.09,1.545 -0.09,2.205c0,0.38 0.025,0.775 0.075,1.185c0.05,0.41 0.175,0.75 0.375,1.02c0.2,0.27 0.52,0.405 0.96,0.405c0.2,-0 0.445,-0.04 0.735,-0.12c0.29,-0.08 0.615,-0.27 0.975,-0.57c0.36,-0.3 0.73,-0.77 1.11,-1.41l0.78,0.51c-0.58,1.02 -1.205,1.795 -1.875,2.325c-0.67,0.53 -1.485,0.795 -2.445,0.795c-0.78,-0 -1.395,-0.165 -1.845,-0.495c-0.45,-0.33 -0.775,-0.765 -0.975,-1.305c-0.2,-0.54 -0.3,-1.12 -0.3,-1.74c0,-0.76 0.03,-1.685 0.09,-2.775c0.06,-1.09 0.15,-2.3 0.27,-3.63c0.12,-1.33 0.26,-2.715 0.42,-4.155l-2.67,0.03l0.09,-1.26c1.38,-0 2.4,-0.37 3.06,-1.11c0.66,-0.74 1.18,-1.78 1.56,-3.12l1.14,-0Z" style="fill:#fff;fill-rule:nonzero;"/><path d="M357.269,195.249c0.72,-0 1.4,0.11 2.04,0.33c0.64,0.22 1.16,0.58 1.56,1.08c0.4,0.5 0.6,1.18 0.6,2.04c0,0.82 -0.28,1.53 -0.84,2.13c-0.56,0.6 -1.29,1.095 -2.19,1.485c-0.9,0.39 -1.86,0.705 -2.88,0.945c-1.02,0.24 -2,0.41 -2.94,0.51c0,1.24 0.125,2.28 0.375,3.12c0.25,0.84 0.625,1.47 1.125,1.89c0.5,0.42 1.14,0.63 1.92,0.63c0.58,-0 1.165,-0.13 1.755,-0.39c0.59,-0.26 1.155,-0.655 1.695,-1.185c0.54,-0.53 1.03,-1.215 1.47,-2.055l0.99,0.57c-0.56,1.04 -1.16,1.9 -1.8,2.58c-0.64,0.68 -1.34,1.18 -2.1,1.5c-0.76,0.32 -1.6,0.48 -2.52,0.48c-1.9,-0 -3.3,-0.595 -4.2,-1.785c-0.9,-1.19 -1.35,-2.755 -1.35,-4.695c0,-1.16 0.15,-2.29 0.45,-3.39c0.3,-1.1 0.75,-2.085 1.35,-2.955c0.6,-0.87 1.36,-1.56 2.28,-2.07c0.92,-0.51 1.99,-0.765 3.21,-0.765Zm-0.42,1.02c-0.92,-0 -1.675,0.31 -2.265,0.93c-0.59,0.62 -1.04,1.42 -1.35,2.4c-0.31,0.98 -0.505,2.01 -0.585,3.09c1.06,-0.14 2.07,-0.39 3.03,-0.75c0.96,-0.36 1.75,-0.825 2.37,-1.395c0.62,-0.57 0.93,-1.235 0.93,-1.995c0,-0.64 -0.175,-1.18 -0.525,-1.62c-0.35,-0.44 -0.885,-0.66 -1.605,-0.66Z" style="fill:#fff;fill-rule:nonzero;"/></g><g><path d="M373.71,71.882c1.12,-0 2.165,0.15 3.135,0.45c0.97,0.3 1.895,0.75 2.775,1.35l0.03,-0l-0.06,-1.62l1.62,-0l-0.36,6.93l-1.08,-0c-0.1,-1.88 -0.68,-3.33 -1.74,-4.35c-1.06,-1.02 -2.46,-1.53 -4.2,-1.53c-1.06,-0 -2.065,0.225 -3.015,0.675c-0.95,0.45 -1.8,1.095 -2.55,1.935c-0.75,0.84 -1.35,1.85 -1.8,3.03c-0.45,1.18 -0.715,2.51 -0.795,3.99c-0.1,1.88 0.175,3.54 0.825,4.98c0.65,1.44 1.56,2.56 2.73,3.36c1.17,0.8 2.495,1.2 3.975,1.2c1.3,-0 2.59,-0.285 3.87,-0.855c1.28,-0.57 2.35,-1.405 3.21,-2.505l0.75,0.63c-0.92,1.16 -1.9,2.05 -2.94,2.67c-1.04,0.62 -2.055,1.045 -3.045,1.275c-0.99,0.23 -1.895,0.345 -2.715,0.345c-1.5,-0 -2.85,-0.27 -4.05,-0.81c-1.2,-0.54 -2.22,-1.295 -3.06,-2.265c-0.84,-0.97 -1.465,-2.1 -1.875,-3.39c-0.41,-1.29 -0.575,-2.685 -0.495,-4.185c0.08,-1.42 0.36,-2.8 0.84,-4.14c0.48,-1.34 1.17,-2.55 2.07,-3.63c0.9,-1.08 2.015,-1.94 3.345,-2.58c1.33,-0.64 2.865,-0.96 4.605,-0.96Z" style="fill:#fff;fill-rule:nonzero;"/><path d="M391.8,78.032c0.6,-0 1.26,0.045 1.98,0.135c0.72,0.09 1.4,0.215 2.04,0.375c-0.16,1.2 -0.315,2.395 -0.465,3.585c-0.15,1.19 -0.29,2.32 -0.42,3.39c-0.13,1.07 -0.235,2.03 -0.315,2.88c-0.08,0.85 -0.12,1.515 -0.12,1.995c0,0.4 0.03,0.8 0.09,1.2c0.06,0.4 0.31,0.6 0.75,0.6c0.34,-0 0.715,-0.22 1.125,-0.66c0.41,-0.44 0.765,-1.19 1.065,-2.25l0.84,0.18c-0.06,0.36 -0.185,0.775 -0.375,1.245c-0.19,0.47 -0.445,0.935 -0.765,1.395c-0.32,0.46 -0.71,0.84 -1.17,1.14c-0.46,0.3 -0.99,0.45 -1.59,0.45c-0.8,-0 -1.37,-0.25 -1.71,-0.75c-0.34,-0.5 -0.51,-1.15 -0.51,-1.95c0,-0.58 0.055,-1.21 0.165,-1.89c0.11,-0.68 0.235,-1.39 0.375,-2.13l-0.09,-0c-0.48,1.48 -0.975,2.665 -1.485,3.555c-0.51,0.89 -1.02,1.565 -1.53,2.025c-0.51,0.46 -1.005,0.765 -1.485,0.915c-0.48,0.15 -0.93,0.225 -1.35,0.225c-1.08,-0 -1.985,-0.4 -2.715,-1.2c-0.73,-0.8 -1.095,-2.14 -1.095,-4.02c0,-1.4 0.18,-2.73 0.54,-3.99c0.36,-1.26 0.905,-2.375 1.635,-3.345c0.73,-0.97 1.645,-1.73 2.745,-2.28c1.1,-0.55 2.38,-0.825 3.84,-0.825Zm-0.93,1.08c-0.9,-0 -1.685,0.25 -2.355,0.75c-0.67,0.5 -1.225,1.175 -1.665,2.025c-0.44,0.85 -0.765,1.8 -0.975,2.85c-0.21,1.05 -0.315,2.125 -0.315,3.225c0,1.28 0.14,2.335 0.42,3.165c0.28,0.83 0.79,1.245 1.53,1.245c0.54,-0 1.085,-0.27 1.635,-0.81c0.55,-0.54 1.065,-1.265 1.545,-2.175c0.48,-0.91 0.91,-1.93 1.29,-3.06c0.38,-1.13 0.68,-2.285 0.9,-3.465c0.22,-1.18 0.33,-2.31 0.33,-3.39c-0.3,-0.12 -0.65,-0.21 -1.05,-0.27c-0.4,-0.06 -0.83,-0.09 -1.29,-0.09Z" style="fill:#fff;fill-rule:nonzero;"/><path d="M404.88,74.132l-0.54,4.23l4.77,-0l-0.09,1.14l-4.8,0.06c-0.08,0.84 -0.175,1.705 -0.285,2.595c-0.11,0.89 -0.205,1.775 -0.285,2.655c-0.08,0.88 -0.15,1.725 -0.21,2.535c-0.06,0.81 -0.09,1.545 -0.09,2.205c0,0.38 0.025,0.775 0.075,1.185c0.05,0.41 0.175,0.75 0.375,1.02c0.2,0.27 0.52,0.405 0.96,0.405c0.2,-0 0.445,-0.04 0.735,-0.12c0.29,-0.08 0.615,-0.27 0.975,-0.57c0.36,-0.3 0.73,-0.77 1.11,-1.41l0.78,0.51c-0.58,1.02 -1.205,1.795 -1.875,2.325c-0.67,0.53 -1.485,0.795 -2.445,0.795c-0.78,-0 -1.395,-0.165 -1.845,-0.495c-0.45,-0.33 -0.775,-0.765 -0.975,-1.305c-0.2,-0.54 -0.3,-1.12 -0.3,-1.74c0,-0.76 0.03,-1.685 0.09,-2.775c0.06,-1.09 0.15,-2.3 0.27,-3.63c0.12,-1.33 0.26,-2.715 0.42,-4.155l-2.67,0.03l0.09,-1.26c1.38,-0 2.4,-0.37 3.06,-1.11c0.66,-0.74 1.18,-1.78 1.56,-3.12l1.14,-0Z" style="fill:#fff;fill-rule:nonzero;"/><path d="M419.16,78.032c0.6,-0 1.26,0.045 1.98,0.135c0.72,0.09 1.4,0.215 2.04,0.375c-0.16,1.2 -0.315,2.395 -0.465,3.585c-0.15,1.19 -0.29,2.32 -0.42,3.39c-0.13,1.07 -0.235,2.03 -0.315,2.88c-0.08,0.85 -0.12,1.515 -0.12,1.995c0,0.4 0.03,0.8 0.09,1.2c0.06,0.4 0.31,0.6 0.75,0.6c0.34,-0 0.715,-0.22 1.125,-0.66c0.41,-0.44 0.765,-1.19 1.065,-2.25l0.84,0.18c-0.06,0.36 -0.185,0.775 -0.375,1.245c-0.19,0.47 -0.445,0.935 -0.765,1.395c-0.32,0.46 -0.71,0.84 -1.17,1.14c-0.46,0.3 -0.99,0.45 -1.59,0.45c-0.8,-0 -1.37,-0.25 -1.71,-0.75c-0.34,-0.5 -0.51,-1.15 -0.51,-1.95c0,-0.58 0.055,-1.21 0.165,-1.89c0.11,-0.68 0.235,-1.39 0.375,-2.13l-0.09,-0c-0.48,1.48 -0.975,2.665 -1.485,3.555c-0.51,0.89 -1.02,1.565 -1.53,2.025c-0.51,0.46 -1.005,0.765 -1.485,0.915c-0.48,0.15 -0.93,0.225 -1.35,0.225c-1.08,-0 -1.985,-0.4 -2.715,-1.2c-0.73,-0.8 -1.095,-2.14 -1.095,-4.02c0,-1.4 0.18,-2.73 0.54,-3.99c0.36,-1.26 0.905,-2.375 1.635,-3.345c0.73,-0.97 1.645,-1.73 2.745,-2.28c1.1,-0.55 2.38,-0.825 3.84,-0.825Zm-0.93,1.08c-0.9,-0 -1.685,0.25 -2.355,0.75c-0.67,0.5 -1.225,1.175 -1.665,2.025c-0.44,0.85 -0.765,1.8 -0.975,2.85c-0.21,1.05 -0.315,2.125 -0.315,3.225c0,1.28 0.14,2.335 0.42,3.165c0.28,0.83 0.79,1.245 1.53,1.245c0.54,-0 1.085,-0.27 1.635,-0.81c0.55,-0.54 1.065,-1.265 1.545,-2.175c0.48,-0.91 0.91,-1.93 1.29,-3.06c0.38,-1.13 0.68,-2.285 0.9,-3.465c0.22,-1.18 0.33,-2.31 0.33,-3.39c-0.3,-0.12 -0.65,-0.21 -1.05,-0.27c-0.4,-0.06 -0.83,-0.09 -1.29,-0.09Z" style="fill:#fff;fill-rule:nonzero;"/><path d="M432.15,70.712c-0.06,0.5 -0.145,1.06 -0.255,1.68c-0.11,0.62 -0.21,1.23 -0.3,1.83c-0.09,0.6 -0.165,1.13 -0.225,1.59c-0.12,0.84 -0.24,1.795 -0.36,2.865c-0.12,1.07 -0.24,2.18 -0.36,3.33c-0.12,1.15 -0.225,2.275 -0.315,3.375c-0.09,1.1 -0.165,2.105 -0.225,3.015c-0.06,0.91 -0.09,1.655 -0.09,2.235c0,0.38 0.04,0.735 0.12,1.065c0.08,0.33 0.31,0.495 0.69,0.495c0.34,-0 0.715,-0.215 1.125,-0.645c0.41,-0.43 0.765,-1.185 1.065,-2.265l0.84,0.21c-0.06,0.34 -0.185,0.75 -0.375,1.23c-0.19,0.48 -0.445,0.945 -0.765,1.395c-0.32,0.45 -0.705,0.825 -1.155,1.125c-0.45,0.3 -0.975,0.45 -1.575,0.45c-0.82,-0 -1.42,-0.205 -1.8,-0.615c-0.38,-0.41 -0.58,-1.015 -0.6,-1.815c-0.02,-0.5 0.005,-1.24 0.075,-2.22c0.07,-0.98 0.16,-2.095 0.27,-3.345c0.11,-1.25 0.235,-2.56 0.375,-3.93c0.14,-1.37 0.29,-2.705 0.45,-4.005c0.16,-1.3 0.31,-2.48 0.45,-3.54c0.1,-0.54 0.165,-0.895 0.195,-1.065c0.03,-0.17 0.055,-0.355 0.075,-0.555c-0.36,0.02 -0.715,0.04 -1.065,0.06c-0.35,0.02 -0.705,0.04 -1.065,0.06l0.15,-1.2c0.88,-0 1.565,-0.04 2.055,-0.12c0.49,-0.08 0.865,-0.18 1.125,-0.3c0.26,-0.12 0.47,-0.25 0.63,-0.39l0.84,-0Z" style="fill:#fff;fill-rule:nonzero;"/><path d="M442.8,78.032c1.08,-0 2.05,0.255 2.91,0.765c0.86,0.51 1.54,1.255 2.04,2.235c0.5,0.98 0.75,2.17 0.75,3.57c0,1.6 -0.29,3.095 -0.87,4.485c-0.58,1.39 -1.415,2.505 -2.505,3.345c-1.09,0.84 -2.415,1.26 -3.975,1.26c-1.32,-0 -2.405,-0.3 -3.255,-0.9c-0.85,-0.6 -1.48,-1.41 -1.89,-2.43c-0.41,-1.02 -0.615,-2.15 -0.615,-3.39c0,-1.62 0.295,-3.11 0.885,-4.47c0.59,-1.36 1.44,-2.445 2.55,-3.255c1.11,-0.81 2.435,-1.215 3.975,-1.215Zm-0.45,1.11c-0.88,-0.02 -1.64,0.275 -2.28,0.885c-0.64,0.61 -1.135,1.435 -1.485,2.475c-0.35,1.04 -0.535,2.2 -0.555,3.48c-0.02,0.68 0.02,1.4 0.12,2.16c0.1,0.76 0.275,1.47 0.525,2.13c0.25,0.66 0.6,1.2 1.05,1.62c0.45,0.42 1.015,0.64 1.695,0.66c0.8,0.02 1.48,-0.195 2.04,-0.645c0.56,-0.45 1.01,-1.035 1.35,-1.755c0.34,-0.72 0.595,-1.49 0.765,-2.31c0.17,-0.82 0.265,-1.59 0.285,-2.31c0.02,-0.7 -0.015,-1.42 -0.105,-2.16c-0.09,-0.74 -0.265,-1.43 -0.525,-2.07c-0.26,-0.64 -0.62,-1.155 -1.08,-1.545c-0.46,-0.39 -1.06,-0.595 -1.8,-0.615Z" style="fill:#fff;fill-rule:nonzero;"/><path d="M454.71,101.492c-0.36,-0 -0.785,-0.04 -1.275,-0.12c-0.49,-0.08 -0.975,-0.215 -1.455,-0.405c-0.48,-0.19 -0.88,-0.45 -1.2,-0.78c-0.32,-0.33 -0.49,-0.735 -0.51,-1.215c0,-0.28 0.06,-0.535 0.18,-0.765c0.12,-0.23 0.29,-0.415 0.51,-0.555c0.22,-0.14 0.46,-0.21 0.72,-0.21c0.36,-0 0.675,0.115 0.945,0.345c0.27,0.23 0.405,0.575 0.405,1.035c0,0.24 -0.06,0.5 -0.18,0.78c0.2,0.3 0.505,0.515 0.915,0.645c0.41,0.13 0.795,0.195 1.155,0.195c1.14,-0 2.045,-0.3 2.715,-0.9c0.67,-0.6 1.185,-1.395 1.545,-2.385c0.36,-0.99 0.62,-2.065 0.78,-3.225c0.18,-1.18 0.31,-2.385 0.39,-3.615c0.08,-1.23 0.19,-2.345 0.33,-3.345l-0.09,-0c-0.42,1.44 -0.86,2.605 -1.32,3.495c-0.46,0.89 -0.93,1.57 -1.41,2.04c-0.48,0.47 -0.955,0.785 -1.425,0.945c-0.47,0.16 -0.935,0.24 -1.395,0.24c-0.92,-0 -1.68,-0.255 -2.28,-0.765c-0.6,-0.51 -1.045,-1.205 -1.335,-2.085c-0.29,-0.88 -0.435,-1.87 -0.435,-2.97c0,-1.3 0.175,-2.535 0.525,-3.705c0.35,-1.17 0.88,-2.22 1.59,-3.15c0.71,-0.93 1.62,-1.66 2.73,-2.19c1.11,-0.53 2.415,-0.795 3.915,-0.795c0.68,-0 1.365,0.045 2.055,0.135c0.69,0.09 1.275,0.215 1.755,0.375c-0.08,1.2 -0.165,2.42 -0.255,3.66c-0.09,1.24 -0.19,2.47 -0.3,3.69c-0.11,1.22 -0.215,2.42 -0.315,3.6c-0.1,1.18 -0.2,2.33 -0.3,3.45c-0.16,1.94 -0.565,3.54 -1.215,4.8c-0.65,1.26 -1.52,2.2 -2.61,2.82c-1.09,0.62 -2.375,0.93 -3.855,0.93Zm0.96,-9.21c0.56,-0 1.105,-0.275 1.635,-0.825c0.53,-0.55 1.02,-1.28 1.47,-2.19c0.45,-0.91 0.85,-1.925 1.2,-3.045c0.35,-1.12 0.635,-2.265 0.855,-3.435c0.22,-1.17 0.36,-2.265 0.42,-3.285c-0.26,-0.14 -0.565,-0.24 -0.915,-0.3c-0.35,-0.06 -0.705,-0.09 -1.065,-0.09c-1.1,-0 -2.02,0.265 -2.76,0.795c-0.74,0.53 -1.33,1.22 -1.77,2.07c-0.44,0.85 -0.755,1.75 -0.945,2.7c-0.19,0.95 -0.285,1.845 -0.285,2.685c0,0.92 0.065,1.75 0.195,2.49c0.13,0.74 0.355,1.33 0.675,1.77c0.32,0.44 0.75,0.66 1.29,0.66Z" style="fill:#fff;fill-rule:nonzero;"/><path d="M471.63,93.692c-0.8,-0 -1.44,-0.18 -1.92,-0.54c-0.48,-0.36 -0.825,-0.84 -1.035,-1.44c-0.21,-0.6 -0.315,-1.24 -0.315,-1.92c0,-1.12 0.08,-2.25 0.24,-3.39c0.16,-1.14 0.32,-2.195 0.48,-3.165c0.16,-0.97 0.24,-1.735 0.24,-2.295c0,-0.38 -0.045,-0.71 -0.135,-0.99c-0.09,-0.28 -0.315,-0.42 -0.675,-0.42c-0.32,-0 -0.675,0.22 -1.065,0.66c-0.39,0.44 -0.735,1.19 -1.035,2.25l-0.84,-0.18c0.06,-0.36 0.18,-0.775 0.36,-1.245c0.18,-0.47 0.425,-0.935 0.735,-1.395c0.31,-0.46 0.69,-0.84 1.14,-1.14c0.45,-0.3 0.975,-0.45 1.575,-0.45c0.8,-0 1.405,0.25 1.815,0.75c0.41,0.5 0.615,1.22 0.615,2.16c0,0.56 -0.05,1.25 -0.15,2.07c-0.1,0.82 -0.215,1.675 -0.345,2.565c-0.13,0.89 -0.245,1.755 -0.345,2.595c-0.1,0.84 -0.15,1.58 -0.15,2.22c0,0.22 0.035,0.48 0.105,0.78c0.07,0.3 0.21,0.56 0.42,0.78c0.21,0.22 0.505,0.33 0.885,0.33c0.56,-0 1.11,-0.26 1.65,-0.78c0.54,-0.52 1.05,-1.22 1.53,-2.1c0.48,-0.88 0.91,-1.855 1.29,-2.925c0.38,-1.07 0.675,-2.17 0.885,-3.3c0.21,-1.13 0.315,-2.205 0.315,-3.225c0,-0.3 -0.005,-0.575 -0.015,-0.825c-0.01,-0.25 -0.025,-0.505 -0.045,-0.765l2.52,-0c0.02,0.14 0.03,0.265 0.03,0.375l0,0.405c0,0.34 -0.02,0.745 -0.06,1.215c-0.04,0.47 -0.1,1.09 -0.18,1.86c-0.08,0.77 -0.2,1.785 -0.36,3.045c-0.14,1.16 -0.245,2.07 -0.315,2.73c-0.07,0.66 -0.125,1.155 -0.165,1.485c-0.04,0.33 -0.065,0.585 -0.075,0.765c-0.01,0.18 -0.015,0.38 -0.015,0.6c0,0.36 0.055,0.67 0.165,0.93c0.11,0.26 0.325,0.39 0.645,0.39c0.34,-0 0.715,-0.215 1.125,-0.645c0.41,-0.43 0.765,-1.175 1.065,-2.235l0.84,0.18c-0.06,0.36 -0.185,0.775 -0.375,1.245c-0.19,0.47 -0.445,0.935 -0.765,1.395c-0.32,0.46 -0.71,0.84 -1.17,1.14c-0.46,0.3 -0.99,0.45 -1.59,0.45c-0.8,-0 -1.385,-0.25 -1.755,-0.75c-0.37,-0.5 -0.555,-1.15 -0.555,-1.95c0,-0.58 0.055,-1.21 0.165,-1.89c0.11,-0.68 0.235,-1.39 0.375,-2.13l-0.09,-0c-0.68,1.82 -1.33,3.215 -1.95,4.185c-0.62,0.97 -1.23,1.635 -1.83,1.995c-0.6,0.36 -1.23,0.54 -1.89,0.54Z" style="fill:#fff;fill-rule:nonzero;"/><path d="M491.64,78.032c0.72,-0 1.4,0.11 2.04,0.33c0.64,0.22 1.16,0.58 1.56,1.08c0.4,0.5 0.6,1.18 0.6,2.04c0,0.82 -0.28,1.53 -0.84,2.13c-0.56,0.6 -1.29,1.095 -2.19,1.485c-0.9,0.39 -1.86,0.705 -2.88,0.945c-1.02,0.24 -2,0.41 -2.94,0.51c0,1.24 0.125,2.28 0.375,3.12c0.25,0.84 0.625,1.47 1.125,1.89c0.5,0.42 1.14,0.63 1.92,0.63c0.58,-0 1.165,-0.13 1.755,-0.39c0.59,-0.26 1.155,-0.655 1.695,-1.185c0.54,-0.53 1.03,-1.215 1.47,-2.055l0.99,0.57c-0.56,1.04 -1.16,1.9 -1.8,2.58c-0.64,0.68 -1.34,1.18 -2.1,1.5c-0.76,0.32 -1.6,0.48 -2.52,0.48c-1.9,-0 -3.3,-0.595 -4.2,-1.785c-0.9,-1.19 -1.35,-2.755 -1.35,-4.695c0,-1.16 0.15,-2.29 0.45,-3.39c0.3,-1.1 0.75,-2.085 1.35,-2.955c0.6,-0.87 1.36,-1.56 2.28,-2.07c0.92,-0.51 1.99,-0.765 3.21,-0.765Zm-0.42,1.02c-0.92,-0 -1.675,0.31 -2.265,0.93c-0.59,0.62 -1.04,1.42 -1.35,2.4c-0.31,0.98 -0.505,2.01 -0.585,3.09c1.06,-0.14 2.07,-0.39 3.03,-0.75c0.96,-0.36 1.75,-0.825 2.37,-1.395c0.62,-0.57 0.93,-1.235 0.93,-1.995c0,-0.64 -0.175,-1.18 -0.525,-1.62c-0.35,-0.44 -0.885,-0.66 -1.605,-0.66Z" style="fill:#fff;fill-rule:nonzero;"/></g><g id="Group_535"><path id="Path_801" d="M331.238,473.106c-3.324,-8.822 0.321,-13.72 -0.626,-21.551c-1.352,-11.126 -14.304,-16.681 -15.8,-27.516c-0.436,-3.688 0.183,-7.425 1.785,-10.775c2.671,-5.834 17.573,-23.328 15.269,-33.164c-0.734,-3.137 -8.121,-13.512 -9.415,-16.53c-2.17,-5.728 -1.827,-12.113 0.942,-17.576c2.51,-5.552 10.252,-16.11 10.67,-15.797c8.37,7.847 14.754,-10.113 2.824,-10.567c-3.242,-0.123 -4.923,-5.435 -6.068,-7.95c-2.398,-5.393 -4.017,-11.1 -4.81,-16.949c-11.304,-5.749 -20.59,-14.743 -18.099,-22.282c3.305,-10.024 28.158,-10.82 40.905,21.019c-0.319,-1.408 -0.493,-2.845 -0.521,-4.289c-1.481,-8.044 -5.652,-15.352 -11.825,-20.718c-0.313,-0.209 0.104,-0.627 0.417,-0.418c6.527,5.179 10.983,12.532 12.555,20.714c0.372,1.721 0.581,3.472 0.626,5.231c4.079,0.939 10.225,5.009 14.333,12.137c9.28,16.109 0.652,30.391 7.426,45.299c5.146,11.321 18.811,15.301 24.589,25.63c4.712,8.426 2.499,17.014 0.839,25.946c0.279,11.991 5.029,19.483 12.347,28.873c9.087,11.668 20.226,24.516 14.541,40.069c-0.964,2.773 -2.665,5.232 -4.92,7.112c-0.626,0.522 -1.571,-0.313 -0.943,-0.941c1.773,-1.853 3.125,-4.065 3.965,-6.487c2.922,-8.221 0.952,-16.04 -3.349,-23.643c-7.985,-14.121 -20.881,-22.866 -22.493,-40.592c-2.592,16.062 2.723,22.776 11.303,37.244c4.21,7.099 8.176,15.38 6.591,23.852c-2.111,11.303 -13.135,20.425 -29.293,18.937c-2.197,-0.198 -4.289,-0.521 -6.486,-0.939c3.413,-2.454 6.237,-5.638 8.265,-9.32c11.365,-20.127 -9.945,-34.64 -14.02,-52.099c-0.104,-0.313 -0.626,-0.209 -0.521,0.104c3.347,14.909 15.864,25.099 16.425,39.232c0.327,8.239 -5.461,17.337 -10.46,19.876c-9.763,4.956 -18.416,0.939 -17.786,0.313c0.198,-0.209 11.127,-7.089 4.079,-26.259c-2.809,-7.644 -9.599,-13 -14.854,-19.146c-7.768,-9.08 -12.59,-21.561 -9.32,-33.058c1.552,-5.446 4.916,-10.36 6.173,-15.902c3.936,-17.352 -11.898,-24.193 -14.018,-36.618c-0.224,8.507 7.613,14.059 11.089,20.924c6.663,13.163 -2.805,23.179 -5.336,32.957c-3.173,12.231 2.8,25.129 11.194,34.524c5.53,6.187 12.469,11.817 14.333,19.877c2.098,9.077 0.644,19.934 -8.16,23.016c-7.832,2.758 -20.483,-1.503 -24.362,-11.8Zm6.904,-191.043c-1.529,-2.038 -3.246,-3.93 -5.128,-5.649c-3.268,-2.917 -7.173,-5.031 -11.402,-6.172c-3.347,-0.835 -8.644,-1.448 -10.357,2.51c-0.411,0.946 1.065,1.477 1.569,0.626c5.515,-9.293 27.121,10.491 25.318,8.684l0,0.001Zm44.043,99.598c2.802,4.235 4.394,9.155 4.604,14.228c0,0.259 0.213,0.471 0.471,0.471c0.259,0 0.471,-0.212 0.471,-0.471c0,-22.649 -21.45,-25.283 -25.632,-40.07c-1.809,-6.389 -0.323,-13.066 -0.104,-25.317c-0,-0.115 -0.094,-0.209 -0.209,-0.209c-0.114,-0 -0.209,0.094 -0.209,0.209c-0.371,3.964 -1.36,15.292 -1.36,19.25c-0.002,17.322 14.573,20.288 21.968,31.909l-0,0Z" style="fill:#092168;fill-rule:nonzero;"/><path id="Path_802" d="M314.079,290.327c0.044,-0.063 0.116,-0.101 0.193,-0.101c0.13,0 0.236,0.107 0.236,0.236c0,0.025 -0.004,0.05 -0.012,0.074c-9.243,22.186 -14.002,24.645 -10.565,26.991c0.778,0.424 1.403,1.084 1.785,1.883c1.309,3.548 -4.422,18.587 5.552,21.657c3.581,1.102 6.003,1.705 12.657,0.209c0.423,-0.095 0.626,0.417 0.313,0.73c-2.005,1.236 -4.345,1.821 -6.696,1.676c0.268,1.33 0.417,16.726 0.417,18.099c0,0.834 0.209,1.568 -0.313,2.3c-0.104,0.208 -0.417,0.104 -0.521,-0c-0.58,-0.694 -0.418,0.396 -0.418,-20.398c-11.085,-0.855 -13.724,-5.87 -12.867,-16.949c0.376,-4.859 1.102,-6.528 -0.105,-7.428c-0.775,-0.41 -1.481,-0.94 -2.092,-1.569c-0.668,-0.83 -0.79,-1.979 -0.313,-2.931c3.726,-8.423 7.984,-16.599 12.749,-24.48l-0,0.001Z" style="fill:#092168;fill-rule:nonzero;stroke:#092168;stroke-width:1.04px;"/><path id="Path_806" d="M374.757,488.997c0.105,-0.417 0.835,-0.417 0.731,0.105c-0.313,3.242 -0.835,6.484 -0.835,9.833c0,7.139 1.005,7.744 0.626,9.729c-0.089,0.299 -0.366,0.506 -0.678,0.506c-0.229,-0 -0.444,-0.111 -0.577,-0.297c-0.997,-1.495 -1.863,-12.791 0.733,-19.876Z" style="fill:#092168;fill-rule:nonzero;stroke:#092168;stroke-width:0.52px;"/><path id="Path_807" d="M249.844,429.052c0.198,0.423 -0.409,1.037 -0.731,0.626c-3.367,-4.565 -8.57,-7.434 -14.228,-7.846c-0.773,0.094 -1.557,0.027 -2.302,-0.199c-0.184,-0.131 -0.293,-0.343 -0.293,-0.569c0,-0.177 0.068,-0.348 0.189,-0.478c1.047,-0.939 3.345,-0.497 4.604,-0.313c5.406,0.724 10.153,3.989 12.763,8.779l-0.002,0Z" style="fill:#092168;fill-rule:nonzero;stroke:#092168;stroke-width:0.52px;"/><path id="Path_808" d="M228.711,427.696c-0.649,-1.351 2.302,-0.939 2.929,-0.835c3.749,0.614 7.162,2.54 9.625,5.433c0.313,0.417 -0.313,0.942 -0.626,0.628c-8.263,-6.037 -11.317,-3.959 -11.928,-5.226Z" style="fill:#092168;fill-rule:nonzero;stroke:#092168;stroke-width:0.52px;"/><path id="Path_809" d="M235.929,437.84c-2.864,-3.156 -6.758,-5.195 -10.984,-5.75c-1.465,-0.835 0.626,-1.456 1.361,-1.361c4.234,0.613 8.007,3.014 10.356,6.589c0.313,0.418 -0.417,0.939 -0.733,0.522Z" style="fill:#092168;fill-rule:nonzero;stroke:#092168;stroke-width:0.52px;"/><path id="Path_810" d="M238.338,450.603c-5.021,-4.2 -8.112,-11.745 -13.914,-14.646c-1.264,-0.557 -2.556,-1.046 -3.871,-1.466c-0.124,-0.07 -0.201,-0.202 -0.201,-0.344c0,-0.183 0.127,-0.344 0.305,-0.386c1.123,-0.215 2.284,-0.107 3.347,0.313c9.518,3.315 10.907,14.147 19.355,17.054c4.791,1.648 7.151,-0.975 8.057,-0.522c0.517,-3.113 3.516,-14.359 6.589,-15.169c1.609,-0.424 40.906,12.126 40.906,11.926c-4.487,-24.986 -10.827,-42.599 -5.648,-58.896c5.455,-17.171 21.055,-22.384 31.175,-17.157c0.417,0.215 0.104,0.835 -0.313,0.731c-10.147,-4.135 -23.667,1.336 -28.667,16.215c-7.19,21.401 9.079,58.927 6.382,71.243c-0.067,0.232 -0.282,0.393 -0.523,0.393c-0.242,0 -0.457,-0.161 -0.524,-0.393c-0.793,-2.973 -0.631,-6.288 -1.569,-10.983c-5.451,-0.911 -40.174,-12.241 -41.221,-11.197c-3.704,4.323 -7.894,23.045 -4.497,30.969c0.406,0.862 0.86,1.7 1.36,2.511c0.409,0.634 -0.417,1.148 -0.942,0.73c-3.224,-2.536 -3.401,-7.535 -3.349,-11.194c0.056,-2.768 0.301,-5.53 0.734,-8.265c-3.976,3.136 -9.5,1.439 -12.971,-1.467Z" style="fill:#092168;fill-rule:nonzero;stroke:#092168;stroke-width:0.52px;"/><path id="Path_811" d="M256.016,469.645c4.022,0.309 12.33,6.302 46.555,14.017c10.861,2.449 22.557,5.146 29.922,-3.557c0.417,-0.417 1.043,0.104 0.834,0.626c-2.574,3.809 -6.726,6.268 -11.303,6.694c-5.581,0.527 -11.212,0.068 -16.635,-1.356c-5.552,-1.162 -11.089,-2.408 -16.528,-3.873c1.271,6.786 0.708,2.5 3.347,19.25c0.23,1.461 -1.255,1.884 -1.465,0.313c-0.738,-3.934 -3.04,-19.235 -2.511,-19.772c-9.637,-2.578 -19.135,-5.651 -28.456,-9.207c-1.466,-0.466 -2.845,-1.173 -4.079,-2.092c-0.515,-0.419 -0.204,-1.151 0.319,-1.043Z" style="fill:#092168;fill-rule:nonzero;stroke:#092168;stroke-width:0.52px;"/><path id="Path_812" d="M281.857,439.512c-0.025,0.397 -0.358,0.71 -0.756,0.71c-0.183,-0 -0.361,-0.067 -0.499,-0.188c-1.115,-1.62 -1.931,-3.427 -2.408,-5.334c-5.53,-15.666 -6.433,-24.232 12.347,-47.184c0.313,-0.313 0.939,0.105 0.626,0.522c-2.318,3.125 -4.502,6.274 -6.59,9.518c-16.079,24.984 -3.511,34.044 -2.72,41.956Z" style="fill:#092168;fill-rule:nonzero;stroke:#092168;stroke-width:0.52px;"/></g></g></svg>