<?xml version="1.0" encoding="UTF-8" standalone="no"?><!DOCTYPE svg PUBLIC "-//W3C//DTD SVG 1.1//EN" "http://www.w3.org/Graphics/SVG/1.1/DTD/svg11.dtd"><svg width="100%" height="100%" viewBox="0 0 247 232" version="1.1" xmlns="http://www.w3.org/2000/svg" xmlns:xlink="http://www.w3.org/1999/xlink" xml:space="preserve" xmlns:serif="http://www.serif.com/" style="fill-rule:evenodd;clip-rule:evenodd;stroke-linecap:round;stroke-miterlimit:1;"><g id="Layer3"><rect x="10.673" y="11.385" width="225.565" height="208.844" style="fill:none;stroke:#091026;stroke-opacity:0.5;stroke-width:0.5px;"/><rect x="0" y="0" width="246.163" height="231.22" style="fill:none;"/><g><path d="M86.212,108.57l0,-8.59l6.211,0l0,1.014l-5.074,0l0,2.631l4.752,-0l0,1.008l-4.752,-0l0,2.924l5.274,-0l-0,1.013l-6.411,0Z" style="fill:#545454;fill-rule:nonzero;"/><path d="M94.058,108.57l0,-6.222l0.944,-0l-0,0.873c0.195,-0.305 0.455,-0.55 0.779,-0.736c0.324,-0.185 0.693,-0.278 1.107,-0.278c0.461,0 0.839,0.096 1.134,0.287c0.295,0.192 0.503,0.459 0.624,0.803c0.492,-0.727 1.133,-1.09 1.922,-1.09c0.617,0 1.092,0.171 1.424,0.513c0.332,0.341 0.498,0.868 0.498,1.579l-0,4.271l-1.049,0l-0,-3.92c-0,-0.422 -0.034,-0.725 -0.103,-0.911c-0.068,-0.185 -0.192,-0.335 -0.372,-0.448c-0.179,-0.113 -0.39,-0.17 -0.632,-0.17c-0.438,0 -0.801,0.146 -1.09,0.437c-0.289,0.291 -0.434,0.756 -0.434,1.397l0,3.615l-1.055,0l0,-4.043c0,-0.468 -0.086,-0.82 -0.257,-1.054c-0.172,-0.235 -0.454,-0.352 -0.844,-0.352c-0.297,0 -0.571,0.078 -0.823,0.234c-0.252,0.157 -0.435,0.385 -0.548,0.686c-0.114,0.301 -0.17,0.734 -0.17,1.301l-0,3.228l-1.055,0Z" style="fill:#545454;fill-rule:nonzero;"/><path d="M104.054,110.955l0,-8.607l0.961,-0l0,0.808c0.227,-0.316 0.483,-0.553 0.768,-0.712c0.285,-0.158 0.631,-0.237 1.037,-0.237c0.531,0 1,0.137 1.406,0.41c0.406,0.274 0.713,0.659 0.92,1.157c0.207,0.498 0.311,1.044 0.311,1.638c-0,0.637 -0.115,1.21 -0.343,1.72c-0.229,0.51 -0.561,0.9 -0.996,1.172c-0.436,0.271 -0.894,0.407 -1.374,0.407c-0.352,-0 -0.667,-0.074 -0.947,-0.223c-0.279,-0.148 -0.508,-0.336 -0.688,-0.562l-0,3.029l-1.055,0Zm0.955,-5.461c0,0.801 0.162,1.393 0.487,1.776c0.324,0.382 0.716,0.574 1.177,0.574c0.469,-0 0.87,-0.199 1.204,-0.595c0.334,-0.396 0.501,-1.011 0.501,-1.843c0,-0.793 -0.163,-1.386 -0.489,-1.781c-0.326,-0.395 -0.716,-0.592 -1.169,-0.592c-0.449,0 -0.846,0.21 -1.192,0.63c-0.346,0.42 -0.519,1.03 -0.519,1.831Z" style="fill:#545454;fill-rule:nonzero;"/><path d="M113.031,107.627l0.152,0.932c-0.297,0.062 -0.562,0.093 -0.797,0.093c-0.383,0 -0.679,-0.06 -0.89,-0.181c-0.211,-0.121 -0.36,-0.281 -0.446,-0.478c-0.086,-0.197 -0.129,-0.612 -0.129,-1.245l0,-3.58l-0.773,-0l-0,-0.82l0.773,-0l0,-1.541l1.049,-0.633l0,2.174l1.061,-0l-0,0.82l-1.061,-0l0,3.639c0,0.3 0.019,0.494 0.056,0.58c0.037,0.086 0.098,0.154 0.182,0.205c0.084,0.051 0.204,0.076 0.36,0.076c0.117,-0 0.271,-0.014 0.463,-0.041Z" style="fill:#545454;fill-rule:nonzero;"/><path d="M114.015,110.967l-0.117,-0.99c0.23,0.062 0.432,0.093 0.604,0.093c0.234,0 0.421,-0.039 0.562,-0.117c0.141,-0.078 0.256,-0.187 0.346,-0.328c0.066,-0.105 0.174,-0.367 0.322,-0.785c0.02,-0.059 0.051,-0.145 0.094,-0.258l-2.362,-6.234l1.137,-0l1.295,3.603c0.168,0.457 0.318,0.938 0.451,1.442c0.121,-0.485 0.266,-0.957 0.434,-1.418l1.33,-3.627l1.055,-0l-2.368,6.328c-0.254,0.683 -0.451,1.154 -0.591,1.412c-0.188,0.348 -0.403,0.602 -0.645,0.765c-0.242,0.162 -0.531,0.243 -0.867,0.243c-0.203,-0 -0.43,-0.043 -0.68,-0.129Z" style="fill:#545454;fill-rule:nonzero;"/><rect x="123.724" y="99.98" width="1.137" height="8.59" style="fill:#545454;fill-rule:nonzero;"/><path d="M126.73,108.57l0,-6.222l0.943,-0l0,0.873c0.196,-0.305 0.455,-0.55 0.78,-0.736c0.324,-0.185 0.693,-0.278 1.107,-0.278c0.461,0 0.839,0.096 1.134,0.287c0.295,0.192 0.503,0.459 0.624,0.803c0.492,-0.727 1.133,-1.09 1.922,-1.09c0.617,0 1.092,0.171 1.424,0.513c0.332,0.341 0.498,0.868 0.498,1.579l-0,4.271l-1.049,0l-0,-3.92c-0,-0.422 -0.034,-0.725 -0.103,-0.911c-0.068,-0.185 -0.192,-0.335 -0.372,-0.448c-0.179,-0.113 -0.39,-0.17 -0.633,-0.17c-0.437,0 -0.8,0.146 -1.089,0.437c-0.289,0.291 -0.434,0.756 -0.434,1.397l-0,3.615l-1.055,0l0,-4.043c0,-0.468 -0.086,-0.82 -0.258,-1.054c-0.171,-0.235 -0.453,-0.352 -0.843,-0.352c-0.297,0 -0.572,0.078 -0.824,0.234c-0.251,0.157 -0.434,0.385 -0.547,0.686c-0.114,0.301 -0.17,0.734 -0.17,1.301l-0,3.228l-1.055,0Z" style="fill:#545454;fill-rule:nonzero;"/><path d="M140.787,107.803c-0.391,0.332 -0.767,0.566 -1.128,0.703c-0.362,0.137 -0.749,0.205 -1.163,0.205c-0.684,-0 -1.209,-0.167 -1.577,-0.501c-0.367,-0.334 -0.55,-0.761 -0.55,-1.28c-0,-0.305 0.069,-0.583 0.208,-0.835c0.138,-0.252 0.32,-0.454 0.545,-0.607c0.224,-0.152 0.477,-0.267 0.758,-0.345c0.207,-0.055 0.52,-0.108 0.938,-0.159c0.851,-0.101 1.478,-0.222 1.881,-0.363c0.004,-0.144 0.006,-0.236 0.006,-0.275c-0,-0.43 -0.1,-0.733 -0.299,-0.909c-0.27,-0.238 -0.67,-0.357 -1.201,-0.357c-0.496,0 -0.863,0.087 -1.099,0.261c-0.236,0.174 -0.411,0.481 -0.524,0.923l-1.032,-0.141c0.094,-0.441 0.248,-0.798 0.463,-1.069c0.215,-0.272 0.526,-0.481 0.932,-0.627c0.406,-0.147 0.877,-0.22 1.412,-0.22c0.531,0 0.963,0.063 1.295,0.188c0.332,0.125 0.576,0.282 0.732,0.471c0.157,0.19 0.266,0.429 0.328,0.718c0.036,0.18 0.053,0.504 0.053,0.973l0,1.406c0,0.98 0.023,1.6 0.068,1.86c0.044,0.26 0.133,0.509 0.266,0.747l-1.101,0c-0.11,-0.218 -0.18,-0.474 -0.211,-0.767Zm-0.088,-2.356c-0.383,0.156 -0.957,0.289 -1.723,0.399c-0.433,0.062 -0.74,0.132 -0.92,0.211c-0.179,0.078 -0.318,0.192 -0.416,0.342c-0.097,0.151 -0.146,0.318 -0.146,0.501c-0,0.282 0.106,0.516 0.319,0.703c0.213,0.188 0.524,0.282 0.935,0.282c0.406,-0 0.767,-0.089 1.084,-0.267c0.316,-0.178 0.548,-0.421 0.697,-0.729c0.113,-0.239 0.17,-0.59 0.17,-1.055l-0,-0.387Z" style="fill:#545454;fill-rule:nonzero;"/><path d="M143.207,109.086l1.025,0.152c0.043,0.317 0.162,0.547 0.357,0.692c0.262,0.195 0.62,0.293 1.073,0.293c0.488,-0 0.865,-0.098 1.131,-0.293c0.265,-0.196 0.445,-0.469 0.539,-0.821c0.054,-0.214 0.08,-0.666 0.076,-1.353c-0.461,0.543 -1.035,0.814 -1.723,0.814c-0.855,0 -1.517,-0.308 -1.986,-0.925c-0.469,-0.618 -0.703,-1.358 -0.703,-2.221c-0,-0.594 0.107,-1.142 0.322,-1.644c0.215,-0.502 0.526,-0.889 0.934,-1.163c0.409,-0.273 0.888,-0.41 1.439,-0.41c0.734,0 1.34,0.297 1.816,0.891l0,-0.75l0.973,-0l0,5.379c0,0.968 -0.099,1.655 -0.296,2.059c-0.197,0.404 -0.51,0.724 -0.937,0.958c-0.428,0.234 -0.954,0.352 -1.579,0.352c-0.743,-0 -1.342,-0.167 -1.799,-0.501c-0.457,-0.334 -0.678,-0.837 -0.662,-1.509Zm0.873,-3.738c-0,0.816 0.162,1.412 0.486,1.787c0.324,0.375 0.73,0.562 1.219,0.562c0.484,0 0.89,-0.186 1.218,-0.559c0.329,-0.373 0.493,-0.958 0.493,-1.755c-0,-0.762 -0.169,-1.336 -0.507,-1.723c-0.338,-0.387 -0.745,-0.58 -1.222,-0.58c-0.469,0 -0.867,0.19 -1.195,0.571c-0.328,0.381 -0.492,0.947 -0.492,1.697Z" style="fill:#545454;fill-rule:nonzero;"/><path d="M154.334,106.566l1.089,0.135c-0.171,0.637 -0.49,1.131 -0.955,1.483c-0.465,0.351 -1.058,0.527 -1.781,0.527c-0.91,-0 -1.632,-0.28 -2.165,-0.841c-0.533,-0.56 -0.8,-1.347 -0.8,-2.358c0,-1.047 0.27,-1.86 0.809,-2.438c0.539,-0.578 1.238,-0.867 2.097,-0.867c0.832,0 1.512,0.283 2.04,0.85c0.527,0.566 0.791,1.363 0.791,2.39c-0,0.063 -0.002,0.156 -0.006,0.281l-4.641,0c0.039,0.684 0.232,1.208 0.58,1.571c0.348,0.363 0.781,0.545 1.301,0.545c0.387,-0 0.717,-0.102 0.99,-0.305c0.274,-0.203 0.49,-0.527 0.651,-0.973Zm-3.463,-1.705l3.474,0c-0.047,-0.523 -0.179,-0.916 -0.398,-1.177c-0.336,-0.407 -0.772,-0.61 -1.307,-0.61c-0.484,0 -0.891,0.162 -1.222,0.487c-0.33,0.324 -0.512,0.757 -0.547,1.3Z" style="fill:#545454;fill-rule:nonzero;"/><path d="M90.692,132.963l-0,-7.576l-2.83,-0l-0,-1.014l6.808,0l0,1.014l-2.841,-0l-0,7.576l-1.137,-0Z" style="fill:#545454;fill-rule:nonzero;"/><path d="M93.979,129.852c0,-1.153 0.32,-2.006 0.961,-2.561c0.535,-0.461 1.187,-0.691 1.957,-0.691c0.855,-0 1.555,0.28 2.098,0.84c0.543,0.561 0.814,1.335 0.814,2.324c0,0.8 -0.12,1.43 -0.36,1.889c-0.24,0.459 -0.59,0.816 -1.049,1.07c-0.459,0.254 -0.96,0.38 -1.503,0.38c-0.871,0 -1.575,-0.279 -2.112,-0.837c-0.537,-0.559 -0.806,-1.364 -0.806,-2.414Zm1.084,-0c0,0.796 0.174,1.393 0.522,1.79c0.347,0.396 0.785,0.594 1.312,0.594c0.523,0 0.959,-0.199 1.307,-0.597c0.347,-0.399 0.521,-1.006 0.521,-1.823c0,-0.769 -0.175,-1.352 -0.524,-1.749c-0.35,-0.396 -0.784,-0.594 -1.304,-0.594c-0.527,-0 -0.965,0.197 -1.312,0.591c-0.348,0.395 -0.522,0.991 -0.522,1.788Z" style="fill:#545454;fill-rule:nonzero;"/><path d="M105.352,132.963l-0.978,-0l-0,-8.59l1.054,0l0,3.064c0.446,-0.558 1.014,-0.837 1.705,-0.837c0.383,-0 0.745,0.077 1.087,0.231c0.342,0.154 0.623,0.371 0.844,0.65c0.221,0.28 0.394,0.617 0.519,1.011c0.125,0.395 0.187,0.817 0.187,1.266c0,1.066 -0.264,1.89 -0.791,2.472c-0.527,0.582 -1.16,0.873 -1.898,0.873c-0.735,0 -1.311,-0.306 -1.729,-0.919l0,0.779Zm-0.012,-3.158c0,0.746 0.102,1.285 0.305,1.617c0.332,0.543 0.781,0.814 1.348,0.814c0.461,0 0.859,-0.2 1.195,-0.6c0.336,-0.401 0.504,-0.997 0.504,-1.79c-0,-0.813 -0.161,-1.412 -0.483,-1.799c-0.323,-0.387 -0.712,-0.58 -1.169,-0.58c-0.461,-0 -0.86,0.2 -1.196,0.6c-0.336,0.401 -0.504,0.98 -0.504,1.738Z" style="fill:#545454;fill-rule:nonzero;"/><path d="M115.313,130.959l1.09,0.135c-0.172,0.636 -0.49,1.131 -0.955,1.482c-0.465,0.352 -1.059,0.527 -1.781,0.527c-0.911,0 -1.632,-0.28 -2.165,-0.84c-0.534,-0.561 -0.8,-1.347 -0.8,-2.359c-0,-1.047 0.269,-1.859 0.808,-2.437c0.539,-0.578 1.239,-0.867 2.098,-0.867c0.832,-0 1.512,0.283 2.039,0.849c0.527,0.567 0.791,1.363 0.791,2.391c0,0.062 -0.002,0.156 -0.006,0.281l-4.64,0c0.039,0.684 0.232,1.207 0.58,1.57c0.347,0.364 0.781,0.545 1.3,0.545c0.387,0 0.717,-0.101 0.991,-0.304c0.273,-0.204 0.49,-0.528 0.65,-0.973Zm-3.463,-1.705l3.475,-0c-0.047,-0.524 -0.18,-0.916 -0.399,-1.178c-0.336,-0.406 -0.771,-0.609 -1.306,-0.609c-0.485,-0 -0.892,0.162 -1.222,0.486c-0.33,0.324 -0.513,0.758 -0.548,1.301Z" style="fill:#545454;fill-rule:nonzero;"/><path d="M125.122,132.195c-0.391,0.332 -0.767,0.567 -1.128,0.703c-0.362,0.137 -0.749,0.205 -1.163,0.205c-0.684,0 -1.209,-0.167 -1.577,-0.5c-0.367,-0.334 -0.55,-0.761 -0.55,-1.281c-0,-0.304 0.069,-0.583 0.208,-0.835c0.138,-0.252 0.32,-0.454 0.545,-0.606c0.224,-0.153 0.477,-0.268 0.758,-0.346c0.207,-0.055 0.52,-0.107 0.938,-0.158c0.851,-0.102 1.478,-0.223 1.881,-0.363c0.004,-0.145 0.006,-0.237 0.006,-0.276c-0,-0.429 -0.1,-0.732 -0.299,-0.908c-0.27,-0.238 -0.67,-0.357 -1.201,-0.357c-0.497,-0 -0.863,0.087 -1.099,0.26c-0.236,0.174 -0.411,0.482 -0.524,0.923l-1.032,-0.14c0.094,-0.442 0.248,-0.798 0.463,-1.07c0.215,-0.271 0.526,-0.48 0.932,-0.627c0.406,-0.146 0.877,-0.219 1.412,-0.219c0.531,-0 0.963,0.062 1.295,0.187c0.332,0.125 0.576,0.282 0.732,0.472c0.157,0.189 0.266,0.428 0.328,0.718c0.036,0.179 0.053,0.503 0.053,0.972l0,1.406c0,0.981 0.023,1.601 0.068,1.861c0.044,0.26 0.133,0.509 0.266,0.747l-1.101,-0c-0.11,-0.219 -0.18,-0.475 -0.211,-0.768Zm-0.088,-2.355c-0.383,0.156 -0.957,0.289 -1.723,0.398c-0.434,0.063 -0.74,0.133 -0.92,0.211c-0.18,0.078 -0.318,0.193 -0.416,0.343c-0.098,0.15 -0.146,0.317 -0.146,0.501c-0,0.281 0.106,0.516 0.319,0.703c0.213,0.188 0.524,0.281 0.935,0.281c0.406,0 0.767,-0.089 1.084,-0.266c0.316,-0.178 0.548,-0.421 0.697,-0.73c0.113,-0.238 0.17,-0.59 0.17,-1.054l-0,-0.387Z" style="fill:#545454;fill-rule:nonzero;"/><path d="M131.772,132.963l0,-0.785c-0.395,0.617 -0.975,0.925 -1.74,0.925c-0.496,0 -0.952,-0.136 -1.368,-0.41c-0.416,-0.273 -0.739,-0.655 -0.967,-1.145c-0.229,-0.49 -0.343,-1.054 -0.343,-1.691c0,-0.621 0.104,-1.184 0.311,-1.69c0.207,-0.506 0.517,-0.894 0.931,-1.163c0.414,-0.27 0.877,-0.404 1.389,-0.404c0.375,-0 0.709,0.079 1.002,0.237c0.293,0.158 0.531,0.364 0.715,0.618l-0,-3.082l1.049,0l-0,8.59l-0.979,-0Zm-3.334,-3.106c0,0.797 0.168,1.393 0.504,1.788c0.336,0.394 0.732,0.591 1.189,0.591c0.461,0 0.853,-0.188 1.175,-0.565c0.322,-0.377 0.484,-0.952 0.484,-1.726c-0,-0.851 -0.164,-1.476 -0.493,-1.875c-0.328,-0.398 -0.732,-0.597 -1.212,-0.597c-0.469,-0 -0.861,0.191 -1.175,0.574c-0.315,0.383 -0.472,0.986 -0.472,1.81Z" style="fill:#545454;fill-rule:nonzero;"/><path d="M138.446,132.963l-0,-0.785c-0.395,0.617 -0.975,0.925 -1.74,0.925c-0.496,0 -0.953,-0.136 -1.369,-0.41c-0.416,-0.273 -0.738,-0.655 -0.966,-1.145c-0.229,-0.49 -0.343,-1.054 -0.343,-1.691c-0,-0.621 0.103,-1.184 0.31,-1.69c0.207,-0.506 0.518,-0.894 0.932,-1.163c0.414,-0.27 0.877,-0.404 1.389,-0.404c0.375,-0 0.709,0.079 1.002,0.237c0.293,0.158 0.531,0.364 0.715,0.618l-0,-3.082l1.048,0l0,8.59l-0.978,-0Zm-3.334,-3.106c-0,0.797 0.168,1.393 0.504,1.788c0.336,0.394 0.732,0.591 1.189,0.591c0.461,0 0.853,-0.188 1.175,-0.565c0.322,-0.377 0.483,-0.952 0.483,-1.726c0,-0.851 -0.164,-1.476 -0.492,-1.875c-0.328,-0.398 -0.732,-0.597 -1.213,-0.597c-0.468,-0 -0.86,0.191 -1.174,0.574c-0.315,0.383 -0.472,0.986 -0.472,1.81Z" style="fill:#545454;fill-rule:nonzero;"/><path d="M145.342,130.959l1.09,0.135c-0.172,0.636 -0.49,1.131 -0.955,1.482c-0.465,0.352 -1.059,0.527 -1.781,0.527c-0.91,0 -1.632,-0.28 -2.165,-0.84c-0.533,-0.561 -0.8,-1.347 -0.8,-2.359c-0,-1.047 0.27,-1.859 0.809,-2.437c0.539,-0.578 1.238,-0.867 2.097,-0.867c0.832,-0 1.512,0.283 2.039,0.849c0.528,0.567 0.791,1.363 0.791,2.391c0,0.062 -0.002,0.156 -0.006,0.281l-4.64,0c0.039,0.684 0.232,1.207 0.58,1.57c0.348,0.364 0.781,0.545 1.301,0.545c0.386,0 0.716,-0.101 0.99,-0.304c0.273,-0.204 0.49,-0.528 0.65,-0.973Zm-3.463,-1.705l3.475,-0c-0.047,-0.524 -0.18,-0.916 -0.398,-1.178c-0.336,-0.406 -0.772,-0.609 -1.307,-0.609c-0.484,-0 -0.892,0.162 -1.222,0.486c-0.33,0.324 -0.512,0.758 -0.548,1.301Z" style="fill:#545454;fill-rule:nonzero;"/><path d="M151.793,132.963l0,-0.785c-0.394,0.617 -0.974,0.925 -1.74,0.925c-0.496,0 -0.952,-0.136 -1.368,-0.41c-0.416,-0.273 -0.738,-0.655 -0.967,-1.145c-0.228,-0.49 -0.342,-1.054 -0.342,-1.691c-0,-0.621 0.103,-1.184 0.31,-1.69c0.207,-0.506 0.518,-0.894 0.932,-1.163c0.414,-0.27 0.877,-0.404 1.388,-0.404c0.375,-0 0.709,0.079 1.002,0.237c0.293,0.158 0.532,0.364 0.715,0.618l0,-3.082l1.049,0l0,8.59l-0.979,-0Zm-3.333,-3.106c-0,0.797 0.167,1.393 0.503,1.788c0.336,0.394 0.733,0.591 1.19,0.591c0.461,0 0.852,-0.188 1.175,-0.565c0.322,-0.377 0.483,-0.952 0.483,-1.726c0,-0.851 -0.164,-1.476 -0.492,-1.875c-0.328,-0.398 -0.733,-0.597 -1.213,-0.597c-0.469,-0 -0.86,0.191 -1.175,0.574c-0.314,0.383 -0.471,0.986 -0.471,1.81Z" style="fill:#545454;fill-rule:nonzero;"/></g><ellipse cx="120.432" cy="115.095" rx="67.776" ry="64.93" style="fill:none;stroke:#091026;stroke-opacity:0.5;stroke-width:0.5px;"/></g></svg>