<svg id="Group_256" data-name="Group 256" xmlns="http://www.w3.org/2000/svg" width="135.729" height="79.176" viewBox="0 0 135.729 79.176">
  <path id="Path_267" data-name="Path 267" d="M116.88,55.808c10.078,0,18.849-3.795,18.849-8.483s-8.777-8.483-18.849-8.483-18.849,3.795-18.849,8.483S106.8,55.808,116.88,55.808Zm.351-7.573c-1.125-.339-4.581-.628-4.581-2.545,0-1.069,1.261-2.025,3.614-2.24v-.837h1.21v.8a17.072,17.072,0,0,1,2.958.339l-.441,1.3a12.06,12.06,0,0,0-2.669-.373l-.271.006c-1.815.074-1.962,1.08-.707,1.51,2.059.633,4.773,1.1,4.773,2.788,0,1.346-1.634,2.07-3.648,2.245v.826h-1.21v-.786a12.174,12.174,0,0,1-3.631-.577l.554-1.3a13.151,13.151,0,0,0,3.122.475l.786-.057C118.486,49.615,118.763,48.677,117.231,48.235ZM116.88,78.43c7.131,0,14.534-1.827,18.849-5.282V75.6c0,4.688-8.777,8.574-18.849,8.574S98.031,80.29,98.031,75.6V73.147C102.346,76.609,109.743,78.43,116.88,78.43Zm0-18.849c7.131,0,14.534-1.827,18.849-5.282v2.454c0,4.688-8.777,8.483-18.849,8.483s-18.849-3.795-18.849-8.483V54.3C102.346,57.753,109.743,59.58,116.88,59.58Zm0,9.428c7.131,0,14.534-1.827,18.849-5.288v2.46c0,4.683-8.777,8.483-18.849,8.483s-18.849-3.8-18.849-8.483V63.72C102.346,67.181,109.743,69.008,116.88,69.008ZM69.143,51.538c0,3.4-2.658,5.214-5.938,5.667v2.087H61.22V57.312a13.657,13.657,0,0,1-5.938-1.436l.9-3.252c1.889.73,4.411,1.51,6.379,1.069,2.273-.515,2.743-2.856.232-3.987-1.844-.848-7.482-1.589-7.482-6.413,0-2.7,2.053-5.112,5.9-5.644V35.539H63.2v2.013a18.224,18.224,0,0,1,4.835.831l-.718,3.258a12.669,12.669,0,0,0-4.835-.916c-2.946.175-3.207,2.726-1.154,3.795,3.388,1.595,7.81,2.777,7.81,7.018ZM101.8,10.655H5.655V67.209H0V5H101.8v5.655ZM11.311,16.311V78.52H90.486v-31.2c0-10.134,11.226-15.326,22.622-16.259V16.311H11.311Zm50.9,50.9A19.794,19.794,0,1,1,82,47.415,19.794,19.794,0,0,1,62.209,67.209Z" transform="translate(0 -5)" fill="#092168"/>
</svg>
