<?xml version="1.0" encoding="UTF-8" standalone="no"?><!DOCTYPE svg PUBLIC "-//W3C//DTD SVG 1.1//EN" "http://www.w3.org/Graphics/SVG/1.1/DTD/svg11.dtd"><svg width="100%" height="100%" viewBox="0 0 950 751" version="1.1" xmlns="http://www.w3.org/2000/svg" xmlns:xlink="http://www.w3.org/1999/xlink" xml:space="preserve" xmlns:serif="http://www.serif.com/" style="fill-rule:evenodd;clip-rule:evenodd;stroke-linejoin:round;stroke-miterlimit:2;"><path d="M593.597,262.971l-78.358,-115.033l-87.059,-0l-78.359,115.033c-11.843,17.385 -18.112,37.388 -18.112,57.791c0,60.982 54.825,110.419 122.455,110.419l35.091,-0c67.629,-0 122.454,-49.437 122.454,-110.419c0,-20.403 -6.269,-40.406 -18.112,-57.791Z" style="fill:#f47a7f;fill-rule:nonzero;"/><path d="M417.569,138.526c-0,5.198 4.673,9.412 10.438,9.412l87.405,-0c5.764,-0 10.437,-4.214 10.437,-9.412c0,-5.198 -4.673,-9.412 -10.437,-9.412l-87.405,0c-5.765,0 -10.438,4.214 -10.438,9.412Z" style="fill:#f2eade;fill-rule:nonzero;"/><path d="M443.452,138.526c0,5.198 4.674,9.412 10.438,9.412l35.638,-0c5.765,-0 10.438,-4.214 10.438,-9.412c-0,-5.198 -4.673,-9.412 -10.438,-9.412l-35.638,0c-5.764,0 -10.438,4.214 -10.438,9.412Z" style="fill:#e7d9c3;fill-rule:nonzero;"/><path d="M510.178,129.114c7.911,-4.923 14.636,-11.148 19.666,-18.202c3.573,-5.012 6.354,-10.822 5.12,-16.55c-1.234,-5.728 -7.79,-10.946 -14.714,-9.93c-3.674,0.539 -6.695,2.614 -9.996,4.052c-6.02,2.621 -13.885,2.979 -19.334,-0.389c-3.259,-2.014 -5.311,-5.08 -8.216,-7.435c-2.905,-2.355 -7.194,-5.31 -10.995,-5.31c-3.8,-0 -8.089,2.955 -10.995,5.31c-2.905,2.355 -4.957,5.421 -8.216,7.435c-5.449,3.368 -13.314,3.01 -19.333,0.389c-3.302,-1.438 -6.323,-3.513 -9.997,-4.052c-6.924,-1.016 -13.479,4.202 -14.714,9.93c-1.234,5.728 1.547,11.538 5.12,16.55c5.03,7.054 11.755,13.279 19.666,18.202l76.938,0Z" style="fill:#f47a7f;fill-rule:nonzero;"/><path d="M559.595,262.971l-68.649,-115.033l-38.473,-0l-68.65,115.033c-8.539,17.385 -13.059,37.388 -13.059,57.791c0,60.982 39.531,110.419 88.294,110.419l25.302,-0c48.764,-0 88.294,-49.437 88.294,-110.419c0,-20.403 -4.52,-40.406 -13.059,-57.791Z" style="fill:#e84249;fill-rule:nonzero;"/><path d="M506.731,94.362c-0.184,-1.539 -0.585,-3.036 -1.141,-4.39c-5.043,1.083 -10.547,0.671 -14.67,-1.877c-3.259,-2.014 -5.311,-5.08 -8.216,-7.435c-2.906,-2.355 -7.195,-5.31 -10.995,-5.31c-3.8,-0 -8.089,2.955 -10.994,5.31c-2.906,2.355 -4.958,5.421 -8.217,7.435c-4.123,2.548 -9.627,2.96 -14.669,1.877c-0.556,1.354 -0.958,2.851 -1.141,4.39c-0.684,5.728 0.856,11.538 2.834,16.55c2.785,7.054 6.508,13.279 10.889,18.202l42.597,0c4.38,-4.923 8.103,-11.148 10.888,-18.202c1.979,-5.012 3.518,-10.822 2.835,-16.55Z" style="fill:#e84249;fill-rule:nonzero;"/><path d="M480.54,243.124l0,8.598c6.2,0.584 11.517,1.752 15.95,3.503c4.432,1.752 8.3,4.406 11.603,7.962c2.608,2.707 4.621,5.493 6.041,8.359c1.42,2.867 2.129,5.494 2.129,7.882c0,2.654 -1.057,4.95 -3.172,6.887c-2.115,1.937 -4.679,2.906 -7.692,2.906c-5.679,0 -9.359,-2.813 -11.039,-8.439c-1.912,-6.635 -6.519,-11.04 -13.82,-13.216l0,33.12c7.185,1.804 12.907,3.45 17.166,4.936c4.259,1.486 8.069,3.636 11.43,6.449c3.593,2.919 6.36,6.409 8.301,10.469c1.941,4.061 2.912,8.506 2.912,13.336c-0,6.051 -1.55,11.717 -4.651,16.998c-3.1,5.281 -7.663,9.593 -13.689,12.937c-6.026,3.344 -13.183,5.334 -21.469,5.971l0,19.825c0,3.131 -0.333,5.413 -1,6.847c-0.666,1.433 -2.129,2.149 -4.389,2.149c-2.086,0 -3.549,-0.584 -4.389,-1.751c-0.84,-1.168 -1.261,-2.973 -1.261,-5.414l0,-21.496c-6.779,-0.69 -12.704,-2.15 -17.774,-4.379c-5.071,-2.229 -9.301,-5.003 -12.69,-8.32c-3.39,-3.317 -5.896,-6.767 -7.519,-10.35c-1.622,-3.583 -2.434,-7.099 -2.434,-10.549c0,-2.548 1.087,-4.843 3.26,-6.887c2.173,-2.043 4.882,-3.065 8.127,-3.065c2.607,-0 4.809,0.557 6.606,1.672c1.796,1.114 3.042,2.68 3.737,4.697c1.565,4.352 2.926,7.683 4.085,9.992c1.159,2.309 2.912,4.419 5.259,6.329c2.347,1.911 5.461,3.371 9.343,4.379l0,-37.021c-7.764,-1.964 -14.254,-4.153 -19.469,-6.568c-5.215,-2.415 -9.445,-5.852 -12.69,-10.311c-3.245,-4.458 -4.868,-10.19 -4.868,-17.196c0,-9.13 3.173,-16.614 9.518,-22.452c6.345,-5.839 15.515,-9.235 27.509,-10.191l0,-8.439c0,-4.459 1.826,-6.688 5.476,-6.688c3.709,0 5.563,2.176 5.563,6.529Zm-11.039,54.616l0,-30.493c-4.867,1.327 -8.662,3.079 -11.386,5.255c-2.723,2.176 -4.085,5.467 -4.085,9.872c-0,4.193 1.275,7.365 3.824,9.514c2.55,2.15 6.432,4.1 11.647,5.852Zm11.039,23.646l0,34.871c5.853,-1.061 10.372,-3.211 13.559,-6.449c3.187,-3.237 4.781,-7.006 4.781,-11.305c-0,-4.618 -1.55,-8.187 -4.65,-10.708c-3.1,-2.521 -7.664,-4.658 -13.69,-6.409Z" style="fill:#fff;fill-rule:nonzero;"/><g><path d="M210.535,596.152l5.247,0l4.415,-13.184l18.876,0l4.479,13.184l5.503,0l-15.485,-45.752l-7.294,0l-15.741,45.752Zm19.132,-41.152l7.934,23.56l-15.868,0l7.934,-23.56Z" style="fill:#4a4a4a;fill-rule:nonzero;"/><path d="M256.743,596.152l5.304,0l0,-20.288c0,-6.016 4.418,-9.152 9.348,-9.152c5.379,0 7.876,2.624 7.876,8.512l0,20.928l5.304,0l0,-20.544c0,-9.726 -4.856,-13.496 -11.771,-13.496c-5.506,0 -9.22,2.747 -10.757,5.88l0,-5.304l-5.304,0l0,33.464Z" style="fill:#4a4a4a;fill-rule:nonzero;"/><path d="M295.015,596.152l5.304,0l0,-20.288c0,-6.016 4.418,-9.152 9.348,-9.152c5.379,0 7.876,2.624 7.876,8.512l0,20.928l5.304,0l0,-20.544c0,-9.726 -4.856,-13.496 -11.771,-13.496c-5.506,0 -9.22,2.747 -10.757,5.88l0,-5.304l-5.304,0l0,33.464Z" style="fill:#4a4a4a;fill-rule:nonzero;"/><path d="M344.61,596.728c5.379,0 9.092,-2.747 10.629,-5.88l0,5.304l5.304,0l0,-33.464l-5.304,0l0,20.283c0,6.021 -4.482,9.157 -9.22,9.157c-5.251,0 -7.748,-2.624 -7.748,-8.512l0,-20.928l-5.304,0l0,21.184c0,9.215 4.985,12.856 11.643,12.856Z" style="fill:#4a4a4a;fill-rule:nonzero;"/><path d="M379.682,596.728c4.93,0 7.94,-1.661 10.437,-4.792l0,4.216l5.304,0l0,-22.074c0,-9.347 -5.816,-11.966 -12.219,-11.966c-6.467,0 -12.544,2.811 -13.247,10.429l5.307,-0c0.512,-4.099 3.073,-6.021 7.684,-6.021c5.122,0 7.171,2.242 7.171,7.558l0,2.434l-4.802,0c-8.58,0 -16.766,2.619 -16.766,10.36c0,6.854 4.921,9.856 11.131,9.856Zm0.512,-4.216c-4.674,0 -6.339,-2.177 -6.339,-5.636c0,-4.931 4.931,-6.596 11.654,-6.596l4.61,0l0,4.163c0,5.187 -4.29,8.069 -9.925,8.069Z" style="fill:#4a4a4a;fill-rule:nonzero;"/><rect x="405.991" y="546.688" width="5.368" height="49.464" style="fill:#4a4a4a;fill-rule:nonzero;"/><path d="M460.003,592.128c-9.538,0 -16.9,-7.553 -16.9,-18.628l0,-0.512c0,-10.882 6.146,-18.692 16.772,-18.692c10.563,0 16.58,8.322 16.58,18.564l0,0.512c0,11.075 -6.273,18.756 -16.452,18.756Zm0,4.6c13.316,0 22.204,-10.361 22.204,-23.292l0,-0.512c0,-12.867 -8.888,-23.1 -22.332,-23.1c-13.443,0 -22.524,10.233 -22.524,23.228l0,0.512c0,12.803 9.145,23.164 22.652,23.164Z" style="fill:#4a4a4a;fill-rule:nonzero;"/><path d="M491.111,607.8l5.304,0l0,-17.144c1.921,3.325 5.826,6.072 11.333,6.072c9.219,0 15.227,-7.033 15.227,-17.276l0,-0.512c0,-10.435 -6.456,-16.828 -15.227,-16.828c-4.866,0 -9.412,2.939 -11.333,6.201l0,-5.625l-5.304,0l0,45.112Zm16.124,-15.48c-6.53,0 -11.012,-4.032 -11.012,-12.608l0,-0.512c0,-8.582 4.738,-12.68 10.948,-12.68c5.634,0 10.308,4.226 10.308,12.676l0,0.512c0,8.132 -3.585,12.612 -10.244,12.612Z" style="fill:#4a4a4a;fill-rule:nonzero;"/><path d="M544.932,596.728c7.555,0 13.117,-3.513 14.268,-10.236l-5.305,0c-0.704,3.907 -3.713,5.828 -8.899,5.828c-6.851,0 -10.501,-4.227 -10.757,-11.848l25.216,0l0,-1.725c0,-11.971 -7.288,-16.635 -15.036,-16.635c-9.219,0 -15.676,7.034 -15.676,17.146l0,0.511c0,10.31 6.713,16.959 16.189,16.959Zm-10.501,-20.536c0.897,-5.957 4.546,-9.672 9.988,-9.672c5.507,0 9.092,2.754 9.604,9.672l-19.592,0Z" style="fill:#4a4a4a;fill-rule:nonzero;"/><path d="M567.591,596.152l5.304,0l0,-18.368c0,-8.256 4.288,-10.368 11.008,-10.688l0,-4.984c-6.016,0.192 -8.896,2.812 -11.008,6.584l0,-6.008l-5.304,0l0,33.464Z" style="fill:#4a4a4a;fill-rule:nonzero;"/><path d="M599.714,596.728c4.93,0 7.94,-1.661 10.437,-4.792l0,4.216l5.304,0l0,-22.074c0,-9.347 -5.816,-11.966 -12.219,-11.966c-6.467,0 -12.544,2.811 -13.247,10.429l5.307,-0c0.512,-4.099 3.073,-6.021 7.684,-6.021c5.122,0 7.171,2.242 7.171,7.558l0,2.434l-4.802,0c-8.58,0 -16.766,2.619 -16.766,10.36c0,6.854 4.921,9.856 11.131,9.856Zm0.512,-4.216c-4.674,0 -6.339,-2.177 -6.339,-5.636c0,-4.931 4.931,-6.596 11.654,-6.596l4.61,0l0,4.163c0,5.187 -4.29,8.069 -9.925,8.069Z" style="fill:#4a4a4a;fill-rule:nonzero;"/><path d="M636.063,596.6c2.176,0 3.456,-0.319 4.544,-0.703l0,-4.473c-1.152,0.448 -2.432,0.704 -4.096,0.704c-2.688,0 -4.16,-1.6 -4.16,-4.865l0,-20.103l7.808,0l0,-4.472l-7.808,0l0,-7.616l-5.304,0l0,7.616l-4.8,0l0,4.472l4.8,0l0,20.615c0,5.248 2.94,8.825 9.016,8.825Z" style="fill:#4a4a4a;fill-rule:nonzero;"/><path d="M648.743,596.152l5.304,0l0,-33.464l-5.304,0l0,33.464Zm2.556,-40.448c1.918,0 3.516,-1.598 3.516,-3.516c0,-1.918 -1.598,-3.516 -3.516,-3.516c-1.918,0 -3.516,1.598 -3.516,3.516c0,1.918 1.598,3.516 3.516,3.516Z" style="fill:#4a4a4a;fill-rule:nonzero;"/><path d="M664.935,596.152l5.304,0l0,-20.288c0,-6.016 4.418,-9.152 9.348,-9.152c5.379,0 7.876,2.624 7.876,8.512l0,20.928l5.304,0l0,-20.544c0,-9.726 -4.856,-13.496 -11.771,-13.496c-5.506,0 -9.22,2.747 -10.757,5.88l0,-5.304l-5.304,0l0,33.464Z" style="fill:#4a4a4a;fill-rule:nonzero;"/><path d="M716.579,608.376c9.348,0 15.932,-4.728 15.996,-14.462l0,-31.226l-5.304,0l0,5.369c-1.921,-3.262 -5.378,-5.945 -10.948,-5.945c-9.219,0 -15.612,7.545 -15.612,16.636l0,0.448c0,9.219 6.457,15.868 15.228,15.868c4.866,0 9.411,-3.066 11.332,-6.328l0,4.859c0,7.17 -4.161,10.309 -10.756,10.309c-5.698,0 -8.899,-1.986 -9.668,-5.829l-5.433,-0c0.895,5.637 5.241,10.301 15.165,10.301Zm-0.064,-17.72c-5.634,0 -10.308,-4.353 -10.308,-11.652l0,-0.512c0,-7.042 3.97,-11.972 10.628,-11.972c6.531,0 10.628,4.354 10.628,11.844l-0,0.448c-0,7.491 -4.738,11.844 -10.948,11.844Z" style="fill:#4a4a4a;fill-rule:nonzero;"/><path d="M392.323,667.128c9.092,0 15.804,-5.816 15.804,-13.498c0,-8.642 -5.368,-11.714 -15.548,-13.315c-9.347,-1.408 -11.012,-3.712 -11.012,-8.193c0,-4.289 3.265,-7.426 9.54,-7.426c6.338,0 9.668,2.369 10.756,8.13l4.986,-0c-0.895,-8.13 -6.587,-12.602 -15.742,-12.602c-8.643,0 -14.716,5.368 -14.716,12.41c0,8.13 5.688,11.138 15.292,12.61c8.707,1.409 11.076,3.585 11.076,8.77c0,5.185 -4.545,8.642 -10.436,8.642c-9.219,0 -11.395,-4.609 -12.098,-10.05l-5.37,0c0.832,7.81 5.242,14.522 17.468,14.522Z" style="fill:#4a4a4a;fill-rule:nonzero;"/><path d="M425.666,667.128c4.93,0 7.94,-1.661 10.437,-4.792l0,4.216l5.304,0l0,-22.074c0,-9.347 -5.816,-11.966 -12.219,-11.966c-6.467,0 -12.544,2.811 -13.247,10.429l5.307,-0c0.512,-4.099 3.073,-6.021 7.684,-6.021c5.122,0 7.171,2.242 7.171,7.558l0,2.434l-4.802,0c-8.58,0 -16.766,2.619 -16.766,10.36c0,6.854 4.921,9.856 11.131,9.856Zm0.512,-4.216c-4.674,0 -6.339,-2.177 -6.339,-5.636c0,-4.931 4.931,-6.596 11.654,-6.596l4.61,0l0,4.163c0,5.187 -4.29,8.069 -9.925,8.069Z" style="fill:#4a4a4a;fill-rule:nonzero;"/><path d="M459.268,666.552l6.782,0l12.029,-33.464l-5.502,0l-9.79,28.096l-9.917,-28.096l-5.759,0l12.157,33.464Z" style="fill:#4a4a4a;fill-rule:nonzero;"/><path d="M485.191,666.552l5.304,0l0,-33.464l-5.304,0l0,33.464Zm2.556,-40.448c1.918,0 3.516,-1.598 3.516,-3.516c0,-1.918 -1.598,-3.516 -3.516,-3.516c-1.918,0 -3.516,1.598 -3.516,3.516c0,1.918 1.598,3.516 3.516,3.516Z" style="fill:#4a4a4a;fill-rule:nonzero;"/><path d="M501.383,666.552l5.304,0l0,-20.288c0,-6.016 4.418,-9.152 9.348,-9.152c5.379,0 7.876,2.624 7.876,8.512l0,20.928l5.304,0l0,-20.544c0,-9.726 -4.856,-13.496 -11.771,-13.496c-5.506,0 -9.22,2.747 -10.757,5.88l0,-5.304l-5.304,0l0,33.464Z" style="fill:#4a4a4a;fill-rule:nonzero;"/><path d="M553.027,678.776c9.348,0 15.932,-4.728 15.996,-14.462l0,-31.226l-5.304,0l0,5.369c-1.921,-3.262 -5.378,-5.945 -10.948,-5.945c-9.219,0 -15.612,7.545 -15.612,16.636l0,0.448c0,9.219 6.457,15.868 15.228,15.868c4.866,0 9.411,-3.066 11.332,-6.328l0,4.859c0,7.17 -4.161,10.309 -10.756,10.309c-5.698,0 -8.899,-1.986 -9.668,-5.829l-5.433,-0c0.895,5.637 5.241,10.301 15.165,10.301Zm-0.064,-17.72c-5.634,0 -10.308,-4.353 -10.308,-11.652l0,-0.512c0,-7.042 3.97,-11.972 10.628,-11.972c6.531,0 10.628,4.354 10.628,11.844l-0,0.448c-0,7.491 -4.738,11.844 -10.948,11.844Z" style="fill:#4a4a4a;fill-rule:nonzero;"/></g><g><path d="M424.655,514.815c-0,3.771 -1.266,6.693 -3.797,8.766c-2.531,2.073 -6.276,3.203 -11.234,3.39l-0,5.469l-3.407,0l0,-5.375c-4.479,-0.167 -7.968,-1.224 -10.468,-3.172c-2.5,-1.948 -4.146,-4.932 -4.938,-8.953l8,-1.469c0.396,2.355 1.182,4.079 2.359,5.172c1.178,1.094 2.86,1.745 5.047,1.953l0,-12.218c-0.062,-0.042 -0.218,-0.089 -0.468,-0.141c-0.25,-0.052 -0.417,-0.078 -0.5,-0.078c-3.355,-0.771 -5.886,-1.682 -7.594,-2.734c-1.709,-1.053 -3.026,-2.386 -3.953,-4c-0.927,-1.615 -1.391,-3.589 -1.391,-5.922c0,-3.459 1.177,-6.131 3.531,-8.016c2.354,-1.885 5.813,-2.922 10.375,-3.109l0,-4.188l3.407,0l-0,4.188c4.062,0.145 7.187,1.047 9.375,2.703c2.187,1.656 3.76,4.401 4.718,8.234l-8.25,1.219c-0.625,-3.583 -2.573,-5.594 -5.843,-6.031l-0,11l0.343,0.062c0.604,0 2.443,0.5 5.516,1.5c3.073,1 5.37,2.474 6.891,4.422c1.52,1.948 2.281,4.391 2.281,7.328Zm-18.438,-24.437c-3.812,0.291 -5.718,1.958 -5.718,5c-0,0.937 0.156,1.703 0.468,2.297c0.313,0.593 0.782,1.098 1.407,1.515c0.625,0.417 1.906,0.938 3.843,1.563l0,-10.375Zm10.313,24.562c-0,-1.042 -0.188,-1.89 -0.563,-2.547c-0.375,-0.656 -0.922,-1.192 -1.64,-1.609c-0.719,-0.417 -2.287,-0.969 -4.703,-1.656l-0,11.468c4.604,-0.312 6.906,-2.198 6.906,-5.656Z" style="fill:#4a4a4a;fill-rule:nonzero;"/><path d="M430.905,527.096l-0,-6.093c1.041,-2.292 2.526,-4.589 4.453,-6.891c1.927,-2.302 4.734,-4.953 8.422,-7.953c2.875,-2.354 4.739,-3.979 5.594,-4.875c0.854,-0.896 1.526,-1.766 2.015,-2.609c0.49,-0.844 0.735,-1.704 0.735,-2.579c-0,-1.5 -0.49,-2.677 -1.469,-3.531c-0.979,-0.854 -2.417,-1.281 -4.313,-1.281c-1.875,-0 -3.307,0.505 -4.297,1.516c-0.989,1.01 -1.63,2.526 -1.921,4.546l-8.844,-0.5c0.5,-4.083 2.026,-7.198 4.578,-9.343c2.552,-2.146 6.026,-3.219 10.422,-3.219c4.541,-0 8.135,1.036 10.781,3.109c2.646,2.073 3.969,4.849 3.969,8.328c-0,2.271 -0.714,4.485 -2.141,6.641c-1.427,2.156 -3.568,4.349 -6.422,6.578c-4.041,3.125 -6.76,5.375 -8.156,6.75c-1.396,1.375 -2.406,2.771 -3.031,4.188l20.437,-0l0,7.218l-30.812,0Z" style="fill:#4a4a4a;fill-rule:nonzero;"/><path d="M500.561,512.909c0,2.917 -0.651,5.495 -1.953,7.734c-1.302,2.24 -3.188,3.979 -5.656,5.219c-2.469,1.24 -5.37,1.859 -8.703,1.859c-4.417,0 -7.954,-0.994 -10.61,-2.984c-2.656,-1.99 -4.297,-4.87 -4.922,-8.641l8.782,-0.718c0.458,1.875 1.27,3.239 2.437,4.093c1.167,0.855 2.635,1.282 4.406,1.282c2.25,-0 4.011,-0.667 5.282,-2c1.27,-1.334 1.906,-3.219 1.906,-5.657c-0,-2.166 -0.615,-3.901 -1.844,-5.203c-1.229,-1.302 -2.948,-1.953 -5.156,-1.953c-2.438,0 -4.427,0.948 -5.969,2.844l-8.562,-0l1.531,-23.844l26.469,0l-0,6.531l-18.5,0l-0.719,10.188c2.125,-1.875 4.781,-2.813 7.969,-2.813c4.187,0 7.536,1.287 10.046,3.86c2.511,2.573 3.766,5.974 3.766,10.203Z" style="fill:#4a4a4a;fill-rule:nonzero;"/><path d="M532.249,527.096l-0,-27.125c-0,-2.187 0.166,-5.323 0.5,-9.406c-1.23,6.042 -2.011,9.594 -2.344,10.656l-3.875,14.625l-6.813,0l-3.937,-14.625c-0.604,-2.25 -1.396,-5.802 -2.375,-10.656l0.219,3.125c0.145,2.188 0.218,4.281 0.218,6.281l0,27.125l-6.875,0l0,-42.156l10.844,0l4.219,15.594c0.312,0.979 0.708,3.385 1.187,7.219c0.417,-3.23 0.834,-5.625 1.25,-7.188l4.25,-15.625l10.469,0l0,42.156l-6.937,0Z" style="fill:#4a4a4a;fill-rule:nonzero;"/></g><rect x="0" y="0" width="949.427" height="750.19" style="fill:none;"/></svg>