<svg xmlns="http://www.w3.org/2000/svg" width="16.667" height="20" viewBox="0 0 16.667 20">
  <path id="Path_289" data-name="Path 289" d="M11.016,12.023a1.568,1.568,0,0,1-.017.79.617.617,0,0,1-.628.44H9.839V11.486h.413a.68.68,0,0,1,.763.537Zm2.576-7.208a7.343,7.343,0,0,1,5.075.982A26.438,26.438,0,0,0,12.473.062C13.438,1.035,13.776,3.591,13.592,4.814ZM7.378,11.443H6.923v.786h.455c.2,0,.389-.023.48-.189a.517.517,0,0,0,0-.407C7.767,11.467,7.573,11.443,7.378,11.443ZM18.667,9.167V20H2V0H9.008c4.048,0,2.778,6.667,2.778,6.667C14.3,6.046,18.667,6.317,18.667,9.167Zm-10.09,2.3a.982.982,0,0,0-1.02-.634H6.167v3.072h.756V12.841h.634a.981.981,0,0,0,1.02-.636A1.187,1.187,0,0,0,8.577,11.467Zm2.839-.253a1.369,1.369,0,0,0-1-.382H9.084V13.9h1.333a1.312,1.312,0,0,0,1.052-.446A1.864,1.864,0,0,0,11.416,11.215Zm3.084-.382H12.31V13.9h.756V12.678h1.242v-.61H13.066v-.582H14.5v-.653Z" transform="translate(-2)" fill="#fff"/>
</svg>
