<?xml version="1.0" encoding="UTF-8" standalone="no"?><!DOCTYPE svg PUBLIC "-//W3C//DTD SVG 1.1//EN" "http://www.w3.org/Graphics/SVG/1.1/DTD/svg11.dtd"><svg width="100%" height="100%" viewBox="0 0 1128 527" version="1.1" xmlns="http://www.w3.org/2000/svg" xmlns:xlink="http://www.w3.org/1999/xlink" xml:space="preserve" xmlns:serif="http://www.serif.com/" style="fill-rule:evenodd;clip-rule:evenodd;stroke-linejoin:round;stroke-miterlimit:2;"><rect x="0" y="0" width="1127.2" height="526.393" style="fill:none;"/><g><path d="M537.001,104.994l20.874,0l0,-3.402l-16.704,0l0,-12.438l12.768,0l0,-3.402l-12.768,0l0,-11.67l15.84,0l0,-3.402l-20.01,0l0,34.314Z" style="fill:#4a4a4a;fill-rule:nonzero;"/><path d="M560.761,104.994l22.986,0l0,-3.402l-16.554,0l9.456,-9.218c4.222,-4.129 6.906,-8.257 6.906,-12.482c0,-5.906 -4.026,-9.644 -10.362,-9.644c-6.528,0 -10.608,4.267 -11.136,10.988l3.888,-0c0.672,-5.377 3.264,-7.634 7.248,-7.634c3.888,0 6.144,2.305 6.144,6.146c0,3.504 -1.824,6.625 -4.944,9.938l-13.632,14.35l0,0.958Z" style="fill:#4a4a4a;fill-rule:nonzero;"/><path d="M590.761,104.994l20.874,0l0,-3.402l-16.704,0l0,-12.438l12.768,0l0,-3.402l-12.768,0l0,-11.67l15.84,0l0,-3.402l-20.01,0l0,34.314Z" style="fill:#4a4a4a;fill-rule:nonzero;"/><path d="M630.649,104.994l19.866,0l0,-3.402l-15.696,0l0,-30.912l-4.17,0l0,34.314Z" style="fill:#4a4a4a;fill-rule:nonzero;"/><path d="M656.137,104.994l3.978,0l0,-25.098l-3.978,0l0,25.098Zm1.917,-30.336c1.439,0 2.637,-1.198 2.637,-2.637c0,-1.438 -1.198,-2.637 -2.637,-2.637c-1.438,0 -2.637,1.199 -2.637,2.637c0,1.439 1.199,2.637 2.637,2.637Z" style="fill:#4a4a4a;fill-rule:nonzero;"/><path d="M669.145,104.994l3.978,0l0,-21.744l6.144,0l0,-3.354l-6.144,0l0,-4.515c0,-2.546 1.056,-4.323 3.648,-4.323c1.104,0 2.112,0.24 2.832,0.529l0,-3.356c-1.008,-0.335 -1.68,-0.479 -2.976,-0.479c-4.989,0 -7.482,2.971 -7.482,8.061l0,4.083l-3.6,0l0,3.354l3.6,0l0,21.744Z" style="fill:#4a4a4a;fill-rule:nonzero;"/><path d="M693.959,105.426c5.666,0 9.838,-2.635 10.701,-7.677l-3.979,0c-0.528,2.93 -2.785,4.371 -6.674,4.371c-5.138,0 -7.876,-3.17 -8.068,-8.886l18.912,0l0,-1.293c0,-8.979 -5.466,-12.477 -11.276,-12.477c-6.915,0 -11.758,5.276 -11.758,12.86l0,0.383c0,7.732 5.035,12.719 12.142,12.719Zm-7.876,-15.402c0.673,-4.467 3.41,-7.254 7.492,-7.254c4.129,0 6.818,2.066 7.202,7.254l-14.694,0Z" style="fill:#4a4a4a;fill-rule:nonzero;"/><path d="M721.363,105.426c6.048,0 10.416,-4.026 10.944,-9.452l-3.696,0c-0.432,4.082 -3.648,6.146 -7.2,6.146c-4.848,0 -8.208,-3.265 -8.208,-9.411l0,-0.384c0,-5.905 3.504,-9.555 8.064,-9.555c3.456,0 6.336,1.489 6.96,5.474l3.936,0c-0.768,-6.384 -5.664,-8.78 -10.896,-8.78c-6.72,0 -12.186,5.179 -12.186,12.861l0,0.384c0,7.779 5.274,12.717 12.282,12.717Z" style="fill:#4a4a4a;fill-rule:nonzero;"/><path d="M740.328,113.73l4.031,0l13.868,-33.834l-4.079,0l-6.958,17.997l-7.678,-17.997l-4.271,0l9.838,22.508l-4.751,11.326Z" style="fill:#4a4a4a;fill-rule:nonzero;"/><path d="M773.155,105.426c6.048,0 10.416,-4.026 10.944,-9.452l-3.696,0c-0.432,4.082 -3.648,6.146 -7.2,6.146c-4.848,0 -8.208,-3.265 -8.208,-9.411l0,-0.384c0,-5.905 3.504,-9.555 8.064,-9.555c3.456,0 6.336,1.489 6.96,5.474l3.936,0c-0.768,-6.384 -5.664,-8.78 -10.896,-8.78c-6.72,0 -12.186,5.179 -12.186,12.861l0,0.384c0,7.779 5.274,12.717 12.282,12.717Z" style="fill:#4a4a4a;fill-rule:nonzero;"/><rect x="790.201" y="67.896" width="4.026" height="37.098" style="fill:#4a4a4a;fill-rule:nonzero;"/><path d="M812.663,105.426c5.666,0 9.838,-2.635 10.701,-7.677l-3.979,0c-0.528,2.93 -2.785,4.371 -6.674,4.371c-5.138,0 -7.876,-3.17 -8.068,-8.886l18.912,0l0,-1.293c0,-8.979 -5.466,-12.477 -11.276,-12.477c-6.915,0 -11.758,5.276 -11.758,12.86l0,0.383c0,7.732 5.035,12.719 12.142,12.719Zm-7.876,-15.402c0.673,-4.467 3.41,-7.254 7.492,-7.254c4.129,0 6.818,2.066 7.202,7.254l-14.694,0Z" style="fill:#4a4a4a;fill-rule:nonzero;"/><path d="M537.001,157.794l3.834,0l0,-28.896l11.763,28.896l1.297,0l11.378,-28.896l0,28.896l4.17,0l0,-34.314l-5.754,0l-10.275,26.73l-10.61,-26.73l-5.803,0l0,34.314Z" style="fill:#4a4a4a;fill-rule:nonzero;"/><path d="M584.086,158.226c3.697,0 5.954,-1.245 7.827,-3.594l0,3.162l3.978,0l0,-16.555c0,-7.01 -4.362,-8.975 -9.164,-8.975c-4.851,0 -9.408,2.108 -9.935,7.822l3.98,-0c0.384,-3.075 2.305,-4.516 5.763,-4.516c3.842,0 5.378,1.682 5.378,5.669l0,1.825l-3.601,0c-6.436,0 -12.575,1.964 -12.575,7.77c0,5.141 3.691,7.392 8.349,7.392Zm0.384,-3.162c-3.506,0 -4.755,-1.633 -4.755,-4.226c0,-3.699 3.698,-4.948 8.741,-4.948l3.457,0l0,3.122c0,3.891 -3.217,6.052 -7.443,6.052Z" style="fill:#4a4a4a;fill-rule:nonzero;"/><path d="M603.721,157.794l3.978,0l0,-15.216c0,-4.512 3.314,-6.864 7.012,-6.864c4.033,0 5.906,1.968 5.906,6.384l0,15.696l3.978,0l0,-15.408c0,-7.295 -3.642,-10.122 -8.828,-10.122c-4.13,0 -6.915,2.061 -8.068,4.41l0,-3.978l-3.978,0l0,25.098Z" style="fill:#4a4a4a;fill-rule:nonzero;"/><path d="M638.71,158.226c3.697,0 5.954,-1.245 7.827,-3.594l0,3.162l3.978,0l0,-16.555c0,-7.01 -4.362,-8.975 -9.164,-8.975c-4.851,0 -9.408,2.108 -9.935,7.822l3.98,-0c0.384,-3.075 2.305,-4.516 5.763,-4.516c3.842,0 5.378,1.682 5.378,5.669l0,1.825l-3.601,0c-6.436,0 -12.575,1.964 -12.575,7.77c0,5.141 3.691,7.392 8.349,7.392Zm0.384,-3.162c-3.506,0 -4.755,-1.633 -4.755,-4.226c0,-3.699 3.698,-4.948 8.741,-4.948l3.457,0l0,3.122c0,3.891 -3.217,6.052 -7.443,6.052Z" style="fill:#4a4a4a;fill-rule:nonzero;"/><path d="M668.374,166.962c7.011,0 11.949,-3.546 11.997,-10.846l0,-23.42l-3.978,0l0,4.027c-1.44,-2.446 -4.033,-4.459 -8.211,-4.459c-6.914,0 -11.709,5.659 -11.709,12.477l0,0.336c0,6.915 4.843,11.901 11.421,11.901c3.65,0 7.059,-2.3 8.499,-4.746l0,3.644c0,5.378 -3.121,7.732 -8.067,7.732c-4.273,0 -6.674,-1.489 -7.25,-4.372l-4.075,0c0.671,4.228 3.931,7.726 11.373,7.726Zm-0.048,-13.29c-4.225,0 -7.731,-3.265 -7.731,-8.739l0,-0.384c0,-5.282 2.978,-8.979 7.971,-8.979c4.898,0 7.971,3.265 7.971,8.883l0,0.336c0,5.618 -3.553,8.883 -8.211,8.883Z" style="fill:#4a4a4a;fill-rule:nonzero;"/><path d="M698.711,158.226c5.666,0 9.838,-2.635 10.701,-7.677l-3.979,0c-0.528,2.93 -2.785,4.371 -6.674,4.371c-5.138,0 -7.876,-3.17 -8.068,-8.886l18.912,0l0,-1.293c0,-8.979 -5.466,-12.477 -11.276,-12.477c-6.915,0 -11.758,5.276 -11.758,12.86l0,0.383c0,7.732 5.035,12.719 12.142,12.719Zm-7.876,-15.402c0.673,-4.467 3.41,-7.254 7.492,-7.254c4.129,0 6.818,2.066 7.202,7.254l-14.694,0Z" style="fill:#4a4a4a;fill-rule:nonzero;"/><path d="M715.705,157.794l3.978,0l0,-15.36c0,-4.512 3.362,-6.72 6.628,-6.72c3.457,0 5.33,1.824 5.33,6.24l0,15.84l3.978,0l0,-15.36c0,-4.512 3.362,-6.72 6.628,-6.72c3.457,0 5.33,1.824 5.33,6.24l0,15.84l3.978,0l0,-15.552c0,-7.294 -3.93,-9.978 -8.444,-9.978c-3.121,0 -6.867,1.438 -8.594,4.698c-1.294,-3.356 -4.124,-4.698 -7.342,-4.698c-3.602,0 -6.339,1.917 -7.492,4.266l0,-3.834l-3.978,0l0,25.098Z" style="fill:#4a4a4a;fill-rule:nonzero;"/><path d="M769.655,158.226c5.666,0 9.838,-2.635 10.701,-7.677l-3.979,0c-0.528,2.93 -2.785,4.371 -6.674,4.371c-5.138,0 -7.876,-3.17 -8.068,-8.886l18.912,0l0,-1.293c0,-8.979 -5.466,-12.477 -11.276,-12.477c-6.915,0 -11.758,5.276 -11.758,12.86l0,0.383c0,7.732 5.035,12.719 12.142,12.719Zm-7.876,-15.402c0.673,-4.467 3.41,-7.254 7.492,-7.254c4.129,0 6.818,2.066 7.202,7.254l-14.694,0Z" style="fill:#4a4a4a;fill-rule:nonzero;"/><path d="M786.649,157.794l3.978,0l0,-15.216c0,-4.512 3.314,-6.864 7.012,-6.864c4.033,0 5.906,1.968 5.906,6.384l0,15.696l3.978,0l0,-15.408c0,-7.295 -3.642,-10.122 -8.828,-10.122c-4.13,0 -6.915,2.061 -8.068,4.41l0,-3.978l-3.978,0l0,25.098Z" style="fill:#4a4a4a;fill-rule:nonzero;"/><path d="M822.979,158.13c1.632,0 2.592,-0.239 3.408,-0.527l0,-3.355c-0.864,0.336 -1.824,0.528 -3.072,0.528c-2.016,0 -3.12,-1.2 -3.12,-3.649l0,-15.077l5.856,0l0,-3.354l-5.856,0l0,-5.712l-3.978,0l0,5.712l-3.6,0l0,3.354l3.6,0l0,15.461c0,3.936 2.205,6.619 6.762,6.619Z" style="fill:#4a4a4a;fill-rule:nonzero;"/></g><g><path d="M548.541,392.388c7.68,-0 13.152,-3.882 14.352,-11.804l-3.888,-0c-0.864,5.569 -4.752,8.402 -10.368,8.402c-7.392,-0 -11.808,-5.281 -11.808,-14.019l-0,-0.384c-0,-8.642 4.752,-14.163 11.856,-14.163c5.856,-0 8.88,2.688 9.744,7.921l4.128,0c-0.72,-7.441 -6.768,-11.227 -13.92,-11.227c-9.312,-0 -16.122,7.339 -16.122,17.517l-0,0.384c-0,10.562 6.09,17.373 16.026,17.373Z" style="fill:#4a4a4a;fill-rule:nonzero;"/><path d="M579.216,392.388c5.666,-0 9.838,-2.635 10.701,-7.677l-3.978,-0c-0.529,2.93 -2.786,4.371 -6.675,4.371c-5.138,-0 -7.875,-3.17 -8.067,-8.886l18.912,-0l-0,-1.294c-0,-8.978 -5.467,-12.476 -11.277,-12.476c-6.915,-0 -11.757,5.275 -11.757,12.859l-0,0.384c-0,7.732 5.034,12.719 12.141,12.719Zm-7.875,-15.402c0.672,-4.468 3.409,-7.254 7.491,-7.254c4.129,-0 6.818,2.066 7.203,7.254l-14.694,-0Z" style="fill:#4a4a4a;fill-rule:nonzero;"/><path d="M596.211,391.956l3.978,-0l-0,-15.216c-0,-4.512 3.313,-6.864 7.011,-6.864c4.034,-0 5.907,1.968 5.907,6.384l-0,15.696l3.978,-0l-0,-15.408c-0,-7.295 -3.643,-10.122 -8.829,-10.122c-4.13,-0 -6.915,2.06 -8.067,4.41l-0,-3.978l-3.978,-0l-0,25.098Z" style="fill:#4a4a4a;fill-rule:nonzero;"/><path d="M632.541,392.292c1.632,-0 2.592,-0.24 3.408,-0.527l-0,-3.355c-0.864,0.336 -1.824,0.528 -3.072,0.528c-2.016,-0 -3.12,-1.201 -3.12,-3.649l-0,-15.077l5.856,-0l-0,-3.354l-5.856,-0l-0,-5.712l-3.978,-0l-0,5.712l-3.6,-0l-0,3.354l3.6,-0l-0,15.461c-0,3.936 2.204,6.619 6.762,6.619Z" style="fill:#4a4a4a;fill-rule:nonzero;"/><path d="M641.955,391.956l3.978,-0l-0,-13.776c-0,-6.192 3.216,-7.776 8.256,-8.016l-0,-3.738c-4.512,0.144 -6.672,2.108 -8.256,4.938l-0,-4.506l-3.978,-0l-0,25.098Z" style="fill:#4a4a4a;fill-rule:nonzero;"/><path d="M666.047,392.388c3.697,-0 5.955,-1.246 7.828,-3.595l-0,3.163l3.978,-0l-0,-16.556c-0,-7.01 -4.363,-8.974 -9.165,-8.974c-4.85,-0 -9.408,2.108 -9.935,7.821l3.98,0c0.384,-3.074 2.305,-4.515 5.763,-4.515c3.842,-0 5.379,1.681 5.379,5.668l-0,1.826l-3.602,-0c-6.435,-0 -12.574,1.964 -12.574,7.77c-0,5.14 3.69,7.392 8.348,7.392Zm0.384,-3.162c-3.506,-0 -4.754,-1.633 -4.754,-4.227c-0,-3.698 3.697,-4.947 8.74,-4.947l3.458,-0l-0,3.122c-0,3.89 -3.218,6.052 -7.444,6.052Z" style="fill:#4a4a4a;fill-rule:nonzero;"/><rect x="685.779" y="354.858" width="4.026" height="37.098" style="fill:#4a4a4a;fill-rule:nonzero;"/><path d="M698.067,391.956l3.978,-0l-0,-25.098l-3.978,-0l-0,25.098Zm1.917,-30.336c1.438,-0 2.637,-1.199 2.637,-2.637c-0,-1.439 -1.199,-2.637 -2.637,-2.637c-1.439,-0 -2.637,1.198 -2.637,2.637c-0,1.438 1.198,2.637 2.637,2.637Z" style="fill:#4a4a4a;fill-rule:nonzero;"/><path d="M717.984,392.388c6.097,-0 9.213,-3.067 9.213,-7.628c-0,-5.329 -3.643,-6.482 -8.829,-7.442c-4.611,-0.816 -5.859,-1.728 -5.859,-3.985c-0,-2.161 1.873,-3.601 4.754,-3.601c3.17,-0 4.707,1.2 5.283,3.937l3.836,0c-0.671,-5.423 -4.556,-7.243 -9.071,-7.243c-3.938,-0 -8.492,2.395 -8.492,7.051c-0,4.369 2.204,6.194 8.732,7.394c3.89,0.72 5.86,1.585 5.86,4.226c-0,2.688 -1.681,3.985 -5.475,3.985c-4.035,-0 -5.619,-1.873 -5.907,-4.85l-3.882,0c0.24,5.137 3.834,8.156 9.837,8.156Z" style="fill:#4a4a4a;fill-rule:nonzero;"/><path d="M743.52,392.388c5.666,-0 9.838,-2.635 10.701,-7.677l-3.978,-0c-0.529,2.93 -2.786,4.371 -6.675,4.371c-5.138,-0 -7.875,-3.17 -8.067,-8.886l18.912,-0l-0,-1.294c-0,-8.978 -5.467,-12.476 -11.277,-12.476c-6.915,-0 -11.757,5.275 -11.757,12.859l-0,0.384c-0,7.732 5.034,12.719 12.141,12.719Zm-7.875,-15.402c0.672,-4.468 3.409,-7.254 7.491,-7.254c4.129,-0 6.818,2.066 7.203,7.254l-14.694,-0Z" style="fill:#4a4a4a;fill-rule:nonzero;"/><path d="M769.967,392.388c3.65,-0 7.155,-2.3 8.596,-4.747l-0,4.315l3.978,-0l-0,-37.098l-3.978,-0l-0,16.026c-1.441,-2.446 -4.034,-4.458 -8.212,-4.458c-6.914,-0 -11.708,5.418 -11.708,13.098l-0,0.384c-0,7.829 4.746,12.48 11.324,12.48Zm0.432,-3.306c-4.225,-0 -7.634,-3.025 -7.634,-9.363l-0,-0.384c-0,-6.098 2.977,-9.603 7.971,-9.603c4.897,-0 7.97,3.025 7.97,9.459l0,0.384c0,6.434 -3.649,9.507 -8.307,9.507Z" style="fill:#4a4a4a;fill-rule:nonzero;"/><path d="M549.12,445.188c8.786,-0 14.877,-5.275 14.877,-15.215l-0,-2.539l-14.109,-0l-0,3.45l10.035,-0c-0.145,6.099 -3.361,10.95 -10.803,10.95c-8.066,-0 -12.291,-5.571 -12.291,-14.065l-0,-0.383c-0,-8.404 4.513,-14.166 12.387,-14.166c4.993,-0 8.738,2.113 9.698,7.587l4.172,-0c-1.055,-7.731 -7.149,-10.893 -13.966,-10.893c-9.843,-0 -16.605,7.483 -16.605,17.52l-0,0.383c-0,10.031 6.042,17.371 16.605,17.371Z" style="fill:#4a4a4a;fill-rule:nonzero;"/><path d="M581.184,441.882c-5.09,-0 -8.211,-3.745 -8.211,-9.459l-0,-0.384c-0,-5.762 3.169,-9.507 8.211,-9.507c4.993,-0 8.211,3.745 8.211,9.555l-0,0.336c-0,5.666 -3.17,9.459 -8.211,9.459Zm-0.048,3.306c7.154,-0 12.381,-5.227 12.381,-12.813l-0,-0.384c-0,-7.539 -5.227,-12.765 -12.333,-12.765c-7.107,-0 -12.333,5.274 -12.333,12.813l-0,0.384c-0,7.346 5.13,12.765 12.285,12.765Z" style="fill:#4a4a4a;fill-rule:nonzero;"/><path d="M605.28,444.756l5.087,-0l9.022,-25.098l-4.127,-0l-7.343,21.072l-7.438,-21.072l-4.318,-0l9.117,25.098Z" style="fill:#4a4a4a;fill-rule:nonzero;"/><path d="M634.176,445.188c5.666,-0 9.838,-2.635 10.701,-7.677l-3.978,-0c-0.529,2.93 -2.786,4.371 -6.675,4.371c-5.138,-0 -7.875,-3.17 -8.067,-8.886l18.912,-0l-0,-1.294c-0,-8.978 -5.467,-12.476 -11.277,-12.476c-6.915,-0 -11.757,5.275 -11.757,12.859l-0,0.384c-0,7.732 5.034,12.719 12.141,12.719Zm-7.875,-15.402c0.672,-4.468 3.409,-7.254 7.491,-7.254c4.129,-0 6.818,2.066 7.203,7.254l-14.694,-0Z" style="fill:#4a4a4a;fill-rule:nonzero;"/><path d="M651.171,444.756l3.978,-0l-0,-13.776c-0,-6.192 3.216,-7.776 8.256,-8.016l-0,-3.738c-4.512,0.144 -6.672,2.108 -8.256,4.938l-0,-4.506l-3.978,-0l-0,25.098Z" style="fill:#4a4a4a;fill-rule:nonzero;"/><path d="M669.219,444.756l3.978,-0l-0,-15.216c-0,-4.512 3.313,-6.864 7.011,-6.864c4.034,-0 5.907,1.968 5.907,6.384l-0,15.696l3.978,-0l-0,-15.408c-0,-7.295 -3.643,-10.122 -8.829,-10.122c-4.13,-0 -6.915,2.06 -8.067,4.41l-0,-3.978l-3.978,-0l-0,25.098Z" style="fill:#4a4a4a;fill-rule:nonzero;"/><path d="M704.207,445.188c3.697,-0 5.955,-1.246 7.828,-3.595l-0,3.163l3.978,-0l-0,-16.556c-0,-7.01 -4.363,-8.974 -9.165,-8.974c-4.85,-0 -9.408,2.108 -9.935,7.821l3.98,0c0.384,-3.074 2.305,-4.515 5.763,-4.515c3.842,-0 5.379,1.681 5.379,5.668l-0,1.826l-3.602,-0c-6.435,-0 -12.574,1.964 -12.574,7.77c-0,5.14 3.69,7.392 8.348,7.392Zm0.384,-3.162c-3.506,-0 -4.754,-1.633 -4.754,-4.227c-0,-3.698 3.697,-4.947 8.74,-4.947l3.458,-0l-0,3.122c-0,3.89 -3.218,6.052 -7.444,6.052Z" style="fill:#4a4a4a;fill-rule:nonzero;"/><path d="M723.843,444.756l3.978,-0l-0,-15.216c-0,-4.512 3.313,-6.864 7.011,-6.864c4.034,-0 5.907,1.968 5.907,6.384l-0,15.696l3.978,-0l-0,-15.408c-0,-7.295 -3.643,-10.122 -8.829,-10.122c-4.13,-0 -6.915,2.06 -8.067,4.41l-0,-3.978l-3.978,-0l-0,25.098Z" style="fill:#4a4a4a;fill-rule:nonzero;"/><path d="M762.957,445.188c6.048,-0 10.416,-4.026 10.944,-9.452l-3.696,-0c-0.432,4.081 -3.648,6.146 -7.2,6.146c-4.848,-0 -8.208,-3.265 -8.208,-9.411l-0,-0.384c-0,-5.906 3.504,-9.555 8.064,-9.555c3.456,-0 6.336,1.488 6.96,5.474l3.936,-0c-0.768,-6.385 -5.664,-8.78 -10.896,-8.78c-6.72,-0 -12.186,5.178 -12.186,12.861l-0,0.384c-0,7.778 5.274,12.717 12.282,12.717Z" style="fill:#4a4a4a;fill-rule:nonzero;"/><path d="M790.176,445.188c5.666,-0 9.838,-2.635 10.701,-7.677l-3.978,-0c-0.529,2.93 -2.786,4.371 -6.675,4.371c-5.138,-0 -7.875,-3.17 -8.067,-8.886l18.912,-0l-0,-1.294c-0,-8.978 -5.467,-12.476 -11.277,-12.476c-6.915,-0 -11.757,5.275 -11.757,12.859l-0,0.384c-0,7.732 5.034,12.719 12.141,12.719Zm-7.875,-15.402c0.672,-4.468 3.409,-7.254 7.491,-7.254c4.129,-0 6.818,2.066 7.203,7.254l-14.694,-0Z" style="fill:#4a4a4a;fill-rule:nonzero;"/></g><ellipse cx="289.263" cy="256.434" rx="108.645" ry="106.694" style="fill:#092168;"/><ellipse cx="493.542" cy="122.416" rx="26.673" ry="24.722" style="fill:#092168;"/><ellipse cx="488.337" cy="396.957" rx="26.673" ry="24.722" style="fill:#092168;"/><ellipse cx="288.023" cy="217.376" rx="22.26" ry="20.794" style="fill:#fff;"/><path d="M286.66,235.724c29.084,-0 52.697,20.827 52.697,46.481c-0,25.654 -105.393,25.654 -105.393,0c0,-25.654 23.612,-46.481 52.696,-46.481Z" style="fill:#fff;"/><path d="M475.473,129.631l-93.592,76.701l7.422,9.057l93.593,-76.701l-7.423,-9.057Z" style="fill:#092168;"/><path d="M470.244,381.965l-97.386,-71.822l-6.951,9.425l97.386,71.822l6.951,-9.425Z" style="fill:#092168;"/></svg>