<?xml version="1.0" encoding="UTF-8" standalone="no"?><!DOCTYPE svg PUBLIC "-//W3C//DTD SVG 1.1//EN" "http://www.w3.org/Graphics/SVG/1.1/DTD/svg11.dtd"><svg width="100%" height="100%" viewBox="0 0 1572 619" version="1.1" xmlns="http://www.w3.org/2000/svg" xmlns:xlink="http://www.w3.org/1999/xlink" xml:space="preserve" xmlns:serif="http://www.serif.com/" style="fill-rule:evenodd;clip-rule:evenodd;stroke-linejoin:round;stroke-miterlimit:2;"><path d="M390.45,337.236l-0,-175.257c96.802,0 175.272,78.466 175.272,175.257c0,96.79 -78.47,175.256 -175.272,175.256c-62.618,-0 -182.894,-53.537 -173.937,-176.212l173.937,0.956Z" style="fill:#e3dacb;fill-opacity:0.52;"/><g><path d="M519.987,207.704c-33.155,-33.147 -78.945,-53.65 -129.537,-53.65c-50.584,-0 -96.382,20.503 -129.529,53.65c-33.147,33.148 -53.65,78.945 -53.65,129.532c0,50.586 20.503,96.384 53.65,129.531c33.147,33.147 78.945,53.652 129.529,53.652c50.592,-0 96.382,-20.505 129.537,-53.652c33.147,-33.147 53.65,-78.945 53.65,-129.531c-0,-50.587 -20.503,-96.384 -53.65,-129.532Zm-129.537,-85.56c59.393,-0 113.17,24.076 152.092,63c38.93,38.925 63.005,92.698 63.005,152.092c0,59.393 -24.075,113.166 -63.005,152.092c-38.922,38.925 -92.699,63.001 -152.092,63.001c-59.393,-0 -113.162,-24.076 -152.092,-63.001c-38.922,-38.926 -62.998,-92.699 -62.998,-152.092c0,-59.394 24.076,-113.167 62.998,-152.092c38.93,-38.924 92.699,-63 152.092,-63Z" style="fill:#e84249;"/><path d="M408.798,97.277l-0,27.98l-36.696,0l-0,-27.98l-15.615,-0c-5.221,-0 -9.491,-4.27 -9.491,-9.488l0,-16.378c0,-5.219 4.27,-9.488 9.491,-9.488l67.934,0c5.22,0 9.483,4.269 9.483,9.488l-0,16.378c-0,5.216 -4.271,9.488 -9.483,9.488l-15.623,-0Z" style="fill:#e84249;"/><path d="M567.172,132.188l32.87,32.87c2.527,2.523 2.527,6.654 -0,9.179l-7.923,7.924c-2.527,2.524 -6.655,2.524 -9.182,0l-32.869,-32.868c-2.519,-2.525 -2.519,-6.657 -0,-9.18l7.922,-7.925c2.527,-2.523 6.663,-2.523 9.182,0Z" style="fill:#e84249;"/><path d="M565.722,155.601l11.995,11.992c0.919,0.92 0.919,2.428 -0,3.349l-30.628,30.624c-0.919,0.919 -2.424,0.921 -3.343,0l-11.994,-11.992c-0.919,-0.921 -0.919,-2.426 -0,-3.349l30.627,-30.624c0.919,-0.922 2.424,-0.919 3.343,0Z" style="fill:#e84249;"/></g><path d="M304.652,184.398l12.105,20.973l-3.676,2.129l-12.105,-20.974l3.676,-2.128Zm-64.931,63.381l20.978,12.111l-2.131,3.673l-20.978,-12.111l2.131,-3.673Zm-24.543,87.356l24.218,-0.001l-0,4.236l-24.218,0.002l-0,-4.237Zm22.42,87.916l20.97,-12.108l2.131,3.673l-20.978,12.109l-2.123,-3.674Zm63.378,64.929l12.113,-20.975l3.676,2.128l-12.113,20.975l-3.676,-2.128Zm87.359,24.545l-0,-24.219l4.238,0l0,24.219l-4.238,-0Zm87.913,-22.419l-12.105,-20.973l3.668,-2.128l12.113,20.973l-3.676,2.128Zm64.931,-63.381l-20.978,-12.111l2.131,-3.672l20.978,12.109l-2.131,3.674Zm24.543,-87.357l-24.218,0.002l-0,-4.236l24.218,-0.002l0,4.236Zm-22.412,-87.916l-20.978,12.11l-2.131,-3.674l20.978,-12.109l2.131,3.673Zm-63.394,-64.929l-12.105,20.974l-3.676,-2.128l12.113,-20.974l3.668,2.128Zm-87.335,-24.544l-0,24.218l-4.254,-0l-0,-24.218l4.254,0Z" style="fill:#030404;"/><path d="M376.728,337.238c0,7.579 6.148,13.723 13.722,13.723c7.582,0 13.729,-6.144 13.729,-13.723c0,-7.581 -6.147,-13.727 -13.729,-13.727c-7.574,0 -13.722,6.146 -13.722,13.727Z" style="fill:#696275;"/><path d="M390.45,206.023l13.484,131.215l-26.96,0l13.476,-131.215Z" style="fill:#696275;"/><g><path d="M687.711,253.681c4.244,-0 7.348,-3.294 7.348,-7.348c-0,-4.054 -3.104,-7.348 -7.348,-7.348c-4.181,-0 -7.348,3.294 -7.348,7.348c0,4.054 3.167,7.348 7.348,7.348Z" style="fill:#4a4a4a;fill-rule:nonzero;"/><path d="M730.361,266.293c10.14,-0 17.365,-5.126 18.95,-15.586l-5.134,0c-1.141,7.354 -6.274,11.094 -13.69,11.094c-9.76,-0 -15.591,-6.973 -15.591,-18.511l0,-0.507c0,-11.41 6.275,-18.7 15.655,-18.7c7.732,-0 11.725,3.55 12.865,10.459l5.451,0c-0.951,-9.825 -8.936,-14.824 -18.38,-14.824c-12.295,-0 -21.287,9.69 -21.287,23.129l0,0.507c0,13.946 8.041,22.939 21.161,22.939Z" style="fill:#4a4a4a;fill-rule:nonzero;"/><path d="M771.117,261.928c-6.721,-0 -10.842,-4.945 -10.842,-12.49l0,-0.507c0,-7.608 4.185,-12.553 10.842,-12.553c6.593,0 10.841,4.945 10.841,12.617l0,0.443c0,7.481 -4.184,12.49 -10.841,12.49Zm-0.064,4.365c9.447,-0 16.348,-6.901 16.348,-16.918l-0,-0.507c-0,-9.954 -6.901,-16.855 -16.284,-16.855c-9.384,0 -16.285,6.965 -16.285,16.918l0,0.507c0,9.7 6.774,16.855 16.221,16.855Z" style="fill:#4a4a4a;fill-rule:nonzero;"/><path d="M808.066,266.293c4.818,-0 9.447,-3.037 11.349,-6.267l-0,5.696l5.252,0l0,-48.983l-5.252,-0l-0,21.16c-1.902,-3.229 -5.326,-5.886 -10.842,-5.886c-9.13,0 -15.46,7.154 -15.46,17.294l-0,0.507c-0,10.338 6.267,16.479 14.953,16.479Zm0.57,-4.365c-5.579,-0 -10.081,-3.994 -10.081,-12.363l0,-0.507c0,-8.052 3.931,-12.68 10.525,-12.68c6.467,0 10.525,3.994 10.525,12.49l-0,0.507c-0,8.495 -4.819,12.553 -10.969,12.553Z" style="fill:#4a4a4a;fill-rule:nonzero;"/><path d="M848.882,266.293c7.482,-0 12.99,-3.48 14.129,-10.137l-5.252,0c-0.698,3.869 -3.678,5.772 -8.814,5.772c-6.784,-0 -10.398,-4.186 -10.651,-11.733l24.971,-0l-0,-1.708c-0,-11.855 -7.218,-16.474 -14.89,-16.474c-9.13,0 -15.524,6.966 -15.524,16.98l-0,0.506c-0,10.209 6.647,16.794 16.031,16.794Zm-10.398,-20.337c0.887,-5.899 4.501,-9.578 9.891,-9.578c5.453,0 9.003,2.728 9.51,9.578l-19.401,0Z" style="fill:#4a4a4a;fill-rule:nonzero;"/><rect x="871.448" y="216.739" width="5.316" height="48.983" style="fill:#4a4a4a;fill-rule:nonzero;"/><path d="M901.106,266.293c7.481,-0 12.99,-3.48 14.129,-10.137l-5.253,0c-0.697,3.869 -3.677,5.772 -8.813,5.772c-6.784,-0 -10.398,-4.186 -10.652,-11.733l24.971,-0l0,-1.708c0,-11.855 -7.218,-16.474 -14.89,-16.474c-9.13,0 -15.523,6.966 -15.523,16.98l-0,0.506c-0,10.209 6.647,16.794 16.031,16.794Zm-10.399,-20.337c0.888,-5.899 4.502,-9.578 9.891,-9.578c5.453,0 9.004,2.728 9.511,9.578l-19.402,0Z" style="fill:#4a4a4a;fill-rule:nonzero;"/><path d="M934.125,266.293c8.052,-0 12.165,-4.049 12.165,-10.071c-0,-7.037 -4.809,-8.559 -11.657,-9.827c-6.088,-1.078 -7.737,-2.282 -7.737,-5.262c0,-2.853 2.473,-4.755 6.278,-4.755c4.185,0 6.215,1.585 6.976,5.199l5.064,0c-0.886,-7.16 -6.016,-9.564 -11.976,-9.564c-5.2,0 -11.214,3.163 -11.214,9.31c0,5.77 2.911,8.179 11.531,9.764c5.136,0.951 7.736,2.092 7.736,5.579c0,3.55 -2.219,5.262 -7.229,5.262c-5.327,-0 -7.419,-2.473 -7.798,-6.404l-5.127,0c0.317,6.783 5.063,10.769 12.988,10.769Z" style="fill:#4a4a4a;fill-rule:nonzero;"/><path d="M964.547,266.293c8.051,-0 12.164,-4.049 12.164,-10.071c0,-7.037 -4.809,-8.559 -11.657,-9.827c-6.087,-1.078 -7.736,-2.282 -7.736,-5.262c-0,-2.853 2.473,-4.755 6.278,-4.755c4.185,0 6.214,1.585 6.975,5.199l5.065,0c-0.886,-7.16 -6.016,-9.564 -11.977,-9.564c-5.2,0 -11.213,3.163 -11.213,9.31c-0,5.77 2.91,8.179 11.53,9.764c5.137,0.951 7.737,2.092 7.737,5.579c-0,3.55 -2.22,5.262 -7.23,5.262c-5.326,-0 -7.418,-2.473 -7.798,-6.404l-5.127,0c0.317,6.783 5.064,10.769 12.989,10.769Z" style="fill:#4a4a4a;fill-rule:nonzero;"/><path d="M1015.25,266.293c7.986,-0 13.753,-5.316 14.451,-12.48l-4.88,-0c-0.571,5.389 -4.817,8.115 -9.507,8.115c-6.401,-0 -10.838,-4.311 -10.838,-12.426l0,-0.507c0,-7.798 4.627,-12.617 10.648,-12.617c4.563,0 8.366,1.966 9.19,7.228l5.197,-0c-1.015,-8.43 -7.479,-11.593 -14.387,-11.593c-8.873,0 -16.09,6.838 -16.09,16.982l-0,0.507c-0,10.27 6.963,16.791 16.216,16.791Z" style="fill:#4a4a4a;fill-rule:nonzero;"/><path d="M1037.63,265.722l5.252,0l0,-18.189c0,-8.176 4.247,-10.267 10.901,-10.584l0,-4.936c-5.957,0.19 -8.809,2.784 -10.901,6.52l0,-5.949l-5.252,-0l-0,33.138Z" style="fill:#4a4a4a;fill-rule:nonzero;"/><path d="M1074.07,266.293c7.481,-0 12.99,-3.48 14.129,-10.137l-5.253,0c-0.697,3.869 -3.677,5.772 -8.813,5.772c-6.784,-0 -10.398,-4.186 -10.652,-11.733l24.971,-0l0,-1.708c0,-11.855 -7.218,-16.474 -14.889,-16.474c-9.131,0 -15.524,6.966 -15.524,16.98l-0,0.506c-0,10.209 6.647,16.794 16.031,16.794Zm-10.399,-20.337c0.888,-5.899 4.502,-9.578 9.892,-9.578c5.452,0 9.003,2.728 9.51,9.578l-19.402,0Z" style="fill:#4a4a4a;fill-rule:nonzero;"/><path d="M1105.12,266.293c4.883,-0 7.863,-1.645 10.336,-4.746l0,4.175l5.253,0l-0,-21.859c-0,-9.256 -5.76,-11.85 -12.101,-11.85c-6.404,0 -12.422,2.784 -13.118,10.328l5.255,-0c0.508,-4.06 3.044,-5.963 7.609,-5.963c5.073,0 7.102,2.22 7.102,7.485l0,2.41l-4.756,0c-8.496,0 -16.602,2.593 -16.602,10.26c-0,6.787 4.873,9.76 11.022,9.76Zm0.508,-4.175c-4.629,-0 -6.278,-2.157 -6.278,-5.581c0,-4.884 4.883,-6.532 11.541,-6.532l4.565,-0l0,4.122c0,5.137 -4.248,7.991 -9.828,7.991Z" style="fill:#4a4a4a;fill-rule:nonzero;"/><path d="M1141.11,266.166c2.155,0 3.423,-0.316 4.5,-0.696l0,-4.43c-1.14,0.444 -2.408,0.697 -4.056,0.697c-2.662,0 -4.119,-1.584 -4.119,-4.818l-0,-19.907l7.732,0l-0,-4.428l-7.732,-0l-0,-7.542l-5.253,-0l0,7.542l-4.753,-0l-0,4.428l4.753,0l0,20.414c0,5.197 2.911,8.74 8.928,8.74Z" style="fill:#4a4a4a;fill-rule:nonzero;"/><path d="M1153.67,265.722l5.253,0l-0,-33.138l-5.253,-0l0,33.138Zm2.531,-40.055c1.9,0 3.482,-1.582 3.482,-3.481c0,-1.9 -1.582,-3.482 -3.482,-3.482c-1.899,-0 -3.481,1.582 -3.481,3.482c-0,1.899 1.582,3.481 3.481,3.481Z" style="fill:#4a4a4a;fill-rule:nonzero;"/><path d="M1183.52,261.928c-6.72,-0 -10.841,-4.945 -10.841,-12.49l-0,-0.507c-0,-7.608 4.184,-12.553 10.841,-12.553c6.594,0 10.842,4.945 10.842,12.617l0,0.443c0,7.481 -4.184,12.49 -10.842,12.49Zm-0.063,4.365c9.447,-0 16.348,-6.901 16.348,-16.918l-0,-0.507c-0,-9.954 -6.901,-16.855 -16.285,-16.855c-9.383,0 -16.284,6.965 -16.284,16.918l0,0.507c0,9.7 6.774,16.855 16.221,16.855Z" style="fill:#4a4a4a;fill-rule:nonzero;"/><path d="M1207.99,265.722l5.253,0l-0,-20.091c-0,-5.957 4.375,-9.063 9.257,-9.063c5.326,0 7.799,2.599 7.799,8.43l0,20.724l5.253,0l-0,-20.344c-0,-9.632 -4.81,-13.365 -11.657,-13.365c-5.453,0 -9.13,2.721 -10.652,5.823l-0,-5.252l-5.253,-0l0,33.138Z" style="fill:#4a4a4a;fill-rule:nonzero;"/><path d="M687.711,332.903c4.244,0 7.348,-3.294 7.348,-7.348c-0,-4.054 -3.104,-7.348 -7.348,-7.348c-4.181,0 -7.348,3.294 -7.348,7.348c0,4.054 3.167,7.348 7.348,7.348Z" style="fill:#4a4a4a;fill-rule:nonzero;"/><path d="M707.996,344.945l5.196,0l4.372,-13.056l18.693,0l4.435,13.056l5.45,0l-15.335,-45.307l-7.223,-0l-15.588,45.307Zm18.946,-40.752l7.857,23.331l-15.714,0l7.857,-23.331Z" style="fill:#4a4a4a;fill-rule:nonzero;"/><path d="M764.017,345.515c5.327,0 9.004,-2.72 10.526,-5.822l0,5.252l5.253,0l-0,-33.139l-5.253,0l0,20.086c0,5.963 -4.439,9.068 -9.131,9.068c-5.199,0 -7.672,-2.598 -7.672,-8.429l-0,-20.725l-5.253,0l0,20.978c0,9.125 4.936,12.731 11.53,12.731Z" style="fill:#4a4a4a;fill-rule:nonzero;"/><path d="M800.52,345.389c2.155,-0 3.423,-0.317 4.5,-0.696l0,-4.43c-1.141,0.444 -2.408,0.697 -4.056,0.697c-2.662,0 -4.12,-1.585 -4.12,-4.818l0,-19.907l7.732,-0l0,-4.429l-7.732,0l0,-7.542l-5.252,0l-0,7.542l-4.754,0l0,4.429l4.754,-0l-0,20.414c-0,5.197 2.911,8.74 8.928,8.74Z" style="fill:#4a4a4a;fill-rule:nonzero;"/><path d="M826.763,341.15c-6.721,0 -10.842,-4.945 -10.842,-12.489l0,-0.507c0,-7.608 4.185,-12.553 10.842,-12.553c6.593,-0 10.841,4.945 10.841,12.616l0,0.444c0,7.481 -4.184,12.489 -10.841,12.489Zm-0.064,4.365c9.447,0 16.348,-6.901 16.348,-16.917l-0,-0.508c-0,-9.953 -6.901,-16.854 -16.284,-16.854c-9.384,-0 -16.285,6.964 -16.285,16.918l0,0.507c0,9.7 6.775,16.854 16.221,16.854Z" style="fill:#4a4a4a;fill-rule:nonzero;"/><path d="M851.231,344.945l5.252,0l0,-20.281c0,-5.957 4.439,-8.873 8.751,-8.873c4.565,0 7.038,2.409 7.038,8.239l0,20.915l5.253,0l-0,-20.281c-0,-5.957 4.438,-8.873 8.75,-8.873c4.566,0 7.039,2.409 7.039,8.239l-0,20.915l5.252,0l0,-20.534c0,-9.632 -5.189,-13.175 -11.149,-13.175c-4.122,-0 -9.068,1.898 -11.348,6.203c-1.708,-4.432 -5.445,-6.203 -9.694,-6.203c-4.756,-0 -8.37,2.531 -9.892,5.633l0,-5.063l-5.252,0l-0,33.139Z" style="fill:#4a4a4a;fill-rule:nonzero;"/><path d="M917.202,345.515c4.883,0 7.863,-1.644 10.336,-4.745l-0,4.175l5.252,0l0,-21.859c0,-9.256 -5.759,-11.85 -12.1,-11.85c-6.405,-0 -12.422,2.783 -13.118,10.327l5.255,0c0.507,-4.059 3.044,-5.962 7.609,-5.962c5.073,-0 7.102,2.22 7.102,7.485l-0,2.41l-4.756,-0c-8.497,-0 -16.602,2.593 -16.602,10.259c-0,6.787 4.872,9.76 11.022,9.76Zm0.507,-4.175c-4.628,0 -6.277,-2.156 -6.277,-5.58c-0,-4.884 4.882,-6.533 11.54,-6.533l4.566,0l-0,4.123c-0,5.137 -4.249,7.99 -9.829,7.99Z" style="fill:#4a4a4a;fill-rule:nonzero;"/><path d="M953.198,345.389c2.155,-0 3.423,-0.317 4.5,-0.696l0,-4.43c-1.141,0.444 -2.408,0.697 -4.056,0.697c-2.662,0 -4.12,-1.585 -4.12,-4.818l0,-19.907l7.732,-0l0,-4.429l-7.732,0l0,-7.542l-5.252,0l-0,7.542l-4.754,0l0,4.429l4.754,-0l-0,20.414c-0,5.197 2.911,8.74 8.928,8.74Z" style="fill:#4a4a4a;fill-rule:nonzero;"/><path d="M979.188,345.515c7.481,0 12.99,-3.479 14.129,-10.136l-5.253,0c-0.697,3.869 -3.677,5.771 -8.813,5.771c-6.784,0 -10.398,-4.185 -10.652,-11.733l24.971,0l0,-1.708c0,-11.854 -7.218,-16.473 -14.89,-16.473c-9.13,-0 -15.524,6.966 -15.524,16.979l0,0.507c0,10.209 6.648,16.793 16.032,16.793Zm-10.399,-20.336c0.888,-5.899 4.502,-9.578 9.891,-9.578c5.453,-0 9.004,2.728 9.511,9.578l-19.402,0Z" style="fill:#4a4a4a;fill-rule:nonzero;"/><path d="M1014.11,345.515c4.819,0 9.447,-3.036 11.349,-6.267l0,5.697l5.253,0l-0,-48.983l-5.253,-0l0,21.16c-1.902,-3.229 -5.326,-5.886 -10.842,-5.886c-9.129,-0 -15.46,7.154 -15.46,17.294l0,0.507c0,10.338 6.267,16.478 14.953,16.478Zm0.571,-4.365c-5.58,0 -10.081,-3.994 -10.081,-12.362l-0,-0.507c-0,-8.052 3.931,-12.68 10.525,-12.68c6.467,-0 10.524,3.994 10.524,12.489l0,0.508c0,8.495 -4.818,12.552 -10.968,12.552Z" style="fill:#4a4a4a;fill-rule:nonzero;"/><path d="M1068.42,345.515c8.051,0 12.164,-4.048 12.164,-10.07c0,-7.038 -4.809,-8.559 -11.657,-9.827c-6.088,-1.078 -7.736,-2.282 -7.736,-5.262c-0,-2.853 2.473,-4.755 6.277,-4.755c4.186,-0 6.215,1.585 6.976,5.199l5.065,-0c-0.886,-7.16 -6.016,-9.564 -11.977,-9.564c-5.2,-0 -11.214,3.163 -11.214,9.31c0,5.769 2.911,8.178 11.531,9.763c5.136,0.951 7.736,2.092 7.736,5.579c0,3.551 -2.219,5.262 -7.229,5.262c-5.326,0 -7.418,-2.472 -7.798,-6.403l-5.127,0c0.317,6.783 5.064,10.768 12.989,10.768Z" style="fill:#4a4a4a;fill-rule:nonzero;"/><path d="M1102.33,345.515c7.986,0 13.753,-5.316 14.45,-12.48l-4.88,0c-0.57,5.389 -4.817,8.115 -9.507,8.115c-6.401,0 -10.837,-4.311 -10.837,-12.426l-0,-0.507c-0,-7.798 4.626,-12.616 10.647,-12.616c4.564,-0 8.366,1.965 9.19,7.227l5.197,0c-1.014,-8.429 -7.478,-11.592 -14.387,-11.592c-8.873,-0 -16.09,6.838 -16.09,16.981l0,0.507c0,10.271 6.964,16.791 16.217,16.791Z" style="fill:#4a4a4a;fill-rule:nonzero;"/><path d="M1124.71,344.945l5.253,0l-0,-20.091c-0,-5.957 4.375,-9.063 9.257,-9.063c5.327,0 7.8,2.599 7.8,8.429l-0,20.725l5.252,0l0,-20.344c0,-9.632 -4.809,-13.365 -11.657,-13.365c-5.453,-0 -9.13,2.72 -10.652,5.823l-0,-21.097l-5.253,-0l0,48.983Z" style="fill:#4a4a4a;fill-rule:nonzero;"/><path d="M1176.17,345.515c7.482,0 12.99,-3.479 14.129,-10.136l-5.252,0c-0.698,3.869 -3.678,5.771 -8.814,5.771c-6.784,0 -10.398,-4.185 -10.652,-11.733l24.971,0l0,-1.708c0,-11.854 -7.217,-16.473 -14.889,-16.473c-9.13,-0 -15.524,6.966 -15.524,16.979l-0,0.507c-0,10.209 6.647,16.793 16.031,16.793Zm-10.398,-20.336c0.887,-5.899 4.501,-9.578 9.891,-9.578c5.453,-0 9.003,2.728 9.51,9.578l-19.401,0Z" style="fill:#4a4a4a;fill-rule:nonzero;"/><path d="M1211.09,345.515c4.818,0 9.447,-3.036 11.349,-6.267l-0,5.697l5.252,0l0,-48.983l-5.252,-0l-0,21.16c-1.902,-3.229 -5.326,-5.886 -10.842,-5.886c-9.13,-0 -15.46,7.154 -15.46,17.294l-0,0.507c-0,10.338 6.266,16.478 14.953,16.478Zm0.57,-4.365c-5.579,0 -10.081,-3.994 -10.081,-12.362l0,-0.507c0,-8.052 3.931,-12.68 10.525,-12.68c6.467,-0 10.524,3.994 10.524,12.489l0,0.508c0,8.495 -4.818,12.552 -10.968,12.552Z" style="fill:#4a4a4a;fill-rule:nonzero;"/><path d="M1249.56,345.515c5.326,0 9.003,-2.72 10.525,-5.822l0,5.252l5.253,0l-0,-33.139l-5.253,0l0,20.086c0,5.963 -4.438,9.068 -9.131,9.068c-5.199,0 -7.672,-2.598 -7.672,-8.429l0,-20.725l-5.252,0l-0,20.978c-0,9.125 4.936,12.731 11.53,12.731Z" style="fill:#4a4a4a;fill-rule:nonzero;"/><rect x="1276.12" y="295.962" width="5.316" height="48.983" style="fill:#4a4a4a;fill-rule:nonzero;"/><path d="M1292.34,344.945l5.252,0l0,-33.139l-5.252,0l-0,33.139Zm2.531,-40.055c1.899,0 3.482,-1.583 3.482,-3.482c-0,-1.899 -1.583,-3.482 -3.482,-3.482c-1.899,0 -3.482,1.583 -3.482,3.482c0,1.899 1.583,3.482 3.482,3.482Z" style="fill:#4a4a4a;fill-rule:nonzero;"/><path d="M1308.38,344.945l5.253,0l-0,-20.091c-0,-5.957 4.375,-9.063 9.257,-9.063c5.327,0 7.8,2.599 7.8,8.429l-0,20.725l5.252,0l-0,-20.344c-0,-9.632 -4.81,-13.365 -11.657,-13.365c-5.453,-0 -9.13,2.72 -10.652,5.823l-0,-5.253l-5.253,0l0,33.139Z" style="fill:#4a4a4a;fill-rule:nonzero;"/><path d="M1359.52,357.05c9.256,0 15.777,-4.682 15.84,-14.321l0,-30.923l-5.252,0l-0,5.316c-1.902,-3.229 -5.326,-5.886 -10.842,-5.886c-9.13,-0 -15.46,7.471 -15.46,16.474l-0,0.444c-0,9.13 6.393,15.714 15.08,15.714c4.818,-0 9.32,-3.037 11.222,-6.267l-0,4.812c-0,7.1 -4.121,10.209 -10.652,10.209c-5.643,-0 -8.813,-1.967 -9.574,-5.773l-5.38,0c0.886,5.582 5.19,10.201 15.018,10.201Zm-0.064,-17.548c-5.579,0 -10.208,-4.311 -10.208,-11.538l0,-0.507c0,-6.974 3.931,-11.856 10.525,-11.856c6.467,-0 10.525,4.311 10.525,11.729l-0,0.444c-0,7.417 -4.692,11.728 -10.842,11.728Z" style="fill:#4a4a4a;fill-rule:nonzero;"/><path d="M687.711,412.126c4.244,-0 7.348,-3.294 7.348,-7.348c-0,-4.054 -3.104,-7.348 -7.348,-7.348c-4.181,0 -7.348,3.294 -7.348,7.348c0,4.054 3.167,7.348 7.348,7.348Z" style="fill:#4a4a4a;fill-rule:nonzero;"/><path d="M716.924,419.676l0,-36.387l6.15,-0c12.49,-0 17.562,7.353 17.562,17.813l-0,0.507c-0,11.094 -5.833,18.067 -17.498,18.067l-6.214,-0Zm-5.506,4.492l11.846,-0c15.85,-0 23.068,-9.944 23.068,-22.495l-0,-0.571c-0,-12.615 -7.345,-22.242 -22.941,-22.242l-11.973,0l0,45.308Z" style="fill:#4a4a4a;fill-rule:nonzero;"/><path d="M768.709,424.738c7.481,0 12.99,-3.479 14.129,-10.136l-5.253,-0c-0.697,3.868 -3.677,5.771 -8.813,5.771c-6.784,0 -10.398,-4.186 -10.652,-11.733l24.971,0l0,-1.708c0,-11.855 -7.218,-16.473 -14.89,-16.473c-9.13,-0 -15.523,6.965 -15.523,16.979l-0,0.506c-0,10.209 6.647,16.794 16.031,16.794Zm-10.399,-20.336c0.888,-5.899 4.502,-9.578 9.891,-9.578c5.453,-0 9.004,2.727 9.511,9.578l-19.402,-0Z" style="fill:#4a4a4a;fill-rule:nonzero;"/><path d="M791.148,435.703l5.253,-0l-0,-16.978c1.902,3.293 5.769,6.013 11.222,6.013c9.13,0 15.08,-6.964 15.08,-17.108l-0,-0.507c-0,-10.334 -6.394,-16.664 -15.08,-16.664c-4.819,-0 -9.32,2.91 -11.222,6.14l-0,-5.57l-5.253,-0l0,44.674Zm15.968,-15.33c-6.467,0 -10.905,-3.993 -10.905,-12.485l-0,-0.507c-0,-8.5 4.691,-12.557 10.841,-12.557c5.58,-0 10.208,4.184 10.208,12.553l-0,0.507c-0,8.053 -3.551,12.489 -10.144,12.489Z" style="fill:#4a4a4a;fill-rule:nonzero;"/><rect x="831.013" y="375.184" width="5.316" height="48.983" style="fill:#4a4a4a;fill-rule:nonzero;"/><path d="M860.924,420.373c-6.721,0 -10.842,-4.945 -10.842,-12.489l-0,-0.507c-0,-7.608 4.184,-12.553 10.842,-12.553c6.593,-0 10.841,4.945 10.841,12.616l0,0.444c0,7.481 -4.184,12.489 -10.841,12.489Zm-0.064,4.365c9.447,0 16.348,-6.901 16.348,-16.918l-0,-0.507c-0,-9.953 -6.901,-16.854 -16.284,-16.854c-9.384,-0 -16.285,6.964 -16.285,16.918l0,0.507c0,9.7 6.774,16.854 16.221,16.854Z" style="fill:#4a4a4a;fill-rule:nonzero;"/><path d="M887.418,435.703l5.322,-0l18.312,-44.674l-5.386,-0l-9.187,23.763l-10.138,-23.763l-5.64,-0l12.99,29.719l-6.273,14.955Z" style="fill:#4a4a4a;fill-rule:nonzero;"/><path d="M917.968,424.168l5.252,-0l0,-20.281c0,-5.958 4.439,-8.873 8.751,-8.873c4.565,-0 7.038,2.408 7.038,8.239l0,20.915l5.253,-0l-0,-20.281c-0,-5.958 4.439,-8.873 8.75,-8.873c4.566,-0 7.039,2.408 7.039,8.239l-0,20.915l5.252,-0l0,-20.535c0,-9.631 -5.189,-13.174 -11.149,-13.174c-4.122,-0 -9.068,1.898 -11.348,6.203c-1.708,-4.432 -5.445,-6.203 -9.694,-6.203c-4.755,-0 -8.37,2.53 -9.892,5.632l0,-5.062l-5.252,-0l-0,33.139Z" style="fill:#4a4a4a;fill-rule:nonzero;"/><path d="M989.201,424.738c7.482,0 12.991,-3.479 14.13,-10.136l-5.253,-0c-0.697,3.868 -3.677,5.771 -8.813,5.771c-6.784,0 -10.399,-4.186 -10.652,-11.733l24.971,0l-0,-1.708c-0,-11.855 -7.218,-16.473 -14.89,-16.473c-9.13,-0 -15.524,6.965 -15.524,16.979l0,0.506c0,10.209 6.648,16.794 16.031,16.794Zm-10.398,-20.336c0.888,-5.899 4.502,-9.578 9.891,-9.578c5.453,-0 9.004,2.727 9.511,9.578l-19.402,-0Z" style="fill:#4a4a4a;fill-rule:nonzero;"/><path d="M1011.64,424.168l5.252,-0l0,-20.091c0,-5.958 4.375,-9.063 9.258,-9.063c5.326,-0 7.799,2.598 7.799,8.429l-0,20.725l5.252,-0l0,-20.345c0,-9.632 -4.809,-13.364 -11.656,-13.364c-5.453,-0 -9.131,2.72 -10.653,5.822l0,-5.252l-5.252,-0l-0,33.139Z" style="fill:#4a4a4a;fill-rule:nonzero;"/><path d="M1059.61,424.611c2.155,0 3.423,-0.316 4.5,-0.695l0,-4.43c-1.141,0.443 -2.408,0.697 -4.056,0.697c-2.662,-0 -4.12,-1.585 -4.12,-4.818l0,-19.908l7.732,0l0,-4.428l-7.732,-0l0,-7.542l-5.252,-0l-0,7.542l-4.754,-0l0,4.428l4.754,0l-0,20.415c-0,5.197 2.911,8.739 8.928,8.739Z" style="fill:#4a4a4a;fill-rule:nonzero;"/><path d="M1102.58,424.738c7.985,0 13.753,-5.316 14.45,-12.48l-4.88,0c-0.571,5.389 -4.817,8.115 -9.507,8.115c-6.401,0 -10.838,-4.311 -10.838,-12.426l0,-0.507c0,-7.798 4.627,-12.616 10.648,-12.616c4.563,-0 8.366,1.965 9.19,7.227l5.197,0c-1.014,-8.429 -7.479,-11.592 -14.387,-11.592c-8.873,-0 -16.09,6.837 -16.09,16.981l-0,0.507c-0,10.271 6.963,16.791 16.217,16.791Z" style="fill:#4a4a4a;fill-rule:nonzero;"/><path d="M1138.77,420.373c-6.72,0 -10.841,-4.945 -10.841,-12.489l-0,-0.507c-0,-7.608 4.184,-12.553 10.841,-12.553c6.594,-0 10.842,4.945 10.842,12.616l0,0.444c0,7.481 -4.184,12.489 -10.842,12.489Zm-0.063,4.365c9.447,0 16.348,-6.901 16.348,-16.918l-0,-0.507c-0,-9.953 -6.901,-16.854 -16.285,-16.854c-9.383,-0 -16.284,6.964 -16.284,16.918l0,0.507c0,9.7 6.774,16.854 16.221,16.854Z" style="fill:#4a4a4a;fill-rule:nonzero;"/><path d="M1163.24,424.168l5.253,-0l-0,-20.091c-0,-5.958 4.375,-9.063 9.257,-9.063c5.327,-0 7.8,2.598 7.8,8.429l-0,20.725l5.252,-0l-0,-20.345c-0,-9.632 -4.81,-13.364 -11.657,-13.364c-5.453,-0 -9.13,2.72 -10.652,5.822l-0,-5.252l-5.253,-0l0,33.139Z" style="fill:#4a4a4a;fill-rule:nonzero;"/><path d="M1211.21,424.611c2.155,0 3.422,-0.316 4.5,-0.695l-0,-4.43c-1.141,0.443 -2.409,0.697 -4.057,0.697c-2.661,-0 -4.119,-1.585 -4.119,-4.818l-0,-19.908l7.732,0l-0,-4.428l-7.732,-0l-0,-7.542l-5.253,-0l0,7.542l-4.753,-0l-0,4.428l4.753,0l0,20.415c0,5.197 2.911,8.739 8.929,8.739Z" style="fill:#4a4a4a;fill-rule:nonzero;"/><path d="M1223.64,424.168l5.252,-0l0,-18.19c0,-8.176 4.247,-10.267 10.901,-10.584l0,-4.935c-5.957,0.189 -8.809,2.784 -10.901,6.52l0,-5.95l-5.252,-0l-0,33.139Z" style="fill:#4a4a4a;fill-rule:nonzero;"/><path d="M1260.33,420.373c-6.721,0 -10.842,-4.945 -10.842,-12.489l0,-0.507c0,-7.608 4.185,-12.553 10.842,-12.553c6.594,-0 10.841,4.945 10.841,12.616l0,0.444c0,7.481 -4.184,12.489 -10.841,12.489Zm-0.064,4.365c9.447,0 16.348,-6.901 16.348,-16.918l0,-0.507c0,-9.953 -6.901,-16.854 -16.284,-16.854c-9.384,-0 -16.284,6.964 -16.284,16.918l-0,0.507c-0,9.7 6.774,16.854 16.22,16.854Z" style="fill:#4a4a4a;fill-rule:nonzero;"/><rect x="1284.93" y="375.184" width="5.316" height="48.983" style="fill:#4a4a4a;fill-rule:nonzero;"/><path d="M1311.29,424.738c8.051,0 12.164,-4.049 12.164,-10.071c0,-7.037 -4.809,-8.558 -11.657,-9.826c-6.087,-1.078 -7.736,-2.283 -7.736,-5.262c-0,-2.853 2.473,-4.755 6.278,-4.755c4.185,-0 6.214,1.585 6.975,5.198l5.065,0c-0.886,-7.159 -6.016,-9.563 -11.977,-9.563c-5.2,-0 -11.213,3.163 -11.213,9.31c-0,5.769 2.91,8.178 11.53,9.763c5.137,0.951 7.737,2.092 7.737,5.579c-0,3.55 -2.22,5.262 -7.23,5.262c-5.326,0 -7.418,-2.472 -7.798,-6.403l-5.127,-0c0.317,6.783 5.064,10.768 12.989,10.768Z" style="fill:#4a4a4a;fill-rule:nonzero;"/></g><rect x="0" y="0" width="1571.13" height="618.043" style="fill:none;"/></svg>