<?xml version="1.0" encoding="UTF-8" standalone="no"?><!DOCTYPE svg PUBLIC "-//W3C//DTD SVG 1.1//EN" "http://www.w3.org/Graphics/SVG/1.1/DTD/svg11.dtd"><svg width="100%" height="100%" viewBox="0 0 620 620" version="1.1" xmlns="http://www.w3.org/2000/svg" xmlns:xlink="http://www.w3.org/1999/xlink" xml:space="preserve" xmlns:serif="http://www.serif.com/" style="fill-rule:evenodd;clip-rule:evenodd;stroke-linejoin:round;stroke-miterlimit:2;"><path d="M309.926,338.812l0,-175.257c96.802,-0 175.272,78.466 175.272,175.257c0,96.79 -78.47,175.256 -175.272,175.256c-62.618,-0 -182.894,-53.537 -173.937,-176.212l173.937,0.956Z" style="fill:#e3dacb;fill-opacity:0.52;"/><g><path d="M439.463,209.28c-33.155,-33.147 -78.945,-53.65 -129.537,-53.65c-50.584,-0 -96.382,20.503 -129.529,53.65c-33.147,33.148 -53.65,78.945 -53.65,129.532c0,50.586 20.503,96.384 53.65,129.531c33.147,33.147 78.945,53.652 129.529,53.652c50.592,-0 96.382,-20.505 129.537,-53.652c33.147,-33.147 53.65,-78.945 53.65,-129.531c0,-50.587 -20.503,-96.384 -53.65,-129.532Zm-129.537,-85.56c59.393,-0 113.17,24.076 152.092,63c38.93,38.925 63.005,92.698 63.005,152.092c0,59.393 -24.075,113.166 -63.005,152.092c-38.922,38.925 -92.699,63.001 -152.092,63.001c-59.393,-0 -113.162,-24.076 -152.092,-63.001c-38.922,-38.926 -62.998,-92.699 -62.998,-152.092c0,-59.394 24.076,-113.167 62.998,-152.092c38.93,-38.924 92.699,-63 152.092,-63Z" style="fill:#e84249;"/><path d="M328.274,98.853l0,27.98l-36.696,-0l0,-27.98l-15.615,-0c-5.221,-0 -9.491,-4.27 -9.491,-9.488l0,-16.378c0,-5.219 4.27,-9.488 9.491,-9.488l67.934,-0c5.22,-0 9.483,4.269 9.483,9.488l0,16.378c0,5.216 -4.271,9.488 -9.483,9.488l-15.623,-0Z" style="fill:#e84249;"/><path d="M486.648,133.764l32.87,32.87c2.527,2.523 2.527,6.654 0,9.179l-7.923,7.924c-2.527,2.524 -6.655,2.524 -9.182,-0l-32.869,-32.868c-2.519,-2.525 -2.519,-6.657 0,-9.18l7.922,-7.925c2.527,-2.523 6.663,-2.523 9.182,-0Z" style="fill:#e84249;"/><path d="M485.198,157.177l11.995,11.992c0.919,0.92 0.919,2.428 0,3.349l-30.628,30.624c-0.919,0.919 -2.424,0.921 -3.343,-0l-11.994,-11.992c-0.919,-0.921 -0.919,-2.426 0,-3.349l30.627,-30.624c0.919,-0.922 2.424,-0.919 3.343,-0Z" style="fill:#e84249;"/></g><path d="M224.128,185.974l12.105,20.973l-3.676,2.129l-12.105,-20.974l3.676,-2.128Zm-64.931,63.381l20.978,12.111l-2.131,3.673l-20.978,-12.111l2.131,-3.673Zm-24.543,87.356l24.218,-0.001l0,4.236l-24.218,0.002l0,-4.237Zm22.42,87.916l20.97,-12.108l2.131,3.673l-20.978,12.109l-2.123,-3.674Zm63.378,64.929l12.113,-20.975l3.676,2.128l-12.113,20.975l-3.676,-2.128Zm87.359,24.545l0,-24.219l4.238,-0l0,24.219l-4.238,-0Zm87.913,-22.419l-12.105,-20.973l3.668,-2.128l12.113,20.973l-3.676,2.128Zm64.931,-63.381l-20.978,-12.111l2.131,-3.672l20.978,12.109l-2.131,3.674Zm24.543,-87.357l-24.218,0.002l0,-4.236l24.218,-0.002l0,4.236Zm-22.412,-87.916l-20.978,12.11l-2.131,-3.674l20.978,-12.109l2.131,3.673Zm-63.394,-64.929l-12.105,20.974l-3.676,-2.128l12.113,-20.974l3.668,2.128Zm-87.335,-24.544l0,24.218l-4.254,-0l0,-24.218l4.254,-0Z" style="fill:#030404;"/><path d="M296.204,338.814c0,7.579 6.148,13.723 13.722,13.723c7.582,-0 13.729,-6.144 13.729,-13.723c0,-7.581 -6.147,-13.727 -13.729,-13.727c-7.574,-0 -13.722,6.146 -13.722,13.727Z" style="fill:#696275;"/><path d="M309.926,207.599l13.484,131.215l-26.96,-0l13.476,-131.215Z" style="fill:#696275;"/><rect x="-476" y="0" width="1571.13" height="618.043" style="fill:none;"/></svg>