<?xml version="1.0" encoding="UTF-8" standalone="no"?><!DOCTYPE svg PUBLIC "-//W3C//DTD SVG 1.1//EN" "http://www.w3.org/Graphics/SVG/1.1/DTD/svg11.dtd"><svg width="100%" height="100%" viewBox="0 0 64 82" version="1.1" xmlns="http://www.w3.org/2000/svg" xmlns:xlink="http://www.w3.org/1999/xlink" xml:space="preserve" xmlns:serif="http://www.serif.com/" style="fill-rule:evenodd;clip-rule:evenodd;stroke-linecap:round;stroke-linejoin:round;stroke-miterlimit:1.5;"><g id="Layer1"><path d="M31.672,0l31.673,31.11l-31.673,31.111l-31.672,-31.111l31.672,-31.11Zm0,14.179l17.162,16.931l-17.162,16.932l-17.161,-16.932l17.161,-16.931Z" style="fill:#ab8a4a;"/><path d="M35.945,53.024l-8.579,0l-0,20.469l4.366,4.054l4.213,-4.054l-0,-20.469Z" style="fill:#ab8a4a;"/><path d="M31.642,63.087l4.134,-3.717l6.978,6.509l-7.094,6.379l-4.158,-3.88l1.622,-1.453l2.563,2.38l3.86,-3.456l-3.797,-3.527l-2.511,2.248l-1.597,-1.483Z" style="fill:#ab8a4a;"/><path d="M25.466,57.402l-8.712,8.712l14.948,14.948l14.948,-14.948l-8.909,-8.91l-0.689,0.829l8.205,8.093l-13.485,13.412l-13.382,-13.309l7.973,-7.843l-0.897,-0.984Z" style="fill:#937136;fill-opacity:0.49;stroke:#ab8a4a;stroke-width:0.24px;"/><path d="M37.209,39.448l7.942,-8.208l-13.627,-14.085l-13.627,14.085l8.122,8.395l0.628,-0.782l-7.48,-7.625l12.293,-12.637l12.199,12.54l-7.268,7.391l0.818,0.926Z" style="fill:#d6c4a6;stroke:#dbc59b;stroke-width:1.22px;stroke-linecap:butt;stroke-linejoin:miter;"/></g></svg>