<?xml version="1.0" encoding="UTF-8" standalone="no"?><!DOCTYPE svg PUBLIC "-//W3C//DTD SVG 1.1//EN" "http://www.w3.org/Graphics/SVG/1.1/DTD/svg11.dtd"><svg width="100%" height="100%" viewBox="0 0 300 350" version="1.1" xmlns="http://www.w3.org/2000/svg" xmlns:xlink="http://www.w3.org/1999/xlink" xml:space="preserve" xmlns:serif="http://www.serif.com/" style="fill-rule:evenodd;clip-rule:evenodd;stroke-linecap:round;stroke-linejoin:round;stroke-miterlimit:1.5;"><g id="Layer2"><path d="M113.167,134.193c15.844,-0 52.182,-2.683 68.067,-2.683c15.058,0 31.744,3.973 35.838,3.973c0.542,0 -0.646,22.461 -0.646,23.556l0,11.294c0,0.816 0.504,4.337 0,4.841c-1.201,1.201 -7.417,0.322 -9.035,0.322c-8.825,0 -17.356,-0.322 -26.137,-0.322c-7.492,-0 -52.822,-3.086 -53.465,-3.086c-6.439,-0 -39.49,3.43 -39.791,3.731c-0.617,0.617 0.545,7.709 0.545,12.948c-0,6.023 -1.513,19.105 -1.513,25.129c0,0.939 -0.366,5.765 -0.323,5.808c0.66,0.66 5.595,-0 6.454,-0c7.126,-0 13.082,-1.291 20.006,-1.291c25.6,0 46.722,5.143 71.314,1.614c6.068,-0.871 23.878,-1.937 30.009,-1.937c0.89,0 -0.323,17.748 -0.323,23.556c0,3.838 -0.637,10.335 1.614,12.585c0.133,0.133 0.078,3.51 -0,3.55c-2.233,1.116 -5.876,0.225 -8.067,-0.323c-3.857,-0.964 -8.759,-0.29 -12.754,-0.29c-1.268,-0 -2.497,-1.022 -3.703,-1.324c-1.514,-0.378 -3.006,-0.141 -4.518,-0.645c-1.382,-0.461 -3.703,0 -5.163,0c-5.287,0 -12.329,1.274 -17.425,0c-6.026,-1.507 -6.196,3.386 -35.031,0.766c-25.412,-2.308 -42.413,1.459 -42.413,4.054c0,2.987 -3.827,29.107 0.646,33.579" style="fill:none;stroke:#092168;stroke-width:0.74px;"/><g><path d="M143.984,128.446c0,-4.988 -4.05,-9.038 -9.039,-9.038l-87.096,-0c-4.989,-0 -9.039,4.05 -9.039,9.038l0,18.078c0,4.989 4.05,9.039 9.039,9.039l87.096,-0c4.989,-0 9.039,-4.05 9.039,-9.039l0,-18.078Z" style="fill:#8e8e8e;fill-opacity:0.15;"/><path d="M142.595,126.512c0,-4.988 -4.05,-9.038 -9.038,-9.038l-87.097,-0c-4.989,-0 -9.039,4.05 -9.039,9.038l0,18.078c0,4.988 4.05,9.039 9.039,9.039l87.097,-0c4.988,-0 9.038,-4.051 9.038,-9.039l0,-18.078Z" style="fill:#fff;stroke:#e3dacb;stroke-opacity:0.48;stroke-width:0.5px;"/></g><g><path d="M268.457,167.473c-0,-4.988 -4.05,-9.039 -9.039,-9.039l-87.097,0c-4.988,0 -9.038,4.051 -9.038,9.039l-0,18.078c-0,4.988 4.05,9.038 9.038,9.038l87.097,0c4.989,0 9.039,-4.05 9.039,-9.038l-0,-18.078Z" style="fill:#8e8e8e;fill-opacity:0.15;"/><path d="M267.068,165.539c-0,-4.989 -4.05,-9.039 -9.039,-9.039l-87.096,0c-4.989,0 -9.039,4.05 -9.039,9.039l-0,18.078c-0,4.988 4.05,9.038 9.039,9.038l87.096,0c4.989,0 9.039,-4.05 9.039,-9.038l-0,-18.078Z" style="fill:#fff;stroke:#e3dacb;stroke-opacity:0.48;stroke-width:0.5px;"/></g><g><path d="M266.669,248.685c-0,-4.989 -4.05,-9.039 -9.039,-9.039l-87.096,0c-4.989,0 -9.039,4.05 -9.039,9.039l-0,18.077c-0,4.989 4.05,9.039 9.039,9.039l87.096,0c4.989,0 9.039,-4.05 9.039,-9.039l-0,-18.077Z" style="fill:#8e8e8e;fill-opacity:0.19;"/><path d="M265.28,247.229c0,-4.989 -4.05,-9.039 -9.039,-9.039l-87.096,0c-4.989,0 -9.039,4.05 -9.039,9.039l0,18.078c0,4.988 4.05,9.038 9.039,9.038l87.096,0c4.989,0 9.039,-4.05 9.039,-9.038l0,-18.078Z" style="fill:#fff;stroke:#e3dacb;stroke-opacity:0.48;stroke-width:0.5px;stroke-linejoin:miter;stroke-miterlimit:1;"/></g><g><path d="M141.621,212.057c-0,-4.989 -4.05,-9.039 -9.039,-9.039l-87.097,-0c-4.988,-0 -9.038,4.05 -9.038,9.039l-0,18.077c-0,4.989 4.05,9.039 9.038,9.039l87.097,-0c4.989,-0 9.039,-4.05 9.039,-9.039l-0,-18.077Z" style="fill:#8e8e8e;fill-opacity:0.21;"/><path d="M140.232,210.807c-0,-4.988 -4.05,-9.039 -9.039,-9.039l-87.096,0c-4.989,0 -9.039,4.051 -9.039,9.039l-0,18.078c-0,4.988 4.05,9.038 9.039,9.038l87.096,0c4.989,0 9.039,-4.05 9.039,-9.038l-0,-18.078Z" style="fill:#fff;stroke:#e3dacb;stroke-opacity:0.48;stroke-width:0.5px;"/></g><g><path d="M143.196,286.784c0,-4.989 -4.05,-9.039 -9.039,-9.039l-87.096,0c-4.989,0 -9.039,4.05 -9.039,9.039l0,18.077c0,4.989 4.05,9.039 9.039,9.039l87.096,0c4.989,0 9.039,-4.05 9.039,-9.039l0,-18.077Z" style="fill:#8e8e8e;fill-opacity:0.15;"/><path d="M141.807,285.741c0,-4.988 -4.05,-9.039 -9.038,-9.039l-87.097,0c-4.988,0 -9.039,4.051 -9.039,9.039l0,18.078c0,4.988 4.051,9.038 9.039,9.038l87.097,0c4.988,0 9.038,-4.05 9.038,-9.038l0,-18.078Z" style="fill:#fff;stroke:#e3dacb;stroke-opacity:0.48;stroke-width:0.5px;"/></g><g><path d="M52.876,139.902l-0,-8.59l1.137,-0l-0,7.576l4.23,-0l0,1.014l-5.367,-0Z" style="fill:#092168;fill-rule:nonzero;"/><path d="M59.069,136.79c0,-1.152 0.32,-2.006 0.961,-2.56c0.535,-0.461 1.188,-0.692 1.957,-0.692c0.856,0 1.555,0.281 2.098,0.841c0.543,0.561 0.814,1.335 0.814,2.323c0,0.801 -0.12,1.431 -0.36,1.89c-0.24,0.459 -0.59,0.816 -1.049,1.069c-0.459,0.254 -0.96,0.381 -1.503,0.381c-0.871,0 -1.575,-0.279 -2.112,-0.838c-0.537,-0.558 -0.806,-1.363 -0.806,-2.414Zm1.084,0c0,0.797 0.174,1.394 0.522,1.79c0.347,0.397 0.785,0.595 1.312,0.595c0.524,0 0.959,-0.199 1.307,-0.598c0.347,-0.398 0.521,-1.005 0.521,-1.822c0,-0.769 -0.175,-1.352 -0.524,-1.749c-0.35,-0.396 -0.784,-0.595 -1.304,-0.595c-0.527,0 -0.965,0.198 -1.312,0.592c-0.348,0.395 -0.522,0.99 -0.522,1.787Z" style="fill:#092168;fill-rule:nonzero;"/><path d="M70.196,137.622l1.037,0.135c-0.113,0.715 -0.403,1.275 -0.87,1.679c-0.467,0.404 -1.04,0.606 -1.72,0.606c-0.851,0 -1.536,-0.278 -2.053,-0.835c-0.518,-0.556 -0.777,-1.354 -0.777,-2.393c0,-0.672 0.112,-1.26 0.334,-1.764c0.223,-0.504 0.562,-0.882 1.017,-1.134c0.455,-0.252 0.95,-0.378 1.485,-0.378c0.676,0 1.229,0.171 1.658,0.513c0.43,0.342 0.706,0.827 0.827,1.456l-1.026,0.158c-0.097,-0.418 -0.27,-0.732 -0.518,-0.943c-0.248,-0.211 -0.548,-0.316 -0.9,-0.316c-0.531,-0 -0.963,0.19 -1.295,0.571c-0.332,0.381 -0.498,0.983 -0.498,1.807c0,0.836 0.16,1.444 0.481,1.823c0.32,0.379 0.738,0.568 1.254,0.568c0.414,0 0.759,-0.127 1.037,-0.381c0.277,-0.254 0.453,-0.644 0.527,-1.172Z" style="fill:#092168;fill-rule:nonzero;"/><path d="M76.196,139.134c-0.39,0.332 -0.766,0.566 -1.128,0.703c-0.361,0.137 -0.749,0.205 -1.163,0.205c-0.683,0 -1.209,-0.167 -1.576,-0.501c-0.367,-0.334 -0.551,-0.76 -0.551,-1.28c0,-0.305 0.069,-0.583 0.208,-0.835c0.139,-0.252 0.32,-0.454 0.545,-0.606c0.225,-0.153 0.478,-0.268 0.759,-0.346c0.207,-0.055 0.519,-0.107 0.937,-0.158c0.852,-0.102 1.479,-0.223 1.881,-0.364c0.004,-0.144 0.006,-0.236 0.006,-0.275c0,-0.43 -0.1,-0.732 -0.299,-0.908c-0.269,-0.238 -0.67,-0.358 -1.201,-0.358c-0.496,0 -0.862,0.087 -1.099,0.261c-0.236,0.174 -0.411,0.482 -0.524,0.923l-1.031,-0.141c0.094,-0.441 0.248,-0.797 0.463,-1.069c0.215,-0.271 0.525,-0.48 0.931,-0.627c0.407,-0.146 0.877,-0.22 1.412,-0.22c0.532,0 0.963,0.063 1.295,0.188c0.332,0.125 0.577,0.282 0.733,0.472c0.156,0.189 0.265,0.428 0.328,0.717c0.035,0.18 0.053,0.504 0.053,0.973l-0,1.406c-0,0.981 0.022,1.601 0.067,1.861c0.045,0.259 0.134,0.508 0.267,0.747l-1.102,-0c-0.109,-0.219 -0.18,-0.475 -0.211,-0.768Zm-0.088,-2.355c-0.383,0.156 -0.957,0.289 -1.722,0.398c-0.434,0.063 -0.741,0.133 -0.92,0.211c-0.18,0.078 -0.319,0.192 -0.416,0.343c-0.098,0.15 -0.147,0.317 -0.147,0.501c0,0.281 0.107,0.515 0.319,0.703c0.213,0.187 0.525,0.281 0.935,0.281c0.406,0 0.768,-0.089 1.084,-0.266c0.316,-0.178 0.549,-0.421 0.697,-0.73c0.114,-0.238 0.17,-0.59 0.17,-1.055l0,-0.386Z" style="fill:#092168;fill-rule:nonzero;"/><path d="M81.112,138.958l0.152,0.932c-0.296,0.062 -0.562,0.094 -0.796,0.094c-0.383,-0 -0.68,-0.061 -0.891,-0.182c-0.211,-0.121 -0.359,-0.28 -0.445,-0.477c-0.086,-0.198 -0.129,-0.613 -0.129,-1.246l-0,-3.58l-0.774,0l0,-0.82l0.774,0l-0,-1.541l1.049,-0.633l-0,2.174l1.06,0l0,0.82l-1.06,0l-0,3.639c-0,0.301 0.018,0.494 0.055,0.58c0.037,0.086 0.098,0.154 0.182,0.205c0.084,0.051 0.204,0.076 0.36,0.076c0.117,0 0.272,-0.013 0.463,-0.041Z" style="fill:#092168;fill-rule:nonzero;"/><path d="M82.149,132.525l0,-1.213l1.055,-0l-0,1.213l-1.055,-0Zm0,7.377l0,-6.223l1.055,0l-0,6.223l-1.055,-0Z" style="fill:#092168;fill-rule:nonzero;"/><path d="M84.417,136.79c-0,-1.152 0.32,-2.006 0.961,-2.56c0.535,-0.461 1.187,-0.692 1.957,-0.692c0.855,0 1.554,0.281 2.097,0.841c0.543,0.561 0.815,1.335 0.815,2.323c-0,0.801 -0.12,1.431 -0.36,1.89c-0.241,0.459 -0.59,0.816 -1.049,1.069c-0.459,0.254 -0.96,0.381 -1.503,0.381c-0.871,0 -1.575,-0.279 -2.113,-0.838c-0.537,-0.558 -0.805,-1.363 -0.805,-2.414Zm1.084,0c-0,0.797 0.174,1.394 0.521,1.79c0.348,0.397 0.785,0.595 1.313,0.595c0.523,0 0.959,-0.199 1.306,-0.598c0.348,-0.398 0.522,-1.005 0.522,-1.822c-0,-0.769 -0.175,-1.352 -0.524,-1.749c-0.35,-0.396 -0.785,-0.595 -1.304,-0.595c-0.528,0 -0.965,0.198 -1.313,0.592c-0.347,0.395 -0.521,0.99 -0.521,1.787Z" style="fill:#092168;fill-rule:nonzero;"/><path d="M91.483,139.902l0,-6.223l0.949,0l0,0.885c0.457,-0.684 1.118,-1.026 1.981,-1.026c0.375,0 0.72,0.068 1.034,0.203c0.315,0.134 0.55,0.311 0.706,0.53c0.156,0.219 0.266,0.478 0.328,0.779c0.039,0.195 0.059,0.537 0.059,1.025l-0,3.827l-1.055,-0l0,-3.785c0,-0.43 -0.041,-0.751 -0.123,-0.964c-0.082,-0.213 -0.227,-0.383 -0.436,-0.51c-0.209,-0.127 -0.454,-0.191 -0.736,-0.191c-0.449,0 -0.837,0.143 -1.163,0.428c-0.326,0.285 -0.489,0.826 -0.489,1.623l-0,3.399l-1.055,-0Z" style="fill:#092168;fill-rule:nonzero;"/><path d="M101.626,139.902l-0,-8.59l2.959,-0c0.668,-0 1.178,0.041 1.529,0.123c0.492,0.113 0.912,0.318 1.26,0.615c0.453,0.383 0.792,0.872 1.016,1.468c0.225,0.596 0.337,1.276 0.337,2.042c0,0.652 -0.076,1.23 -0.228,1.734c-0.152,0.504 -0.348,0.921 -0.586,1.251c-0.238,0.33 -0.499,0.59 -0.782,0.78c-0.284,0.189 -0.625,0.333 -1.026,0.43c-0.4,0.098 -0.86,0.147 -1.38,0.147l-3.099,-0Zm1.137,-1.014l1.834,-0c0.566,-0 1.01,-0.053 1.333,-0.158c0.322,-0.106 0.579,-0.254 0.77,-0.446c0.27,-0.269 0.48,-0.631 0.63,-1.086c0.15,-0.456 0.226,-1.007 0.226,-1.656c-0,-0.898 -0.148,-1.589 -0.443,-2.071c-0.295,-0.482 -0.653,-0.806 -1.075,-0.97c-0.305,-0.117 -0.795,-0.176 -1.471,-0.176l-1.804,0l-0,6.563Z" style="fill:#092168;fill-rule:nonzero;"/><path d="M114.218,139.134c-0.391,0.332 -0.767,0.566 -1.128,0.703c-0.362,0.137 -0.749,0.205 -1.163,0.205c-0.684,0 -1.209,-0.167 -1.577,-0.501c-0.367,-0.334 -0.55,-0.76 -0.55,-1.28c-0,-0.305 0.069,-0.583 0.208,-0.835c0.138,-0.252 0.32,-0.454 0.545,-0.606c0.224,-0.153 0.477,-0.268 0.758,-0.346c0.207,-0.055 0.52,-0.107 0.938,-0.158c0.851,-0.102 1.478,-0.223 1.881,-0.364c0.004,-0.144 0.006,-0.236 0.006,-0.275c-0,-0.43 -0.1,-0.732 -0.299,-0.908c-0.27,-0.238 -0.67,-0.358 -1.201,-0.358c-0.497,0 -0.863,0.087 -1.099,0.261c-0.236,0.174 -0.411,0.482 -0.524,0.923l-1.032,-0.141c0.094,-0.441 0.248,-0.797 0.463,-1.069c0.215,-0.271 0.526,-0.48 0.932,-0.627c0.406,-0.146 0.877,-0.22 1.412,-0.22c0.531,0 0.963,0.063 1.295,0.188c0.332,0.125 0.576,0.282 0.732,0.472c0.157,0.189 0.266,0.428 0.328,0.717c0.036,0.18 0.053,0.504 0.053,0.973l0,1.406c0,0.981 0.023,1.601 0.068,1.861c0.044,0.259 0.133,0.508 0.266,0.747l-1.101,-0c-0.11,-0.219 -0.18,-0.475 -0.211,-0.768Zm-0.088,-2.355c-0.383,0.156 -0.957,0.289 -1.723,0.398c-0.434,0.063 -0.74,0.133 -0.92,0.211c-0.18,0.078 -0.318,0.192 -0.416,0.343c-0.098,0.15 -0.146,0.317 -0.146,0.501c-0,0.281 0.106,0.515 0.319,0.703c0.213,0.187 0.524,0.281 0.935,0.281c0.406,0 0.767,-0.089 1.084,-0.266c0.316,-0.178 0.548,-0.421 0.697,-0.73c0.113,-0.238 0.17,-0.59 0.17,-1.055l-0,-0.386Z" style="fill:#092168;fill-rule:nonzero;"/><path d="M119.134,138.958l0.152,0.932c-0.297,0.062 -0.563,0.094 -0.797,0.094c-0.383,-0 -0.68,-0.061 -0.891,-0.182c-0.21,-0.121 -0.359,-0.28 -0.445,-0.477c-0.086,-0.198 -0.129,-0.613 -0.129,-1.246l0,-3.58l-0.773,0l-0,-0.82l0.773,0l0,-1.541l1.049,-0.633l0,2.174l1.061,0l-0,0.82l-1.061,0l0,3.639c0,0.301 0.019,0.494 0.056,0.58c0.037,0.086 0.097,0.154 0.181,0.205c0.084,0.051 0.204,0.076 0.361,0.076c0.117,0 0.271,-0.013 0.463,-0.041Z" style="fill:#092168;fill-rule:nonzero;"/><path d="M124.225,139.134c-0.39,0.332 -0.766,0.566 -1.128,0.703c-0.361,0.137 -0.749,0.205 -1.163,0.205c-0.683,0 -1.209,-0.167 -1.576,-0.501c-0.367,-0.334 -0.551,-0.76 -0.551,-1.28c0,-0.305 0.07,-0.583 0.208,-0.835c0.139,-0.252 0.321,-0.454 0.545,-0.606c0.225,-0.153 0.478,-0.268 0.759,-0.346c0.207,-0.055 0.52,-0.107 0.938,-0.158c0.851,-0.102 1.478,-0.223 1.881,-0.364c0.003,-0.144 0.005,-0.236 0.005,-0.275c0,-0.43 -0.099,-0.732 -0.298,-0.908c-0.27,-0.238 -0.67,-0.358 -1.202,-0.358c-0.496,0 -0.862,0.087 -1.098,0.261c-0.237,0.174 -0.411,0.482 -0.525,0.923l-1.031,-0.141c0.094,-0.441 0.248,-0.797 0.463,-1.069c0.215,-0.271 0.525,-0.48 0.932,-0.627c0.406,-0.146 0.877,-0.22 1.412,-0.22c0.531,0 0.963,0.063 1.295,0.188c0.332,0.125 0.576,0.282 0.732,0.472c0.156,0.189 0.266,0.428 0.328,0.717c0.035,0.18 0.053,0.504 0.053,0.973l-0,1.406c-0,0.981 0.022,1.601 0.067,1.861c0.045,0.259 0.134,0.508 0.267,0.747l-1.102,-0c-0.109,-0.219 -0.179,-0.475 -0.211,-0.768Zm-0.087,-2.355c-0.383,0.156 -0.957,0.289 -1.723,0.398c-0.434,0.063 -0.74,0.133 -0.92,0.211c-0.18,0.078 -0.318,0.192 -0.416,0.343c-0.098,0.15 -0.147,0.317 -0.147,0.501c0,0.281 0.107,0.515 0.32,0.703c0.213,0.187 0.524,0.281 0.934,0.281c0.407,0 0.768,-0.089 1.084,-0.266c0.317,-0.178 0.549,-0.421 0.698,-0.73c0.113,-0.238 0.17,-0.59 0.17,-1.055l-0,-0.386Z" style="fill:#092168;fill-rule:nonzero;"/></g><g><path d="M198.344,167.381c0,-1.425 0.383,-2.542 1.149,-3.348c0.765,-0.807 1.754,-1.21 2.965,-1.21c0.792,-0 1.507,0.189 2.144,0.568c0.637,0.379 1.122,0.907 1.456,1.585c0.334,0.678 0.501,1.446 0.501,2.306c0,0.871 -0.176,1.65 -0.527,2.338c-0.352,0.687 -0.85,1.208 -1.494,1.561c-0.645,0.354 -1.34,0.53 -2.086,0.53c-0.809,0 -1.532,-0.195 -2.168,-0.586c-0.637,-0.39 -1.119,-0.923 -1.448,-1.599c-0.328,-0.676 -0.492,-1.391 -0.492,-2.145Zm1.172,0.018c0,1.035 0.278,1.851 0.835,2.446c0.557,0.596 1.255,0.894 2.095,0.894c0.855,-0 1.559,-0.301 2.112,-0.903c0.553,-0.601 0.829,-1.455 0.829,-2.56c0,-0.699 -0.118,-1.31 -0.354,-1.831c-0.237,-0.522 -0.582,-0.926 -1.037,-1.213c-0.455,-0.287 -0.966,-0.431 -1.533,-0.431c-0.804,0 -1.497,0.277 -2.077,0.829c-0.58,0.553 -0.87,1.476 -0.87,2.769Z" style="fill:#092168;fill-rule:nonzero;"/><path d="M207.877,171.565l0,-6.223l0.95,0l-0,0.944c0.242,-0.442 0.465,-0.733 0.671,-0.873c0.205,-0.141 0.43,-0.211 0.676,-0.211c0.356,-0 0.717,0.113 1.084,0.339l-0.363,0.979c-0.258,-0.152 -0.516,-0.229 -0.773,-0.229c-0.231,0 -0.438,0.07 -0.622,0.209c-0.183,0.138 -0.314,0.331 -0.392,0.577c-0.117,0.375 -0.176,0.785 -0.176,1.23l0,3.258l-1.055,-0Z" style="fill:#092168;fill-rule:nonzero;"/><path d="M215.922,171.565l0,-0.785c-0.394,0.617 -0.974,0.926 -1.74,0.926c-0.496,-0 -0.952,-0.137 -1.368,-0.411c-0.416,-0.273 -0.738,-0.655 -0.967,-1.145c-0.228,-0.49 -0.343,-1.054 -0.343,-1.691c0,-0.621 0.104,-1.184 0.311,-1.69c0.207,-0.506 0.518,-0.894 0.932,-1.163c0.414,-0.27 0.877,-0.404 1.388,-0.404c0.375,-0 0.709,0.079 1.002,0.237c0.293,0.158 0.531,0.364 0.715,0.618l0,-3.082l1.049,0l-0,8.59l-0.979,-0Zm-3.334,-3.106c0,0.797 0.168,1.393 0.504,1.788c0.336,0.394 0.733,0.591 1.19,0.591c0.461,0 0.852,-0.188 1.175,-0.565c0.322,-0.377 0.483,-0.952 0.483,-1.726c-0,-0.851 -0.164,-1.476 -0.492,-1.875c-0.328,-0.398 -0.733,-0.597 -1.213,-0.597c-0.469,-0 -0.86,0.191 -1.175,0.574c-0.314,0.383 -0.472,0.986 -0.472,1.81Z" style="fill:#092168;fill-rule:nonzero;"/><path d="M222.819,169.561l1.09,0.135c-0.172,0.637 -0.491,1.131 -0.955,1.482c-0.465,0.352 -1.059,0.528 -1.782,0.528c-0.91,-0 -1.631,-0.281 -2.165,-0.841c-0.533,-0.561 -0.799,-1.347 -0.799,-2.359c-0,-1.047 0.269,-1.859 0.808,-2.437c0.539,-0.578 1.238,-0.867 2.098,-0.867c0.832,-0 1.511,0.283 2.039,0.849c0.527,0.567 0.791,1.364 0.791,2.391c-0,0.062 -0.002,0.156 -0.006,0.281l-4.641,0c0.039,0.684 0.233,1.207 0.58,1.57c0.348,0.364 0.782,0.545 1.301,0.545c0.387,0 0.717,-0.101 0.99,-0.304c0.274,-0.203 0.491,-0.528 0.651,-0.973Zm-3.463,-1.705l3.475,-0c-0.047,-0.523 -0.18,-0.916 -0.399,-1.178c-0.336,-0.406 -0.771,-0.609 -1.307,-0.609c-0.484,-0 -0.891,0.162 -1.221,0.486c-0.33,0.324 -0.513,0.758 -0.548,1.301Z" style="fill:#092168;fill-rule:nonzero;"/><path d="M225.221,171.565l0,-6.223l0.949,0l0,0.944c0.243,-0.442 0.466,-0.733 0.671,-0.873c0.205,-0.141 0.431,-0.211 0.677,-0.211c0.356,-0 0.717,0.113 1.084,0.339l-0.363,0.979c-0.258,-0.152 -0.516,-0.229 -0.774,-0.229c-0.23,0 -0.437,0.07 -0.621,0.209c-0.183,0.138 -0.314,0.331 -0.392,0.577c-0.118,0.375 -0.176,0.785 -0.176,1.23l-0,3.258l-1.055,-0Z" style="fill:#092168;fill-rule:nonzero;"/><path d="M185.468,180.946l1.137,0.287c-0.238,0.933 -0.667,1.645 -1.286,2.136c-0.619,0.49 -1.376,0.735 -2.271,0.735c-0.925,-0 -1.678,-0.188 -2.258,-0.565c-0.581,-0.377 -1.022,-0.923 -1.325,-1.638c-0.302,-0.715 -0.454,-1.483 -0.454,-2.303c0,-0.894 0.171,-1.675 0.513,-2.341c0.342,-0.666 0.828,-1.172 1.459,-1.517c0.631,-0.346 1.325,-0.519 2.083,-0.519c0.859,0 1.582,0.219 2.168,0.656c0.586,0.438 0.994,1.053 1.224,1.846l-1.119,0.264c-0.199,-0.625 -0.488,-1.08 -0.867,-1.365c-0.379,-0.286 -0.855,-0.428 -1.43,-0.428c-0.66,-0 -1.211,0.158 -1.655,0.474c-0.443,0.317 -0.755,0.742 -0.934,1.275c-0.18,0.533 -0.27,1.083 -0.27,1.649c0,0.731 0.107,1.368 0.319,1.913c0.213,0.545 0.544,0.953 0.994,1.222c0.449,0.27 0.935,0.404 1.459,0.404c0.636,0 1.175,-0.183 1.617,-0.55c0.441,-0.368 0.74,-0.913 0.896,-1.635Z" style="fill:#092168;fill-rule:nonzero;"/><path d="M191.931,183.19c-0.39,0.332 -0.766,0.566 -1.128,0.703c-0.361,0.137 -0.749,0.205 -1.163,0.205c-0.683,0 -1.209,-0.167 -1.576,-0.501c-0.367,-0.334 -0.551,-0.761 -0.551,-1.28c0,-0.305 0.07,-0.583 0.208,-0.835c0.139,-0.252 0.321,-0.454 0.545,-0.607c0.225,-0.152 0.478,-0.267 0.759,-0.345c0.207,-0.055 0.519,-0.108 0.937,-0.158c0.852,-0.102 1.479,-0.223 1.881,-0.364c0.004,-0.144 0.006,-0.236 0.006,-0.275c0,-0.43 -0.099,-0.733 -0.299,-0.908c-0.269,-0.239 -0.67,-0.358 -1.201,-0.358c-0.496,0 -0.862,0.087 -1.099,0.261c-0.236,0.174 -0.411,0.481 -0.524,0.923l-1.031,-0.141c0.094,-0.441 0.248,-0.798 0.463,-1.069c0.215,-0.272 0.525,-0.481 0.931,-0.627c0.407,-0.147 0.877,-0.22 1.412,-0.22c0.532,0 0.963,0.063 1.295,0.188c0.332,0.125 0.577,0.282 0.733,0.471c0.156,0.19 0.265,0.429 0.328,0.718c0.035,0.18 0.053,0.504 0.053,0.973l-0,1.406c-0,0.981 0.022,1.601 0.067,1.86c0.045,0.26 0.134,0.509 0.267,0.748l-1.102,-0c-0.109,-0.219 -0.18,-0.475 -0.211,-0.768Zm-0.088,-2.356c-0.383,0.157 -0.957,0.29 -1.722,0.399c-0.434,0.062 -0.741,0.133 -0.92,0.211c-0.18,0.078 -0.319,0.192 -0.416,0.343c-0.098,0.15 -0.147,0.317 -0.147,0.501c0,0.281 0.107,0.515 0.32,0.703c0.212,0.187 0.524,0.281 0.934,0.281c0.406,-0 0.768,-0.089 1.084,-0.267c0.316,-0.177 0.549,-0.421 0.697,-0.729c0.114,-0.238 0.17,-0.59 0.17,-1.055l0,-0.387Z" style="fill:#092168;fill-rule:nonzero;"/><path d="M194.544,183.958l0,-6.223l0.95,-0l-0,0.885c0.457,-0.684 1.117,-1.026 1.98,-1.026c0.375,0 0.72,0.068 1.034,0.202c0.315,0.135 0.55,0.312 0.706,0.531c0.157,0.218 0.266,0.478 0.328,0.779c0.04,0.195 0.059,0.537 0.059,1.025l0,3.827l-1.055,-0l0,-3.786c0,-0.429 -0.041,-0.751 -0.123,-0.964c-0.082,-0.212 -0.227,-0.382 -0.436,-0.509c-0.209,-0.127 -0.454,-0.191 -0.736,-0.191c-0.449,0 -0.836,0.143 -1.163,0.428c-0.326,0.285 -0.489,0.826 -0.489,1.623l0,3.399l-1.055,-0Z" style="fill:#092168;fill-rule:nonzero;"/><path d="M205.279,181.678l1.037,0.135c-0.113,0.715 -0.403,1.274 -0.87,1.679c-0.467,0.404 -1.04,0.606 -1.72,0.606c-0.851,0 -1.536,-0.278 -2.054,-0.835c-0.517,-0.556 -0.776,-1.354 -0.776,-2.393c-0,-0.672 0.111,-1.26 0.334,-1.764c0.223,-0.504 0.562,-0.882 1.017,-1.134c0.455,-0.252 0.95,-0.378 1.485,-0.378c0.676,0 1.228,0.171 1.658,0.513c0.43,0.342 0.705,0.827 0.826,1.456l-1.025,0.158c-0.098,-0.418 -0.271,-0.732 -0.519,-0.943c-0.248,-0.211 -0.547,-0.317 -0.899,-0.317c-0.531,0 -0.963,0.191 -1.295,0.572c-0.332,0.381 -0.498,0.983 -0.498,1.807c-0,0.836 0.16,1.444 0.48,1.823c0.321,0.378 0.739,0.568 1.254,0.568c0.414,-0 0.76,-0.127 1.037,-0.381c0.278,-0.254 0.454,-0.644 0.528,-1.172Z" style="fill:#092168;fill-rule:nonzero;"/><path d="M211.478,181.954l1.09,0.134c-0.172,0.637 -0.49,1.131 -0.955,1.483c-0.465,0.351 -1.059,0.527 -1.781,0.527c-0.911,0 -1.632,-0.28 -2.165,-0.841c-0.534,-0.56 -0.8,-1.346 -0.8,-2.358c-0,-1.047 0.269,-1.859 0.808,-2.438c0.539,-0.578 1.239,-0.867 2.098,-0.867c0.832,0 1.512,0.283 2.039,0.85c0.527,0.566 0.791,1.363 0.791,2.39c0,0.063 -0.002,0.157 -0.006,0.282l-4.64,-0c0.039,0.683 0.232,1.207 0.58,1.57c0.347,0.363 0.781,0.545 1.3,0.545c0.387,-0 0.717,-0.102 0.991,-0.305c0.273,-0.203 0.49,-0.527 0.65,-0.972Zm-3.463,-1.705l3.475,-0c-0.047,-0.524 -0.18,-0.916 -0.399,-1.178c-0.336,-0.406 -0.771,-0.61 -1.306,-0.61c-0.485,0 -0.892,0.163 -1.222,0.487c-0.33,0.324 -0.513,0.758 -0.548,1.301Z" style="fill:#092168;fill-rule:nonzero;"/><rect x="213.869" y="175.368" width="1.055" height="8.59" style="fill:#092168;fill-rule:nonzero;"/><path d="M220.619,183.19c-0.391,0.332 -0.767,0.566 -1.128,0.703c-0.362,0.137 -0.749,0.205 -1.163,0.205c-0.684,0 -1.209,-0.167 -1.577,-0.501c-0.367,-0.334 -0.55,-0.761 -0.55,-1.28c-0,-0.305 0.069,-0.583 0.208,-0.835c0.138,-0.252 0.32,-0.454 0.545,-0.607c0.224,-0.152 0.477,-0.267 0.758,-0.345c0.207,-0.055 0.52,-0.108 0.938,-0.158c0.851,-0.102 1.478,-0.223 1.881,-0.364c0.004,-0.144 0.006,-0.236 0.006,-0.275c-0,-0.43 -0.1,-0.733 -0.299,-0.908c-0.27,-0.239 -0.67,-0.358 -1.201,-0.358c-0.496,0 -0.863,0.087 -1.099,0.261c-0.236,0.174 -0.411,0.481 -0.524,0.923l-1.032,-0.141c0.094,-0.441 0.248,-0.798 0.463,-1.069c0.215,-0.272 0.526,-0.481 0.932,-0.627c0.406,-0.147 0.877,-0.22 1.412,-0.22c0.531,0 0.963,0.063 1.295,0.188c0.332,0.125 0.576,0.282 0.732,0.471c0.157,0.19 0.266,0.429 0.328,0.718c0.036,0.18 0.053,0.504 0.053,0.973l0,1.406c0,0.981 0.023,1.601 0.068,1.86c0.044,0.26 0.133,0.509 0.266,0.748l-1.101,-0c-0.11,-0.219 -0.18,-0.475 -0.211,-0.768Zm-0.088,-2.356c-0.383,0.157 -0.957,0.29 -1.723,0.399c-0.433,0.062 -0.74,0.133 -0.92,0.211c-0.18,0.078 -0.318,0.192 -0.416,0.343c-0.097,0.15 -0.146,0.317 -0.146,0.501c-0,0.281 0.106,0.515 0.319,0.703c0.213,0.187 0.524,0.281 0.935,0.281c0.406,-0 0.767,-0.089 1.084,-0.267c0.316,-0.177 0.548,-0.421 0.697,-0.729c0.113,-0.238 0.17,-0.59 0.17,-1.055l-0,-0.387Z" style="fill:#092168;fill-rule:nonzero;"/><path d="M225.535,183.014l0.152,0.932c-0.297,0.062 -0.562,0.094 -0.797,0.094c-0.383,-0 -0.68,-0.061 -0.89,-0.182c-0.211,-0.121 -0.36,-0.28 -0.446,-0.478c-0.086,-0.197 -0.129,-0.612 -0.129,-1.245l0,-3.58l-0.773,0l-0,-0.82l0.773,-0l0,-1.541l1.049,-0.633l0,2.174l1.061,-0l-0,0.82l-1.061,0l0,3.639c0,0.301 0.019,0.494 0.056,0.58c0.037,0.086 0.097,0.154 0.181,0.205c0.084,0.051 0.205,0.076 0.361,0.076c0.117,0 0.271,-0.014 0.463,-0.041Z" style="fill:#092168;fill-rule:nonzero;"/><path d="M226.572,176.581l-0,-1.213l1.054,-0l0,1.213l-1.054,-0Zm-0,7.377l-0,-6.223l1.054,-0l0,6.223l-1.054,-0Z" style="fill:#092168;fill-rule:nonzero;"/><path d="M228.839,180.846c0,-1.152 0.321,-2.006 0.961,-2.56c0.535,-0.461 1.188,-0.692 1.957,-0.692c0.856,0 1.555,0.281 2.098,0.841c0.543,0.561 0.814,1.335 0.814,2.323c0,0.801 -0.12,1.431 -0.36,1.89c-0.24,0.459 -0.59,0.815 -1.049,1.069c-0.459,0.254 -0.96,0.381 -1.503,0.381c-0.871,0 -1.575,-0.279 -2.112,-0.838c-0.537,-0.558 -0.806,-1.363 -0.806,-2.414Zm1.084,0c0,0.797 0.174,1.394 0.522,1.79c0.347,0.397 0.785,0.595 1.312,0.595c0.524,-0 0.959,-0.199 1.307,-0.598c0.348,-0.398 0.521,-1.006 0.521,-1.822c0,-0.77 -0.174,-1.353 -0.524,-1.749c-0.35,-0.396 -0.784,-0.595 -1.304,-0.595c-0.527,0 -0.965,0.198 -1.312,0.592c-0.348,0.395 -0.522,0.99 -0.522,1.787Z" style="fill:#092168;fill-rule:nonzero;"/><path d="M235.906,183.958l-0,-6.223l0.949,-0l-0,0.885c0.457,-0.684 1.117,-1.026 1.98,-1.026c0.375,0 0.72,0.068 1.035,0.202c0.314,0.135 0.549,0.312 0.706,0.531c0.156,0.218 0.265,0.478 0.328,0.779c0.039,0.195 0.058,0.537 0.058,1.025l0,3.827l-1.054,-0l-0,-3.786c-0,-0.429 -0.041,-0.751 -0.123,-0.964c-0.082,-0.212 -0.228,-0.382 -0.437,-0.509c-0.209,-0.127 -0.454,-0.191 -0.735,-0.191c-0.449,0 -0.837,0.143 -1.163,0.428c-0.326,0.285 -0.49,0.826 -0.49,1.623l0,3.399l-1.054,-0Z" style="fill:#092168;fill-rule:nonzero;"/><path d="M242.158,182.1l1.043,-0.164c0.058,0.418 0.221,0.738 0.489,0.961c0.268,0.223 0.642,0.334 1.122,0.334c0.484,-0 0.844,-0.099 1.078,-0.296c0.235,-0.197 0.352,-0.429 0.352,-0.694c-0,-0.239 -0.104,-0.426 -0.311,-0.563c-0.144,-0.094 -0.504,-0.213 -1.078,-0.357c-0.773,-0.196 -1.31,-0.364 -1.608,-0.507c-0.299,-0.143 -0.526,-0.34 -0.68,-0.592c-0.154,-0.252 -0.232,-0.53 -0.232,-0.835c0,-0.277 0.064,-0.534 0.191,-0.77c0.127,-0.237 0.3,-0.433 0.518,-0.589c0.165,-0.121 0.388,-0.224 0.671,-0.308c0.284,-0.084 0.587,-0.126 0.912,-0.126c0.488,0 0.917,0.071 1.286,0.211c0.369,0.141 0.641,0.331 0.817,0.571c0.176,0.241 0.297,0.562 0.363,0.964l-1.031,0.141c-0.047,-0.32 -0.183,-0.57 -0.407,-0.75c-0.225,-0.18 -0.542,-0.27 -0.952,-0.27c-0.485,0 -0.83,0.08 -1.037,0.241c-0.207,0.16 -0.311,0.347 -0.311,0.562c0,0.137 0.043,0.26 0.129,0.369c0.086,0.114 0.221,0.207 0.404,0.282c0.106,0.039 0.416,0.128 0.932,0.269c0.746,0.199 1.266,0.362 1.561,0.489c0.295,0.127 0.527,0.312 0.695,0.554c0.168,0.242 0.252,0.543 0.252,0.902c-0,0.352 -0.103,0.683 -0.308,0.994c-0.205,0.31 -0.501,0.55 -0.888,0.72c-0.386,0.17 -0.824,0.255 -1.312,0.255c-0.809,0 -1.425,-0.168 -1.849,-0.504c-0.424,-0.336 -0.694,-0.834 -0.811,-1.494Z" style="fill:#092168;fill-rule:nonzero;"/></g><g><path d="M54.778,223.56l0,-8.59l1.166,0l4.512,6.744l0,-6.744l1.09,0l-0,8.59l-1.166,-0l-4.512,-6.75l0,6.75l-1.09,-0Z" style="fill:#092168;fill-rule:nonzero;"/><path d="M67.581,221.556l1.09,0.135c-0.172,0.636 -0.49,1.131 -0.955,1.482c-0.465,0.352 -1.059,0.527 -1.781,0.527c-0.911,0 -1.632,-0.28 -2.165,-0.84c-0.534,-0.561 -0.8,-1.347 -0.8,-2.359c-0,-1.047 0.269,-1.859 0.808,-2.437c0.539,-0.578 1.239,-0.867 2.098,-0.867c0.832,-0 1.512,0.283 2.039,0.849c0.527,0.567 0.791,1.363 0.791,2.391c0,0.062 -0.002,0.156 -0.006,0.281l-4.64,0c0.039,0.684 0.232,1.207 0.58,1.57c0.347,0.364 0.781,0.545 1.3,0.545c0.387,0 0.717,-0.101 0.991,-0.304c0.273,-0.204 0.49,-0.528 0.65,-0.973Zm-3.463,-1.705l3.475,-0c-0.047,-0.524 -0.18,-0.916 -0.399,-1.178c-0.336,-0.406 -0.771,-0.609 -1.306,-0.609c-0.485,-0 -0.892,0.162 -1.222,0.486c-0.33,0.324 -0.513,0.758 -0.548,1.301Z" style="fill:#092168;fill-rule:nonzero;"/><path d="M71.144,223.56l-1.905,-6.223l1.09,0l0.99,3.592l0.369,1.336c0.016,-0.066 0.124,-0.494 0.323,-1.283l0.99,-3.645l1.084,0l0.932,3.61l0.31,1.189l0.358,-1.201l1.066,-3.598l1.025,0l-1.945,6.223l-1.096,-0l-0.99,-3.727l-0.24,-1.06l-1.26,4.787l-1.101,-0Z" style="fill:#092168;fill-rule:nonzero;"/><path d="M81.784,219.376c0,-1.426 0.383,-2.542 1.149,-3.348c0.765,-0.807 1.754,-1.21 2.964,-1.21c0.793,-0 1.508,0.189 2.145,0.568c0.637,0.379 1.122,0.907 1.456,1.585c0.334,0.678 0.501,1.446 0.501,2.306c0,0.871 -0.176,1.65 -0.527,2.338c-0.352,0.687 -0.85,1.208 -1.494,1.561c-0.645,0.354 -1.34,0.53 -2.086,0.53c-0.809,0 -1.532,-0.195 -2.168,-0.586c-0.637,-0.39 -1.12,-0.923 -1.448,-1.599c-0.328,-0.676 -0.492,-1.391 -0.492,-2.145Zm1.172,0.018c0,1.035 0.278,1.85 0.835,2.446c0.557,0.596 1.255,0.894 2.095,0.894c0.855,-0 1.559,-0.301 2.112,-0.903c0.553,-0.601 0.829,-1.455 0.829,-2.56c0,-0.699 -0.118,-1.31 -0.354,-1.831c-0.237,-0.522 -0.582,-0.926 -1.037,-1.213c-0.456,-0.287 -0.966,-0.431 -1.533,-0.431c-0.804,0 -1.497,0.277 -2.077,0.829c-0.58,0.553 -0.87,1.476 -0.87,2.769Z" style="fill:#092168;fill-rule:nonzero;"/><path d="M91.317,223.56l0,-6.223l0.95,0l-0,0.944c0.242,-0.442 0.465,-0.733 0.67,-0.873c0.206,-0.141 0.431,-0.211 0.677,-0.211c0.356,-0 0.717,0.113 1.084,0.339l-0.363,0.979c-0.258,-0.152 -0.516,-0.229 -0.773,-0.229c-0.231,0 -0.438,0.07 -0.622,0.208c-0.183,0.139 -0.314,0.331 -0.392,0.578c-0.117,0.375 -0.176,0.785 -0.176,1.23l0,3.258l-1.055,-0Z" style="fill:#092168;fill-rule:nonzero;"/><path d="M99.362,223.56l0,-0.785c-0.394,0.617 -0.974,0.925 -1.74,0.925c-0.496,0 -0.952,-0.136 -1.368,-0.41c-0.416,-0.273 -0.738,-0.655 -0.967,-1.145c-0.228,-0.49 -0.343,-1.054 -0.343,-1.691c0,-0.621 0.104,-1.184 0.311,-1.69c0.207,-0.506 0.517,-0.894 0.932,-1.163c0.414,-0.27 0.876,-0.404 1.388,-0.404c0.375,-0 0.709,0.079 1.002,0.237c0.293,0.158 0.531,0.364 0.715,0.618l-0,-3.082l1.049,0l-0,8.59l-0.979,-0Zm-3.334,-3.106c0,0.797 0.168,1.393 0.504,1.787c0.336,0.395 0.733,0.592 1.19,0.592c0.461,0 0.852,-0.188 1.174,-0.565c0.323,-0.377 0.484,-0.952 0.484,-1.726c-0,-0.851 -0.164,-1.476 -0.492,-1.875c-0.328,-0.398 -0.733,-0.597 -1.213,-0.597c-0.469,-0 -0.861,0.191 -1.175,0.574c-0.314,0.383 -0.472,0.986 -0.472,1.81Z" style="fill:#092168;fill-rule:nonzero;"/><path d="M106.259,221.556l1.09,0.135c-0.172,0.636 -0.491,1.131 -0.955,1.482c-0.465,0.352 -1.059,0.527 -1.782,0.527c-0.91,0 -1.632,-0.28 -2.165,-0.84c-0.533,-0.561 -0.8,-1.347 -0.8,-2.359c0,-1.047 0.27,-1.859 0.809,-2.437c0.539,-0.578 1.238,-0.867 2.098,-0.867c0.832,-0 1.511,0.283 2.039,0.849c0.527,0.567 0.791,1.363 0.791,2.391c-0,0.062 -0.002,0.156 -0.006,0.281l-4.641,0c0.039,0.684 0.233,1.207 0.58,1.57c0.348,0.364 0.782,0.545 1.301,0.545c0.387,0 0.717,-0.101 0.99,-0.304c0.274,-0.204 0.491,-0.528 0.651,-0.973Zm-3.463,-1.705l3.475,-0c-0.047,-0.524 -0.18,-0.916 -0.399,-1.178c-0.336,-0.406 -0.771,-0.609 -1.307,-0.609c-0.484,-0 -0.891,0.162 -1.221,0.486c-0.33,0.324 -0.513,0.758 -0.548,1.301Z" style="fill:#092168;fill-rule:nonzero;"/><path d="M108.661,223.56l0,-6.223l0.949,0l0,0.944c0.243,-0.442 0.466,-0.733 0.671,-0.873c0.205,-0.141 0.431,-0.211 0.677,-0.211c0.355,-0 0.717,0.113 1.084,0.339l-0.363,0.979c-0.258,-0.152 -0.516,-0.229 -0.774,-0.229c-0.23,0 -0.437,0.07 -0.621,0.208c-0.183,0.139 -0.314,0.331 -0.392,0.578c-0.118,0.375 -0.176,0.785 -0.176,1.23l-0,3.258l-1.055,-0Z" style="fill:#092168;fill-rule:nonzero;"/><path d="M112.247,221.702l1.043,-0.164c0.059,0.418 0.222,0.739 0.489,0.961c0.268,0.223 0.642,0.334 1.122,0.334c0.485,0 0.844,-0.098 1.078,-0.296c0.235,-0.197 0.352,-0.428 0.352,-0.694c0,-0.238 -0.103,-0.426 -0.31,-0.562c-0.145,-0.094 -0.504,-0.213 -1.079,-0.358c-0.773,-0.195 -1.309,-0.364 -1.608,-0.507c-0.299,-0.142 -0.525,-0.34 -0.68,-0.591c-0.154,-0.252 -0.231,-0.531 -0.231,-0.835c-0,-0.278 0.063,-0.535 0.19,-0.771c0.127,-0.236 0.3,-0.433 0.519,-0.589c0.164,-0.121 0.388,-0.223 0.671,-0.307c0.283,-0.084 0.587,-0.126 0.911,-0.126c0.488,-0 0.917,0.07 1.286,0.211c0.369,0.14 0.642,0.331 0.817,0.571c0.176,0.24 0.297,0.561 0.364,0.964l-1.032,0.14c-0.046,-0.32 -0.182,-0.57 -0.407,-0.75c-0.224,-0.179 -0.542,-0.269 -0.952,-0.269c-0.484,-0 -0.83,0.08 -1.037,0.24c-0.207,0.16 -0.311,0.348 -0.311,0.562c0,0.137 0.043,0.26 0.129,0.37c0.086,0.113 0.221,0.207 0.405,0.281c0.105,0.039 0.416,0.129 0.931,0.269c0.746,0.2 1.267,0.363 1.562,0.49c0.295,0.127 0.526,0.311 0.694,0.553c0.168,0.243 0.252,0.543 0.252,0.903c0,0.351 -0.103,0.682 -0.308,0.993c-0.205,0.31 -0.501,0.551 -0.887,0.721c-0.387,0.17 -0.824,0.254 -1.313,0.254c-0.808,0 -1.425,-0.167 -1.848,-0.503c-0.424,-0.336 -0.695,-0.834 -0.812,-1.495Z" style="fill:#092168;fill-rule:nonzero;"/></g><g><path d="M177.058,259.011l0,-8.59l1.166,0l4.512,6.744l0,-6.744l1.09,0l0,8.59l-1.166,-0l-4.512,-6.75l0,6.75l-1.09,-0Z" style="fill:#092168;fill-rule:nonzero;"/><path d="M189.861,257.007l1.09,0.135c-0.172,0.637 -0.49,1.131 -0.955,1.482c-0.465,0.352 -1.059,0.528 -1.781,0.528c-0.91,-0 -1.632,-0.281 -2.165,-0.841c-0.534,-0.561 -0.8,-1.347 -0.8,-2.359c-0,-1.047 0.269,-1.859 0.808,-2.437c0.54,-0.578 1.239,-0.867 2.098,-0.867c0.832,-0 1.512,0.283 2.039,0.849c0.528,0.567 0.791,1.364 0.791,2.391c0,0.062 -0.002,0.156 -0.006,0.281l-4.64,0c0.039,0.684 0.232,1.207 0.58,1.57c0.347,0.364 0.781,0.545 1.301,0.545c0.386,0 0.716,-0.101 0.99,-0.304c0.273,-0.203 0.49,-0.528 0.65,-0.973Zm-3.463,-1.705l3.475,-0c-0.047,-0.523 -0.18,-0.916 -0.399,-1.178c-0.335,-0.406 -0.771,-0.609 -1.306,-0.609c-0.485,-0 -0.892,0.162 -1.222,0.486c-0.33,0.324 -0.513,0.758 -0.548,1.301Z" style="fill:#092168;fill-rule:nonzero;"/><path d="M193.424,259.011l-1.905,-6.223l1.09,0l0.99,3.592l0.37,1.336c0.015,-0.066 0.123,-0.494 0.322,-1.283l0.99,-3.645l1.084,0l0.932,3.61l0.31,1.189l0.358,-1.201l1.066,-3.598l1.026,0l-1.946,6.223l-1.096,-0l-0.99,-3.727l-0.24,-1.06l-1.26,4.787l-1.101,-0Z" style="fill:#092168;fill-rule:nonzero;"/><path d="M204.428,259.011l-0,-8.59l3.808,0c0.766,0 1.348,0.077 1.746,0.232c0.399,0.154 0.717,0.426 0.955,0.817c0.239,0.391 0.358,0.822 0.358,1.295c-0,0.609 -0.197,1.123 -0.592,1.541c-0.395,0.418 -1.004,0.683 -1.828,0.797c0.301,0.144 0.529,0.287 0.685,0.427c0.332,0.305 0.647,0.686 0.944,1.143l1.494,2.338l-1.43,-0l-1.136,-1.787c-0.333,-0.516 -0.606,-0.91 -0.821,-1.184c-0.215,-0.273 -0.407,-0.465 -0.577,-0.574c-0.17,-0.109 -0.343,-0.186 -0.519,-0.229c-0.128,-0.027 -0.339,-0.041 -0.632,-0.041l-1.319,0l0,3.815l-1.136,-0Zm1.136,-4.799l2.444,0c0.519,0 0.925,-0.054 1.218,-0.161c0.293,-0.107 0.516,-0.279 0.668,-0.516c0.153,-0.236 0.229,-0.493 0.229,-0.77c-0,-0.406 -0.148,-0.74 -0.442,-1.002c-0.295,-0.262 -0.761,-0.393 -1.398,-0.393l-2.719,0l0,2.842Z" style="fill:#092168;fill-rule:nonzero;"/><path d="M212.549,255.9c-0,-1.153 0.32,-2.006 0.961,-2.561c0.535,-0.461 1.187,-0.691 1.957,-0.691c0.855,-0 1.554,0.28 2.097,0.84c0.543,0.561 0.815,1.335 0.815,2.324c-0,0.8 -0.12,1.43 -0.361,1.889c-0.24,0.459 -0.589,0.816 -1.048,1.07c-0.459,0.254 -0.96,0.381 -1.503,0.381c-0.871,-0 -1.576,-0.28 -2.113,-0.838c-0.537,-0.559 -0.805,-1.364 -0.805,-2.414Zm1.084,-0c-0,0.796 0.174,1.393 0.521,1.79c0.348,0.396 0.785,0.594 1.313,0.594c0.523,0 0.959,-0.199 1.306,-0.597c0.348,-0.399 0.522,-1.006 0.522,-1.823c-0,-0.769 -0.175,-1.352 -0.525,-1.749c-0.349,-0.396 -0.784,-0.594 -1.303,-0.594c-0.528,-0 -0.965,0.197 -1.313,0.591c-0.347,0.395 -0.521,0.991 -0.521,1.788Z" style="fill:#092168;fill-rule:nonzero;"/><path d="M223.693,259.011l0,-0.914c-0.484,0.703 -1.142,1.055 -1.974,1.055c-0.368,-0 -0.71,-0.071 -1.029,-0.211c-0.318,-0.141 -0.554,-0.318 -0.709,-0.531c-0.154,-0.213 -0.262,-0.473 -0.325,-0.782c-0.043,-0.207 -0.064,-0.535 -0.064,-0.984l-0,-3.856l1.054,0l0,3.451c0,0.551 0.022,0.922 0.065,1.114c0.066,0.277 0.207,0.495 0.422,0.653c0.215,0.158 0.48,0.237 0.797,0.237c0.316,0 0.613,-0.081 0.89,-0.243c0.278,-0.162 0.474,-0.383 0.589,-0.662c0.115,-0.279 0.173,-0.684 0.173,-1.216l-0,-3.334l1.055,0l-0,6.223l-0.944,-0Z" style="fill:#092168;fill-rule:nonzero;"/><path d="M228.592,258.068l0.152,0.931c-0.297,0.063 -0.562,0.094 -0.797,0.094c-0.383,-0 -0.68,-0.061 -0.89,-0.182c-0.211,-0.121 -0.36,-0.28 -0.446,-0.477c-0.086,-0.197 -0.129,-0.613 -0.129,-1.245l0,-3.58l-0.773,-0l-0,-0.821l0.773,0l0,-1.541l1.049,-0.633l0,2.174l1.061,0l-0,0.821l-1.061,-0l0,3.638c0,0.301 0.019,0.494 0.056,0.58c0.037,0.086 0.097,0.155 0.181,0.205c0.084,0.051 0.205,0.077 0.361,0.077c0.117,-0 0.271,-0.014 0.463,-0.041Z" style="fill:#092168;fill-rule:nonzero;"/><path d="M229.629,251.634l-0,-1.213l1.054,0l0,1.213l-1.054,-0Zm-0,7.377l-0,-6.223l1.054,0l0,6.223l-1.054,-0Z" style="fill:#092168;fill-rule:nonzero;"/><path d="M232.289,259.011l-0,-6.223l0.949,0l0,0.885c0.457,-0.684 1.117,-1.025 1.981,-1.025c0.375,-0 0.719,0.067 1.034,0.202c0.314,0.135 0.55,0.311 0.706,0.53c0.156,0.219 0.265,0.479 0.328,0.779c0.039,0.196 0.059,0.537 0.059,1.026l-0,3.826l-1.055,-0l-0,-3.785c-0,-0.43 -0.041,-0.751 -0.123,-0.964c-0.082,-0.213 -0.228,-0.383 -0.437,-0.51c-0.209,-0.127 -0.454,-0.19 -0.735,-0.19c-0.449,-0 -0.837,0.142 -1.163,0.427c-0.326,0.286 -0.489,0.827 -0.489,1.623l-0,3.399l-1.055,-0Z" style="fill:#092168;fill-rule:nonzero;"/><path d="M238.769,259.527l1.026,0.152c0.043,0.316 0.162,0.547 0.357,0.691c0.262,0.196 0.619,0.293 1.072,0.293c0.489,0 0.866,-0.097 1.131,-0.293c0.266,-0.195 0.446,-0.468 0.539,-0.82c0.055,-0.215 0.08,-0.666 0.077,-1.354c-0.461,0.543 -1.036,0.815 -1.723,0.815c-0.856,-0 -1.518,-0.309 -1.986,-0.926c-0.469,-0.617 -0.704,-1.357 -0.704,-2.221c0,-0.593 0.108,-1.141 0.323,-1.643c0.215,-0.502 0.526,-0.89 0.934,-1.163c0.408,-0.274 0.888,-0.41 1.439,-0.41c0.734,-0 1.34,0.297 1.816,0.89l0,-0.75l0.973,0l-0,5.379c-0,0.969 -0.099,1.655 -0.296,2.06c-0.197,0.404 -0.51,0.723 -0.938,0.958c-0.427,0.234 -0.954,0.351 -1.579,0.351c-0.742,0 -1.341,-0.167 -1.798,-0.501c-0.458,-0.334 -0.678,-0.837 -0.663,-1.508Zm0.873,-3.739c0,0.817 0.163,1.412 0.487,1.787c0.324,0.375 0.73,0.563 1.219,0.563c0.484,-0 0.89,-0.187 1.218,-0.56c0.328,-0.373 0.492,-0.958 0.492,-1.755c0,-0.761 -0.168,-1.336 -0.506,-1.722c-0.338,-0.387 -0.745,-0.58 -1.222,-0.58c-0.469,-0 -0.867,0.19 -1.195,0.571c-0.328,0.381 -0.493,0.946 -0.493,1.696Z" style="fill:#092168;fill-rule:nonzero;"/><path d="M245.215,257.154l1.043,-0.165c0.058,0.418 0.221,0.739 0.489,0.961c0.268,0.223 0.642,0.334 1.122,0.334c0.484,0 0.844,-0.098 1.078,-0.296c0.235,-0.197 0.352,-0.428 0.352,-0.694c-0,-0.238 -0.104,-0.426 -0.311,-0.562c-0.144,-0.094 -0.504,-0.213 -1.078,-0.358c-0.773,-0.195 -1.31,-0.364 -1.608,-0.507c-0.299,-0.142 -0.526,-0.339 -0.68,-0.591c-0.154,-0.252 -0.232,-0.531 -0.232,-0.835c0,-0.278 0.064,-0.535 0.191,-0.771c0.127,-0.236 0.3,-0.433 0.518,-0.589c0.165,-0.121 0.388,-0.223 0.671,-0.307c0.284,-0.084 0.587,-0.126 0.912,-0.126c0.488,-0 0.916,0.07 1.286,0.211c0.369,0.14 0.641,0.331 0.817,0.571c0.176,0.24 0.297,0.561 0.363,0.964l-1.031,0.14c-0.047,-0.32 -0.183,-0.57 -0.407,-0.75c-0.225,-0.179 -0.542,-0.269 -0.952,-0.269c-0.485,-0 -0.83,0.08 -1.037,0.24c-0.207,0.16 -0.311,0.348 -0.311,0.563c0,0.136 0.043,0.259 0.129,0.369c0.086,0.113 0.221,0.207 0.404,0.281c0.106,0.039 0.416,0.129 0.932,0.269c0.746,0.2 1.266,0.363 1.561,0.49c0.295,0.127 0.527,0.311 0.695,0.553c0.168,0.243 0.252,0.543 0.252,0.903c-0,0.351 -0.103,0.682 -0.308,0.993c-0.205,0.311 -0.501,0.551 -0.888,0.721c-0.386,0.17 -0.824,0.255 -1.312,0.255c-0.809,-0 -1.425,-0.168 -1.849,-0.504c-0.424,-0.336 -0.694,-0.834 -0.811,-1.494Z" style="fill:#092168;fill-rule:nonzero;"/></g><g><path d="M62.444,292.979l3.299,-8.59l1.224,0l3.516,8.59l-1.295,0l-1.002,-2.601l-3.592,-0l-0.943,2.601l-1.207,0Zm2.479,-3.527l2.912,-0l-0.897,-2.379c-0.273,-0.723 -0.476,-1.316 -0.609,-1.781c-0.11,0.55 -0.264,1.097 -0.463,1.64l-0.943,2.52Z" style="fill:#e84249;fill-rule:nonzero;"/><path d="M75.294,292.979l-0,-0.785c-0.395,0.617 -0.975,0.926 -1.741,0.926c-0.496,-0 -0.952,-0.137 -1.368,-0.41c-0.416,-0.274 -0.738,-0.656 -0.967,-1.146c-0.228,-0.49 -0.342,-1.054 -0.342,-1.69c-0,-0.621 0.103,-1.185 0.31,-1.691c0.207,-0.506 0.518,-0.893 0.932,-1.163c0.414,-0.269 0.877,-0.404 1.388,-0.404c0.375,-0 0.709,0.079 1.002,0.237c0.293,0.158 0.532,0.364 0.715,0.618l0,-3.082l1.049,0l0,8.59l-0.978,0Zm-3.334,-3.105c-0,0.797 0.168,1.392 0.504,1.787c0.335,0.394 0.732,0.592 1.189,0.592c0.461,-0 0.853,-0.189 1.175,-0.566c0.322,-0.377 0.483,-0.952 0.483,-1.725c0,-0.852 -0.164,-1.477 -0.492,-1.875c-0.328,-0.399 -0.732,-0.598 -1.213,-0.598c-0.469,-0 -0.86,0.191 -1.175,0.574c-0.314,0.383 -0.471,0.986 -0.471,1.811Z" style="fill:#e84249;fill-rule:nonzero;"/><path d="M77.936,285.602l0,-1.213l1.055,0l-0,1.213l-1.055,0Zm0,7.377l0,-6.222l1.055,-0l-0,6.222l-1.055,0Z" style="fill:#e84249;fill-rule:nonzero;"/><path d="M82.899,292.036l0.152,0.931c-0.296,0.063 -0.562,0.094 -0.796,0.094c-0.383,0 -0.68,-0.06 -0.891,-0.181c-0.211,-0.122 -0.359,-0.281 -0.445,-0.478c-0.086,-0.197 -0.129,-0.612 -0.129,-1.245l-0,-3.58l-0.774,-0l0,-0.82l0.774,-0l-0,-1.542l1.049,-0.632l-0,2.174l1.06,-0l0,0.82l-1.06,-0l-0,3.638c-0,0.301 0.018,0.495 0.055,0.581c0.037,0.086 0.098,0.154 0.182,0.205c0.084,0.05 0.204,0.076 0.36,0.076c0.117,-0 0.272,-0.014 0.463,-0.041Z" style="fill:#e84249;fill-rule:nonzero;"/><path d="M83.936,285.602l0,-1.213l1.055,0l-0,1.213l-1.055,0Zm0,7.377l0,-6.222l1.055,-0l-0,6.222l-1.055,0Z" style="fill:#e84249;fill-rule:nonzero;"/><path d="M86.204,289.868c-0,-1.153 0.32,-2.006 0.961,-2.561c0.535,-0.461 1.187,-0.691 1.957,-0.691c0.855,-0 1.554,0.28 2.097,0.841c0.543,0.56 0.815,1.335 0.815,2.323c-0,0.801 -0.12,1.431 -0.361,1.89c-0.24,0.459 -0.589,0.815 -1.048,1.069c-0.459,0.254 -0.96,0.381 -1.503,0.381c-0.871,-0 -1.575,-0.28 -2.113,-0.838c-0.537,-0.559 -0.805,-1.363 -0.805,-2.414Zm1.084,-0c-0,0.797 0.174,1.393 0.521,1.79c0.348,0.396 0.785,0.595 1.313,0.595c0.523,-0 0.959,-0.2 1.306,-0.598c0.348,-0.398 0.522,-1.006 0.522,-1.822c-0,-0.77 -0.175,-1.353 -0.525,-1.749c-0.349,-0.397 -0.784,-0.595 -1.303,-0.595c-0.528,-0 -0.965,0.197 -1.313,0.592c-0.347,0.394 -0.521,0.99 -0.521,1.787Z" style="fill:#e84249;fill-rule:nonzero;"/><path d="M93.27,292.979l0,-6.222l0.949,-0l0,0.884c0.457,-0.683 1.118,-1.025 1.981,-1.025c0.375,-0 0.72,0.067 1.034,0.202c0.314,0.135 0.55,0.312 0.706,0.53c0.156,0.219 0.266,0.479 0.328,0.78c0.039,0.195 0.059,0.537 0.059,1.025l-0,3.826l-1.055,0l0,-3.785c0,-0.43 -0.041,-0.751 -0.123,-0.964c-0.082,-0.213 -0.227,-0.383 -0.436,-0.51c-0.209,-0.127 -0.455,-0.19 -0.736,-0.19c-0.449,-0 -0.837,0.143 -1.163,0.428c-0.326,0.285 -0.489,0.826 -0.489,1.623l-0,3.398l-1.055,0Z" style="fill:#e84249;fill-rule:nonzero;"/><path d="M104.005,292.212c-0.391,0.332 -0.767,0.566 -1.128,0.703c-0.362,0.136 -0.749,0.205 -1.163,0.205c-0.684,-0 -1.209,-0.167 -1.577,-0.501c-0.367,-0.334 -0.55,-0.761 -0.55,-1.28c-0,-0.305 0.069,-0.583 0.208,-0.835c0.138,-0.252 0.32,-0.455 0.544,-0.607c0.225,-0.152 0.478,-0.267 0.759,-0.346c0.207,-0.054 0.52,-0.107 0.938,-0.158c0.851,-0.101 1.478,-0.222 1.881,-0.363c0.004,-0.145 0.006,-0.236 0.006,-0.275c-0,-0.43 -0.1,-0.733 -0.299,-0.909c-0.27,-0.238 -0.67,-0.357 -1.201,-0.357c-0.497,-0 -0.863,0.087 -1.099,0.261c-0.236,0.174 -0.411,0.481 -0.525,0.923l-1.031,-0.141c0.094,-0.442 0.248,-0.798 0.463,-1.069c0.215,-0.272 0.525,-0.481 0.932,-0.627c0.406,-0.147 0.877,-0.22 1.412,-0.22c0.531,-0 0.963,0.062 1.295,0.187c0.332,0.125 0.576,0.283 0.732,0.472c0.156,0.19 0.266,0.429 0.328,0.718c0.035,0.18 0.053,0.504 0.053,0.972l0,1.407c0,0.98 0.023,1.6 0.067,1.86c0.045,0.26 0.134,0.509 0.267,0.747l-1.102,0c-0.109,-0.219 -0.179,-0.474 -0.21,-0.767Zm-0.088,-2.356c-0.383,0.156 -0.957,0.289 -1.723,0.399c-0.434,0.062 -0.74,0.132 -0.92,0.21c-0.18,0.079 -0.318,0.193 -0.416,0.343c-0.098,0.151 -0.146,0.318 -0.146,0.501c-0,0.281 0.106,0.516 0.319,0.703c0.213,0.188 0.524,0.282 0.934,0.282c0.407,-0 0.768,-0.089 1.084,-0.267c0.317,-0.178 0.549,-0.421 0.698,-0.729c0.113,-0.239 0.17,-0.59 0.17,-1.055l-0,-0.387Z" style="fill:#e84249;fill-rule:nonzero;"/><rect x="106.594" y="284.389" width="1.055" height="8.59" style="fill:#e84249;fill-rule:nonzero;"/><path d="M62.403,305.372l-0,-8.59l3.809,-0c0.765,-0 1.347,0.077 1.746,0.231c0.398,0.155 0.716,0.427 0.955,0.818c0.238,0.39 0.357,0.822 0.357,1.295c0,0.609 -0.197,1.123 -0.592,1.541c-0.394,0.418 -1.004,0.683 -1.828,0.797c0.301,0.144 0.53,0.287 0.686,0.427c0.332,0.305 0.646,0.686 0.943,1.143l1.494,2.338l-1.429,-0l-1.137,-1.787c-0.332,-0.516 -0.606,-0.911 -0.82,-1.184c-0.215,-0.273 -0.408,-0.465 -0.578,-0.574c-0.17,-0.11 -0.342,-0.186 -0.518,-0.229c-0.129,-0.027 -0.34,-0.041 -0.633,-0.041l-1.318,0l-0,3.815l-1.137,-0Zm1.137,-4.799l2.443,-0c0.52,-0 0.926,-0.054 1.219,-0.161c0.293,-0.108 0.515,-0.28 0.668,-0.516c0.152,-0.236 0.228,-0.493 0.228,-0.77c0,-0.407 -0.147,-0.741 -0.442,-1.002c-0.295,-0.262 -0.761,-0.393 -1.398,-0.393l-2.718,0l-0,2.842Z" style="fill:#e84249;fill-rule:nonzero;"/><path d="M75.176,303.368l1.09,0.135c-0.172,0.636 -0.49,1.13 -0.955,1.482c-0.465,0.352 -1.058,0.527 -1.781,0.527c-0.91,0 -1.632,-0.28 -2.165,-0.84c-0.533,-0.561 -0.8,-1.347 -0.8,-2.359c0,-1.047 0.27,-1.859 0.809,-2.437c0.539,-0.578 1.238,-0.868 2.097,-0.868c0.832,0 1.512,0.284 2.039,0.85c0.528,0.566 0.791,1.363 0.791,2.391c0,0.062 -0.002,0.156 -0.005,0.281l-4.641,-0c0.039,0.684 0.232,1.207 0.58,1.57c0.348,0.364 0.781,0.545 1.301,0.545c0.387,0 0.717,-0.101 0.99,-0.305c0.273,-0.203 0.49,-0.527 0.65,-0.972Zm-3.462,-1.705l3.474,-0c-0.047,-0.524 -0.18,-0.916 -0.398,-1.178c-0.336,-0.406 -0.772,-0.609 -1.307,-0.609c-0.484,-0 -0.892,0.162 -1.222,0.486c-0.33,0.324 -0.512,0.758 -0.547,1.301Z" style="fill:#e84249;fill-rule:nonzero;"/><path d="M79.319,305.372l-2.367,-6.223l1.113,0l1.336,3.727c0.145,0.402 0.277,0.82 0.398,1.254c0.094,-0.329 0.225,-0.723 0.393,-1.184l1.383,-3.797l1.084,0l-2.356,6.223l-0.984,-0Z" style="fill:#e84249;fill-rule:nonzero;"/><path d="M87.85,303.368l1.09,0.135c-0.172,0.636 -0.49,1.13 -0.955,1.482c-0.465,0.352 -1.059,0.527 -1.781,0.527c-0.91,0 -1.632,-0.28 -2.165,-0.84c-0.533,-0.561 -0.8,-1.347 -0.8,-2.359c-0,-1.047 0.269,-1.859 0.809,-2.437c0.539,-0.578 1.238,-0.868 2.097,-0.868c0.832,0 1.512,0.284 2.039,0.85c0.528,0.566 0.791,1.363 0.791,2.391c0,0.062 -0.002,0.156 -0.006,0.281l-4.64,-0c0.039,0.684 0.232,1.207 0.58,1.57c0.347,0.364 0.781,0.545 1.301,0.545c0.386,0 0.716,-0.101 0.99,-0.305c0.273,-0.203 0.49,-0.527 0.65,-0.972Zm-3.463,-1.705l3.475,-0c-0.047,-0.524 -0.18,-0.916 -0.398,-1.178c-0.336,-0.406 -0.772,-0.609 -1.307,-0.609c-0.484,-0 -0.892,0.162 -1.222,0.486c-0.33,0.324 -0.512,0.758 -0.548,1.301Z" style="fill:#e84249;fill-rule:nonzero;"/><path d="M90.264,305.372l0,-6.223l0.95,0l-0,0.885c0.457,-0.684 1.117,-1.026 1.98,-1.026c0.375,0 0.72,0.068 1.034,0.203c0.315,0.134 0.55,0.311 0.706,0.53c0.156,0.219 0.266,0.478 0.328,0.779c0.039,0.195 0.059,0.537 0.059,1.026l-0,3.826l-1.055,-0l0,-3.785c0,-0.43 -0.041,-0.751 -0.123,-0.964c-0.082,-0.213 -0.227,-0.383 -0.436,-0.51c-0.209,-0.127 -0.454,-0.19 -0.736,-0.19c-0.449,-0 -0.837,0.142 -1.163,0.427c-0.326,0.285 -0.489,0.826 -0.489,1.623l-0,3.399l-1.055,-0Z" style="fill:#e84249;fill-rule:nonzero;"/><path d="M101.016,305.372l0,-0.914c-0.484,0.703 -1.142,1.054 -1.974,1.054c-0.368,0 -0.71,-0.07 -1.029,-0.211c-0.318,-0.14 -0.554,-0.317 -0.709,-0.53c-0.154,-0.213 -0.262,-0.473 -0.325,-0.782c-0.043,-0.207 -0.064,-0.535 -0.064,-0.984l-0,-3.856l1.054,0l0,3.451c0,0.551 0.022,0.922 0.065,1.114c0.066,0.277 0.207,0.495 0.422,0.653c0.215,0.158 0.48,0.237 0.797,0.237c0.316,0 0.613,-0.081 0.89,-0.243c0.278,-0.162 0.474,-0.383 0.589,-0.662c0.115,-0.279 0.173,-0.685 0.173,-1.216l-0,-3.334l1.055,0l-0,6.223l-0.944,-0Z" style="fill:#e84249;fill-rule:nonzero;"/><path d="M107.872,303.368l1.09,0.135c-0.172,0.636 -0.491,1.13 -0.956,1.482c-0.464,0.352 -1.058,0.527 -1.781,0.527c-0.91,0 -1.632,-0.28 -2.165,-0.84c-0.533,-0.561 -0.8,-1.347 -0.8,-2.359c0,-1.047 0.27,-1.859 0.809,-2.437c0.539,-0.578 1.238,-0.868 2.098,-0.868c0.832,0 1.511,0.284 2.039,0.85c0.527,0.566 0.791,1.363 0.791,2.391c-0,0.062 -0.002,0.156 -0.006,0.281l-4.641,-0c0.039,0.684 0.233,1.207 0.58,1.57c0.348,0.364 0.782,0.545 1.301,0.545c0.387,0 0.717,-0.101 0.99,-0.305c0.274,-0.203 0.491,-0.527 0.651,-0.972Zm-3.463,-1.705l3.474,-0c-0.046,-0.524 -0.179,-0.916 -0.398,-1.178c-0.336,-0.406 -0.771,-0.609 -1.307,-0.609c-0.484,-0 -0.891,0.162 -1.221,0.486c-0.33,0.324 -0.513,0.758 -0.548,1.301Z" style="fill:#e84249;fill-rule:nonzero;"/></g><path d="M148.096,58.237l-0,-24.591c14.248,-0 25.798,11.01 25.798,24.591c0,13.58 -11.55,24.59 -25.798,24.59c-9.217,0 -26.921,-7.512 -25.603,-24.725l25.603,0.135Z" style="fill:#e3dacb;fill-opacity:0.52;"/><path d="M167.162,40.062c-4.88,-4.651 -11.62,-7.528 -19.066,-7.528c-7.446,-0 -14.187,2.877 -19.066,7.528c-4.879,4.651 -7.897,11.077 -7.897,18.175c-0,7.097 3.018,13.523 7.897,18.174c4.879,4.651 11.62,7.528 19.066,7.528c7.446,0 14.186,-2.877 19.066,-7.528c4.879,-4.651 7.897,-11.077 7.897,-18.174c0,-7.098 -3.018,-13.524 -7.897,-18.175Zm-19.066,-12.005c8.742,-0 16.657,3.378 22.386,8.839c5.73,5.462 9.274,13.007 9.274,21.341c0,8.333 -3.544,15.878 -9.274,21.34c-5.729,5.462 -13.644,8.84 -22.386,8.84c-8.743,-0 -16.657,-3.378 -22.387,-8.84c-5.729,-5.462 -9.273,-13.007 -9.273,-21.34c-0,-8.334 3.544,-15.879 9.273,-21.341c5.73,-5.461 13.644,-8.839 22.387,-8.839Z" style="fill:#e84249;"/><path d="M150.796,24.567l0,3.926l-5.401,0l-0,-3.926l-2.299,0c-0.768,0 -1.397,-0.599 -1.397,-1.331l0,-2.298c0,-0.732 0.629,-1.331 1.397,-1.331l10,-0c0.768,-0 1.396,0.599 1.396,1.331l-0,2.298c-0,0.732 -0.629,1.331 -1.396,1.331l-2.3,0Z" style="fill:#e84249;"/><path d="M174.108,29.466l4.838,4.612c0.372,0.354 0.372,0.934 -0,1.288l-1.166,1.112c-0.372,0.354 -0.98,0.354 -1.352,-0l-4.838,-4.612c-0.371,-0.354 -0.371,-0.934 0,-1.288l1.166,-1.112c0.372,-0.354 0.981,-0.354 1.352,-0Z" style="fill:#e84249;"/><path d="M173.894,32.751l1.766,1.683c0.135,0.129 0.135,0.34 -0,0.47l-4.508,4.296c-0.136,0.129 -0.357,0.13 -0.492,0l-1.766,-1.682c-0.135,-0.129 -0.135,-0.341 0,-0.47l4.508,-4.297c0.135,-0.129 0.357,-0.129 0.492,0Z" style="fill:#e84249;"/><path d="M135.467,36.792l1.781,2.942l-0.541,0.299l-1.781,-2.943l0.541,-0.298Zm-9.558,8.893l3.088,1.699l-0.314,0.515l-3.087,-1.699l0.313,-0.515Zm-3.612,12.257l3.565,-0l-0,0.594l-3.565,0l-0,-0.594Zm3.3,12.336l3.086,-1.699l0.314,0.515l-3.088,1.699l-0.312,-0.515Zm9.329,9.11l1.783,-2.943l0.541,0.298l-1.783,2.943l-0.541,-0.298Zm12.858,3.444l0,-3.398l0.624,-0l-0,3.398l-0.624,-0Zm12.94,-3.146l-1.781,-2.943l0.539,-0.298l1.783,2.943l-0.541,0.298Zm9.558,-8.893l-3.088,-1.699l0.314,-0.516l3.087,1.7l-0.313,0.515Zm3.612,-12.257l-3.564,0l-0,-0.594l3.564,-0.001l0,0.595Zm-3.299,-12.336l-3.087,1.699l-0.314,-0.515l3.088,-1.699l0.313,0.515Zm-9.331,-9.11l-1.782,2.943l-0.541,-0.299l1.783,-2.943l0.54,0.299Zm-12.855,-3.444l0,3.398l-0.626,0l0,-3.398l0.626,-0Z" style="fill:#030404;"/><path d="M146.076,58.237c-0,1.063 0.905,1.925 2.02,1.925c1.116,0 2.02,-0.862 2.02,-1.925c0,-1.064 -0.904,-1.926 -2.02,-1.926c-1.115,-0 -2.02,0.862 -2.02,1.926Z" style="fill:#696275;"/><path d="M148.096,39.826l1.984,18.411l-3.968,-0l1.984,-18.411Z" style="fill:#696275;"/><path id="Path_241" d="M165.319,137.901c1.112,-0.117 8.909,-5.01 8.916,-5.966c0.006,-0.957 -7.794,-5.705 -8.736,-5.445c-0.431,0.117 -0.653,2.481 -0.699,5.022c-0.012,0.648 -0.027,1.315 -0.027,1.315c0.028,2.628 0.211,5.109 0.546,5.074Z" style="fill:#092168;fill-rule:nonzero;stroke:#092168;stroke-width:1px;stroke-linecap:butt;stroke-miterlimit:2;"/><path id="Path_2411" serif:id="Path_241" d="M171.442,227.851c1.093,-0.233 8.34,-5.909 8.247,-6.861c-0.092,-0.952 -8.344,-4.864 -9.254,-4.508c-0.416,0.161 -0.392,2.536 -0.174,5.068c0.056,0.645 0.11,1.311 0.11,1.311c0.301,2.61 0.741,5.059 1.071,4.99Z" style="fill:#092168;fill-rule:nonzero;stroke:#092168;stroke-width:1px;stroke-linecap:butt;stroke-miterlimit:2;"/><path id="Path_2412" serif:id="Path_241" d="M127.16,167.322c-1.114,0.085 -9.031,4.746 -9.062,5.702c-0.032,0.956 7.646,5.932 8.594,5.7c0.434,-0.104 0.716,-2.461 0.826,-4.999c0.028,-0.648 0.06,-1.314 0.06,-1.314c0.039,-2.628 -0.081,-5.114 -0.418,-5.089Z" style="fill:#092168;fill-rule:nonzero;stroke:#092168;stroke-width:1px;stroke-linecap:butt;stroke-miterlimit:2;"/><path id="Path_2413" serif:id="Path_241" d="M113.901,249.831c-1.114,0.085 -9.032,4.746 -9.063,5.702c-0.031,0.956 7.646,5.931 8.595,5.699c0.433,-0.103 0.715,-2.46 0.825,-4.999c0.029,-0.648 0.06,-1.314 0.06,-1.314c0.039,-2.628 -0.081,-5.113 -0.417,-5.088Z" style="fill:#092168;fill-rule:nonzero;stroke:#092168;stroke-width:1px;stroke-linecap:butt;stroke-miterlimit:2;"/></g></svg>