<?xml version="1.0" encoding="UTF-8" standalone="no"?><!DOCTYPE svg PUBLIC "-//W3C//DTD SVG 1.1//EN" "http://www.w3.org/Graphics/SVG/1.1/DTD/svg11.dtd"><svg width="100%" height="100%" viewBox="0 0 334 117" version="1.1" xmlns="http://www.w3.org/2000/svg" xmlns:xlink="http://www.w3.org/1999/xlink" xml:space="preserve" xmlns:serif="http://www.serif.com/" style="fill-rule:evenodd;clip-rule:evenodd;stroke-linejoin:round;stroke-miterlimit:2;"><g id="Group_225"><path id="Path_212" d="M101.485,100.889c11.969,0 21.337,-9.194 21.337,-21.858c0,-12.49 -9.02,-21.857 -21.337,-21.857c-11.972,0 -21.338,9.367 -21.338,21.857c0,12.664 9.367,21.858 21.338,21.858m21.333,15.093l0,-5.9c-0.826,0.69 -1.694,1.327 -2.6,1.908c-2.081,1.388 -10.581,4.858 -18.734,4.858c-10.757,0 -19.779,-3.643 -27.064,-10.929c-7.105,-7.106 -11.101,-16.753 -11.101,-26.802c-0,-20.794 17.111,-37.905 37.905,-37.905c0.087,0 0.173,0 0.26,0.001c9.882,-0.128 19.446,3.535 26.714,10.232c7.461,6.765 11.277,16.133 11.277,28.1l0,36.43l-16.657,0.007Z" style="fill:#e84249;fill-rule:nonzero;"/></g><rect id="Rectangle_59" x="147.748" y="0" width="16.654" height="116.23" style="fill:#e84249;"/><rect id="Rectangle_60" x="173.67" y="0" width="16.654" height="116.23" style="fill:#e84249;"/><g id="Group_226"><path id="Path_213" d="M245.912,42.157l16.653,-0l-0,39.9c-0,11.623 -3.123,20.471 -9.367,26.2c-12.48,11.441 -31.842,11.516 -44.41,0.173c-6.073,-5.725 -9.2,-14.572 -9.2,-26.369l-0,-39.9l16.661,-0l-0,39.9c-0,12.49 5.725,18.91 14.747,18.91c9.022,-0 14.919,-6.593 14.919,-18.91l-0.003,-39.904Z" style="fill:#e84249;fill-rule:nonzero;"/><path id="Path_214" d="M317.345,42.157l16.654,-0l0,39.9c0,11.623 -3.124,20.471 -9.367,26.2c-12.48,11.441 -31.842,11.516 -44.41,0.173c-6.073,-5.725 -9.2,-14.572 -9.2,-26.369l-0,-39.9l16.654,-0l-0,39.9c-0,12.49 5.725,18.91 14.747,18.91c9.022,-0 14.918,-6.593 14.918,-18.91l0.004,-39.904Z" style="fill:#e84249;fill-rule:nonzero;"/><path id="Path_215" d="M21.166,107.762l-21.164,-65.574l17.176,-0l14.571,46.664l14.747,-46.664l17,0l-21.165,65.574c-1.907,5.725 -4.508,9.195 -10.581,9.195c-5.03,0 -8.5,-3.123 -10.581,-9.195" style="fill:#e84249;fill-rule:nonzero;"/></g></svg>