<svg id="Group_325" data-name="Group 325" xmlns="http://www.w3.org/2000/svg" width="334" height="116.956" viewBox="0 0 334 116.956">
  <g id="Group_225" data-name="Group 225" transform="translate(63.492 41.214)">
    <path id="Path_212" data-name="Path 212" d="M783.167,563.844c11.969,0,21.337-9.194,21.337-21.858,0-12.49-9.02-21.857-21.337-21.857-11.972,0-21.338,9.367-21.338,21.857,0,12.664,9.367,21.858,21.338,21.858M804.5,578.937v-5.9a25.6,25.6,0,0,1-2.6,1.908c-2.081,1.388-10.581,4.858-18.734,4.858q-16.136,0-27.064-10.929a37.905,37.905,0,0,1,27.064-64.706A38.682,38.682,0,0,1,809.88,514.4c7.461,6.765,11.277,16.133,11.277,28.1v36.43Z" transform="translate(-745.174 -504.169)" fill="#fff"/>
  </g>
  <rect id="Rectangle_59" data-name="Rectangle 59" width="16.654" height="116.23" transform="translate(147.748)" fill="#fff"/>
  <rect id="Rectangle_60" data-name="Rectangle 60" width="16.654" height="116.23" transform="translate(173.67)" fill="#fff"/>
  <g id="Group_226" data-name="Group 226" transform="translate(0 42.157)">
    <path id="Path_213" data-name="Path 213" d="M1073.963,506.126h16.653v39.9c0,11.623-3.123,20.471-9.367,26.2a33,33,0,0,1-44.41.173c-6.073-5.725-9.2-14.572-9.2-26.369v-39.9H1044.3v39.9c0,12.49,5.725,18.91,14.747,18.91s14.919-6.593,14.919-18.91Z" transform="translate(-828.051 -506.126)" fill="#fff"/>
    <path id="Path_214" data-name="Path 214" d="M1222.222,506.126h16.654v39.9c0,11.623-3.124,20.471-9.367,26.2a33,33,0,0,1-44.41.173c-6.073-5.725-9.2-14.572-9.2-26.369v-39.9h16.654v39.9c0,12.49,5.725,18.91,14.747,18.91s14.918-6.593,14.918-18.91Z" transform="translate(-904.877 -506.126)" fill="#fff"/>
    <path id="Path_215" data-name="Path 215" d="M634.564,571.764,613.4,506.19h17.176l14.571,46.664,14.747-46.664h17l-21.165,65.574c-1.907,5.725-4.508,9.195-10.581,9.195-5.03,0-8.5-3.123-10.581-9.195" transform="translate(-613.398 -506.159)" fill="#fff"/>
  </g>
</svg>
